<!--
  Aralia combat icon: goblin enemy.
  Used for goblin and goblinoid tokens in the battle map.
-->
<svg xmlns="http://www.w3.org/2000/svg" viewBox="0 0 64 64" role="img" aria-labelledby="title desc">
  <title id="title">Goblin token</title>
  <desc id="desc">A green goblin head with sharp ears and yellow eyes.</desc>
  <defs>
    <radialGradient id="bg" cx="50%" cy="45%" r="62%">
      <stop offset="0" stop-color="#365314"/>
      <stop offset="1" stop-color="#071008"/>
    </radialGradient>
  </defs>
  <rect width="64" height="64" rx="32" fill="url(#bg)"/>
  <path d="M17 28L4 20l10 20zM47 28l13-8-10 20z" fill="#4d7c0f" stroke="#a3e635" stroke-width="1.5"/>
  <path d="M15 30c2-12 10-18 17-18s15 6 17 18c2 12-6 24-17 24S13 42 15 30z" fill="#65a30d" stroke="#bef264" stroke-width="2"/>
  <path d="M23 30h7M34 30h7" stroke="#fef08a" stroke-width="3" stroke-linecap="round"/>
  <path d="M28 39l4 3 4-3" fill="none" stroke="#1f2937" stroke-width="2" stroke-linecap="round"/>
  <path d="M25 46c5 3 9 3 14 0" stroke="#fca5a5" stroke-width="2" stroke-linecap="round"/>
</svg>
