<!--
  Aralia combat icon: orc enemy.
  Used for orc reaver/brute tokens in the battle map.
-->
<svg xmlns="http://www.w3.org/2000/svg" viewBox="0 0 64 64" role="img" aria-labelledby="title desc">
  <title id="title">Orc token</title>
  <desc id="desc">A heavy green orc head with tusks and a red rim.</desc>
  <defs>
    <radialGradient id="bg" cx="50%" cy="45%" r="62%">
      <stop offset="0" stop-color="#14532d"/>
      <stop offset="1" stop-color="#080f0b"/>
    </radialGradient>
  </defs>
  <rect width="64" height="64" rx="32" fill="url(#bg)"/>
  <path d="M13 31c3-14 11-21 19-21s16 7 19 21c3 13-5 24-19 24S10 44 13 31z" fill="#3f6212" stroke="#ef4444" stroke-width="2"/>
  <path d="M18 23l-8-8 3 14zM46 23l8-8-3 14z" fill="#4d7c0f" stroke="#86efac" stroke-width="1.5"/>
  <path d="M23 30h7M34 30h7" stroke="#facc15" stroke-width="3" stroke-linecap="round"/>
  <path d="M24 43c5 4 11 4 16 0" stroke="#111827" stroke-width="2.5" stroke-linecap="round"/>
  <path d="M25 42l-3 8M39 42l3 8" stroke="#fef3c7" stroke-width="3" stroke-linecap="round"/>
</svg>
