<!--
  Aralia combat icon: fire spell.
  Used for burning attacks and fire-area abilities in the battle-map palette.
-->
<svg xmlns="http://www.w3.org/2000/svg" viewBox="0 0 64 64" role="img" aria-labelledby="title desc">
  <title id="title">Fire spell icon</title>
  <desc id="desc">Layered flame over a dark red tile.</desc>
  <defs>
    <radialGradient id="bg" cx="50%" cy="50%" r="65%">
      <stop offset="0" stop-color="#7f1d1d"/>
      <stop offset="1" stop-color="#170607"/>
    </radialGradient>
  </defs>
  <rect width="64" height="64" rx="10" fill="url(#bg)"/>
  <path d="M34 8c2 12-8 14-2 25 4-8 10-9 13-18 6 9 9 17 8 25-2 12-12 19-22 19S13 53 12 42c-1-10 5-18 13-26-1 10 4 13 9 17-2-9 6-14 0-25z" fill="#f97316"/>
  <path d="M32 29c3 7 10 9 10 17 0 7-5 11-11 11s-10-4-10-10c0-6 4-10 8-15 0 6 4 7 7 10-2-5 1-8-4-13z" fill="#fde68a"/>
  <path d="M21 47c8 4 17 4 26-1" fill="none" stroke="#fb923c" stroke-width="2" stroke-linecap="round" opacity=".75"/>
</svg>
