<svg width="128" height="128" viewBox="0 0 128 128" color="#94A3B8" fill="currentColor" aria-hidden="true" xmlns="http://www.w3.org/2000/svg">
<!--
  ARCHITECTURAL CONTEXT:
  This SVG represents a 'Chain Shirt' (Medium Armor torso piece) in Aralia's item system.
  It is styled as a lightweight, waist-length chainmail shirt with short sleeves and leather collar trim.

  DESIGN CHOICES:
  - Waist-length hem (Y=96) and short sleeve cuffs to contrast clearly with long-sleeved full chain mail.
  - A stylized V-neck collar band.
  - A grid of small circular ring cutouts (negative space) indicating the mail structure.
  - currentColor inheritance is preserved for dynamic palette changes in-game.
-->
<path fill-rule="evenodd" clip-rule="evenodd" d="M 38 12 L 90 12 L 102 26 L 118 42 L 106 58 L 94 46 L 94 96 C 80 100 48 100 34 96 L 34 46 L 22 58 L 10 42 L 26 26 L 38 12 Z M 64 30 C 54 30 46 22 46 12 L 82 12 C 82 22 74 30 64 30 Z M 62 30 L 66 30 L 66 38 L 62 38 Z M 42 42 A 3.5 3.5 0 1 0 42 49 A 3.5 3.5 0 1 0 42 42 Z M 53 42 A 3.5 3.5 0 1 0 53 49 A 3.5 3.5 0 1 0 53 42 Z M 64 42 A 3.5 3.5 0 1 0 64 49 A 3.5 3.5 0 1 0 64 42 Z M 75 42 A 3.5 3.5 0 1 0 75 49 A 3.5 3.5 0 1 0 75 42 Z M 86 42 A 3.5 3.5 0 1 0 86 49 A 3.5 3.5 0 1 0 86 42 Z M 47 52 A 3.5 3.5 0 1 0 47 59 A 3.5 3.5 0 1 0 47 52 Z M 58 52 A 3.5 3.5 0 1 0 58 59 A 3.5 3.5 0 1 0 58 52 Z M 69 52 A 3.5 3.5 0 1 0 69 59 A 3.5 3.5 0 1 0 69 52 Z M 80 52 A 3.5 3.5 0 1 0 80 59 A 3.5 3.5 0 1 0 80 52 Z M 42 62 A 3.5 3.5 0 1 0 42 69 A 3.5 3.5 0 1 0 42 62 Z M 53 62 A 3.5 3.5 0 1 0 53 69 A 3.5 3.5 0 1 0 53 62 Z M 64 62 A 3.5 3.5 0 1 0 64 69 A 3.5 3.5 0 1 0 64 62 Z M 75 62 A 3.5 3.5 0 1 0 75 69 A 3.5 3.5 0 1 0 75 62 Z M 86 62 A 3.5 3.5 0 1 0 86 69 A 3.5 3.5 0 1 0 86 62 Z M 47 72 A 3.5 3.5 0 1 0 47 79 A 3.5 3.5 0 1 0 47 72 Z M 58 72 A 3.5 3.5 0 1 0 58 79 A 3.5 3.5 0 1 0 58 72 Z M 69 72 A 3.5 3.5 0 1 0 69 79 A 3.5 3.5 0 1 0 69 72 Z M 80 72 A 3.5 3.5 0 1 0 80 79 A 3.5 3.5 0 1 0 80 72 Z M 42 82 A 3.5 3.5 0 1 0 42 89 A 3.5 3.5 0 1 0 42 82 Z M 53 82 A 3.5 3.5 0 1 0 53 89 A 3.5 3.5 0 1 0 53 82 Z M 64 82 A 3.5 3.5 0 1 0 64 89 A 3.5 3.5 0 1 0 64 82 Z M 75 82 A 3.5 3.5 0 1 0 75 89 A 3.5 3.5 0 1 0 75 82 Z M 86 82 A 3.5 3.5 0 1 0 86 89 A 3.5 3.5 0 1 0 86 82 Z" />
</svg>
