<svg width="128" height="128" viewBox="0 0 128 128" color="#94A3B8" fill="currentColor" aria-hidden="true" xmlns="http://www.w3.org/2000/svg">
<!--
  ARCHITECTURAL CONTEXT:
  This SVG represents 'Chain Mail' (Heavy Armor torso piece) in Aralia's item system.
  It is styled as a full-length metal chain hauberk with long sleeves and a leather waist belt.

  DESIGN CHOICES:
  - Full long sleeves (extending to Y=76) and knee-length skirt (Y=116) to distinguish it from the shorter Chain Shirt.
  - A prominent leather belt with a square buckle cutout at the waist (Y=62 to Y=68) for visual grouping.
  - A dense array of small 2.5px circular ring cutouts to convey heavier mail mesh.
  - currentColor inheritance is preserved for dynamic palette changes in-game.
-->
<path fill-rule="evenodd" clip-rule="evenodd" d="M 38 12 L 90 12 L 102 26 L 118 64 L 106 72 L 94 60 L 94 116 L 34 116 L 34 60 L 22 72 L 10 64 L 26 26 L 38 12 Z M 64 28 C 54 28 46 20 46 12 L 82 12 C 82 20 74 30 64 28 Z M 34 62 L 94 62 L 94 68 L 34 68 Z M 60 59 L 68 59 L 68 71 L 60 71 Z M 42 36 A 2.5 2.5 0 1 0 42 41 A 2.5 2.5 0 1 0 42 36 Z M 53 36 A 2.5 2.5 0 1 0 53 41 A 2.5 2.5 0 1 0 53 36 Z M 64 36 A 2.5 2.5 0 1 0 64 41 A 2.5 2.5 0 1 0 64 36 Z M 75 36 A 2.5 2.5 0 1 0 75 41 A 2.5 2.5 0 1 0 75 36 Z M 86 36 A 2.5 2.5 0 1 0 86 41 A 2.5 2.5 0 1 0 86 36 Z M 47 44 A 2.5 2.5 0 1 0 47 49 A 2.5 2.5 0 1 0 47 44 Z M 58 44 A 2.5 2.5 0 1 0 58 49 A 2.5 2.5 0 1 0 58 44 Z M 69 44 A 2.5 2.5 0 1 0 69 49 A 2.5 2.5 0 1 0 69 44 Z M 80 44 A 2.5 2.5 0 1 0 80 49 A 2.5 2.5 0 1 0 80 44 Z M 42 52 A 2.5 2.5 0 1 0 42 57 A 2.5 2.5 0 1 0 42 52 Z M 53 52 A 2.5 2.5 0 1 0 53 57 A 2.5 2.5 0 1 0 53 52 Z M 64 52 A 2.5 2.5 0 1 0 64 57 A 2.5 2.5 0 1 0 64 52 Z M 75 52 A 2.5 2.5 0 1 0 75 57 A 2.5 2.5 0 1 0 75 52 Z M 86 52 A 2.5 2.5 0 1 0 86 57 A 2.5 2.5 0 1 0 86 52 Z M 47 74 A 2.5 2.5 0 1 0 47 79 A 2.5 2.5 0 1 0 47 74 Z M 58 74 A 2.5 2.5 0 1 0 58 79 A 2.5 2.5 0 1 0 58 74 Z M 69 74 A 2.5 2.5 0 1 0 69 79 A 2.5 2.5 0 1 0 69 74 Z M 80 74 A 2.5 2.5 0 1 0 80 79 A 2.5 2.5 0 1 0 80 74 Z M 42 82 A 2.5 2.5 0 1 0 42 87 A 2.5 2.5 0 1 0 42 82 Z M 53 82 A 2.5 2.5 0 1 0 53 87 A 2.5 2.5 0 1 0 53 82 Z M 64 82 A 2.5 2.5 0 1 0 64 87 A 2.5 2.5 0 1 0 64 82 Z M 75 82 A 2.5 2.5 0 1 0 75 87 A 2.5 2.5 0 1 0 75 82 Z M 86 82 A 2.5 2.5 0 1 0 86 87 A 2.5 2.5 0 1 0 86 82 Z M 47 90 A 2.5 2.5 0 1 0 47 95 A 2.5 2.5 0 1 0 47 90 Z M 58 90 A 2.5 2.5 0 1 0 58 95 A 2.5 2.5 0 1 0 58 90 Z M 69 90 A 2.5 2.5 0 1 0 69 95 A 2.5 2.5 0 1 0 69 90 Z M 80 90 A 2.5 2.5 0 1 0 80 95 A 2.5 2.5 0 1 0 80 90 Z M 42 98 A 2.5 2.5 0 1 0 42 103 A 2.5 2.5 0 1 0 42 98 Z M 53 98 A 2.5 2.5 0 1 0 53 103 A 2.5 2.5 0 1 0 53 98 Z M 64 98 A 2.5 2.5 0 1 0 64 103 A 2.5 2.5 0 1 0 64 98 Z M 75 98 A 2.5 2.5 0 1 0 75 103 A 2.5 2.5 0 1 0 75 98 Z M 86 98 A 2.5 2.5 0 1 0 86 103 A 2.5 2.5 0 1 0 86 98 Z" />
</svg>
