<svg width="128" height="128" viewBox="0 0 128 128" color="#94A3B8" fill="currentColor" aria-hidden="true" xmlns="http://www.w3.org/2000/svg">
<!--
  ARCHITECTURAL CONTEXT:
  This SVG represents a 'Chainmail Coif' (Medium/Heavy Armor headpiece) in Aralia's item system.
  It is styled as a protective hood of steel rings, fitted to the head and neck.

  DESIGN CHOICES:
  - Scalloped edges along the shoulder hem to imply overlapping metal mail links.
  - Large open face aperture with stylized negative-space rings outlining the contours.
  - currentColor inheritance is preserved for dynamic palette changes in-game.
  - Optimized for readability on dark UI backdrops.
-->
<path fill-rule="evenodd" clip-rule="evenodd" d="M 64 12 C 30 12 22 45 22 70 C 22 92 12 108 12 120 C 26 114 38 120 50 114 C 58 120 70 120 78 114 C 90 120 102 114 116 120 C 116 108 106 92 106 70 C 106 45 98 12 64 12 Z M 64 32 C 78 32 84 42 84 64 C 84 84 74 92 64 92 C 54 92 44 84 44 64 C 44 42 50 32 64 32 Z M 32 46 A 4 4 0 1 0 32 54 A 4 4 0 1 0 32 46 Z M 96 46 A 4 4 0 1 0 96 54 A 4 4 0 1 0 96 46 Z M 28 66 A 4 4 0 1 0 28 74 A 4 4 0 1 0 28 66 Z M 100 66 A 4 4 0 1 0 100 74 A 4 4 0 1 0 100 66 Z M 30 86 A 4 4 0 1 0 30 94 A 4 4 0 1 0 30 86 Z M 98 86 A 4 4 0 1 0 98 94 A 4 4 0 1 0 98 86 Z M 48 100 A 4 4 0 1 0 48 108 A 4 4 0 1 0 48 100 Z M 80 100 A 4 4 0 1 0 80 108 A 4 4 0 1 0 80 100 Z M 64 102 A 4 4 0 1 0 64 110 A 4 4 0 1 0 64 102 Z M 48 24 A 4 4 0 1 0 48 32 A 4 4 0 1 0 48 24 Z M 80 24 A 4 4 0 1 0 80 32 A 4 4 0 1 0 80 24 Z" />
</svg>
