<svg width="128" height="128" viewBox="0 0 128 128" color="#94A3B8" fill="currentColor" aria-hidden="true" xmlns="http://www.w3.org/2000/svg">
<!--
  ARCHITECTURAL CONTEXT:
  This SVG represents a 'Leather Cap' (Light Armor headpiece) in Aralia's item system.
  It is styled as a stitched medieval leather cap with ear flaps and dangling leather ties.

  DESIGN CHOICES:
  - High-contrast stitching lines (rendered via negative-space cutouts) for dark-UI visibility.
  - Symmetrical, rounded dome shape to convey leather's pliability.
  - currentColor inheritance is preserved for dynamic palette changes in-game.
  - Sits on a 128x128 grid, optimized for sharp rendering at smaller slot sizes.
-->
<path fill-rule="evenodd" clip-rule="evenodd" d="M 64 16 C 40 16 28 32 28 64 C 28 80 20 96 20 102 C 20 108 28 108 32 100 C 36 92 40 82 46 80 C 52 78 76 78 82 80 C 88 82 92 92 96 100 C 100 108 108 108 108 102 C 108 96 100 80 100 64 C 100 32 88 16 64 16 Z M 64 24 C 80 24 90 34 92 56 C 76 50 52 50 36 56 C 38 34 48 24 64 24 Z M 60 28 L 68 28 L 68 34 L 60 34 Z M 60 38 L 68 38 L 68 44 L 60 44 Z M 60 48 L 68 48 L 68 54 L 60 54 Z M 44 40 L 50 46 L 46 52 L 40 46 Z M 84 40 L 90 46 L 86 52 L 80 46 Z M 23 103 C 23 115 31 120 31 120 C 31 120 25 115 25 103 Z M 105 103 C 105 115 97 120 97 120 C 97 120 103 115 103 103 Z" />
</svg>
