<svg width="128" height="128" viewBox="0 0 128 128" color="#94A3B8" fill="currentColor" aria-hidden="true" xmlns="http://www.w3.org/2000/svg">
<!--
  ARCHITECTURAL CONTEXT:
  This SVG represents 'Ring Mail' (Heavy Armor torso piece) in Aralia's item system.
  It is styled as a heavy leather/padded tunic with large metal rings sewn onto the surface.

  DESIGN CHOICES:
  - Sleeveless heavy tunic silhouette.
  - Large concentric ring cutouts (outer circle + inner circle under evenodd fill-rule)
    to represent heavy annular rings rather than chain mail mesh.
  - Symmetrical geometry with clean vertical and horizontal alignments.
  - currentColor inheritance is preserved for dynamic palette changes in-game.
-->
<path fill-rule="evenodd" clip-rule="evenodd" d="M 38 12 L 90 12 L 102 26 L 94 40 L 94 116 L 34 116 L 34 40 L 26 26 L 38 12 Z M 64 28 C 54 28 46 22 46 12 L 82 12 C 82 22 74 30 64 28 Z M 48 34 A 8 8 0 1 0 48 50 A 8 8 0 1 0 48 34 Z M 48 38 A 4 4 0 1 0 48 46 A 4 4 0 1 0 48 38 Z M 80 34 A 8 8 0 1 0 80 50 A 8 8 0 1 0 80 34 Z M 80 38 A 4 4 0 1 0 80 46 A 4 4 0 1 0 80 38 Z M 64 50 A 8 8 0 1 0 64 66 A 8 8 0 1 0 64 50 Z M 64 54 A 4 4 0 1 0 64 62 A 4 4 0 1 0 64 54 Z M 48 66 A 8 8 0 1 0 48 82 A 8 8 0 1 0 48 66 Z M 48 70 A 4 4 0 1 0 48 78 A 4 4 0 1 0 48 70 Z M 80 66 A 8 8 0 1 0 80 82 A 8 8 0 1 0 80 66 Z M 80 70 A 4 4 0 1 0 80 78 A 4 4 0 1 0 80 70 Z M 64 82 A 8 8 0 1 0 64 98 A 8 8 0 1 0 64 82 Z M 64 86 A 4 4 0 1 0 64 94 A 4 4 0 1 0 64 86 Z" />
</svg>
