<svg width="128" height="128" viewBox="0 0 128 128" color="#94A3B8" fill="currentColor" aria-hidden="true" xmlns="http://www.w3.org/2000/svg">
<!--
  ARCHITECTURAL CONTEXT:
  This SVG represents 'Scale Mail' (Medium Armor torso piece) in Aralia's item system.
  It shows a metal plate-like torso protected by overlapping scales.

  DESIGN CHOICES:
  - Strong, heavy torso silhouette with cap sleeves (shoulders flare to X=104, Y=26).
  - Offset horizontal rows of U-shaped scale cutouts (negative space) representing fish scale armor.
  - Symmetrical neck and arm structure to fit with other equipment graphics.
  - currentColor inheritance is preserved for dynamic palette changes in-game.
-->
<path fill-rule="evenodd" clip-rule="evenodd" d="M 38 12 L 90 12 L 104 26 L 102 112 C 80 118 48 118 26 112 L 24 26 L 38 12 Z M 64 28 C 54 28 46 22 46 12 L 82 12 C 82 22 74 30 64 28 Z M 39 32 L 39 36 C 39 40 49 40 49 36 L 49 32 Z M 51 32 L 51 36 C 51 40 61 40 61 36 L 61 32 Z M 63 32 L 63 36 C 63 40 73 40 73 36 L 73 32 Z M 75 32 L 75 36 C 75 40 85 40 85 36 L 85 32 Z M 33 44 L 33 48 C 33 52 43 52 43 48 L 43 44 Z M 45 44 L 45 48 C 45 52 55 52 55 48 L 55 44 Z M 57 44 L 57 48 C 57 52 67 52 67 48 L 67 44 Z M 69 44 L 69 48 C 69 52 79 52 79 48 L 79 44 Z M 81 44 L 81 48 C 81 52 91 52 91 48 L 91 44 Z M 39 56 L 39 60 C 39 64 49 64 49 60 L 49 56 Z M 51 56 L 51 60 C 51 64 61 64 61 60 L 61 56 Z M 63 56 L 63 60 C 63 64 73 64 73 60 L 73 56 Z M 75 56 L 75 60 C 75 64 85 64 85 60 L 85 56 Z M 33 68 L 33 72 C 33 76 43 76 43 72 L 43 68 Z M 45 68 L 45 72 C 45 76 55 76 55 72 L 55 68 Z M 57 68 L 57 72 C 57 76 67 76 67 72 L 67 68 Z M 69 68 L 69 72 C 69 76 79 76 79 72 L 79 68 Z M 81 68 L 81 72 C 81 76 91 76 91 72 L 91 68 Z M 39 80 L 39 84 C 39 88 49 88 49 84 L 49 80 Z M 51 80 L 51 84 C 51 88 61 88 61 84 L 61 80 Z M 63 80 L 63 84 C 63 88 73 88 73 84 L 73 80 Z M 75 80 L 75 84 C 75 88 85 88 85 84 L 85 80 Z M 45 92 L 45 96 C 45 100 55 100 55 96 L 55 92 Z M 57 92 L 57 96 C 57 100 67 100 67 96 L 67 92 Z M 69 92 L 69 96 C 69 100 79 100 79 96 L 79 92 Z" />
</svg>
