<svg width="128" height="128" viewBox="0 0 128 128" color="#94A3B8" fill="currentColor" aria-hidden="true" xmlns="http://www.w3.org/2000/svg">
<!--
  ARCHITECTURAL CONTEXT:
  This SVG represents a 'Shield +1' (Magical Shield equipment) in Aralia's item system.
  It shares the same base silhouette as the Standard Shield to maintain family cohesion,
  but features rune engravings on the rim and a multi-layered starburst central motif.

  DESIGN CHOICES:
  - Base heater shield shape identical to standard shield for structural family alignment.
  - Runic notch cutouts in the outer rim representing magical empowerment.
  - A three-layer starburst (large star + inner star cutout + center filled diamond under evenodd)
    portraying a glowing magical core.
  - currentColor inheritance is preserved for dynamic palette changes in-game.
-->
<path fill-rule="evenodd" clip-rule="evenodd" d="M 24 20 C 48 14 80 14 104 20 C 104 60 88 102 64 116 C 40 102 24 60 24 20 Z M 32 26 C 50 22 78 22 96 26 C 96 58 82 94 64 106 C 46 94 32 58 32 26 Z M 34 28 C 50 24 78 24 94 28 C 94 58 80 92 64 104 C 48 92 34 58 34 28 Z M 64 36 L 69 59 L 92 64 L 69 69 L 64 92 L 59 69 L 36 64 L 59 59 L 64 36 Z M 64 48 L 67 61 L 80 64 L 67 67 L 64 80 L 61 67 L 48 64 L 61 61 L 64 48 Z M 64 58 L 66 64 L 64 70 L 62 64 L 64 58 Z M 38 21 L 41 24 L 40 25 L 37 22 Z M 90 21 L 87 24 L 88 25 L 91 22 Z M 42 98 L 45 101 L 44 102 L 41 99 Z M 86 98 L 83 101 L 84 102 L 87 99 Z" />
</svg>
