<svg width="128" height="128" viewBox="0 0 128 128" color="#94A3B8" fill="currentColor" aria-hidden="true" xmlns="http://www.w3.org/2000/svg">
<!--
  ARCHITECTURAL CONTEXT:
  This SVG represents 'Studded Boots' (Light/Medium Armor feet piece) in Aralia's item system.
  It shows a pair of heavy adventurer leather boots with cuffs, soles, straps, and metal studs.

  DESIGN CHOICES:
  - Overlapping perspective (left boot in foreground, right boot offset slightly behind).
  - Thick soles, defined heels, and reinforced toe-caps to project durability.
  - Round studs (negative-space cutouts) along cuffs and ankle straps.
  - currentColor inheritance is preserved for dynamic palette changes in-game.
-->
<path fill-rule="evenodd" clip-rule="evenodd" d="M 68 18 C 68 18 84 14 96 18 L 96 28 C 90 28 82 28 78 30 L 78 64 C 84 68 96 74 100 80 C 104 86 108 94 108 100 L 52 100 C 52 94 56 86 60 80 C 64 74 68 64 68 64 L 68 18 Z M 80 22 A 2 2 0 1 0 80 26 A 2 2 0 1 0 80 22 Z M 88 22 A 2 2 0 1 0 88 26 A 2 2 0 1 0 88 22 Z M 72 88 A 2 2 0 1 0 72 92 A 2 2 0 1 0 72 88 Z M 88 88 A 2 2 0 1 0 88 92 A 2 2 0 1 0 88 88 Z M 32 30 C 32 30 48 26 60 30 L 60 40 C 54 40 46 40 42 42 L 42 76 C 48 80 60 86 64 92 C 68 98 72 106 72 112 L 16 112 C 16 106 20 98 24 92 C 28 86 32 76 32 76 L 32 30 Z M 16 112 L 72 112 L 72 118 L 16 118 Z M 44 34 A 2.5 2.5 0 1 0 44 39 A 2.5 2.5 0 1 0 44 34 Z M 52 34 A 2.5 2.5 0 1 0 52 39 A 2.5 2.5 0 1 0 52 34 Z M 36 100 A 2.5 2.5 0 1 0 36 105 A 2.5 2.5 0 1 0 36 100 Z M 52 100 A 2.5 2.5 0 1 0 52 105 A 2.5 2.5 0 1 0 52 100 Z" />
</svg>
