<svg width="128" height="128" viewBox="0 0 128 128" color="#94A3B8" fill="currentColor" aria-hidden="true" xmlns="http://www.w3.org/2000/svg">
<!--
  ARCHITECTURAL CONTEXT:
  This SVG represents 'Studded Leather Armor' (Light Armor torso piece) in Aralia's item system.
  It is styled as a protective leather cuirass reinforced with metal studs and side straps.

  DESIGN CHOICES:
  - Strong torso profile with distinct shoulder straps and side adjustment buckles.
  - Symmetrical columns of round rivets (negative-space cutouts) for studs.
  - Tapered waist with a panel structure that ensures immediate visual clarity on dark UI grids.
  - currentColor inheritance is preserved for dynamic palette changes in-game.
-->
<path fill-rule="evenodd" clip-rule="evenodd" d="M 40 8 L 88 8 L 98 24 L 108 40 L 98 52 L 94 44 L 94 116 L 64 120 L 34 116 L 34 44 L 30 52 L 20 40 L 30 24 L 40 8 Z M 64 24 C 54 24 46 16 46 8 L 82 8 C 82 16 74 24 64 24 Z M 44 32 C 44 32 50 48 50 72 C 50 96 44 108 44 108 L 84 108 C 84 108 78 96 78 72 C 78 48 84 32 84 32 L 44 32 Z M 54 42 A 3 3 0 1 0 54 48 A 3 3 0 1 0 54 42 Z M 74 42 A 3 3 0 1 0 74 48 A 3 3 0 1 0 74 42 Z M 54 56 A 3 3 0 1 0 54 62 A 3 3 0 1 0 54 56 Z M 74 56 A 3 3 0 1 0 74 62 A 3 3 0 1 0 74 56 Z M 54 70 A 3 3 0 1 0 54 76 A 3 3 0 1 0 54 70 Z M 74 70 A 3 3 0 1 0 74 76 A 3 3 0 1 0 74 70 Z M 54 84 A 3 3 0 1 0 54 90 A 3 3 0 1 0 54 84 Z M 74 84 A 3 3 0 1 0 74 90 A 3 3 0 1 0 74 84 Z M 54 98 A 3 3 0 1 0 54 104 A 3 3 0 1 0 54 98 Z M 74 98 A 3 3 0 1 0 74 104 A 3 3 0 1 0 74 98 Z M 22 58 L 28 58 L 28 64 L 22 64 Z M 22 72 L 28 72 L 28 78 L 22 78 Z M 100 58 L 106 58 L 106 64 L 100 64 Z M 100 72 L 106 72 L 106 78 L 100 78 Z" />
</svg>
