<svg xmlns="http://www.w3.org/2000/svg" viewBox="0 0 512 512" width="512" height="512"><path d="M 0 0 h 512 v 512 H 0 z" fill="#000"></path><g><path d="M 324.3 67.3 c -44.5 19.3 -91 26 -136.7 1.9 v 39.5 c 45.9 22.5 90.5 21 136.7 -0.3 V 67.3 z M 133.7 74.2 c -6.8 0 -13.4 0.4 -19.9 1 -3.1 24.1 6.1 52.1 24.6 73.8 a 161.1 161.1 0 0 0 19.5 -15.7 c -6.2 -19.6 -10.3 -38.9 -11.6 -58.7 -2.1 -0.1 -4.3 -0.3 -6.4 -0.3 -2.1 0 -4.2 0 -6.2 0 z m 245.3 0 a 248.7 248.7 0 0 0 -6.2 0 c -2.1 0 -4.3 0.2 -6.4 0.3 -1.3 19.8 -5.5 39.1 -11.6 58.7 a 161.1 161.1 0 0 0 19.5 15.7 c 18.5 -21.7 27.8 -49.7 24.6 -73.8 a 218.2 218.2 0 0 0 -19.9 -1 z M 94.8 78.1 c -13.7 2.9 -26 7.4 -36.4 13.6 -0.2 29.3 13 60 33.2 77.2 l -1.2 1.4 c 11.6 -2.7 22.2 -6.7 31.9 -11.6 -19.2 -23.5 -29.5 -52.8 -27.4 -80.6 z m 323.3 0 c 2.1 27.8 -8.2 57.1 -27.4 80.6 9.7 4.9 20.3 9 31.9 11.6 l -1.2 -1.4 c 20.1 -17.3 33.3 -48 33.1 -77.3 -10.4 -6.2 -22.7 -10.7 -36.4 -13.6 z m -377.7 28 c -13.3 14.4 -20.9 34.4 -20.5 62.4 17.9 4.7 34.5 6 49.7 4.9 -16.1 -18.1 -26.4 -42.3 -29.2 -67.3 z m 432 0 c -2.8 25.1 -13.1 49.2 -29.2 67.3 15.2 1.1 31.8 -0.2 49.7 -4.9 0.3 -28 -7.2 -48 -20.5 -62.4 z m -133.7 16.4 -0.9 0.4 c -24 11.8 -48.4 18.8 -72.9 20.3 v 214.1 c 73.6 -26 122.8 -81 122.8 -144.3 0 -13.1 -2.1 -25.9 -6.2 -38.2 -17.7 -9 -32.5 -20.5 -44 -32.1 l -4.1 -4.1 1.8 -5.5 a 339.7 339.7 0 0 0 3.4 -10.8 z m -164.4 0.4 a 337.6 337.6 0 0 0 3.3 10.3 l 1.8 5.5 -4.1 4.1 c -12.4 12.5 -28.6 24.8 -48.1 34.1 -3.6 11.6 -5.6 23.7 -5.6 36.1 0 63.4 50.5 118.7 124.7 144.6 V 143.3 c -24.1 -1.3 -48.2 -7.9 -72 -20.4 z M 157 326.7 a 201.8 201.8 0 0 0 -16.5 15 c 22 17.5 50.6 35.6 79.5 43.4 a 153.1 153.1 0 0 1 16.8 -16.3 L 157 326.7 z m 197.9 0 -79.8 42.1 a 153.4 153.4 0 0 1 17.2 16.8 c 29 -7.4 57.7 -25.3 80.1 -42.8 -5.4 -5.5 -11.2 -10.9 -17.5 -16 z m -227 28.9 c -6.3 7.5 -11.9 15.4 -17.3 23.4 23.2 18.4 53.7 37.6 84.3 44.6 3.7 -7.8 7.9 -15.4 12.8 -22.6 -30.5 -9.7 -58.2 -28.1 -79.8 -45.4 z m 257 1.1 c -21.8 17.3 -49.8 35.5 -80.3 44.9 4.8 7.2 9 14.7 12.6 22.4 30.6 -6.5 61.2 -25.4 84.8 -43.9 -5.3 -8 -10.9 -15.9 -17.1 -23.4 z M 100.7 394.9 c -5.9 9.8 -11.4 19.9 -17 30 28.2 27.2 59.3 42.3 95.3 45.8 2.3 -10.1 5.2 -20 8.7 -29.7 -33.1 -8.3 -63.4 -27.6 -87 -46.2 z m 311.2 1.2 c -23.8 18.5 -54.3 37.6 -87.5 45.4 3.4 9.5 6.2 19.3 8.5 29.2 36 -3.5 67 -18.6 95.3 -45.8 -5.3 -9.7 -10.7 -19.4 -16.3 -28.8 z" fill="#fff"></path></g></svg>