<svg xmlns="http://www.w3.org/2000/svg" viewBox="0 0 512 512" width="512" height="512"><path d="M 0 0 h 512 v 512 H 0 z" fill="#000"></path><g><path d="M 324 67 c -45 19 -91 26 -137 2 v 40 c 46 23 91 21 137 -0 V 67 z M 134 74 c -7 0 -13 0 -20 1 -3 24 6 52 25 74 a 161 161 0 0 0 20 -16 c -6 -20 -10 -39 -12 -59 -2 -0 -4 -0 -6 -0 -2 0 -4 0 -6 0 z m 245 0 a 249 249 0 0 0 -6 0 c -2 0 -4 0 -6 0 -1 20 -6 39 -12 59 a 161 161 0 0 0 20 16 c 19 -22 28 -50 25 -74 a 218 218 0 0 0 -20 -1 z M 95 78 c -14 3 -26 7 -36 14 -0 29 13 60 33 77 l -1 1 c 12 -3 22 -7 32 -12 -19 -24 -30 -53 -27 -81 z m 323 0 c 2 28 -8 57 -27 81 10 5 20 9 32 12 l -1 -1 c 20 -17 33 -48 33 -77 -10 -6 -23 -11 -36 -14 z m -378 28 c -13 14 -21 34 -21 62 18 5 35 6 50 5 -16 -18 -26 -42 -29 -67 z m 432 0 c -3 25 -13 49 -29 67 15 1 32 -0 50 -5 0 -28 -7 -48 -21 -62 z m -134 16 -1 0 c -24 12 -48 19 -73 20 v 214 c 74 -26 123 -81 123 -144 0 -13 -2 -26 -6 -38 -18 -9 -33 -21 -44 -32 l -4 -4 2 -6 a 340 340 0 0 0 3 -11 z m -164 0 a 338 338 0 0 0 3 10 l 2 6 -4 4 c -12 13 -29 25 -48 34 -4 12 -6 24 -6 36 0 63 51 119 125 145 V 143 c -24 -1 -48 -8 -72 -20 z M 157 327 a 202 202 0 0 0 -17 15 c 22 18 51 36 80 43 a 153 153 0 0 1 17 -16 L 157 327 z m 198 0 -80 42 a 153 153 0 0 1 17 17 c 29 -7 58 -25 80 -43 -5 -6 -11 -11 -18 -16 z m -227 29 c -6 8 -12 15 -17 23 23 18 54 38 84 45 4 -8 8 -15 13 -23 -31 -10 -58 -28 -80 -45 z m 257 1 c -22 17 -50 36 -80 45 5 7 9 15 13 22 31 -7 61 -25 85 -44 -5 -8 -11 -16 -17 -23 z M 101 395 c -6 10 -11 20 -17 30 28 27 59 42 95 46 2 -10 5 -20 9 -30 -33 -8 -63 -28 -87 -46 z m 311 1 c -24 19 -54 38 -88 45 3 10 6 19 9 29 36 -4 67 -19 95 -46 -5 -10 -11 -19 -16 -29 z" fill="#fff"></path></g></svg>
