<svg xmlns="http://www.w3.org/2000/svg" viewBox="0 0 256 256" width="256" height="256">
  <defs>
    <linearGradient id="bg-3_wraps_of_unarmed_power" x1="0%" y1="0%" x2="100%" y2="100%">
      <stop offset="0%" stop-color="#0b2e3f" />
      <stop offset="100%" stop-color="#041420" />
    </linearGradient>
    <linearGradient id="borderGrad-3_wraps_of_unarmed_power" x1="0%" y1="0%" x2="100%" y2="100%">
      <stop offset="0%" stop-color="#ffffff" stop-opacity="0.6"/>
      <stop offset="50%" stop-color="#ffffff" stop-opacity="0.1"/>
      <stop offset="100%" stop-color="#ffffff" stop-opacity="0.6"/>
    </linearGradient>
    <filter id="glow-3_wraps_of_unarmed_power" x="-30%" y="-30%" width="160%" height="160%">
      <feGaussianBlur stdDeviation="6" result="blur" />
      <feComposite in="SourceGraphic" in2="blur" operator="over" />
    </filter>
    <filter id="shadow-3_wraps_of_unarmed_power" x="-20%" y="-20%" width="140%" height="140%">
      <feDropShadow dx="2" dy="4" stdDeviation="4" flood-color="#000000" flood-opacity="0.6" />
    </filter>
    <radialGradient id="gemGrad-3_wraps_of_unarmed_power" cx="30%" cy="30%" r="70%">
      <stop offset="0%" stop-color="#ffffff" stop-opacity="0.8"/>
      <stop offset="100%" stop-color="#000000" stop-opacity="0.4"/>
    </radialGradient>
  </defs>
  
  <rect width="256" height="256" rx="40" fill="url(#bg-3_wraps_of_unarmed_power)" />
  <!-- subtle background pattern -->
  <path d="M0,0 L256,256 M256,0 L0,256 M128,0 L128,256 M0,128 L256,128" stroke="#ffffff" stroke-width="1" stroke-opacity="0.05" />
  <circle cx="128" cy="128" r="90" fill="none" stroke="#ffffff" stroke-width="1" stroke-opacity="0.05" />

        <g filter="url(#shadow-3_wraps_of_unarmed_power)">
          <path d="M100,50 C128,40 156,50 156,50 C156,50 160,200 140,210 C120,220 100,200 100,200 Z" fill="#8b4513" />
          <path d="M96,60 Q128,50 160,60 M98,80 Q128,70 158,80 M100,100 Q128,90 156,100 M102,120 Q128,110 154,120 M104,140 Q128,130 152,140 M106,160 Q128,150 150,160 M108,180 Q128,170 148,180 M110,200 Q128,190 146,200" fill="none" stroke="#ff4444" stroke-width="12" stroke-linecap="round" filter="url(#glow-3_wraps_of_unarmed_power)" />
        </g>
        
  
  <!-- Fancy Border -->
  <rect width="232" height="232" x="12" y="12" rx="32" fill="none" stroke="url(#borderGrad-3_wraps_of_unarmed_power)" stroke-width="4" />
  <rect width="216" height="216" x="20" y="20" rx="24" fill="none" stroke="#ffffff" stroke-width="1" stroke-opacity="0.2" />
  
  <!-- Text Background -->
  <rect x="16" y="200" width="224" height="40" rx="12" fill="#000000" fill-opacity="0.6" />
  
  <text x="128" y="226" font-family="'Segoe UI', Roboto, Helvetica, sans-serif" font-size="14" font-weight="800" fill="#ffffff" letter-spacing="0.5" text-anchor="middle" filter="url(#glow-3_wraps_of_unarmed_power)">+3 WRAPS OF UNARMED POWER</text>
</svg>