<svg xmlns="http://www.w3.org/2000/svg" viewBox="0 0 512 512">
  <defs>
    <linearGradient id="shieldGrad" x1="0%" y1="0%" x2="100%" y2="100%">
      <stop offset="0%" stop-color="#ecf0f1"/>
      <stop offset="100%" stop-color="#7f8c8d"/>
    </linearGradient>
  </defs>
  <rect width="512" height="512" fill="#2980b9" rx="100"/>
  <path d="M 256 50 C 350 50 400 80 400 150 C 400 300 256 450 256 450 C 256 450 112 300 112 150 C 112 80 162 50 256 50 Z" fill="url(#shieldGrad)" stroke="#34495e" stroke-width="16"/>
  <path d="M 256 90 L 256 400" stroke="#34495e" stroke-width="8"/>
  <path d="M 140 180 C 200 130 312 130 372 180" stroke="#f1c40f" stroke-width="8" fill="none"/>
  <circle cx="256" cy="220" r="40" fill="#e74c3c" stroke="#c0392b" stroke-width="6"/>
  <path d="M 112 350 C 50 250 50 150 150 50" stroke="#f39c12" stroke-width="6" fill="none" opacity="0.6"/>
  <path d="M 400 350 C 462 250 462 150 362 50" stroke="#f39c12" stroke-width="6" fill="none" opacity="0.6"/>
</svg>