<svg xmlns="http://www.w3.org/2000/svg" viewBox="0 0 512 512">
  <defs>
    <radialGradient id="magnetGrad" cx="50%" cy="50%" r="50%">
      <stop offset="0%" stop-color="#3498db"/>
      <stop offset="100%" stop-color="#2c3e50"/>
    </radialGradient>
  </defs>
  <rect width="512" height="512" fill="#34495e" rx="100"/>
  <path d="M 256 60 C 350 60 400 90 400 160 C 400 320 256 460 256 460 C 256 460 112 320 112 160 C 112 90 162 60 256 60 Z" fill="url(#magnetGrad)" stroke="#ecf0f1" stroke-width="12"/>
  <circle cx="256" cy="220" r="50" fill="#e74c3c" stroke="#c0392b" stroke-width="8"/>
  <path d="M 256 220 L 256 120 M 256 220 L 180 270 M 256 220 L 332 270" stroke="#f1c40f" stroke-width="8" stroke-dasharray="5 5"/>
  <line x1="50" y1="220" x2="150" y2="220" stroke="#bdc3c7" stroke-width="6"/>
  <polygon points="150,220 130,210 130,230" fill="#bdc3c7"/>
  <line x1="462" y1="160" x2="350" y2="190" stroke="#bdc3c7" stroke-width="6"/>
  <polygon points="350,190 365,180 355,200" fill="#bdc3c7"/>
</svg>