<svg xmlns="http://www.w3.org/2000/svg" viewBox="0 0 512 512">
  <defs>
    <linearGradient id="bloodGrad" x1="0%" y1="100%" x2="0%" y2="0%">
      <stop offset="0%" stop-color="#8e0000"/>
      <stop offset="60%" stop-color="#c0392b"/>
      <stop offset="100%" stop-color="#e74c3c"/>
    </linearGradient>
  </defs>
  <rect width="512" height="512" fill="#1a1a1a" rx="100"/>
  <path d="M 220 100 L 292 100 L 322 350 C 322 410 190 410 190 350 Z" fill="rgba(255,255,255,0.1)" stroke="#7f8c8d" stroke-width="6"/>
  <path d="M 200 250 L 312 250 L 316 350 C 316 400 196 400 196 350 Z" fill="url(#bloodGrad)"/>
  <rect x="236" y="70" width="40" height="40" fill="#34495e" rx="4"/>
  <path d="M 256 120 L 256 200 M 236 160 L 276 160" stroke="#e74c3c" stroke-width="4"/>
  <circle cx="270" cy="320" r="8" fill="#fff" opacity="0.6"/>
  <circle cx="230" cy="360" r="12" fill="#fff" opacity="0.6"/>
  <!-- Skull decal -->
  <path d="M 240 280 Q 256 260 272 280 Q 272 300 264 300 L 264 310 L 248 310 L 248 300 Q 240 300 240 280 Z" fill="#2c3e50"/>
</svg>