<svg xmlns="http://www.w3.org/2000/svg" viewBox="0 0 512 512">
  <defs>
    <linearGradient id="bladeGrad" x1="0%" y1="0%" x2="100%" y2="100%">
      <stop offset="0%" stop-color="#ecf0f1"/>
      <stop offset="100%" stop-color="#bdc3c7"/>
    </linearGradient>
    <linearGradient id="gold" x1="0%" y1="0%" x2="100%" y2="100%">
      <stop offset="0%" stop-color="#f1c40f"/>
      <stop offset="100%" stop-color="#f39c12"/>
    </linearGradient>
  </defs>
  <rect width="512" height="512" fill="#34495e" rx="100"/>
  <line x1="256" y1="80" x2="256" y2="440" stroke="#7f8c8d" stroke-width="24" stroke-linecap="round"/>
  <line x1="256" y1="200" x2="256" y2="400" stroke="#e67e22" stroke-width="20" stroke-dasharray="10 5"/>
  <path d="M 256 120 C 150 80 100 120 100 200 C 100 280 150 320 256 280 Z" fill="url(#bladeGrad)" stroke="#34495e" stroke-width="8"/>
  <path d="M 256 120 C 362 80 412 120 412 200 C 412 280 362 320 256 280 Z" fill="url(#bladeGrad)" stroke="#34495e" stroke-width="8"/>
  <!-- Dwarven Runes -->
  <path d="M 150 200 L 170 170 M 170 230 L 190 200 M 362 200 L 342 170 M 342 230 L 322 200" stroke="#f1c40f" stroke-width="6"/>
  <circle cx="256" cy="200" r="30" fill="url(#gold)" stroke="#c0392b" stroke-width="4"/>
</svg>