<svg xmlns="http://www.w3.org/2000/svg" viewBox="0 0 512 512">
  <rect width="512" height="512" fill="#1a1a1a" rx="100"/>
  <!-- Bag base -->
  <path d="M 160 380 C 80 380 120 200 200 200 C 220 180 292 180 312 200 C 392 200 432 380 352 380 Z" fill="#4a235a" stroke="#111" stroke-width="8"/>
  <!-- Teeth / Mouth -->
  <path d="M 200 200 Q 256 260 312 200" fill="none" stroke="#000" stroke-width="12"/>
  <polygon points="210,215 220,240 230,215" fill="#ecf0f1"/>
  <polygon points="240,225 250,250 260,225" fill="#ecf0f1"/>
  <polygon points="270,225 280,250 290,225" fill="#ecf0f1"/>
  <polygon points="300,215 310,240 320,215" fill="#ecf0f1"/>
  <!-- Eyes/Texture -->
  <circle cx="220" cy="280" r="8" fill="#e74c3c"/>
  <circle cx="300" cy="300" r="6" fill="#e74c3c"/>
  <circle cx="260" cy="330" r="10" fill="#e74c3c"/>
  <path d="M 180 180 L 150 120 M 332 180 L 362 120" stroke="#4a235a" stroke-width="16" stroke-linecap="round"/>
</svg>