<svg xmlns="http://www.w3.org/2000/svg" viewBox="0 0 24 24" role="img" aria-label="Vial">
  <title>Vial</title>
  <defs>
    <radialGradient id="g" cx="35%" cy="25%" r="75%">
      <stop offset="0%" stop-color="#ffffff" stop-opacity="0.42"/>
      <stop offset="45%" stop-color="#f9a8d4" stop-opacity="0.26"/>
      <stop offset="100%" stop-color="#facc15" stop-opacity="0.86"/>
    </radialGradient>
  </defs>
  <rect x="2.1" y="2.1" width="19.8" height="19.8" rx="5.2" fill="url(#g)" stroke="#f9a8d4" stroke-width="0.7"/>
  <circle cx="9" cy="17" r="2.8" fill="#312e81" opacity="0.22"/>

  <path d="M9 3.4h6v2.3l-1.2 1.4v2.1l3.5 6.7c1.1 2.2-.4 4.7-2.9 4.7H9.6c-2.5 0-4-2.5-2.9-4.7l3.5-6.7V7.1L9 5.7Z" fill="#f9a8d4" stroke="#facc15" stroke-width="0.75"/>
  <path d="M8.2 15.3h7.6l.8 1.6c.5 1-.2 2.2-1.4 2.2H8.8c-1.2 0-1.9-1.2-1.4-2.2Z" fill="#312e81" opacity="0.76"/>
  <path d="M10.1 4.4h3.8" stroke="#f9a8d4" stroke-width="1.4" stroke-linecap="round"/>
  <path d="M5.1 5.3c2.1-1.2 4.2-1.6 6.3-1.2" fill="none" stroke="#ffffff" stroke-width="0.65" stroke-linecap="round" opacity="0.48"/>
  <circle cx="15" cy="4" r="0.8" fill="#ffffff" opacity="0.72"/>
</svg>
