<svg width="512" height="512" viewBox="5376 2176 512 512" fill="none" xmlns="http://www.w3.org/2000/svg">
<defs xmlns="http://www.w3.org/2000/svg">
<clipPath id="clip0_268_10729">
<rect width="512" height="512" fill="white" transform="translate(256 256)"/>
</clipPath>
<clipPath id="clip1_268_10729">
<rect width="512" height="512" fill="white" transform="translate(896 256)"/>
</clipPath>
<clipPath id="clip2_268_10729">
<rect width="512" height="512" fill="white" transform="translate(1536 256)"/>
</clipPath>
<clipPath id="clip3_268_10729">
<rect width="512" height="512" fill="white" transform="translate(2176 256)"/>
</clipPath>
<clipPath id="clip4_268_10729">
<rect width="512" height="512" fill="white" transform="translate(2816 256)"/>
</clipPath>
<clipPath id="clip5_268_10729">
<rect width="512" height="512" fill="white" transform="translate(3456 256)"/>
</clipPath>
<clipPath id="clip6_268_10729">
<rect width="592.227" height="238.456" fill="white" transform="translate(3418.64 638.171) rotate(-45)"/>
</clipPath>
<clipPath id="clip7_268_10729">
<rect width="512" height="512" fill="white" transform="translate(4096 256)"/>
</clipPath>
<clipPath id="clip8_268_10729">
<rect width="512" height="512" fill="white" transform="translate(4736 256)"/>
</clipPath>
<clipPath id="clip9_268_10729">
<rect width="116.168" height="650.538" fill="white" transform="translate(4802 782) rotate(-135)"/>
</clipPath>
<clipPath id="clip10_268_10729">
<rect width="512" height="512" fill="white" transform="translate(5376 256)"/>
</clipPath>
<clipPath id="clip11_268_10729">
<rect width="512" height="512" fill="white" transform="translate(6016 256)"/>
</clipPath>
<clipPath id="clip12_268_10729">
<rect width="512" height="512" fill="white" transform="translate(4736 2816)"/>
</clipPath>
</defs>
<g xmlns="http://www.w3.org/2000/svg" id="512/Amazonensabel">
<g id="512/Amazonensabel_2">
<g id="512/Handle_42">
<path id="512/Vector_471" d="M5500.4 2574.52C5498.12 2571.2 5497.36 2566.72 5498.06 2561.22C5496.62 2562.16 5495.12 2563.14 5493.6 2564.2C5492.78 2569.54 5493.42 2573.8 5495.5 2576.86C5497.22 2579.4 5499.62 2580.56 5501.26 2581.08C5502.46 2580.26 5503.7 2579.44 5505 2578.6C5503.44 2577.78 5501.74 2576.52 5500.38 2574.52H5500.4Z" fill="#878787"/>
<path id="512/Vector_472" d="M5475.9 2595.02C5473.16 2592.66 5471.36 2589.12 5470.5 2584.46C5468.88 2586.34 5467.34 2588.3 5465.88 2590.32C5467.2 2594.46 5469.2 2597.44 5471.86 2599.2C5474.36 2600.86 5476.96 2601.04 5478.7 2600.9C5479.5 2599.94 5480.4 2598.9 5481.42 2597.78C5479.7 2597.4 5477.74 2596.6 5475.9 2595.02Z" fill="#878787"/>
<path id="512/Vector_473" d="M5511.48 2553.4C5510.2 2554.06 5508.66 2554.9 5506.88 2555.9C5505.88 2561.6 5506.46 2566.12 5508.64 2569.32C5510.16 2571.56 5512.22 2572.72 5513.82 2573.34C5514.92 2572.72 5516.04 2572.1 5517.2 2571.48L5511.48 2553.4Z" fill="#878787"/>
<path id="512/Vector_474" d="M5477.22 2593.5C5479.22 2595.22 5481.42 2595.84 5483.1 2596.02C5484.32 2594.76 5485.68 2593.44 5487.2 2592.06C5485.5 2591.44 5483.6 2590.36 5481.96 2588.44C5479.5 2585.58 5478.28 2581.56 5478.22 2576.5C5476.18 2578.4 5474.16 2580.42 5472.26 2582.52C5472.92 2587.5 5474.58 2591.2 5477.24 2593.5H5477.22Z" fill="#878787"/>
<path id="512/Vector_475" d="M5507 2570.46C5504.72 2567.14 5503.96 2562.66 5504.66 2557.14C5503.3 2557.94 5501.82 2558.82 5500.3 2559.78C5499.28 2565.56 5499.84 2570.12 5502.04 2573.34C5503.52 2575.52 5505.48 2576.68 5507.06 2577.3C5508.52 2576.38 5510.06 2575.48 5511.66 2574.54C5510.1 2573.72 5508.38 2572.46 5507 2570.44V2570.46Z" fill="#878787"/>
<path id="512/Vector_476" d="M5493.88 2578C5491.74 2574.88 5490.96 2570.76 5491.44 2565.72C5489.94 2566.8 5488.42 2567.94 5486.88 2569.12C5486.02 2574.56 5486.64 2578.86 5488.76 2581.96C5490.42 2584.38 5492.68 2585.54 5494.32 2586.1C5495.88 2584.9 5497.52 2583.68 5499.3 2582.42C5497.54 2581.64 5495.5 2580.3 5493.9 2577.96L5493.88 2578Z" fill="#878787"/>
<path id="512/Vector_477" d="M5502.74 2523.72C5505.42 2524.84 5507.82 2525.12 5509.86 2524.48C5510.24 2524.36 5510.58 2524.22 5510.9 2524.06C5510.9 2524.02 5510.9 2524 5510.9 2524C5510.9 2524 5512.76 2523.72 5513.48 2519.02C5513.86 2516.5 5511.94 2512.16 5513.28 2508.3C5514.3 2505.36 5518.02 2502.9 5521.52 2500.6C5521.52 2500.6 5510.64 2497.12 5499.78 2515.06C5499.78 2515.06 5496 2519.44 5502.76 2523.72H5502.74Z" fill="#878787"/>
<path id="512/Vector_478" d="M5520.46 2540.18C5519.54 2539.36 5516.78 2536.8 5514.82 2533.7C5513.32 2531.3 5512.12 2528.04 5511.46 2525.96C5511.14 2526.1 5510.82 2526.24 5510.48 2526.36C5509.54 2526.66 5508.56 2526.8 5507.52 2526.8C5506.32 2526.8 5505.04 2526.6 5503.72 2526.2C5505.66 2531.68 5510.68 2544.68 5513.06 2550.82H5513.12L5513.4 2551.66C5514 2553.2 5514.36 2554.14 5514.36 2554.14C5514.36 2554.14 5514.3 2554.16 5514.2 2554.22L5521.62 2577.64C5522.8 2581.02 5524.5 2585.7 5526.62 2590.9C5527.04 2590.46 5527.52 2590.02 5528.12 2589.62C5529.58 2588.66 5531.32 2588.1 5533.32 2587.96C5532.18 2584.5 5528.84 2573.24 5531.46 2567.92C5534.2 2558.54 5540.26 2550.36 5547.32 2543.6C5538.28 2547.36 5526.78 2548.38 5520.48 2540.2L5520.46 2540.18Z" fill="#878787"/>
<path id="512/Vector_479" d="M5487.12 2583.14C5485 2580.02 5484.2 2575.92 5484.68 2570.9C5483.18 2572.12 5481.7 2573.38 5480.22 2574.7C5479.98 2580.14 5481.06 2584.3 5483.46 2587.14C5485.18 2589.16 5487.3 2590.12 5488.94 2590.56C5490.06 2589.6 5491.24 2588.6 5492.48 2587.58C5490.74 2586.8 5488.72 2585.46 5487.12 2583.14Z" fill="#878787"/>
<path id="512/Vector_480" d="M5470.8 2600.88C5468.06 2599.08 5465.96 2596.2 5464.48 2592.3C5462.42 2595.38 5460.62 2598.6 5459.14 2601.96C5465.36 2604.84 5471 2606.3 5474.3 2606.98C5474.9 2606 5475.8 2604.6 5477.08 2602.9C5475.24 2602.8 5473 2602.3 5470.8 2600.86V2600.88Z" fill="#878787"/>
<path id="512/Vector_481" d="M5540.42 2603.56C5543.68 2597.8 5537.66 2592.12 5534.92 2589.94C5532.66 2589.88 5530.74 2590.28 5529.24 2591.26C5528.44 2591.78 5527.86 2592.42 5527.42 2593.02C5526.84 2594.16 5518.8 2610.9 5548.22 2618.1C5548.22 2618.1 5536.26 2610.86 5540.4 2603.54L5540.42 2603.56Z" fill="#878787"/>
<path id="512/Vector_482" d="M5457.76 2603.54C5456.68 2603.88 5454.7 2604.68 5453.18 2606.24C5449.12 2610.38 5446.32 2617.48 5439.62 2607.58C5439.62 2607.58 5437.48 2616.82 5440.02 2622.32C5443.32 2629.44 5449.68 2633.1 5456.4 2632.44C5464.3 2631.64 5476.12 2627.28 5473.34 2608.88C5469.78 2608.12 5464.06 2606.58 5457.74 2603.56L5457.76 2603.54ZM5463.56 2622.46C5461.26 2624.4 5457.86 2624.12 5455.94 2621.86C5454.04 2619.6 5454.34 2616.2 5456.64 2614.26C5458.94 2612.32 5462.34 2612.6 5464.24 2614.86C5466.14 2617.12 5465.84 2620.52 5463.54 2622.46H5463.56Z" fill="#878787"/>
</g>
<g id="512/Blade_39">
<path id="512/Vector_483" d="M5743.98 2362.03C5743.98 2362.03 5758.6 2367.29 5744.36 2384.25C5732.66 2398.15 5666.96 2459.43 5610.74 2494.07C5557.52 2526.87 5528.04 2537.43 5525.52 2538.31C5533.38 2545.83 5545.84 2542.69 5554.66 2537.95C5555.06 2537.73 5555.5 2537.57 5556 2537.77C5557.02 2538.17 5557.1 2539.55 5556.3 2540.13C5556.18 2540.25 5555.8 2540.57 5555.68 2540.67C5547.98 2547.37 5541.04 2555.31 5536.72 2564.65C5536.98 2564.35 5537.24 2564.07 5537.56 2563.85C5545.3 2558.53 5594.56 2534.63 5614 2523.07C5627.08 2515.31 5688.5 2476.11 5741.38 2421.91C5767.16 2395.49 5787.76 2364.29 5806.44 2333.17C5827.08 2298.77 5836.38 2230.77 5836.38 2230.77C5836.38 2230.77 5783.1 2335.95 5743.96 2362.03H5743.98ZM5573.04 2533.73C5571.28 2535.21 5568.7 2534.99 5567.24 2533.27C5565.78 2531.55 5566.02 2528.95 5567.78 2527.47C5569.54 2525.99 5572.12 2526.21 5573.58 2527.93C5575.04 2529.65 5574.8 2532.25 5573.04 2533.73ZM5591.56 2524.67C5590.04 2525.95 5587.78 2525.77 5586.5 2524.27C5585.24 2522.77 5585.44 2520.51 5586.96 2519.23C5588.48 2517.95 5590.74 2518.13 5592.02 2519.63C5593.3 2521.13 5593.08 2523.39 5591.56 2524.67ZM5771.82 2358.69C5771.82 2358.69 5768.92 2361.59 5767.88 2362.61C5768.36 2364.87 5767.9 2367.13 5767.3 2369.11C5761.9 2384.01 5750.72 2395.79 5740.18 2407.25C5728.1 2420.31 5715.32 2432.73 5702.1 2444.63C5675.14 2467.93 5645.36 2487.45 5615.56 2506.85C5630.12 2496.69 5644.6 2486.43 5658.88 2475.89C5687.96 2455.39 5713.88 2431.27 5738.08 2405.29C5747.22 2395.81 5756.12 2385.87 5762.6 2374.33C5764.34 2370.95 5766.58 2366.83 5765.98 2363.03C5762.32 2362.23 5758.54 2361.55 5754.78 2361.97C5758.48 2360.69 5762.54 2360.77 5766.42 2361.25L5770.5 2357.35C5792 2336.11 5807.76 2309.23 5817.92 2280.87C5808.32 2309.59 5793 2336.89 5771.84 2358.69H5771.82Z" fill="white"/>
</g>
</g>
</g>
</svg>
