<svg width="512" height="512" viewBox="6016 256 512 512" fill="none" xmlns="http://www.w3.org/2000/svg">
<defs xmlns="http://www.w3.org/2000/svg">
<clipPath id="clip0_268_10729">
<rect width="512" height="512" fill="white" transform="translate(256 256)"/>
</clipPath>
<clipPath id="clip1_268_10729">
<rect width="512" height="512" fill="white" transform="translate(896 256)"/>
</clipPath>
<clipPath id="clip2_268_10729">
<rect width="512" height="512" fill="white" transform="translate(1536 256)"/>
</clipPath>
<clipPath id="clip3_268_10729">
<rect width="512" height="512" fill="white" transform="translate(2176 256)"/>
</clipPath>
<clipPath id="clip4_268_10729">
<rect width="512" height="512" fill="white" transform="translate(2816 256)"/>
</clipPath>
<clipPath id="clip5_268_10729">
<rect width="512" height="512" fill="white" transform="translate(3456 256)"/>
</clipPath>
<clipPath id="clip6_268_10729">
<rect width="592.227" height="238.456" fill="white" transform="translate(3418.64 638.171) rotate(-45)"/>
</clipPath>
<clipPath id="clip7_268_10729">
<rect width="512" height="512" fill="white" transform="translate(4096 256)"/>
</clipPath>
<clipPath id="clip8_268_10729">
<rect width="512" height="512" fill="white" transform="translate(4736 256)"/>
</clipPath>
<clipPath id="clip9_268_10729">
<rect width="116.168" height="650.538" fill="white" transform="translate(4802 782) rotate(-135)"/>
</clipPath>
<clipPath id="clip10_268_10729">
<rect width="512" height="512" fill="white" transform="translate(5376 256)"/>
</clipPath>
<clipPath id="clip11_268_10729">
<rect width="512" height="512" fill="white" transform="translate(6016 256)"/>
</clipPath>
<clipPath id="clip12_268_10729">
<rect width="512" height="512" fill="white" transform="translate(4736 2816)"/>
</clipPath>
</defs>
<g xmlns="http://www.w3.org/2000/svg" id="512/Barbaren Axe" clip-path="url(#clip11_268_10729)">
<g id="512/Barbaren Axe_2">
<g id="512/Handle_10">
<path id="512/Vector_108" d="M6112.55 696.624C6111.99 700.379 6110.51 701.813 6109.12 703.348C6097.36 716.583 6085.82 730.044 6071.76 740.984C6067.94 743.953 6063.98 746.772 6060.11 749.691C6058.04 751.263 6056.04 751.313 6052.52 747.496C6047.09 741.608 6041.26 736.031 6035.5 730.418C6032.85 727.848 6032.59 726.314 6033.64 724.293C6047.47 697.909 6077.37 694.478 6112.55 696.624Z" fill="#878787"/>
<path id="512/Vector_109" d="M6070.14 683.376C6075.38 679.01 6080.59 674.619 6085.88 670.303C6089 667.758 6092.32 665.437 6095.41 662.893C6097.12 661.483 6098.79 661.134 6101.89 664.327C6107.66 670.278 6113.61 676.053 6119.45 681.941C6120.7 683.189 6122.57 684.636 6121.86 686.046C6121.3 687.156 6120.86 688.715 6118.63 687.829C6109.51 684.199 6100.89 682.341 6092.68 682.016C6084.85 681.717 6077.96 683.164 6070.14 683.351L6070.14 683.376Z" fill="#878787"/>
<path id="512/Vector_110" d="M6054.68 699.456C6067.52 685.696 6086.03 681.081 6111.47 687.78C6113.46 688.303 6116.94 688.141 6117.6 691.372C6118.07 693.655 6116.23 695.414 6112.89 694.765C6100.34 692.32 6089.02 692.632 6078.3 694.154C6070.06 695.327 6062.42 697.485 6054.68 699.456Z" fill="#878787"/>
<path id="512/Vector_111" d="M6125.88 678.365L6334.61 469.638C6335.65 468.595 6335.71 466.967 6334.75 466.003L6316.59 447.84C6315.62 446.875 6314 446.939 6312.95 447.982L6104.23 656.709C6103.18 657.752 6103.12 659.379 6104.08 660.344L6122.25 678.507C6123.21 679.471 6124.84 679.408 6125.88 678.365Z" fill="#878787"/>
<path id="512/Vector_112" d="M6401.15 352.321L6320.99 432.483L6317.47 442.089C6317.15 442.962 6317.36 443.947 6318.02 444.609L6337.56 464.144C6338.19 464.78 6339.14 465.005 6340 464.718L6349.95 461.437L6430.11 381.275C6435.15 376.235 6435.15 368.077 6430.11 363.037L6419.38 352.309C6414.34 347.269 6406.18 347.269 6401.14 352.309L6401.15 352.321Z" fill="#878787"/>
</g>
<g id="512/Blade_11">
<path id="512/Vector_113" d="M6431.68 359.943L6454.41 349.939C6456.54 349.303 6458.29 347.88 6459.32 345.947L6483.05 301.687C6483.81 300.252 6482.14 298.606 6480.73 299.367L6436.63 323.28C6434.72 324.316 6433.3 326.062 6432.66 328.17L6422.62 350.962L6431.68 359.943ZM6439.34 329.381L6439.45 329.268C6442 331.339 6444.38 333.572 6446.75 335.842C6449.99 332.25 6460.71 321.883 6464.01 318.553C6468.05 314.785 6472.12 310.145 6476.23 306.864C6468.73 315.01 6455.23 329.73 6447.42 337.589L6446.81 338.175C6444.25 335.294 6441.67 332.462 6439.33 329.393L6439.34 329.381Z" fill="white"/>
<path id="512/Vector_114" d="M6452.54 481.646C6452.86 481.321 6454.12 480.061 6454.45 479.737C6518.13 417.302 6514.15 372.231 6514.15 372.231L6489.95 377.32C6489.95 377.32 6475.13 400.623 6454.76 405.501C6432.15 410.915 6414.79 402.157 6414.79 402.157L6374.98 441.964C6374.98 441.964 6386.87 458.468 6376.94 479.5C6367.07 500.42 6347.64 510.499 6347.64 510.499L6342.54 536.409C6342.54 536.409 6390.1 545.329 6452.54 481.646ZM6438.13 462.123C6453.32 447.353 6467.22 431.261 6477.95 412.973C6481.79 407.06 6485.12 400.835 6488.16 394.448C6485.78 401.122 6482.83 407.596 6479.47 413.871C6468.69 432.259 6454.61 448.588 6439.4 463.37C6419.49 483.23 6396.23 501.805 6368.42 508.703C6394.95 498.911 6418.46 482.319 6438.14 462.135L6438.13 462.123Z" fill="white"/>
<path id="512/Vector_115" d="M6246.18 440.055L6272.09 434.953C6272.09 434.953 6282.18 415.53 6303.09 405.65C6324.12 395.72 6340.63 407.609 6340.63 407.609L6380.43 367.802C6380.43 367.802 6371.68 350.438 6377.09 327.833C6381.97 307.462 6405.27 292.643 6405.27 292.643L6410.36 268.442C6410.36 268.442 6365.29 264.462 6302.87 328.158C6302.54 328.482 6301.28 329.742 6300.96 330.066C6237.26 392.489 6246.18 440.055 6246.18 440.055ZM6273.93 414.183C6280.81 386.389 6299.39 363.124 6319.26 343.202C6334.04 327.996 6350.37 313.887 6368.76 303.134C6375.03 299.778 6381.51 296.822 6388.18 294.439C6381.78 297.47 6375.56 300.826 6369.66 304.656C6351.37 315.384 6335.28 329.281 6320.51 344.475C6300.31 364.147 6283.72 387.649 6273.94 414.195L6273.93 414.183Z" fill="white"/>
</g>
</g>
</g>
</svg>
