<svg width="512" height="512" viewBox="4096 3456 512 512" fill="none" xmlns="http://www.w3.org/2000/svg">
<defs xmlns="http://www.w3.org/2000/svg">
<clipPath id="clip0_268_10729">
<rect width="512" height="512" fill="white" transform="translate(256 256)"/>
</clipPath>
<clipPath id="clip1_268_10729">
<rect width="512" height="512" fill="white" transform="translate(896 256)"/>
</clipPath>
<clipPath id="clip2_268_10729">
<rect width="512" height="512" fill="white" transform="translate(1536 256)"/>
</clipPath>
<clipPath id="clip3_268_10729">
<rect width="512" height="512" fill="white" transform="translate(2176 256)"/>
</clipPath>
<clipPath id="clip4_268_10729">
<rect width="512" height="512" fill="white" transform="translate(2816 256)"/>
</clipPath>
<clipPath id="clip5_268_10729">
<rect width="512" height="512" fill="white" transform="translate(3456 256)"/>
</clipPath>
<clipPath id="clip6_268_10729">
<rect width="592.227" height="238.456" fill="white" transform="translate(3418.64 638.171) rotate(-45)"/>
</clipPath>
<clipPath id="clip7_268_10729">
<rect width="512" height="512" fill="white" transform="translate(4096 256)"/>
</clipPath>
<clipPath id="clip8_268_10729">
<rect width="512" height="512" fill="white" transform="translate(4736 256)"/>
</clipPath>
<clipPath id="clip9_268_10729">
<rect width="116.168" height="650.538" fill="white" transform="translate(4802 782) rotate(-135)"/>
</clipPath>
<clipPath id="clip10_268_10729">
<rect width="512" height="512" fill="white" transform="translate(5376 256)"/>
</clipPath>
<clipPath id="clip11_268_10729">
<rect width="512" height="512" fill="white" transform="translate(6016 256)"/>
</clipPath>
<clipPath id="clip12_268_10729">
<rect width="512" height="512" fill="white" transform="translate(4736 2816)"/>
</clipPath>
</defs>
<g xmlns="http://www.w3.org/2000/svg" id="512/Barong">
<g id="512/Barong_2">
<g id="512/Blade_52">
<path id="512/Vector_712" d="M4236.35 3778.38L4261.95 3807.92C4541.37 3618.72 4577.69 3490 4577.69 3490C4440.31 3570.72 4262.23 3751.76 4236.35 3778.38ZM4423.95 3667.68C4377.81 3708.46 4328.39 3748.76 4276.95 3781.12C4377.97 3710.3 4471.89 3627.12 4544.63 3526.94L4545.01 3527.18C4512.95 3580.42 4469.99 3626.3 4423.93 3667.68H4423.95Z" fill="white"/>
</g>
<g id="512/Handle_60">
<path id="512/Vector_713" d="M4189.07 3870.04C4205.41 3846.68 4241.17 3822.94 4249.29 3817.72L4223.55 3788.02L4154.17 3856.78L4153.99 3857.2C4158.93 3860.82 4174.21 3870.94 4189.07 3870.04Z" fill="#878787"/>
<path id="512/Vector_714" d="M4146.23 3878.46C4151.33 3882.14 4165.23 3891.1 4179.09 3891.1C4179.73 3888.68 4180.69 3885.92 4182.03 3882.8C4167.85 3882.4 4154.25 3873.66 4148.99 3869.84C4148.05 3872.9 4147.13 3875.78 4146.21 3878.46H4146.23Z" fill="#878787"/>
<path id="512/Vector_715" d="M4184.59 3908.84C4183.59 3908.52 4183.95 3908.6 4183.95 3908.6C4183.95 3908.6 4180.53 3907.88 4178.87 3903.68C4177.99 3903.78 4177.09 3903.88 4176.21 3903.88C4161.49 3904.18 4147.07 3894.92 4141.57 3890.92C4138.51 3898.36 4135.71 3903.68 4133.33 3907.46C4133.37 3907.46 4133.39 3907.5 4133.39 3907.5C4131.77 3910.64 4133.99 3913.06 4136.83 3914.3C4144.71 3918.56 4153.67 3920.4 4162.55 3921C4171.91 3921.98 4181.91 3919.88 4188.27 3912.84C4189.13 3911.04 4186.29 3910.22 4184.79 3909.52L4184.81 3909.3C4185.03 3909.3 4184.39 3908.84 4184.59 3908.84Z" fill="#878787"/>
<path id="512/Vector_716" d="M4183.07 3880.54C4183.57 3879.46 4184.11 3878.36 4184.69 3877.22C4185.51 3875.62 4186.45 3874.02 4187.49 3872.42C4172.79 3872.56 4158.43 3863.28 4153.07 3859.38L4150.13 3866.14C4149.99 3866.62 4149.85 3867.06 4149.71 3867.52C4154.27 3870.88 4168.67 3880.52 4183.07 3880.54Z" fill="#878787"/>
<path id="512/Vector_717" d="M4178.27 3901.42C4177.89 3899.36 4177.91 3896.74 4178.57 3893.38C4164.57 3893.2 4151.05 3884.74 4145.45 3880.72C4144.43 3883.6 4143.45 3886.26 4142.47 3888.72C4147.61 3892.46 4163.29 3902.74 4178.27 3901.42Z" fill="#878787"/>
<path id="512/Vector_718" d="M4200.41 3905.62C4194.89 3909.2 4190.73 3909.9 4187.97 3909.72C4190.37 3910.66 4191.37 3912.98 4188.59 3915.78C4181.59 3922.3 4171.41 3923.52 4162.47 3922.44C4153.47 3921.62 4144.41 3919.42 4136.59 3914.78C4133.95 3913.48 4131.81 3911.12 4132.89 3908.2C4130.21 3912.34 4128.07 3914.5 4126.73 3915.58C4125.89 3916.26 4125.75 3917.52 4126.43 3918.34C4136.35 3930.24 4151.55 3932.94 4163.43 3932.92C4173.41 3932.9 4182.81 3931.3 4190.53 3924.98C4190.53 3924.98 4195.05 3921.32 4197.05 3918.94C4199.17 3916.42 4202.69 3912.28 4203.37 3911.12C4205.73 3907.1 4209.01 3900.06 4200.45 3905.6L4200.41 3905.62Z" fill="#878787"/>
<path id="512/Vector_719" d="M4257.79 3810.74C4257.91 3810.66 4233.17 3781.66 4233.17 3781.66H4233.15L4230.61 3778.88C4229.31 3777.44 4227.07 3777.36 4225.65 3778.68L4221.93 3782.18L4225.29 3786.3L4225.19 3786.4L4255.49 3821.36L4259.29 3818C4260.81 3816.58 4260.91 3814.18 4259.51 3812.64L4257.79 3810.76V3810.74Z" fill="#878787"/>
</g>
</g>
</g>
</svg>
