<svg width="512" height="512" viewBox="5376 1536 512 512" fill="none" xmlns="http://www.w3.org/2000/svg">
<defs xmlns="http://www.w3.org/2000/svg">
<clipPath id="clip0_268_10729">
<rect width="512" height="512" fill="white" transform="translate(256 256)"/>
</clipPath>
<clipPath id="clip1_268_10729">
<rect width="512" height="512" fill="white" transform="translate(896 256)"/>
</clipPath>
<clipPath id="clip2_268_10729">
<rect width="512" height="512" fill="white" transform="translate(1536 256)"/>
</clipPath>
<clipPath id="clip3_268_10729">
<rect width="512" height="512" fill="white" transform="translate(2176 256)"/>
</clipPath>
<clipPath id="clip4_268_10729">
<rect width="512" height="512" fill="white" transform="translate(2816 256)"/>
</clipPath>
<clipPath id="clip5_268_10729">
<rect width="512" height="512" fill="white" transform="translate(3456 256)"/>
</clipPath>
<clipPath id="clip6_268_10729">
<rect width="592.227" height="238.456" fill="white" transform="translate(3418.64 638.171) rotate(-45)"/>
</clipPath>
<clipPath id="clip7_268_10729">
<rect width="512" height="512" fill="white" transform="translate(4096 256)"/>
</clipPath>
<clipPath id="clip8_268_10729">
<rect width="512" height="512" fill="white" transform="translate(4736 256)"/>
</clipPath>
<clipPath id="clip9_268_10729">
<rect width="116.168" height="650.538" fill="white" transform="translate(4802 782) rotate(-135)"/>
</clipPath>
<clipPath id="clip10_268_10729">
<rect width="512" height="512" fill="white" transform="translate(5376 256)"/>
</clipPath>
<clipPath id="clip11_268_10729">
<rect width="512" height="512" fill="white" transform="translate(6016 256)"/>
</clipPath>
<clipPath id="clip12_268_10729">
<rect width="512" height="512" fill="white" transform="translate(4736 2816)"/>
</clipPath>
</defs>
<g xmlns="http://www.w3.org/2000/svg" id="512/Baseball Bat">
<g id="512/Baseball Bat_2">
<g id="512/Body_3">
<path id="512/Vector_325" d="M5440.48 2009.25C5436.61 2006.27 5432.12 2002.55 5427.54 1998.12C5427.13 1997.71 5426.71 1997.3 5426.31 1996.9C5422.26 1992.85 5418.9 1988.77 5416.19 1985.12C5414.8 1984.75 5412.86 1983.7 5404.75 1986.14C5398.61 1987.97 5397.27 1993.14 5402 1998.96C5405.64 2003.42 5422.21 2019.99 5426.68 2023.64C5432.5 2028.38 5437.67 2027.03 5439.51 2020.9C5442.06 2012.38 5440.78 2010.66 5440.48 2009.25Z" fill="white"/>
<path id="512/Vector_326" d="M5812.94 1644.07C5814.49 1646.22 5815.97 1648.48 5817.01 1650.84C5818.56 1649.39 5820.11 1647.93 5821.66 1646.47L5813.47 1643.21L5812.94 1644.07Z" fill="white"/>
<path id="512/Vector_327" d="M5736.37 1655.4L5736.51 1654.27L5737.43 1654.73L5737.28 1655.84L5745.47 1662.34L5747.69 1660.86C5745.99 1657.29 5744.09 1653.77 5742.42 1650.19C5741.71 1648.64 5740.96 1647.06 5740.33 1645.47C5737.83 1648.16 5735.34 1650.85 5732.84 1653.56C5733.85 1654.26 5734.84 1655.02 5735.8 1655.78L5736.35 1655.37L5736.37 1655.4Z" fill="white"/>
<path id="512/Vector_328" d="M5742.6 1646.05C5744.9 1651.54 5747.74 1656.87 5750.35 1662.26C5751.48 1664.6 5752.59 1666.96 5753.71 1669.3C5755.43 1670.98 5757.08 1672.71 5758.85 1674.41C5762.82 1678.23 5767.8 1681.46 5772.75 1683.42C5775.22 1684.4 5777.9 1684.93 5780.06 1683.88C5782.19 1682.84 5783.33 1680.57 5783.7 1678.19C5784.27 1674.38 5782.85 1670.26 5781.1 1666.3C5778.02 1663.73 5774.89 1661.19 5771.77 1658.67L5771.36 1659.08L5771.07 1661.18L5770.15 1660.71L5770.44 1658.56L5762.05 1651.77L5759.66 1653.36L5758.93 1652.59L5761.85 1650.66C5758.24 1647.68 5754.6 1644.69 5751.13 1641.52C5750.13 1641.55 5749.15 1641.59 5748.15 1641.62C5746.95 1641.67 5745.74 1641.71 5744.54 1641.74C5744.33 1641.74 5744.08 1641.77 5743.8 1641.8C5743.12 1642.52 5742.45 1643.25 5741.78 1643.96C5742.03 1644.66 5742.31 1645.35 5742.6 1646.05Z" fill="white"/>
<path id="512/Vector_329" d="M5804.72 1660.41L5805.13 1661.98C5805.72 1661.43 5806.32 1660.87 5806.91 1660.3C5806.26 1660.13 5805.61 1659.93 5804.96 1659.74L5804.71 1660.4L5804.72 1660.41Z" fill="white"/>
<path id="512/Vector_330" d="M5829.49 1638.68C5829.07 1636.39 5827.62 1634.18 5826.16 1632.23C5826.15 1632.22 5826.14 1632.21 5826.12 1632.2C5825.72 1631.99 5825.3 1631.78 5824.89 1631.57C5818.99 1628.47 5813.36 1624.66 5807.88 1620.62C5805.55 1620.61 5803.25 1620.63 5800.95 1620.69C5798.19 1620.74 5795.44 1620.84 5792.71 1620.99C5796.93 1625.61 5801.32 1630.12 5805.47 1634.81C5807.03 1635.81 5808.59 1636.8 5810.14 1637.82C5811.35 1638.6 5812.62 1639.49 5813.93 1640.34L5814.12 1640.01L5813.85 1638.82L5814.8 1638.96L5815.08 1640.14L5824.5 1643.76L5825.96 1641.37L5826.67 1641.78C5827.63 1640.88 5828.58 1639.98 5829.52 1639.09C5829.51 1638.96 5829.51 1638.83 5829.48 1638.69L5829.49 1638.68Z" fill="white"/>
<path id="512/Vector_331" d="M5724.25 1664.78C5725.6 1668.91 5728.14 1672.72 5730.94 1676.24C5733.86 1679.9 5737.13 1683.33 5740.25 1686.88L5741.63 1686.56L5742.18 1685.62L5742.94 1686.35L5742.4 1687.28L5748.37 1695.81L5751.26 1695.28L5751.73 1696.21L5748.47 1696.8L5747.99 1696.96C5748.25 1697.39 5748.51 1697.82 5748.76 1698.25C5749.99 1700.41 5750.91 1702.58 5751.61 1704.78C5752.67 1705.29 5753.72 1705.76 5754.8 1706.14C5755.51 1706.4 5756.24 1706.57 5756.95 1706.7C5759.38 1704.48 5761.82 1702.25 5764.25 1700.02C5763.97 1697.77 5763.24 1695.45 5762.48 1693.25C5761.23 1689.67 5759.67 1686.13 5758.04 1682.64C5756.05 1678.37 5753.85 1674.16 5751.8 1669.91C5751 1669.15 5750.17 1668.42 5749.3 1667.74C5747.78 1666.56 5746.17 1665.59 5744.56 1664.61L5743.86 1665.27L5743.58 1667.38L5742.66 1666.92L5742.95 1664.76L5734.56 1657.97L5732.17 1659.56L5731.44 1658.79L5734.25 1656.92C5734.11 1656.82 5733.98 1656.7 5733.84 1656.59C5733.1 1656.04 5732.36 1655.48 5731.6 1654.96C5729.01 1657.76 5726.42 1660.58 5723.84 1663.39C5723.96 1663.86 5724.08 1664.34 5724.24 1664.82L5724.25 1664.78Z" fill="white"/>
<path id="512/Vector_332" d="M5737.75 1695.28C5741.33 1698.13 5745.16 1701.17 5749.2 1703.49C5748.44 1701.49 5747.47 1699.52 5746.25 1697.58L5745.72 1697.76L5744.7 1699.5L5743.94 1698.77L5744.99 1696.99L5738.91 1688.13L5735.94 1688.67L5735.47 1687.74L5738.18 1687.25C5737.84 1686.86 5737.49 1686.46 5737.14 1686.08C5731.43 1679.71 5724.9 1673 5722.34 1664.98C5719.36 1668.23 5716.38 1671.48 5713.41 1674.74C5713.13 1675.04 5712.86 1675.35 5712.58 1675.65C5715.48 1677.21 5718.28 1679.29 5720.89 1681.35C5726.61 1685.85 5732.06 1690.73 5737.74 1695.27L5737.75 1695.28Z" fill="white"/>
<path id="512/Vector_333" d="M5814.11 1649.15C5813.42 1647.95 5812.67 1646.78 5811.89 1645.63L5811.05 1645.16L5811.29 1644.77C5809.23 1641.86 5806.94 1639.06 5804.53 1636.35C5804.27 1636.18 5804.01 1636.01 5803.75 1635.84C5796.28 1631.05 5788.72 1626.41 5781.1 1621.94C5777.4 1622.35 5773.72 1622.88 5770.1 1623.52C5768.08 1623.87 5766.07 1624.28 5764.08 1624.74C5764.66 1626.01 5765.24 1627.28 5765.82 1628.56L5766.55 1627.87L5767.16 1628.72L5766.39 1629.45L5770.12 1637.92C5770.25 1638.2 5770.38 1638.48 5770.51 1638.76L5773.56 1638.96L5773.83 1639.93L5770.96 1639.75C5771.19 1640.28 5771.44 1640.81 5771.68 1641.33C5771.88 1641.75 5772.06 1642.17 5772.26 1642.59C5775.84 1644 5779.36 1645.81 5782.81 1647.56C5786.73 1649.55 5790.64 1651.58 5794.6 1653.46L5794.31 1652.25L5795.26 1652.37L5795.57 1653.55L5805.03 1656.93L5806.43 1654.49L5807.35 1654.99L5805.77 1657.74L5805.67 1658C5806.64 1658.32 5807.62 1658.59 5808.59 1658.82C5810.92 1656.64 5813.25 1654.45 5815.59 1652.26C5815.18 1651.14 5814.68 1650.07 5814.16 1649.18L5814.11 1649.15Z" fill="white"/>
<path id="512/Vector_334" d="M5803.75 1660.25L5794 1656.65L5792.57 1659.15L5791.65 1658.65L5793.54 1655.34L5793.56 1655.37L5793.68 1655.12C5790.32 1653.49 5787.01 1651.73 5783.81 1650.1C5780.37 1648.34 5776.88 1646.5 5773.32 1645C5775.65 1650.09 5777.98 1655.19 5780.31 1660.28C5781.08 1661.96 5781.9 1663.69 5782.69 1665.43C5785.97 1668.16 5789.27 1670.92 5792.37 1673.9C5796.42 1670.12 5800.48 1666.32 5804.52 1662.53L5804.33 1662.51L5803.74 1660.24L5803.75 1660.25Z" fill="white"/>
<path id="512/Vector_335" d="M5761.29 1623.06C5761.19 1623.16 5761.08 1623.26 5760.98 1623.36C5761.12 1623.33 5761.24 1623.29 5761.36 1623.25C5761.33 1623.18 5761.3 1623.1 5761.28 1623.05L5761.29 1623.06Z" fill="white"/>
<path id="512/Vector_336" d="M5844.87 1620.03L5844.82 1621.2L5843.88 1620.8L5843.94 1619.65L5835.37 1613.74L5833.21 1615.49L5832.43 1614.77L5834.86 1612.79L5835.24 1612.35C5830.78 1608.72 5826.33 1605.07 5821.89 1601.43C5816.33 1596.89 5810.76 1592.34 5805.21 1587.8C5803.72 1586.58 5801.27 1584.45 5798.82 1583.06C5796.77 1585.24 5794.72 1587.42 5792.68 1589.61C5793.01 1590.22 5793.39 1590.83 5793.76 1591.38C5794.02 1591.74 5794.3 1592.08 5794.57 1592.44L5795.04 1592.29L5795.49 1591.28L5796.3 1591.95L5795.85 1592.93L5802.48 1601.04L5805.27 1600.24L5805.81 1601.14L5802.72 1602.02C5806.65 1606.59 5810.57 1611.17 5814.49 1615.73C5815.42 1616.81 5816.36 1617.88 5817.3 1618.96C5824.47 1619.33 5832.12 1619.95 5839.25 1622.61C5840.88 1623.22 5842.77 1624.05 5844.17 1625.34C5845.75 1623.87 5847.32 1622.4 5848.89 1620.91C5847.69 1620.66 5846.5 1620.2 5845.33 1619.62L5844.89 1620.02L5844.87 1620.03Z" fill="white"/>
<path id="512/Vector_337" d="M5782.22 1608.04C5784.83 1611.93 5787.86 1615.57 5791.01 1619.08C5795.72 1618.79 5800.47 1618.65 5805.24 1618.66C5801.83 1616.1 5798.48 1613.47 5795.16 1610.88C5791.1 1607.74 5787.07 1604.53 5782.87 1601.6C5782.58 1601.39 5782.28 1601.2 5781.99 1600.99C5781.17 1601.87 5780.34 1602.74 5779.52 1603.62C5780.35 1605.12 5781.26 1606.6 5782.22 1608.04Z" fill="white"/>
<path id="512/Vector_338" d="M5762.96 1622.31C5763.03 1622.46 5763.12 1622.63 5763.19 1622.78C5768.06 1621.61 5773.1 1620.82 5778.19 1620.23C5775.09 1618.45 5771.99 1616.69 5768.88 1614.97C5766.82 1617.18 5764.73 1619.39 5762.66 1621.6C5762.77 1621.84 5762.87 1622.07 5762.97 1622.3L5762.96 1622.31Z" fill="white"/>
<path id="512/Vector_339" d="M5825.94 1602.46C5829.4 1605.29 5832.82 1608.29 5836.34 1611.13L5836.73 1610.68L5836.83 1608.52L5837.77 1608.92L5837.67 1611.13L5846.45 1617.33L5848.66 1615.53L5849.43 1616.25L5846.85 1618.34C5848.12 1618.87 5849.41 1619.2 5850.72 1619.21C5851.12 1618.82 5851.52 1618.44 5851.94 1618.07C5853.31 1616.78 5854.64 1615.45 5855.95 1614.1C5855.63 1610.04 5851.8 1605.82 5849.12 1602.7C5845.15 1598.08 5841.1 1593.51 5836.86 1589.11C5833.6 1585.73 5830.21 1582.41 5826.67 1579.29L5826.63 1580.36L5825.69 1579.96L5825.74 1578.82L5817.18 1572.9L5815.01 1574.66L5814.24 1573.93L5816.67 1571.95L5816.95 1571.63C5815.51 1570.62 5814.04 1569.66 5812.55 1568.75C5810.84 1570.35 5809.2 1572.01 5807.61 1573.71C5805.12 1576.37 5802.61 1579.04 5800.12 1581.7C5803.4 1583.6 5806.45 1586.51 5809.27 1588.81C5814.83 1593.36 5820.4 1597.9 5825.95 1602.45L5825.94 1602.46Z" fill="white"/>
<path id="512/Vector_340" d="M5802.33 1614.16C5804.32 1615.69 5806.33 1617.19 5808.36 1618.68C5810.51 1618.71 5812.66 1618.77 5814.83 1618.86C5814.21 1618.16 5813.59 1617.46 5812.99 1616.75C5809 1612.11 5805.01 1607.47 5801.03 1602.83L5800.06 1603.29L5799.23 1605.15L5798.41 1604.48L5799.27 1602.58L5792.53 1594.16L5789.68 1594.97L5789.14 1594.07L5792.66 1593.06C5792.18 1592.39 5791.73 1591.73 5791.34 1591.05C5788.65 1593.9 5785.97 1596.77 5783.28 1599.63C5785.16 1600.92 5786.98 1602.34 5788.76 1603.68C5793.31 1607.14 5797.79 1610.68 5802.34 1614.15L5802.33 1614.16Z" fill="white"/>
<path id="512/Vector_341" d="M5818.51 1569.83L5818.61 1567.67L5819.54 1568.07L5819.45 1570.28L5828.22 1576.48L5830.43 1574.68L5831.21 1575.41L5828.28 1577.78L5828.26 1577.76L5827.92 1578.06C5835.73 1584.93 5842.79 1592.66 5849.58 1600.52C5852.69 1604.11 5856.23 1607.96 5857.52 1612.43C5858.97 1610.88 5860.35 1609.28 5861.7 1607.65C5866.86 1601.35 5867.15 1593.74 5861.27 1585.99C5858.25 1582.01 5843.64 1567.4 5839.65 1564.37C5831.9 1558.49 5824.3 1558.77 5817.99 1563.94C5816.6 1565.09 5815.24 1566.28 5813.9 1567.5C5815.32 1568.38 5816.73 1569.32 5818.11 1570.28L5818.51 1569.83Z" fill="white"/>
<path id="512/Vector_342" d="M5842.7 1626.47C5841.77 1625.73 5840.69 1625.2 5839.64 1624.77C5836.41 1623.44 5833.03 1622.78 5829.74 1622.25C5826.18 1621.67 5822.62 1621.28 5819.07 1621.03C5821.86 1624.21 5824.64 1627.41 5827.22 1630.72C5828.65 1631.4 5830.09 1632.04 5831.56 1632.56C5832.77 1633 5834.07 1633.37 5835.35 1633.59C5837.83 1631.25 5840.32 1628.92 5842.81 1626.58C5842.77 1626.54 5842.73 1626.5 5842.69 1626.46L5842.7 1626.47Z" fill="white"/>
<path id="512/Vector_343" d="M5831.14 1637.57C5832.02 1636.76 5832.87 1635.95 5833.74 1635.13C5832.27 1634.77 5830.78 1634.26 5829.31 1633.65C5830.08 1634.91 5830.74 1636.24 5831.15 1637.58L5831.14 1637.57Z" fill="white"/>
<path id="512/Vector_344" d="M5749.08 1637.11C5749.87 1637.94 5750.7 1638.74 5751.57 1639.52C5756.09 1639.42 5760.64 1639.52 5765.26 1640.47L5765.24 1640.45L5766.73 1639.05L5762.62 1629.41L5759.48 1629.22L5759.22 1628.25L5763.38 1628.51L5763.39 1628.52L5763.8 1628.54C5763.29 1627.42 5762.77 1626.3 5762.27 1625.18C5760.9 1625.54 5759.54 1625.91 5758.21 1626.33C5755.02 1629.76 5751.8 1633.18 5748.61 1636.61C5748.78 1636.78 5748.94 1636.96 5749.08 1637.11Z" fill="white"/>
<path id="512/Vector_345" d="M5747.35 1637.98C5746.81 1638.56 5746.27 1639.14 5745.74 1639.72C5746.83 1639.69 5747.92 1639.65 5749.01 1639.61C5748.46 1639.11 5747.88 1638.56 5747.35 1637.98Z" fill="white"/>
<path id="512/Vector_346" d="M5781.16 1619.9C5782.01 1619.81 5782.86 1619.73 5783.72 1619.65C5785.4 1619.49 5787.08 1619.37 5788.77 1619.25C5784.83 1614.78 5781.12 1610.07 5778.24 1605C5775.55 1607.85 5772.88 1610.71 5770.19 1613.56C5771.69 1614.4 5773.18 1615.29 5774.67 1616.14C5776.83 1617.36 5779 1618.63 5781.15 1619.89L5781.16 1619.9Z" fill="white"/>
<path id="512/Vector_347" d="M5766.06 1682.06C5762.28 1679.84 5759.06 1677.11 5755.97 1674.04C5756.55 1675.28 5757.14 1676.53 5757.75 1677.76C5760.95 1684.31 5764.33 1691.13 5765.84 1698.02C5765.88 1698.17 5765.9 1698.31 5765.93 1698.46C5770.3 1694.44 5774.67 1690.4 5779.02 1686.36C5774.78 1687 5770.03 1684.38 5766.06 1682.06Z" fill="white"/>
<path id="512/Vector_348" d="M5823.34 1628.65C5821.18 1626.02 5818.89 1623.45 5816.62 1620.89C5814.78 1620.79 5812.95 1620.71 5811.13 1620.68C5813.25 1622.19 5815.37 1623.67 5817.53 1625.07C5819.43 1626.31 5821.36 1627.52 5823.35 1628.66L5823.34 1628.65Z" fill="white"/>
<path id="512/Vector_349" d="M5784.12 1668.88C5785.08 1671.5 5785.78 1674.13 5785.79 1676.73C5785.8 1678.04 5785.62 1679.35 5785.25 1680.56C5787.2 1678.76 5789.14 1676.94 5791.08 1675.12C5790.9 1674.94 5790.7 1674.76 5790.51 1674.58C5788.43 1672.64 5786.28 1670.75 5784.12 1668.88Z" fill="white"/>
<path id="512/Vector_350" d="M5813.04 1641.91L5813.06 1641.93L5813.09 1641.91C5812.86 1641.76 5812.63 1641.62 5812.42 1641.47C5811.46 1640.84 5810.48 1640.21 5809.52 1639.59C5810.47 1640.76 5811.4 1641.95 5812.29 1643.16L5813.05 1641.92L5813.04 1641.91Z" fill="white"/>
<path id="512/Vector_351" d="M5712.62 1721.33C5712.4 1721.23 5712.17 1721.13 5711.94 1721.02C5716.14 1726.94 5719.41 1734.37 5719.06 1740.89C5722.54 1737.8 5726.05 1734.66 5729.6 1731.48C5728.08 1730.45 5726.61 1729.32 5725.14 1728.27C5721.23 1725.48 5716.85 1723.34 5712.61 1721.34L5712.62 1721.33Z" fill="white"/>
<path id="512/Vector_352" d="M5752.96 1710.18C5752.96 1710.18 5752.98 1710.29 5752.99 1710.33C5753.74 1709.65 5754.49 1708.95 5755.24 1708.27C5754.27 1707.97 5753.28 1707.59 5752.31 1707.14C5752.57 1708.14 5752.77 1709.15 5752.96 1710.18Z" fill="white"/>
<path id="512/Vector_353" d="M5725.93 1708.12C5725.64 1707.95 5725.35 1707.76 5725.05 1707.58C5726.12 1709.02 5727.18 1710.48 5728.21 1711.93C5730.7 1715.43 5733.18 1718.94 5735.24 1722.65C5735.68 1723.45 5736.16 1724.3 5736.6 1725.18C5739.44 1722.63 5742.3 1720.03 5745.21 1717.39C5743.66 1716.67 5742.15 1716.15 5740.48 1715.54C5735.44 1713.69 5730.61 1711 5725.91 1708.12L5725.93 1708.12Z" fill="white"/>
<path id="512/Vector_354" d="M5748.15 1661.84L5745.96 1663.29C5746.92 1663.87 5747.88 1664.45 5748.81 1665.11C5749.24 1665.42 5749.65 1665.73 5750.06 1666.06C5749.8 1665.46 5749.5 1664.86 5749.24 1664.25C5748.9 1663.44 5748.51 1662.63 5748.14 1661.83L5748.15 1661.84Z" fill="white"/>
<path id="512/Vector_355" d="M5709.61 1696.12C5711.68 1697.22 5713.71 1698.4 5715.71 1699.63L5711.93 1695.3L5709.61 1696.13L5709.61 1696.12Z" fill="white"/>
<path id="512/Vector_356" d="M5677.56 1715.13C5677.89 1715.98 5678.02 1716.75 5678.11 1717.6C5678.66 1722.14 5682.07 1726.01 5685.76 1729C5688.04 1730.86 5690.5 1732.45 5693.01 1733.93L5693.57 1733.25L5693.59 1731.06L5694.54 1731.43L5694.51 1733.66L5703.43 1739.62L5705.57 1737.74L5706.37 1738.44L5704.38 1740.18C5707.65 1741.92 5710.94 1743.59 5714.23 1745.21C5715.03 1744.49 5715.83 1743.79 5716.63 1743.08C5717.39 1739.99 5717.1 1736.54 5716.05 1733.1C5714.52 1728.05 5711.74 1723.65 5708.47 1719.49C5704.65 1717.84 5700.77 1716.38 5696.86 1715.12C5692.27 1713.65 5687.44 1712.08 5682.83 1711.9C5682.11 1711.88 5681.08 1711.81 5680.08 1711.85C5679.19 1712.85 5678.31 1713.84 5677.43 1714.83C5677.48 1714.93 5677.52 1715.03 5677.56 1715.13Z" fill="white"/>
<path id="512/Vector_357" d="M5708.75 1695.66L5708.58 1695.41L5712.23 1694.12C5710.31 1691.81 5708.35 1689.51 5706.35 1687.25C5705.69 1686.51 5704.97 1685.69 5704.26 1684.83C5702.26 1687.04 5700.29 1689.24 5698.34 1691.41C5700.71 1692.07 5703.05 1692.98 5705.35 1694.01C5706.49 1694.53 5707.63 1695.1 5708.75 1695.67L5708.75 1695.66Z" fill="white"/>
<path id="512/Vector_358" d="M5769.81 1641.69C5769.51 1641.05 5769.23 1640.43 5768.94 1639.79L5767.3 1639.92L5766.46 1640.71C5767.11 1640.87 5767.75 1641.03 5768.4 1641.22C5768.88 1641.36 5769.35 1641.51 5769.82 1641.68L5769.81 1641.69Z" fill="white"/>
<path id="512/Vector_359" d="M5693.5 1697.88C5693.89 1698.88 5694.43 1699.82 5695.04 1700.74L5695.52 1700.54L5695.91 1699.52L5696.75 1700.14L5696.37 1701.16L5703.35 1708.98L5706.06 1708.02L5706.65 1708.89L5703.6 1709.97L5703.06 1710.26C5705.32 1712.78 5707.55 1715.3 5709.64 1717.93C5710.94 1718.51 5712.23 1719.09 5713.53 1719.71C5717.63 1721.67 5721.9 1723.72 5725.68 1726.41C5727.39 1727.63 5729.15 1729.05 5730.98 1730.24C5732.39 1728.98 5733.79 1727.72 5735.2 1726.46C5733.82 1723.44 5732.01 1720.52 5730.11 1717.73C5727.17 1713.39 5724.07 1709.12 5720.87 1704.92C5720.52 1704.7 5720.18 1704.48 5719.83 1704.27L5719.17 1706.02L5718.33 1705.4L5718.97 1703.74C5716.41 1702.12 5713.85 1700.52 5711.22 1699.04C5708.72 1697.61 5706.18 1696.31 5703.56 1695.2C5701.52 1694.34 5699.17 1693.34 5696.97 1692.95C5695.72 1694.34 5694.48 1695.73 5693.25 1697.1C5693.33 1697.37 5693.42 1697.63 5693.52 1697.88L5693.5 1697.88Z" fill="white"/>
<path id="512/Vector_360" d="M5710.63 1689.44C5711.77 1690.76 5712.88 1692.09 5713.99 1693.43L5714.31 1693.3L5714.69 1692.27L5715.53 1692.89L5715.15 1693.91L5722.14 1701.74L5724.85 1700.77L5725.43 1701.65L5722.38 1702.72L5721.69 1703.11C5721.81 1703.26 5721.92 1703.41 5722.04 1703.56C5725.98 1706.06 5729.94 1708.53 5734.06 1710.67C5738.21 1712.82 5742.57 1713.95 5746.68 1716.09C5748.08 1714.81 5749.49 1713.52 5750.92 1712.24C5751.05 1712.11 5751.17 1712.01 5751.31 1711.89C5751.19 1711.18 5751.07 1710.49 5750.95 1709.8C5750.72 1708.51 5750.41 1707.25 5750.05 1706.01C5748.82 1705.33 5747.63 1704.61 5746.52 1703.9C5740.31 1699.93 5734.59 1695.05 5728.91 1690.27C5723.47 1685.68 5717.85 1680.44 5711.6 1677.15C5711.52 1677.1 5711.43 1677.07 5711.35 1677.02C5709.38 1679.2 5707.41 1681.35 5705.49 1683.48C5707.1 1685.53 5708.96 1687.46 5710.65 1689.44L5710.63 1689.44Z" fill="white"/>
<path id="512/Vector_361" d="M5770.87 1644.03C5770.29 1643.82 5769.71 1643.61 5769.12 1643.42C5764.43 1641.92 5759.72 1641.47 5755.11 1641.45C5754.65 1641.44 5754.19 1641.47 5753.72 1641.47C5756.86 1644.24 5760.08 1646.93 5763.3 1649.6L5763.81 1649.22L5763.96 1648.09L5764.88 1648.55L5764.73 1649.66L5772.91 1656.16L5775.25 1654.61L5775.98 1655.38L5773.36 1657.12L5772.99 1657.49C5775.14 1659.23 5777.3 1660.97 5779.44 1662.74C5779.19 1662.23 5778.96 1661.72 5778.73 1661.21C5776.11 1655.47 5773.49 1649.73 5770.86 1644L5770.87 1644.03Z" fill="white"/>
<path id="512/Vector_362" d="M5794.34 1625.38C5793.03 1623.97 5791.73 1622.56 5790.43 1621.12C5788.33 1621.25 5786.22 1621.42 5784.13 1621.62C5789.41 1624.74 5794.63 1627.93 5799.83 1631.21C5797.98 1629.24 5796.13 1627.31 5794.34 1625.38Z" fill="white"/>
<path id="512/Vector_363" d="M5697.76 1713.43C5700.52 1714.33 5703.26 1715.33 5705.99 1716.43C5704.48 1714.67 5702.92 1712.93 5701.36 1711.18L5701.06 1711.34L5700.34 1713.26L5699.5 1712.64L5700.25 1710.67L5693.12 1702.54L5690.36 1703.51L5689.77 1702.64L5693.29 1701.4C5692.75 1700.56 5692.23 1699.62 5691.81 1698.66C5688.44 1702.42 5685.13 1706.14 5681.85 1709.83C5682.64 1709.87 5683.38 1709.93 5683.94 1709.99C5688.47 1710.37 5693.26 1711.96 5697.75 1713.42L5697.76 1713.43Z" fill="white"/>
<path id="512/Vector_364" d="M5812.56 1659.44C5811.26 1659.35 5809.9 1659.1 5808.54 1658.77C5807.99 1659.28 5807.45 1659.8 5806.9 1660.31C5808.76 1660.81 5810.63 1661.18 5812.5 1661.4C5816.63 1661.85 5818.88 1659.22 5818.29 1655.16C5818.08 1653.68 5817.62 1652.25 5817.01 1650.84C5816.52 1651.3 5816.03 1651.76 5815.55 1652.22C5816.84 1655.78 5817.02 1659.77 5812.57 1659.45L5812.56 1659.44Z" fill="white"/>
<path id="512/Vector_365" d="M5826.19 1644.11C5825.93 1644.18 5825.66 1644.23 5825.4 1644.28L5826.87 1641.89L5826.66 1641.76C5824.99 1643.33 5823.31 1644.9 5821.65 1646.47L5823.13 1647.06L5823.65 1649.34L5824.61 1649.47L5824.1 1647.24L5824.48 1646.33C5827.43 1646.32 5830.13 1645.2 5831.17 1642.48C5831.76 1640.92 5831.63 1639.24 5831.12 1637.57C5830.58 1638.07 5830.06 1638.57 5829.51 1639.07C5829.8 1641.57 5828.42 1643.46 5826.17 1644.1L5826.19 1644.11Z" fill="white"/>
<path id="512/Vector_366" d="M5855.94 1615.36C5855.64 1617.95 5853.39 1619.21 5850.84 1619.21C5850.8 1619.21 5850.76 1619.21 5850.72 1619.21C5850.1 1619.78 5849.49 1620.35 5848.87 1620.93C5850.14 1621.21 5851.43 1621.3 5852.71 1621.08C5856.78 1620.45 5858.74 1616.9 5857.59 1612.64C5857.58 1612.57 5857.54 1612.5 5857.52 1612.43C5857 1612.99 5856.47 1613.54 5855.94 1614.09C5855.97 1614.51 5855.98 1614.93 5855.93 1615.35L5855.94 1615.36Z" fill="white"/>
<path id="512/Vector_367" d="M5751.53 1715.99C5751.44 1716.8 5751.27 1717.75 5750.34 1717.76C5749.48 1717.75 5748.35 1716.99 5747.57 1716.56C5747.28 1716.4 5746.98 1716.25 5746.68 1716.09C5746.2 1716.53 5745.72 1716.96 5745.23 1717.4C5745.73 1717.63 5746.24 1717.89 5746.76 1718.19C5748.17 1719 5749.97 1720.06 5751.47 1719.71C5754.76 1718.97 5753.49 1713.08 5752.99 1710.33C5752.43 1710.85 5751.87 1711.37 5751.3 1711.88C5751.52 1713.28 5751.67 1714.68 5751.53 1715.99Z" fill="white"/>
<path id="512/Vector_368" d="M5843.94 1628.08C5844.12 1628.66 5844.03 1629.37 5843.71 1630.04C5843.22 1631.07 5842.43 1632 5841.54 1632.65C5839.86 1633.87 5837.63 1633.98 5835.38 1633.6C5834.83 1634.11 5834.29 1634.63 5833.74 1635.14C5838.24 1636.25 5842.52 1635.88 5845.09 1631.97C5846.07 1630.48 5846.48 1628.48 5845.21 1626.59C5844.92 1626.14 5844.55 1625.74 5844.16 1625.38C5843.72 1625.79 5843.27 1626.2 5842.84 1626.61C5843.32 1627.02 5843.78 1627.58 5843.95 1628.1L5843.94 1628.08Z" fill="white"/>
<path id="512/Vector_369" d="M5764.38 1701.91C5764.32 1706.14 5760.73 1707.32 5756.97 1706.68C5756.39 1707.22 5755.81 1707.74 5755.24 1708.27C5757.37 1708.94 5759.49 1709.18 5761.45 1708.7C5766.19 1707.52 5766.87 1703.18 5765.93 1698.46C5765.37 1698.98 5764.82 1699.49 5764.26 1700.01C5764.34 1700.65 5764.39 1701.28 5764.39 1701.9L5764.38 1701.91Z" fill="white"/>
<path id="512/Vector_370" d="M5747.27 1634.79C5747.12 1634.28 5747.3 1633.3 5747.63 1632.64C5748.09 1631.75 5748.81 1631.05 5749.61 1630.4C5751.91 1628.54 5754.89 1627.42 5757.75 1626.47C5757.91 1626.42 5758.05 1626.37 5758.2 1626.32C5759.13 1625.33 5760.06 1624.34 5760.99 1623.35C5759.48 1623.76 5757.98 1624.18 5756.5 1624.67C5753.54 1625.66 5750.62 1626.86 5748.22 1628.72C5746.63 1629.96 5745.13 1631.7 5745.23 1634.03C5745.3 1635.44 5746.22 1636.77 5747.34 1637.95C5747.77 1637.5 5748.18 1637.05 5748.59 1636.59C5747.99 1635.96 5747.38 1635.25 5747.25 1634.77L5747.27 1634.79Z" fill="white"/>
<path id="512/Vector_371" d="M5779.29 1686.33C5782.41 1685.76 5784.37 1683.44 5785.25 1680.56C5783.17 1682.49 5781.1 1684.43 5779.02 1686.36C5779.11 1686.35 5779.2 1686.36 5779.29 1686.33Z" fill="white"/>
<path id="512/Vector_372" d="M5761.29 1614.64C5762.06 1611.65 5765.51 1613.11 5767.8 1614.38C5768.17 1614.57 5768.52 1614.77 5768.87 1614.98C5769.32 1614.51 5769.75 1614.04 5770.2 1613.57C5769.01 1612.91 5767.81 1612.26 5766.59 1611.71C5764.6 1610.82 5762.42 1610.43 5760.83 1611.53C5757.56 1613.8 5759.66 1619.41 5761.29 1623.05C5761.75 1622.57 5762.2 1622.08 5762.65 1621.61C5761.68 1619.37 5760.75 1616.74 5761.29 1614.64Z" fill="white"/>
<path id="512/Vector_373" d="M5677.12 1712.72C5677.7 1712.1 5678.88 1711.9 5680.09 1711.84C5680.68 1711.17 5681.28 1710.51 5681.86 1709.84C5679.09 1709.72 5675.48 1709.91 5674.92 1712.2C5674.58 1713.57 5675.66 1715.06 5676.01 1716.46C5676.48 1715.92 5676.97 1715.38 5677.44 1714.84C5677.11 1714.1 5676.62 1713.26 5677.13 1712.73L5677.12 1712.72Z" fill="white"/>
<path id="512/Vector_374" d="M5704.94 1682.82C5703.34 1680.67 5702.29 1677.9 5704.48 1676.47C5706.41 1675.21 5709.05 1675.87 5711.33 1677.02C5711.75 1676.56 5712.17 1676.1 5712.59 1675.64C5712.24 1675.46 5711.88 1675.24 5711.52 1675.06C5707.93 1673.35 5703.12 1673.05 5701.56 1676.59C5700.36 1679.33 5702.18 1682.27 5704.26 1684.82C5704.66 1684.37 5705.06 1683.93 5705.47 1683.48C5705.29 1683.25 5705.11 1683.04 5704.93 1682.81L5704.94 1682.82Z" fill="white"/>
<path id="512/Vector_375" d="M5695.59 1692.78C5696.03 1692.8 5696.49 1692.87 5696.94 1692.95C5697.4 1692.43 5697.87 1691.92 5698.33 1691.4C5698.12 1691.35 5697.92 1691.28 5697.72 1691.23C5695.61 1690.69 5693.33 1690.45 5691.89 1691.88C5690.26 1693.51 5690.69 1696.2 5691.8 1698.69C5692.27 1698.16 5692.74 1697.65 5693.21 1697.12C5692.53 1694.88 5692.82 1692.67 5695.59 1692.79L5695.59 1692.78Z" fill="white"/>
<path id="512/Vector_376" d="M5715.57 1745.86C5715.11 1745.64 5714.66 1745.41 5714.23 1745.19C5713.73 1745.62 5713.25 1746.07 5712.76 1746.49C5713.83 1747.02 5714.9 1747.56 5715.97 1748.08C5716.41 1748.29 5716.84 1748.03 5717.03 1747.71C5718.32 1745.64 5718.93 1743.32 5719.06 1740.89C5718.25 1741.62 5717.43 1742.33 5716.63 1743.05C5716.4 1744.03 5716.05 1744.97 5715.58 1745.85L5715.57 1745.86Z" fill="white"/>
<path id="512/Vector_377" d="M5741.35 1642.73C5741.26 1642.44 5741.23 1642.09 5741.14 1641.81C5741.81 1642.04 5742.91 1641.9 5743.79 1641.8C5744.45 1641.11 5745.08 1640.41 5745.74 1639.72C5744.29 1639.76 5742.85 1639.8 5741.41 1639.81C5740.4 1639.81 5739.37 1639.64 5739.13 1640.75C5738.99 1641.38 5739.23 1642.19 5739.42 1642.85C5739.66 1643.74 5739.99 1644.62 5740.35 1645.5C5740.82 1644.98 5741.3 1644.48 5741.78 1643.96C5741.63 1643.56 5741.47 1643.14 5741.35 1642.73Z" fill="white"/>
<path id="512/Vector_378" d="M5778.36 1601.4C5778.13 1600.93 5777.92 1600.46 5777.72 1599.98C5777.55 1599.59 5777.35 1598.64 5777.04 1598.33C5777.1 1598.34 5777.17 1598.35 5777.21 1598.37C5777.7 1598.52 5778.18 1598.71 5778.64 1598.95C5779.79 1599.53 5780.91 1600.26 5782 1601.01C5782.42 1600.56 5782.84 1600.1 5783.27 1599.65C5781.93 1598.73 5780.55 1597.87 5779.13 1597.17C5778.19 1596.69 5777.04 1596.17 5776.08 1596.35C5773.64 1596.8 5775.73 1600.1 5776.5 1601.71C5777.03 1602.83 5777.62 1603.93 5778.25 1605.01C5778.68 1604.55 5779.11 1604.08 5779.54 1603.63C5779.14 1602.88 5778.74 1602.15 5778.38 1601.4L5778.36 1601.4Z" fill="white"/>
<path id="512/Vector_379" d="M5805.3 1662.64L5805.13 1661.98C5804.94 1662.17 5804.73 1662.36 5804.53 1662.54L5805.3 1662.64Z" fill="white"/>
<path id="512/Vector_380" d="M5808.66 1564.5C5807.45 1563.88 5806.63 1565.5 5807.85 1566.13C5809.44 1566.94 5811 1567.83 5812.53 1568.75C5812.98 1568.32 5813.45 1567.92 5813.9 1567.5C5812.2 1566.43 5810.45 1565.42 5808.65 1564.5L5808.66 1564.5Z" fill="white"/>
<path id="512/Vector_381" d="M5792.15 1583.04C5793.63 1580.94 5796.24 1581.61 5798.82 1583.08C5799.25 1582.63 5799.67 1582.16 5800.1 1581.71C5798.93 1581.03 5797.73 1580.49 5796.49 1580.14C5792.11 1578.93 5789.05 1581.72 5789.51 1586.03C5789.69 1587.76 5790.39 1589.43 5791.32 1591.05C5791.78 1590.57 5792.22 1590.09 5792.66 1589.62C5791.48 1587.39 5790.84 1584.87 5792.12 1583.05L5792.15 1583.04Z" fill="white"/>
<path id="512/Vector_382" d="M5793.76 1675.26C5793.31 1674.81 5792.84 1674.37 5792.37 1673.92C5791.94 1674.33 5791.5 1674.72 5791.07 1675.13C5792.14 1676.14 5793.22 1677.18 5794.14 1678.32C5794.37 1678.6 5794.73 1679.18 5794.86 1679.36C5794.88 1679.38 5794.88 1679.38 5794.91 1679.4C5794.41 1680.15 5795.41 1681.55 5796.28 1680.98C5798.32 1679.69 5794.99 1676.5 5793.76 1675.26Z" fill="white"/>
<path id="512/Vector_383" d="M5735.31 1726.77C5736.16 1728.66 5738.09 1733.5 5734.45 1732.11C5733.25 1731.65 5732.1 1731 5730.96 1730.27C5730.51 1730.68 5730.05 1731.08 5729.6 1731.48C5731.01 1732.44 5732.46 1733.31 5733.99 1733.92C5736.38 1734.88 5738.55 1734.3 5738.61 1731.71C5738.66 1729.62 5737.72 1727.31 5736.62 1725.18C5736.14 1725.62 5735.65 1726.05 5735.17 1726.48C5735.22 1726.58 5735.27 1726.68 5735.33 1726.78L5735.31 1726.77Z" fill="white"/>
<path id="512/Vector_384" d="M5723.21 1658.37C5723.22 1656.47 5723.33 1652.86 5725.35 1652.25C5726.49 1651.91 5728.05 1652.75 5729.15 1653.38C5730 1653.85 5730.81 1654.38 5731.61 1654.94C5732.02 1654.49 5732.44 1654.04 5732.85 1653.59C5731.68 1652.77 5730.49 1652 5729.24 1651.36C5726.75 1650.08 5724.18 1649.59 5722.7 1651.71C5720.46 1654.94 5720.94 1660.31 5722.19 1664.49C5722.24 1664.65 5722.3 1664.82 5722.36 1664.98C5722.86 1664.44 5723.35 1663.89 5723.85 1663.35C5723.43 1661.69 5723.22 1660.01 5723.21 1658.37Z" fill="white"/>
<path id="512/Vector_385" d="M5536.85 1870.02C5542.87 1875.78 5550.79 1882.29 5558.87 1885.72C5585.95 1859.99 5612.53 1835.6 5634.56 1815.77C5662.71 1790.43 5687.1 1769.23 5712.74 1746.49C5709.45 1744.86 5706.17 1743.19 5702.92 1741.46L5701.94 1742.39L5701.93 1743.56L5700.99 1743.19L5701 1742.04L5692.31 1736.36L5690.22 1738.2L5689.42 1737.5L5691.78 1735.43L5691.84 1735.36C5690.01 1734.25 5688.22 1733.1 5686.49 1731.83C5683.01 1729.27 5679.56 1726.13 5677.61 1722.26C5676.66 1720.38 5676.4 1718.68 5676.07 1716.75C5676.05 1716.65 5676.02 1716.55 5675.99 1716.46C5654.43 1740.81 5634.03 1764.24 5609.87 1791.07C5589.24 1813.98 5563.7 1841.81 5536.84 1870.01L5536.85 1870.02Z" fill="white"/>
</g>
<g id="512/Handle_32">
<path id="512/Vector_386" d="M5481.37 1962.37C5482.56 1961.12 5483.78 1959.86 5484.99 1958.61C5478.99 1951.77 5474.52 1943.2 5471.54 1936.3C5467.73 1940 5463.95 1943.64 5460.2 1947.2C5466.03 1952.76 5473.61 1958.94 5481.37 1962.37Z" fill="#878787"/>
<path id="512/Vector_387" d="M5523.13 1920.23C5526.09 1917.33 5529.06 1914.42 5532.04 1911.52C5528.96 1909.4 5526.05 1906.86 5523.37 1904.18C5519.84 1900.65 5516.73 1896.88 5514.22 1893.55C5511.57 1896.29 5508.9 1898.99 5506.24 1901.71C5510.42 1907.96 5516.33 1915.42 5523.14 1920.24L5523.13 1920.23Z" fill="#878787"/>
<path id="512/Vector_388" d="M5499.69 1943.58C5493.79 1936.85 5489.32 1928.51 5486.31 1921.77C5481.68 1926.38 5477.07 1930.9 5472.52 1935.35C5475.47 1942.22 5479.92 1950.9 5485.86 1957.74C5490.37 1953.06 5494.99 1948.34 5499.69 1943.58Z" fill="#878787"/>
<path id="512/Vector_389" d="M5532.93 1910.64C5535.74 1907.92 5538.55 1905.19 5541.37 1902.47C5534.82 1895.72 5529.62 1887.37 5526.23 1881.13C5522.53 1884.97 5518.81 1888.82 5515.08 1892.64C5519.5 1898.49 5525.82 1905.79 5532.94 1910.64L5532.93 1910.64Z" fill="#878787"/>
<path id="512/Vector_390" d="M5505.33 1902.62C5502.08 1905.94 5498.82 1909.23 5495.58 1912.5C5500.96 1917.77 5508.08 1923.85 5515.53 1927.72C5517.73 1925.52 5519.98 1923.31 5522.21 1921.12C5519.97 1919.52 5517.82 1917.65 5515.82 1915.65C5511.69 1911.52 5508.14 1906.83 5505.33 1902.63L5505.33 1902.62Z" fill="#878787"/>
<path id="512/Vector_391" d="M5487.27 1920.81C5490.24 1927.51 5494.69 1935.97 5500.54 1942.71C5505.16 1938.05 5509.85 1933.35 5514.6 1928.65C5507.09 1924.68 5500.04 1918.63 5494.71 1913.39C5492.21 1915.88 5489.74 1918.36 5487.27 1920.83L5487.27 1920.81Z" fill="#878787"/>
<path id="512/Vector_392" d="M5449.73 1996.69C5452.95 1993.01 5456.3 1989.27 5459.79 1985.45C5452.62 1977.49 5447.24 1967.88 5444.33 1962.08C5439.29 1966.71 5434.37 1971.15 5429.59 1975.36C5433.85 1981.45 5441.2 1990.78 5449.73 1996.69Z" fill="#878787"/>
<path id="512/Vector_393" d="M5470.97 1973.35C5474.06 1970.05 5477.24 1966.71 5480.46 1963.35C5472.62 1959.77 5465.11 1953.6 5459.31 1948.06C5457.13 1950.14 5454.96 1952.2 5452.8 1954.22C5457.3 1960.86 5463.67 1968.74 5470.97 1973.35Z" fill="#878787"/>
<path id="512/Vector_394" d="M5448.91 1997.63C5445.9 1995.54 5443.04 1993.05 5440.43 1990.44C5435.54 1985.54 5431.47 1980.21 5428.66 1976.19C5427.49 1977.22 5426.31 1978.25 5425.16 1979.26C5421.23 1982.67 5419.52 1983.95 5418.41 1984.34C5421.26 1988.13 5424.81 1992.36 5429.12 1996.51C5433.44 2000.68 5437.66 2004.21 5441.37 2007.09C5441.82 2005.98 5443.14 2004.25 5446.4 2000.49C5447.22 1999.55 5448.07 1998.58 5448.92 1997.62L5448.91 1997.63Z" fill="#878787"/>
<path id="512/Vector_395" d="M5527.13 1880.16C5530.48 1886.34 5535.72 1894.83 5542.26 1901.61C5547.47 1896.58 5552.69 1891.59 5557.91 1886.64C5549.77 1883.05 5541.94 1876.63 5535.99 1870.91C5533.05 1874 5530.11 1877.09 5527.14 1880.17L5527.13 1880.16Z" fill="#878787"/>
<path id="512/Vector_396" d="M5460.62 1984.53C5463.7 1981.16 5466.87 1977.72 5470.11 1974.25C5467.28 1972.43 5464.59 1970.19 5462.1 1967.7C5458.11 1963.71 5454.64 1959.16 5451.86 1955.07C5449.64 1957.14 5447.45 1959.18 5445.26 1961.19C5448.06 1966.78 5453.47 1976.52 5460.61 1984.51L5460.62 1984.53Z" fill="#878787"/>
</g>
</g>
</g>
</svg>
