<svg width="512" height="512" viewBox="3456 256 512 512" fill="none" xmlns="http://www.w3.org/2000/svg">
<defs xmlns="http://www.w3.org/2000/svg">
<clipPath id="clip0_268_10729">
<rect width="512" height="512" fill="white" transform="translate(256 256)"/>
</clipPath>
<clipPath id="clip1_268_10729">
<rect width="512" height="512" fill="white" transform="translate(896 256)"/>
</clipPath>
<clipPath id="clip2_268_10729">
<rect width="512" height="512" fill="white" transform="translate(1536 256)"/>
</clipPath>
<clipPath id="clip3_268_10729">
<rect width="512" height="512" fill="white" transform="translate(2176 256)"/>
</clipPath>
<clipPath id="clip4_268_10729">
<rect width="512" height="512" fill="white" transform="translate(2816 256)"/>
</clipPath>
<clipPath id="clip5_268_10729">
<rect width="512" height="512" fill="white" transform="translate(3456 256)"/>
</clipPath>
<clipPath id="clip6_268_10729">
<rect width="592.227" height="238.456" fill="white" transform="translate(3418.64 638.171) rotate(-45)"/>
</clipPath>
<clipPath id="clip7_268_10729">
<rect width="512" height="512" fill="white" transform="translate(4096 256)"/>
</clipPath>
<clipPath id="clip8_268_10729">
<rect width="512" height="512" fill="white" transform="translate(4736 256)"/>
</clipPath>
<clipPath id="clip9_268_10729">
<rect width="116.168" height="650.538" fill="white" transform="translate(4802 782) rotate(-135)"/>
</clipPath>
<clipPath id="clip10_268_10729">
<rect width="512" height="512" fill="white" transform="translate(5376 256)"/>
</clipPath>
<clipPath id="clip11_268_10729">
<rect width="512" height="512" fill="white" transform="translate(6016 256)"/>
</clipPath>
<clipPath id="clip12_268_10729">
<rect width="512" height="512" fill="white" transform="translate(4736 2816)"/>
</clipPath>
</defs>
<g xmlns="http://www.w3.org/2000/svg" id="512/Basiliskanzunge" clip-path="url(#clip5_268_10729)">
<g id="512/Basiliskanzunge_2">
<g id="512/Layer 1" clip-path="url(#clip6_268_10729)">
<path id="512/Blade_7" d="M3618.02 578.29C3618.02 578.29 3620.8 584.672 3629.94 593.813C3639.08 602.955 3646.99 607.062 3646.99 607.062L3681.03 568.203C3682.66 566.311 3684.79 564.92 3687.15 564.191L3707.62 557.853C3712.09 556.462 3715.56 552.767 3716.65 548.231L3724.86 513.875C3725.94 509.416 3729.32 505.744 3733.69 504.298L3761.05 495.34C3765.27 493.976 3768.58 490.517 3769.77 486.246L3777.91 457.043C3779.21 452.366 3783.06 448.697 3787.79 447.604C3793.97 446.215 3802.8 444.279 3810.1 442.833C3814.77 441.914 3818.65 438.474 3820.16 433.924C3822.76 426.103 3825.66 416.931 3827.63 410.662C3829.06 406.115 3832.91 402.599 3837.56 401.623L3859.65 396.955C3864.44 395.956 3868.39 392.264 3869.71 387.529L3876.19 364.548C3876.67 362.809 3877.54 361.152 3878.7 359.735C3878.7 359.735 3916.76 322.794 3923.14 306.69C3894 327.082 3868.29 337.996 3868.29 337.996C3865.44 339.507 3863.2 342.012 3862.04 345.018L3852.17 370.543C3850.54 374.733 3846.85 377.898 3842.5 378.807L3819.93 383.567C3815.09 384.588 3811.12 388.337 3809.86 393.128L3803.43 416.912C3802.1 421.839 3797.97 425.631 3792.98 426.542L3771.12 430.494C3766.05 431.407 3761.86 435.336 3760.61 440.337L3753.43 468.875C3752.22 473.645 3748.38 477.448 3743.59 478.6L3714.33 485.533C3709.92 486.578 3706.26 489.895 3704.8 494.214L3694.1 525.606C3692.64 529.848 3689.09 533.143 3684.76 534.242L3662.23 539.978C3660.14 540.506 3658.19 541.566 3656.57 543.036L3618.04 578.27L3618.02 578.29Z" fill="white"/>
<g id="512/Handle_6">
<g id="512/Group_8">
<path id="512/Vector_69" d="M3562.75 691.059C3565.29 689.706 3568.07 688.07 3570.97 686.205L3551.22 638.773C3548.69 641.497 3546.41 644.225 3544.37 646.914L3562.75 691.059Z" fill="#878787"/>
<path id="512/Vector_70" d="M3542.31 649.712C3531.63 664.516 3527.99 676.741 3527.99 676.741L3548.68 697.434C3548.68 697.434 3553.3 695.89 3560.12 692.448L3542.31 649.712Z" fill="#878787"/>
<path id="512/Vector_71" d="M3596.01 608.723C3596.01 608.723 3574.86 614.979 3554.54 635.299C3554.17 635.677 3553.81 636.034 3553.45 636.392L3573.48 684.495C3578.86 680.85 3584.59 676.36 3590.1 670.853C3609.38 651.566 3616.67 629.39 3616.67 629.39C3616.67 629.39 3610.83 625.06 3605.57 619.8C3600.31 614.54 3595.98 608.698 3595.98 608.698L3596.01 608.723Z" fill="#878787"/>
</g>
<path id="512/Vector_72" d="M3540.55 724.219L3509.31 725.189C3504.58 725.352 3500.02 720.787 3500.16 716.034L3501.12 684.949C3501.24 681.363 3504.11 678.986 3507.83 679.485L3524.6 680.628L3545.14 701.171L3546.01 717.668C3546.41 721.289 3544.07 724.077 3540.53 724.194L3540.55 724.219Z" fill="#878787"/>
<path id="512/Vector_73" d="M3627.05 598.172C3578.55 549.667 3580.14 489.866 3577.36 487.087C3561.95 471.679 3545.17 552.72 3608.84 616.385C3672.5 680.049 3754.41 664.136 3738.14 647.861C3733.45 643.171 3675.56 646.677 3627.05 598.172Z" fill="#878787"/>
</g>
</g>
</g>
</g>
</svg>
