<svg width="512" height="512" viewBox="256 2176 512 512" fill="none" xmlns="http://www.w3.org/2000/svg">
<defs xmlns="http://www.w3.org/2000/svg">
<clipPath id="clip0_268_10729">
<rect width="512" height="512" fill="white" transform="translate(256 256)"/>
</clipPath>
<clipPath id="clip1_268_10729">
<rect width="512" height="512" fill="white" transform="translate(896 256)"/>
</clipPath>
<clipPath id="clip2_268_10729">
<rect width="512" height="512" fill="white" transform="translate(1536 256)"/>
</clipPath>
<clipPath id="clip3_268_10729">
<rect width="512" height="512" fill="white" transform="translate(2176 256)"/>
</clipPath>
<clipPath id="clip4_268_10729">
<rect width="512" height="512" fill="white" transform="translate(2816 256)"/>
</clipPath>
<clipPath id="clip5_268_10729">
<rect width="512" height="512" fill="white" transform="translate(3456 256)"/>
</clipPath>
<clipPath id="clip6_268_10729">
<rect width="592.227" height="238.456" fill="white" transform="translate(3418.64 638.171) rotate(-45)"/>
</clipPath>
<clipPath id="clip7_268_10729">
<rect width="512" height="512" fill="white" transform="translate(4096 256)"/>
</clipPath>
<clipPath id="clip8_268_10729">
<rect width="512" height="512" fill="white" transform="translate(4736 256)"/>
</clipPath>
<clipPath id="clip9_268_10729">
<rect width="116.168" height="650.538" fill="white" transform="translate(4802 782) rotate(-135)"/>
</clipPath>
<clipPath id="clip10_268_10729">
<rect width="512" height="512" fill="white" transform="translate(5376 256)"/>
</clipPath>
<clipPath id="clip11_268_10729">
<rect width="512" height="512" fill="white" transform="translate(6016 256)"/>
</clipPath>
<clipPath id="clip12_268_10729">
<rect width="512" height="512" fill="white" transform="translate(4736 2816)"/>
</clipPath>
</defs>
<g xmlns="http://www.w3.org/2000/svg" id="512/Bastardschwert Type 02">
<g id="512/Bastardscbwert">
<g id="512/Blade_31">
<path id="512/Vector_408" d="M728.28 2225.76C698.1 2226.5 666.22 2264.1 666.22 2264.1L440.14 2488.68C417.9 2479.04 424.72 2501.52 424.72 2501.52C424.72 2501.52 424.14 2504.42 416.18 2510.24C408.24 2516.06 396.82 2502.3 396.82 2502.3C398.64 2503.32 400.5 2501.64 401.86 2499.84C403.26 2497.98 403.64 2493.72 402.74 2491.58C400.94 2487.38 392.28 2476.58 382.46 2484.24C370.54 2493.56 383.56 2515.48 391.5 2526.7C391.82 2527.06 392.18 2527.52 392.58 2528.02C395.68 2532 404.2 2542.88 418.98 2555.92C419.08 2555.84 419.14 2555.8 419.14 2555.8C436.88 2573.12 451.6 2574.5 458.62 2573.02C461.92 2572.32 464.98 2570.68 467.04 2568C469.42 2564.92 470.48 2557.4 464.2 2552.08C451.2 2541.08 446.76 2554.22 446.76 2554.22C439.6 2547.58 439.36 2546.36 439.6 2540.4C439.84 2534.44 450.38 2527.52 450.38 2527.52C471.04 2530.04 461.8 2511.12 461.8 2511.12C461.8 2511.12 651.96 2321.48 691.96 2284.76C731.96 2248.04 728.24 2225.76 728.24 2225.76H728.28ZM429.66 2527.66C425.8 2531.36 419.08 2530.62 419.08 2530.62C419.08 2530.62 418.6 2523.88 422.44 2520.16C426.3 2516.46 433.02 2517.2 433.02 2517.2C433.02 2517.2 433.5 2523.94 429.66 2527.66ZM436.68 2504.1C434.24 2504.26 430.78 2501.98 429.88 2498.68C428.16 2492.42 435.64 2489.9 437.3 2493.82C440.8 2502.12 451.88 2496.92 451.88 2496.92C451.88 2496.92 444.64 2503.58 436.7 2504.1H436.68ZM451.42 2521.08C448.16 2520.04 446.02 2516.48 446.28 2514.06C447.1 2506.14 454.04 2499.18 454.04 2499.18C454.04 2499.18 448.42 2510.04 456.58 2513.86C460.44 2515.66 457.62 2523.06 451.42 2521.08ZM468.36 2482.42C467.86 2482.86 467.38 2483.32 466.88 2483.78C462.14 2488.5 457.58 2493.48 454.04 2499.18C456.7 2494.82 459.94 2490.86 463.4 2487.1C459.74 2490.64 456.04 2494.18 451.86 2496.9C457.84 2492.74 462.78 2487.12 468.08 2482.14C544.32 2406.34 624.2 2322.68 702.52 2250.14C628.18 2327.72 545.2 2407.04 468.34 2482.42H468.36Z" fill="white"/>
</g>
<g id="512/Handle_34">
<path id="512/Vector_409" d="M326.22 2612.34L338.66 2625.28C341.58 2622.64 344.44 2620.1 347.18 2617.64L334.22 2604.16C330.56 2607.92 327.76 2610.78 326.22 2612.36V2612.34Z" fill="#878787"/>
<path id="512/Vector_410" d="M324.26 2613.18C320.66 2610.08 316.48 2609.24 313.36 2608.76C303.6 2607.24 297.38 2615.02 297.38 2615.02C297.38 2615.02 292.56 2620.44 298.88 2630.1C305.2 2639.76 312.54 2634.72 312.54 2634.72L314.98 2637.26C309.84 2645.72 319.22 2651.3 323 2652.58C325.22 2653.34 328.1 2654.4 331.42 2653.22C333.76 2652.38 336.34 2650.2 338.86 2647.02C344.46 2639.98 338.44 2628.74 337.38 2626.86L324.24 2613.2L324.26 2613.18ZM310.4 2629.16C307.64 2629.38 303.72 2626.86 302.76 2623.14C300.92 2616.06 309.5 2613.04 311.3 2617.46C315.1 2626.82 327.82 2620.68 327.82 2620.68C327.82 2620.68 319.44 2628.4 310.4 2629.16ZM326.82 2648.16C323.14 2647.06 320.76 2643.06 321.1 2640.3C322.2 2631.28 330.24 2623.22 330.24 2623.22C330.24 2623.22 323.62 2635.68 332.82 2639.86C337.16 2641.82 333.82 2650.28 326.8 2648.18L326.82 2648.16Z" fill="#878787"/>
<path id="512/Vector_411" d="M348.68 2616.28C387.48 2581.64 408.28 2564.52 415.84 2558.46C406.18 2549.88 399.22 2542.28 394.68 2536.92C384.32 2551.84 352.5 2585.3 335.62 2602.7L348.68 2616.28Z" fill="#878787"/>
</g>
</g>
</g>
</svg>
