<svg width="512" height="512" viewBox="5376 256 512 512" fill="none" xmlns="http://www.w3.org/2000/svg">
<defs xmlns="http://www.w3.org/2000/svg">
<clipPath id="clip0_268_10729">
<rect width="512" height="512" fill="white" transform="translate(256 256)"/>
</clipPath>
<clipPath id="clip1_268_10729">
<rect width="512" height="512" fill="white" transform="translate(896 256)"/>
</clipPath>
<clipPath id="clip2_268_10729">
<rect width="512" height="512" fill="white" transform="translate(1536 256)"/>
</clipPath>
<clipPath id="clip3_268_10729">
<rect width="512" height="512" fill="white" transform="translate(2176 256)"/>
</clipPath>
<clipPath id="clip4_268_10729">
<rect width="512" height="512" fill="white" transform="translate(2816 256)"/>
</clipPath>
<clipPath id="clip5_268_10729">
<rect width="512" height="512" fill="white" transform="translate(3456 256)"/>
</clipPath>
<clipPath id="clip6_268_10729">
<rect width="592.227" height="238.456" fill="white" transform="translate(3418.64 638.171) rotate(-45)"/>
</clipPath>
<clipPath id="clip7_268_10729">
<rect width="512" height="512" fill="white" transform="translate(4096 256)"/>
</clipPath>
<clipPath id="clip8_268_10729">
<rect width="512" height="512" fill="white" transform="translate(4736 256)"/>
</clipPath>
<clipPath id="clip9_268_10729">
<rect width="116.168" height="650.538" fill="white" transform="translate(4802 782) rotate(-135)"/>
</clipPath>
<clipPath id="clip10_268_10729">
<rect width="512" height="512" fill="white" transform="translate(5376 256)"/>
</clipPath>
<clipPath id="clip11_268_10729">
<rect width="512" height="512" fill="white" transform="translate(6016 256)"/>
</clipPath>
<clipPath id="clip12_268_10729">
<rect width="512" height="512" fill="white" transform="translate(4736 2816)"/>
</clipPath>
</defs>
<g xmlns="http://www.w3.org/2000/svg" id="512/Bastardschwert Type 03" clip-path="url(#clip10_268_10729)">
<g id="512/Bastardschwert">
<g id="512/Handle_9">
<path id="512/Vector_98" d="M5471.54 669.524C5466.33 685.875 5459.91 700.645 5450.22 713.854C5447.2 717.972 5444.27 718.567 5440.14 714.168C5436.19 709.971 5432.25 705.627 5427.91 701.868C5422.86 697.491 5425.43 694.45 5428.81 691.722C5434.71 686.942 5441.26 683.036 5448.03 679.546C5455.28 675.797 5462.52 671.971 5471.54 669.524Z" fill="#878787"/>
<path id="512/Vector_99" d="M5465.84 573.794C5464.81 583.199 5466.8 592.076 5471.45 600.325C5476.89 609.954 5532.47 665.54 5542.1 670.972C5550.35 675.629 5559.24 677.604 5568.63 676.583C5580.16 675.315 5588.85 666.483 5590.13 655.035C5590.58 651.108 5590.32 647.236 5586 645.339C5581.14 643.218 5576.75 644.25 5573.13 648.044C5569.84 651.489 5571.23 654.856 5573.34 658.425C5574.97 661.174 5579.34 663.834 5577.77 666.572C5575.79 670.029 5570.77 669.95 5566.76 670.287C5554.52 671.297 5545.07 666.045 5537.16 657.168C5533.11 652.174 5528.98 647.236 5524.99 642.208C5528.68 638.112 5531.88 632.983 5531.3 630.772C5529.39 623.286 5520.49 615.419 5522.75 617.664C5525.02 619.908 5518.86 612.58 5511.64 610.302C5508.99 609.471 5506.75 610.549 5504.84 612.255C5503.1 613.814 5501.4 615.408 5499.71 617.024C5494.85 613.152 5490.08 609.168 5485.26 605.263C5476.37 597.34 5471.13 587.901 5472.14 575.669C5472.46 571.662 5472.4 566.634 5475.85 564.659C5478.6 563.099 5481.27 567.454 5484 569.081C5487.56 571.202 5490.94 572.582 5494.38 569.294C5498.16 565.669 5499.21 561.281 5497.09 556.422C5495.2 552.09 5491.33 551.854 5487.39 552.292C5475.94 553.571 5467.11 562.269 5465.84 573.794Z" fill="#878787"/>
<path id="512/Vector_100" d="M5396.15 727.994C5393.89 734.29 5392.66 740.956 5390.88 747.432C5390.34 749.385 5390.36 750.642 5391.2 751.147C5391.71 751.988 5392.96 752.011 5394.92 751.472C5401.39 749.688 5408.05 748.464 5414.35 746.197C5426.14 741.978 5428.4 743.886 5419.08 732.27C5417.5 730.284 5412.06 724.852 5410.09 723.281C5398.47 713.955 5400.39 716.21 5396.16 728.005L5396.15 727.994Z" fill="#878787"/>
<path id="512/Vector_101" d="M5479.7 641.478C5479.3 649.289 5477.57 656.898 5475.67 665.17C5475.63 665.372 5475.56 665.529 5475.92 665.416C5484.2 663.509 5491.8 661.791 5499.61 661.387C5503.33 661.197 5505.05 658.144 5506.37 655.529C5507.58 653.105 5506.15 652.51 5503.58 649.851C5501.89 648.089 5499.65 645.889 5497.42 643.689C5495.22 641.467 5493.04 639.234 5491.26 637.528C5488.6 634.958 5487.98 633.533 5485.58 634.745C5482.96 636.069 5479.92 637.786 5479.73 641.501L5479.7 641.478Z" fill="#878787"/>
<path id="512/Vector_102" d="M5459.59 705.964C5464.52 694.685 5469.95 683.665 5473.46 671.847C5473.92 670.287 5474.71 669.008 5476.46 668.536C5483.55 666.606 5490.65 664.721 5499.43 664.485C5486.99 680.23 5473.93 693.597 5459.57 705.964L5459.59 705.964Z" fill="#878787"/>
<path id="512/Vector_103" d="M5435.28 681.656C5446.56 676.729 5457.58 671.297 5469.4 667.784C5470.96 667.324 5472.24 666.539 5472.71 664.788C5474.64 657.695 5476.53 650.602 5476.76 641.815C5461.02 654.261 5447.65 667.313 5435.28 681.678L5435.28 681.656Z" fill="#878787"/>
<path id="512/Vector_104" d="M5416.01 711.519C5413.3 709.477 5412.02 707.614 5414.78 705.235C5417.45 702.945 5419.11 696.503 5423.99 700.465C5430.52 705.762 5436.47 711.912 5441.93 718.332C5445.35 722.361 5440.76 724.684 5438.12 726.737C5435.74 728.578 5433.05 730.755 5430.65 726.199C5429.42 723.898 5427.19 722.136 5425.41 720.127C5425.31 720.228 5419.37 714.044 5416.01 711.519Z" fill="#878787"/>
<path id="512/Vector_105" d="M5403.9 716.828C5408 719.33 5411.94 722.125 5415.43 725.458C5415.69 725.716 5415.93 725.963 5416.19 726.221C5416.45 726.479 5416.7 726.726 5416.96 726.984C5420.3 730.486 5423.08 734.414 5425.59 738.51C5427.73 742.023 5429.31 740.687 5431.19 738.633C5434.03 735.547 5433.12 732.461 5431.09 729.42C5427.67 724.347 5418.04 714.718 5412.97 711.306C5409.95 709.275 5406.86 708.377 5403.76 711.205C5401.72 713.091 5400.37 714.662 5403.88 716.805L5403.9 716.828Z" fill="#878787"/>
<path id="512/Vector_106" d="M5503.08 638.863C5505.6 641.389 5508.04 644.026 5510.7 646.394C5512.24 647.774 5513.16 648.852 5511.68 650.827C5509.94 653.15 5508.66 651.669 5507.39 650.4C5501.83 644.89 5496.3 639.38 5490.8 633.813C5489.6 632.612 5487.8 631.243 5490.14 629.493C5491.82 628.236 5493.17 628.505 5494.67 630.233C5497.31 633.252 5500.3 635.968 5503.14 638.807C5503.11 638.83 5503.1 638.841 5503.08 638.863Z" fill="#878787"/>
</g>
<g id="512/Blade_10">
<path id="512/Vector_107" d="M5827.02 297.166C5800.19 323.169 5513.58 605.533 5511.26 607.766C5518.24 607.003 5535.23 621.525 5533.04 630.986C5535.57 628.393 5814.39 345.402 5844.82 314.966C5875.26 284.53 5872.52 272.723 5870.61 270.838C5869.1 269.345 5854.08 270.917 5827.01 297.155L5827.02 297.166ZM5684.43 458.773L5538.72 604.567L5537.04 602.884C5621.82 518.938 5744.51 393.727 5829.38 312.227C5788.63 355.446 5726.89 416.015 5684.43 458.773Z" fill="white"/>
</g>
</g>
</g>
</svg>
