<svg width="512" height="512" viewBox="2176 2816 512 512" fill="none" xmlns="http://www.w3.org/2000/svg">
<defs xmlns="http://www.w3.org/2000/svg">
<clipPath id="clip0_268_10729">
<rect width="512" height="512" fill="white" transform="translate(256 256)"/>
</clipPath>
<clipPath id="clip1_268_10729">
<rect width="512" height="512" fill="white" transform="translate(896 256)"/>
</clipPath>
<clipPath id="clip2_268_10729">
<rect width="512" height="512" fill="white" transform="translate(1536 256)"/>
</clipPath>
<clipPath id="clip3_268_10729">
<rect width="512" height="512" fill="white" transform="translate(2176 256)"/>
</clipPath>
<clipPath id="clip4_268_10729">
<rect width="512" height="512" fill="white" transform="translate(2816 256)"/>
</clipPath>
<clipPath id="clip5_268_10729">
<rect width="512" height="512" fill="white" transform="translate(3456 256)"/>
</clipPath>
<clipPath id="clip6_268_10729">
<rect width="592.227" height="238.456" fill="white" transform="translate(3418.64 638.171) rotate(-45)"/>
</clipPath>
<clipPath id="clip7_268_10729">
<rect width="512" height="512" fill="white" transform="translate(4096 256)"/>
</clipPath>
<clipPath id="clip8_268_10729">
<rect width="512" height="512" fill="white" transform="translate(4736 256)"/>
</clipPath>
<clipPath id="clip9_268_10729">
<rect width="116.168" height="650.538" fill="white" transform="translate(4802 782) rotate(-135)"/>
</clipPath>
<clipPath id="clip10_268_10729">
<rect width="512" height="512" fill="white" transform="translate(5376 256)"/>
</clipPath>
<clipPath id="clip11_268_10729">
<rect width="512" height="512" fill="white" transform="translate(6016 256)"/>
</clipPath>
<clipPath id="clip12_268_10729">
<rect width="512" height="512" fill="white" transform="translate(4736 2816)"/>
</clipPath>
</defs>
<g xmlns="http://www.w3.org/2000/svg" id="512/Bastardschwert Type 01">
<g id="512/Bastardschwert_2">
<g id="512/Handle_47">
<path id="512/Vector_528" d="M2349.48 3156.16C2349.48 3156.16 2360.48 3165.96 2356.44 3171.56L2351.18 3176.94C2351.18 3176.94 2348.42 3178.54 2346.74 3177.5C2346.74 3177.5 2353.04 3173.12 2342.32 3163.46C2332.44 3152.92 2329.74 3160.54 2329.74 3160.54C2328.68 3158.88 2329.2 3155.36 2329.2 3155.36L2334.46 3149.98C2339.98 3145.84 2349.5 3156.14 2349.5 3156.14L2349.48 3156.16Z" fill="#878787"/>
<path id="512/Vector_529" d="M2299.74 3193.64C2304.8 3195.04 2309.7 3196.24 2314.84 3195.08C2316.22 3194.82 2317.58 3194.84 2318.92 3195.02L2316.84 3192.98C2312.34 3193.16 2307 3191.7 2303.98 3189.32L2299.76 3193.62L2299.74 3193.64Z" fill="#878787"/>
<path id="512/Vector_530" d="M2309.66 3201.06C2305.2 3202.08 2298.92 3200.84 2295.08 3198.4L2291 3202.56C2295.34 3203.68 2299.58 3204.44 2304.02 3203.44C2308.86 3202.56 2313.66 3204.66 2317.14 3207.98L2321.16 3203.88C2317.7 3201.72 2313.68 3200.28 2309.66 3201.06Z" fill="#878787"/>
<path id="512/Vector_531" d="M2315.24 3197.04C2310.42 3198.16 2303.34 3196.58 2299.68 3193.7L2295.46 3198C2300.08 3199.24 2304.56 3200.14 2309.26 3199.1C2313.86 3198.26 2318.44 3200.12 2321.88 3203.16L2324.48 3200.5L2321.32 3197.4C2319.34 3196.84 2317.3 3196.66 2315.24 3197.06V3197.04Z" fill="#878787"/>
<path id="512/Vector_532" d="M2314.96 3191.16L2308.44 3184.76L2304.02 3189.26C2307.7 3190.28 2311.3 3191.18 2314.96 3191.16Z" fill="#878787"/>
<path id="512/Vector_533" d="M2290.46 3203.12L2286.16 3207.5C2289.62 3208.24 2293.06 3208.58 2296.62 3207.78C2302.22 3206.74 2307.78 3209.74 2311.3 3213.96L2316.54 3208.62C2312.94 3206.24 2308.72 3204.58 2304.44 3205.4C2300.22 3206.36 2294.34 3205.3 2290.46 3203.12Z" fill="#878787"/>
<path id="512/Vector_534" d="M2297.02 3209.74C2293.52 3210.54 2288.92 3209.94 2285.22 3208.48L2281.84 3211.92C2284.74 3212.42 2287.64 3212.56 2290.64 3211.88C2296.64 3210.78 2302.62 3214.26 2306.06 3218.96L2305.92 3219.1C2301.84 3215.72 2296.46 3212.78 2291.04 3213.82C2288 3214.52 2284.08 3214.16 2280.68 3213.08L2280.64 3213.12C2280.64 3213.12 2279.58 3214.14 2277.6 3216.24C2279.92 3216.5 2282.26 3216.5 2284.66 3215.96C2290.66 3214.86 2296.64 3218.34 2300.08 3223.04L2299.94 3223.18C2295.86 3219.8 2290.48 3216.86 2285.06 3217.9C2282.5 3218.5 2279.32 3218.32 2276.34 3217.6C2275.46 3218.56 2274.44 3219.7 2273.32 3221C2274.66 3221 2276.02 3220.86 2277.38 3220.54C2283.38 3219.44 2289.36 3222.92 2292.8 3227.62L2292.66 3227.76C2288.58 3224.38 2283.2 3221.44 2277.78 3222.48C2276 3222.88 2273.94 3222.92 2271.86 3222.68C2271.06 3223.62 2270.2 3224.64 2269.3 3225.74C2269.52 3225.7 2269.72 3225.68 2269.94 3225.64C2275.94 3224.54 2281.92 3228.02 2285.36 3232.72L2285.22 3232.86C2281.14 3229.48 2275.76 3226.54 2270.34 3227.58C2269.46 3227.78 2268.5 3227.86 2267.52 3227.9C2267.04 3228.5 2266.54 3229.12 2266.02 3229.76C2270.76 3230.22 2275.18 3233.16 2277.94 3236.94L2277.8 3237.08C2274.12 3234.04 2269.38 3231.38 2264.5 3231.64C2263.86 3232.46 2263.18 3233.32 2262.5 3234.2C2265.68 3235.46 2268.52 3237.72 2270.5 3240.44L2270.36 3240.58C2267.8 3238.46 2264.7 3236.5 2261.42 3235.62C2260.92 3236.26 2260.44 3236.9 2259.94 3237.58C2259.66 3237.96 2259.38 3238.28 2259.1 3238.64C2261.14 3239.92 2262.96 3241.6 2264.34 3243.48L2264.2 3243.62C2262.42 3242.14 2260.38 3240.78 2258.2 3239.76C2257.3 3240.88 2256.44 3241.94 2255.6 3242.92C2256.98 3244 2258.24 3245.26 2259.24 3246.64L2259.1 3246.78C2257.8 3245.7 2256.34 3244.68 2254.8 3243.8C2253.78 3244.94 2252.8 3245.98 2251.88 3246.9L2263.42 3258.22C2265.7 3255.82 2268.66 3253.08 2272.6 3250C2289.38 3236.8 2296.68 3228.78 2296.68 3228.78L2310.96 3214.2C2307.02 3211.16 2302.04 3208.68 2297 3209.64L2297.02 3209.74Z" fill="#878787"/>
<path id="512/Vector_535" d="M2262.08 3259.78L2250.44 3248.38C2243.64 3254.62 2239.98 3254.6 2239.98 3254.6L2235.8 3254.68L2233.6 3256.94L2227.52 3274.98L2235.98 3283.26L2253.9 3276.8L2256.1 3274.54V3270.36C2256.1 3270.36 2256 3266.7 2262.1 3259.78H2262.08ZM2238.06 3277.7L2233.4 3273.12L2238.38 3260.7L2250.5 3272.58L2238.06 3277.7ZM2253.22 3269.8C2250.06 3266.82 2243.8 3260.7 2240.76 3257.6L2240.9 3257.46C2245.18 3259.04 2248.48 3262.1 2251.16 3265.66C2252.02 3266.86 2252.8 3268.14 2253.34 3269.66L2253.2 3269.8H2253.22Z" fill="#878787"/>
<path id="512/Vector_536" d="M2285.36 3148.46L2285.44 3153.28L2290.38 3153.24L2290.3 3147.96L2285.36 3148.46Z" fill="#878787"/>
<path id="512/Vector_537" d="M2354.7 3216.4L2354.78 3221.22L2359.72 3221.2L2359.64 3215.9L2354.7 3216.4Z" fill="#878787"/>
<path id="512/Vector_538" d="M2366.36 3212.86L2368.24 3210.96L2364.82 3207.62L2362.86 3209.62L2353.28 3208.74L2344.52 3203.22C2345.3 3203.3 2363.88 3205.32 2363.28 3185.2C2363.28 3185.2 2362.46 3179.54 2358.06 3172.78L2357.98 3172.88L2357.88 3172.98L2352.62 3178.36L2352.38 3178.62C2354.04 3181.52 2357.24 3188.68 2351.08 3193C2343.22 3198.54 2335.46 3190.98 2333.56 3189.22C2331.66 3187.46 2328.34 3180.86 2331.7 3174.84C2325.76 3178.32 2319.4 3175.34 2317.3 3173.28C2315.2 3171.22 2307.8 3163.82 2313.18 3155.84C2317.38 3149.58 2324.62 3152.64 2327.54 3154.24L2327.78 3153.98L2333.04 3148.6L2333.14 3148.5L2333.24 3148.42C2326.4 3144.16 2320.72 3143.46 2320.72 3143.46C2300.62 3143.26 2302.98 3161.78 2303.08 3162.58L2297.4 3153.94L2296.32 3144.38L2298.28 3142.38L2294.86 3139.04L2292.98 3140.94L2282.26 3142.04L2279.68 3139.5L2276.42 3142.82L2279 3145.36L2279.1 3155.74L2276.9 3158L2280.32 3161.34L2282.04 3159.58L2288.72 3160.76L2346.62 3217.5L2347.92 3224.16L2346.2 3225.92L2349.62 3229.26L2351.82 3227L2362.2 3226.9L2364.78 3229.44L2368.04 3226.12L2365.46 3223.58L2366.34 3212.84L2366.36 3212.86ZM2283.48 3155.28L2283.36 3146.64L2292.28 3145.72L2292.42 3155.22L2283.48 3155.26V3155.28ZM2352.82 3223.24L2352.7 3214.6L2361.62 3213.68L2361.76 3223.18L2352.82 3223.22V3223.24Z" fill="#878787"/>
</g>
<g id="512/Blade_44">
<path id="512/Vector_539" d="M2346.56 3176.18L2346.44 3175.1C2346.44 3175.1 2346.34 3174.18 2346.26 3173.08C2346.18 3172.18 2346.14 3169.6 2341 3164.98L2340.94 3164.92L2340.88 3164.86C2336.84 3160.56 2334.54 3159.9 2333.52 3159.9C2332.24 3159.9 2330.38 3160.28 2330.3 3160.48L2328.26 3161.94L2319.96 3170.18C2320.4 3170.66 2320.92 3171.16 2321.48 3171.52C2322.72 3172.36 2328.98 3173.04 2336.36 3170.34C2332.14 3177.24 2334.12 3183.46 2336.08 3185.92C2336.54 3186.48 2337.12 3187 2337.66 3187.44L2346.72 3177.62C2346.82 3177.28 2346.58 3176.16 2346.58 3176.16L2346.56 3176.18Z" fill="white"/>
<path id="512/Vector_540" d="M2596.24 2895.88L2342.12 3148.18C2346.42 3150.12 2350.14 3153.96 2350.88 3154.76C2351.96 3155.74 2357.36 3160.8 2358.92 3166.06L2613.26 2910.1C2613.26 2910.1 2632.22 2888.2 2638.14 2867.54C2617.6 2873.84 2596.26 2895.9 2596.26 2895.9L2596.24 2895.88ZM2360.32 3147.68C2432.7 3074.6 2532.54 2970.4 2606.04 2900.56L2606.26 2900.78C2537.16 2973.94 2432.62 3076.48 2360.32 3147.68Z" fill="white"/>
</g>
</g>
</g>
</svg>
