<svg width="512" height="512" viewBox="4736 1536 512 512" fill="none" xmlns="http://www.w3.org/2000/svg">
<defs xmlns="http://www.w3.org/2000/svg">
<clipPath id="clip0_268_10729">
<rect width="512" height="512" fill="white" transform="translate(256 256)"/>
</clipPath>
<clipPath id="clip1_268_10729">
<rect width="512" height="512" fill="white" transform="translate(896 256)"/>
</clipPath>
<clipPath id="clip2_268_10729">
<rect width="512" height="512" fill="white" transform="translate(1536 256)"/>
</clipPath>
<clipPath id="clip3_268_10729">
<rect width="512" height="512" fill="white" transform="translate(2176 256)"/>
</clipPath>
<clipPath id="clip4_268_10729">
<rect width="512" height="512" fill="white" transform="translate(2816 256)"/>
</clipPath>
<clipPath id="clip5_268_10729">
<rect width="512" height="512" fill="white" transform="translate(3456 256)"/>
</clipPath>
<clipPath id="clip6_268_10729">
<rect width="592.227" height="238.456" fill="white" transform="translate(3418.64 638.171) rotate(-45)"/>
</clipPath>
<clipPath id="clip7_268_10729">
<rect width="512" height="512" fill="white" transform="translate(4096 256)"/>
</clipPath>
<clipPath id="clip8_268_10729">
<rect width="512" height="512" fill="white" transform="translate(4736 256)"/>
</clipPath>
<clipPath id="clip9_268_10729">
<rect width="116.168" height="650.538" fill="white" transform="translate(4802 782) rotate(-135)"/>
</clipPath>
<clipPath id="clip10_268_10729">
<rect width="512" height="512" fill="white" transform="translate(5376 256)"/>
</clipPath>
<clipPath id="clip11_268_10729">
<rect width="512" height="512" fill="white" transform="translate(6016 256)"/>
</clipPath>
<clipPath id="clip12_268_10729">
<rect width="512" height="512" fill="white" transform="translate(4736 2816)"/>
</clipPath>
</defs>
<g xmlns="http://www.w3.org/2000/svg" id="512/Bat">
<g id="512/Bat_2">
<g id="512/Body_2">
<path id="512/Vector_309" d="M5205.32 1628.72C5209.04 1613.58 5190.94 1594.72 5190.94 1594.72C5190.94 1594.72 5171.44 1577.18 5156.46 1582.88C5185.44 1598.9 5199.02 1616.66 5205.32 1628.72Z" fill="white"/>
<path id="512/Vector_310" d="M5200.3 1636.92L5202.3 1634.88C5203.02 1633.96 5203.62 1633 5204.12 1632C5198.36 1620.16 5184.8 1601.02 5153.8 1584.18C5153.06 1584.62 5152.34 1585.12 5151.64 1585.7L5149.12 1588.34C5180.68 1605.46 5194.44 1624.7 5200.32 1636.9L5200.3 1636.92Z" fill="#878787"/>
<path id="512/Vector_311" d="M4835.56 1996.14L4832.02 1992.7L4804.96 1966.42L4804.94 1966.44L4801.4 1963C4798.06 1959.76 4792.74 1959.84 4789.52 1963.16L4787.62 1965.12C4783.68 1969.18 4783.76 1975.7 4787.84 1979.64L4804.4 1995.72L4819.36 2010.22C4823.42 2014.16 4829.9 2014.08 4833.86 2010L4835.76 2008.04C4839 2004.7 4838.92 1999.38 4835.58 1996.14H4835.56Z" fill="white"/>
<path id="512/Vector_312" d="M5198.4 1638.84C5192.8 1627 5179.22 1607.36 5147.36 1590.16L5028.02 1714.66C5028.02 1714.66 5017.92 1724.62 5010.6 1744.54C5003.28 1764.44 4990.22 1778.8 4990.22 1778.8L4971.66 1799.98L4943.1 1830.88C4943.1 1830.88 4942.58 1831.52 4941.5 1832.8L4961.54 1852.26C4962.78 1851.14 4963.4 1850.6 4963.4 1850.6L4996 1818.54L5014.08 1801.96C5014.08 1801.96 5028.02 1788.46 5047.74 1780.56C5067.42 1772.64 5077.06 1762.28 5077.06 1762.28L5198.42 1638.86L5198.4 1638.84Z" fill="white"/>
</g>
<g id="512/Handle_31">
<path id="512/Vector_313" d="M4897.9 1879.46L4916.18 1897.2C4917.66 1895.64 4918.26 1895 4919.66 1893.54L4901.44 1875.84C4900.02 1877.3 4899.4 1877.92 4897.9 1879.44V1879.46Z" fill="#878787"/>
<path id="512/Vector_314" d="M4838.42 1937.18C4832.7 1942.54 4826.72 1948.08 4820.46 1953.86L4844.12 1976.84C4849.7 1970.4 4855.08 1964.26 4860.26 1958.4L4838.42 1937.2V1937.18Z" fill="#878787"/>
<path id="512/Vector_315" d="M4866.8 1951L4845.6 1930.42C4843.82 1932.1 4842.02 1933.8 4840.18 1935.52L4861.86 1956.56C4863.52 1954.68 4865.18 1952.82 4866.8 1950.98V1951Z" fill="#878787"/>
<path id="512/Vector_316" d="M4885.48 1930.22L4865.82 1911.14C4863.74 1913.16 4861.6 1915.2 4859.42 1917.3L4879.52 1936.82C4881.54 1934.58 4883.54 1932.38 4885.48 1930.24V1930.22Z" fill="#878787"/>
<path id="512/Vector_317" d="M4912.14 1864.84C4909.6 1867.5 4906.02 1871.18 4903.12 1874.14L4921.34 1891.82C4924.22 1888.84 4927.8 1885.16 4930.38 1882.54L4912.14 1864.84Z" fill="#878787"/>
<path id="512/Vector_318" d="M4931.88 1843.82C4929.22 1846.74 4922.72 1853.6 4919.14 1857.42L4937.58 1875.32C4941.28 1871.62 4947.94 1864.94 4950.78 1862.18L4931.88 1843.82Z" fill="#878787"/>
<path id="512/Vector_319" d="M4868.4 1949.2C4871.64 1945.56 4874.82 1942 4877.88 1938.6L4857.66 1918.96C4854.34 1922.12 4850.88 1925.42 4847.34 1928.76L4868.38 1949.2H4868.4Z" fill="#878787"/>
<path id="512/Vector_320" d="M4917.5 1859.18C4915.82 1860.96 4915.7 1861.14 4913.8 1863.1L4932.06 1880.82C4933.98 1878.88 4934.14 1878.76 4935.88 1877.02L4917.5 1859.18Z" fill="#878787"/>
<path id="512/Vector_321" d="M4959.74 1853.88L4939.92 1834.64C4938.08 1836.76 4937.1 1838.08 4933.52 1842.04L4952.54 1860.5C4956.4 1856.8 4957.68 1855.78 4959.74 1853.88Z" fill="#878787"/>
<path id="512/Vector_322" d="M4896.2 1881.18C4891.5 1885.92 4897.74 1879.32 4892.24 1884.74L4911.06 1903.02C4916.32 1897.36 4909.9 1903.8 4914.5 1898.96L4896.18 1881.18H4896.2Z" fill="#878787"/>
<path id="512/Vector_323" d="M4818.68 1955.5C4818.68 1955.5 4816.8 1954 4814.06 1956.82C4812.22 1958.72 4808.7 1962.42 4806.62 1964.64L4833.74 1990.96C4835.88 1988.82 4839.5 1985.18 4841.36 1983.28C4844.1 1980.46 4842.56 1978.66 4842.56 1978.66L4818.7 1955.5H4818.68Z" fill="#878787"/>
<path id="512/Vector_324" d="M4867.54 1909.46L4887.1 1928.44C4890.92 1924.26 4905.9 1908.58 4909.44 1904.78L4890.54 1886.42C4886.84 1890.06 4871.64 1905.52 4867.56 1909.46H4867.54Z" fill="#878787"/>
</g>
</g>
</g>
</svg>
