<svg width="512" height="512" viewBox="256 896 512 512" fill="none" xmlns="http://www.w3.org/2000/svg">
<defs xmlns="http://www.w3.org/2000/svg">
<clipPath id="clip0_268_10729">
<rect width="512" height="512" fill="white" transform="translate(256 256)"/>
</clipPath>
<clipPath id="clip1_268_10729">
<rect width="512" height="512" fill="white" transform="translate(896 256)"/>
</clipPath>
<clipPath id="clip2_268_10729">
<rect width="512" height="512" fill="white" transform="translate(1536 256)"/>
</clipPath>
<clipPath id="clip3_268_10729">
<rect width="512" height="512" fill="white" transform="translate(2176 256)"/>
</clipPath>
<clipPath id="clip4_268_10729">
<rect width="512" height="512" fill="white" transform="translate(2816 256)"/>
</clipPath>
<clipPath id="clip5_268_10729">
<rect width="512" height="512" fill="white" transform="translate(3456 256)"/>
</clipPath>
<clipPath id="clip6_268_10729">
<rect width="592.227" height="238.456" fill="white" transform="translate(3418.64 638.171) rotate(-45)"/>
</clipPath>
<clipPath id="clip7_268_10729">
<rect width="512" height="512" fill="white" transform="translate(4096 256)"/>
</clipPath>
<clipPath id="clip8_268_10729">
<rect width="512" height="512" fill="white" transform="translate(4736 256)"/>
</clipPath>
<clipPath id="clip9_268_10729">
<rect width="116.168" height="650.538" fill="white" transform="translate(4802 782) rotate(-135)"/>
</clipPath>
<clipPath id="clip10_268_10729">
<rect width="512" height="512" fill="white" transform="translate(5376 256)"/>
</clipPath>
<clipPath id="clip11_268_10729">
<rect width="512" height="512" fill="white" transform="translate(6016 256)"/>
</clipPath>
<clipPath id="clip12_268_10729">
<rect width="512" height="512" fill="white" transform="translate(4736 2816)"/>
</clipPath>
</defs>
<g xmlns="http://www.w3.org/2000/svg" id="512/Bolo">
<g id="512/Bolo_2">
<g id="512/Handle_11">
<path id="512/Subtract" fill-rule="evenodd" clip-rule="evenodd" d="M405.149 1233.74L409.069 1237.8V1237.82L444.149 1274.02C442.829 1281.46 422.809 1285.14 422.809 1285.14C389.354 1293.73 364.897 1341.14 360.434 1349.79C360.292 1350.07 360.17 1350.31 360.069 1350.5C354.629 1360.92 331.309 1378.44 314.489 1361.08C295.389 1341.36 314.489 1324.1 314.489 1324.1L405.149 1233.74ZM435.369 1277.6L435.529 1277.44C435.52 1277.44 435.512 1277.43 435.504 1277.42C435.49 1277.41 435.479 1277.4 435.466 1277.38C435.455 1277.37 435.443 1277.35 435.429 1277.34C426.889 1268.34 409.709 1250.62 401.069 1241.86C404.05 1247.84 409.129 1253.33 413.895 1258.49C414.789 1259.46 415.673 1260.42 416.529 1261.36C420.669 1265.68 425.609 1270.1 430.269 1273.92C430.855 1274.34 431.438 1274.77 432.023 1275.21C432.977 1275.93 433.938 1276.64 434.929 1277.3C435.009 1277.35 435.079 1277.4 435.149 1277.45C435.219 1277.5 435.289 1277.55 435.369 1277.6ZM333.049 1350.98C338.019 1350.98 342.049 1346.95 342.049 1341.98C342.049 1337.01 338.019 1332.98 333.049 1332.98C328.078 1332.98 324.049 1337.01 324.049 1341.98C324.049 1346.95 328.078 1350.98 333.049 1350.98Z" fill="#878787"/>
</g>
<g id="512/Blade_12">
<path id="512/Blade_13" d="M710.469 936.02C710.469 936.02 667.209 949.58 641.009 977.4C617.629 1002.24 631.229 987.34 597.589 1035.64C582.429 1057.42 554.689 1090.34 515.769 1131.06C475.089 1173.6 425.709 1221.68 412.489 1234.48L441.669 1264.6L443.949 1262.34C445.649 1260.64 448.409 1260.66 450.089 1262.4L450.749 1263.08L597.149 1122.5C597.149 1122.5 672.869 1053.94 679.409 1047.08C685.929 1040.22 740.669 1001.06 710.489 936L710.469 936.02ZM670.249 1039.6C661.189 1048.42 646.829 1061.26 637.469 1070C586.729 1116.94 523.549 1174.46 473.649 1221.9C511.789 1185.02 564.449 1133.74 602.609 1098.12C624.369 1077.78 644.849 1055.44 667.049 1035.64C683.049 1017.98 704.549 998.98 706.629 972.44C706.529 968.76 706.029 965 704.549 961.62L704.809 961.48C706.369 964.92 706.909 968.7 707.069 972.42C706.949 999.24 687.889 1021.24 670.229 1039.58L670.249 1039.6Z" fill="white"/>
</g>
</g>
</g>
</svg>
