<svg width="512" height="512" viewBox="4096 2176 512 512" fill="none" xmlns="http://www.w3.org/2000/svg">
<defs xmlns="http://www.w3.org/2000/svg">
<clipPath id="clip0_268_10729">
<rect width="512" height="512" fill="white" transform="translate(256 256)"/>
</clipPath>
<clipPath id="clip1_268_10729">
<rect width="512" height="512" fill="white" transform="translate(896 256)"/>
</clipPath>
<clipPath id="clip2_268_10729">
<rect width="512" height="512" fill="white" transform="translate(1536 256)"/>
</clipPath>
<clipPath id="clip3_268_10729">
<rect width="512" height="512" fill="white" transform="translate(2176 256)"/>
</clipPath>
<clipPath id="clip4_268_10729">
<rect width="512" height="512" fill="white" transform="translate(2816 256)"/>
</clipPath>
<clipPath id="clip5_268_10729">
<rect width="512" height="512" fill="white" transform="translate(3456 256)"/>
</clipPath>
<clipPath id="clip6_268_10729">
<rect width="592.227" height="238.456" fill="white" transform="translate(3418.64 638.171) rotate(-45)"/>
</clipPath>
<clipPath id="clip7_268_10729">
<rect width="512" height="512" fill="white" transform="translate(4096 256)"/>
</clipPath>
<clipPath id="clip8_268_10729">
<rect width="512" height="512" fill="white" transform="translate(4736 256)"/>
</clipPath>
<clipPath id="clip9_268_10729">
<rect width="116.168" height="650.538" fill="white" transform="translate(4802 782) rotate(-135)"/>
</clipPath>
<clipPath id="clip10_268_10729">
<rect width="512" height="512" fill="white" transform="translate(5376 256)"/>
</clipPath>
<clipPath id="clip11_268_10729">
<rect width="512" height="512" fill="white" transform="translate(6016 256)"/>
</clipPath>
<clipPath id="clip12_268_10729">
<rect width="512" height="512" fill="white" transform="translate(4736 2816)"/>
</clipPath>
</defs>
<g xmlns="http://www.w3.org/2000/svg" id="512/Boronssichel">
<g id="512/Boronssichel_2">
<g id="512/Handle_40">
<path id="512/Vector_454" d="M4216.28 2581.28L4209.14 2586.7C4209.56 2589.96 4209.78 2595.54 4208.08 2602.4C4209.48 2602.86 4210.94 2603.4 4212.42 2604.02L4217.28 2600.34C4219.22 2591.44 4217.66 2584.84 4216.28 2581.26V2581.28Z" fill="#878787"/>
<path id="512/Vector_455" d="M4206.16 2601.84C4207.54 2596.1 4207.56 2591.3 4207.28 2588.14L4191.52 2600.14C4195.34 2599.94 4200.38 2600.24 4206.18 2601.84H4206.16Z" fill="#878787"/>
<path id="512/Vector_456" d="M4224.74 2594.72L4240.88 2582.5C4240.22 2574.68 4237.46 2569.42 4235.5 2566.64L4225.72 2574.08C4226.66 2576.98 4228.3 2584.54 4224.74 2594.72Z" fill="#878787"/>
<path id="512/Vector_457" d="M4205.64 2603.78C4198.32 2601.76 4192.22 2601.94 4188.46 2602.44L4175.48 2612.32C4175.72 2613.74 4175.32 2615.66 4173.24 2617.64C4174.24 2617.86 4174.7 2618.4 4174.92 2618.84C4175.34 2619.66 4175.2 2620.74 4174.52 2622.12C4174.16 2622.84 4173.5 2623.6 4172.68 2624.34C4173.02 2624.48 4173.32 2624.7 4173.54 2625.02C4174.8 2626.74 4174.58 2627.44 4173.3 2628.62C4173.06 2628.84 4172.76 2629.12 4172.42 2629.46C4171.84 2630.08 4171.5 2630.56 4171.3 2630.92C4172.04 2631.28 4173 2631.96 4173.86 2633.2L4202.7 2611.38C4203.96 2608.74 4204.94 2606.2 4205.62 2603.78H4205.64Z" fill="#878787"/>
<path id="512/Vector_458" d="M4207.58 2604.36C4207.16 2605.82 4206.6 2607.34 4205.98 2608.9L4210.56 2605.44C4209.54 2605.04 4208.54 2604.68 4207.56 2604.36H4207.58Z" fill="#878787"/>
<path id="512/Vector_459" d="M4221.7 2597.02C4226.18 2586.76 4224.94 2578.78 4224.02 2575.38L4217.96 2579.98C4219.4 2583.42 4221.1 2589.8 4219.66 2598.54L4221.68 2597L4221.7 2597.02Z" fill="#878787"/>
<path id="512/Vector_460" d="M4246.18 2558.28C4246.18 2558.28 4243.6 2551.58 4245.72 2544.42C4247.6 2538.08 4240.48 2540.76 4237.64 2544.58C4234.8 2548.38 4231.88 2556.16 4237.02 2565.28C4239.06 2568.1 4242.36 2572.88 4243.2 2580.8C4243.46 2584.54 4243.46 2586.48 4243.3 2590.78C4243.12 2595.34 4246 2594.72 4246 2594.72C4246 2594.72 4252.72 2593.4 4254.2 2582.48C4255.68 2571.56 4246.2 2558.28 4246.2 2558.28H4246.18Z" fill="#878787"/>
<path id="512/Vector_461" d="M4169.9 2632.5L4169.12 2632.36L4169.08 2631.56C4169.08 2631.22 4169.18 2630 4171.02 2628.08C4171.4 2627.68 4171.72 2627.38 4171.98 2627.14C4172.12 2627.02 4172.26 2626.88 4172.36 2626.78C4172.3 2626.68 4172.18 2626.5 4171.96 2626.2C4171.76 2626.1 4170.48 2626.2 4167.54 2628.08L4166.74 2628.6L4166.06 2627.9L4165.52 2627.12L4166.32 2626.5C4166.42 2626.42 4166.66 2626.26 4167 2626.04C4168.22 2625.26 4171.94 2622.88 4172.78 2621.24C4173.34 2620.1 4173.18 2619.76 4173.18 2619.76C4173.16 2619.72 4173.02 2619.64 4172.76 2619.6C4172.2 2619.62 4170.12 2620.66 4167.94 2622.06C4166.32 2623.24 4165.14 2623.98 4165.04 2624.04L4163.92 2622.38C4164.64 2621.86 4165.72 2621.1 4166.9 2620.34C4168.38 2619.26 4170.22 2617.84 4171.86 2616.3C4173.62 2614.64 4173.72 2613.32 4173.52 2612.52C4172.86 2612.4 4171.52 2612.82 4168.84 2614.86C4163.24 2619.12 4150.56 2628.78 4150.56 2628.78C4150.56 2628.78 4146.92 2631.24 4149.56 2635.54C4149.56 2635.54 4147.6 2637.54 4145.14 2640.16C4144.06 2641.3 4141.78 2641 4140.96 2642.34C4140.04 2643.82 4139.86 2646.48 4140.66 2648.04C4141.5 2649.7 4143.36 2648.38 4144.62 2648.54C4145.34 2648.64 4146.32 2649.3 4147.18 2649.56C4148.14 2649.86 4150.06 2649.52 4150.06 2649.52C4150.06 2649.52 4148.14 2648.28 4148.1 2647.02C4148.08 2646.02 4149.42 2643.58 4149.42 2643.58L4153 2640.46L4157.2 2637.42L4160.28 2636.26L4162.74 2633.76L4159.88 2637.58L4156.9 2640.28C4156.9 2640.28 4156.02 2643.36 4154.36 2644.38C4152.7 2645.4 4150.74 2643.86 4150.74 2643.86C4150.74 2643.86 4150.58 2651.68 4155.92 2648.26L4160.2 2645.24L4164.24 2639.08L4166.02 2634.32L4166.14 2637.48C4166.14 2637.48 4170.08 2638.2 4171.52 2637.04C4172.16 2636.54 4172.56 2635.84 4172.82 2635.24C4171.66 2632.94 4170.06 2632.58 4170 2632.58L4169.9 2632.5ZM4157.4 2630.82C4156.58 2631.82 4155.46 2632.48 4154.34 2633.06C4154.04 2633.88 4153.66 2634.68 4153.06 2635.44C4152.7 2634.24 4152.72 2633.14 4152.78 2632.02C4153.74 2631.16 4154.86 2630.42 4155.98 2629.84C4156 2629.84 4156.02 2629.82 4155.98 2629.84C4156.36 2629.24 4156.84 2628.26 4157.44 2627.64C4157.64 2628.78 4157.74 2629.74 4157.38 2630.82H4157.4Z" fill="white"/>
</g>
<g id="512/Blade_37">
<path id="512/Vector_462" d="M4559.42 2232.86C4548.52 2251.94 4537.28 2271.54 4523.84 2289.94C4442.88 2400.82 4327.48 2493.18 4327.48 2493.18L4286.24 2527.42L4249.56 2555.6C4250.44 2557.34 4253.34 2563.22 4256.44 2570.34L4280.16 2552.64C4328.3 2516.26 4364.06 2485.4 4407.02 2445.48C4442.24 2412.78 4484.92 2367.72 4511.76 2335.26C4528.32 2315.22 4544.44 2291.48 4552.24 2279.72C4573.3 2247.98 4559.4 2232.84 4559.4 2232.84L4559.42 2232.86Z" fill="white"/>
</g>
</g>
</g>
</svg>
