<svg width="512" height="512" viewBox="6016 2816 512 512" fill="none" xmlns="http://www.w3.org/2000/svg">
<defs xmlns="http://www.w3.org/2000/svg">
<clipPath id="clip0_268_10729">
<rect width="512" height="512" fill="white" transform="translate(256 256)"/>
</clipPath>
<clipPath id="clip1_268_10729">
<rect width="512" height="512" fill="white" transform="translate(896 256)"/>
</clipPath>
<clipPath id="clip2_268_10729">
<rect width="512" height="512" fill="white" transform="translate(1536 256)"/>
</clipPath>
<clipPath id="clip3_268_10729">
<rect width="512" height="512" fill="white" transform="translate(2176 256)"/>
</clipPath>
<clipPath id="clip4_268_10729">
<rect width="512" height="512" fill="white" transform="translate(2816 256)"/>
</clipPath>
<clipPath id="clip5_268_10729">
<rect width="512" height="512" fill="white" transform="translate(3456 256)"/>
</clipPath>
<clipPath id="clip6_268_10729">
<rect width="592.227" height="238.456" fill="white" transform="translate(3418.64 638.171) rotate(-45)"/>
</clipPath>
<clipPath id="clip7_268_10729">
<rect width="512" height="512" fill="white" transform="translate(4096 256)"/>
</clipPath>
<clipPath id="clip8_268_10729">
<rect width="512" height="512" fill="white" transform="translate(4736 256)"/>
</clipPath>
<clipPath id="clip9_268_10729">
<rect width="116.168" height="650.538" fill="white" transform="translate(4802 782) rotate(-135)"/>
</clipPath>
<clipPath id="clip10_268_10729">
<rect width="512" height="512" fill="white" transform="translate(5376 256)"/>
</clipPath>
<clipPath id="clip11_268_10729">
<rect width="512" height="512" fill="white" transform="translate(6016 256)"/>
</clipPath>
<clipPath id="clip12_268_10729">
<rect width="512" height="512" fill="white" transform="translate(4736 2816)"/>
</clipPath>
</defs>
<g xmlns="http://www.w3.org/2000/svg" id="512/Brass Knuckles">
<g id="512/Brass Knuckles_2">
<g id="512/Body_6">
<path id="512/Vector_581" d="M6416.36 3031.14C6410.39 3037.17 6396.46 3048.82 6396.46 3048.82C6396.46 3048.82 6388.36 3054.99 6383.44 3055.16C6383.44 3055.16 6376.01 3044.45 6394.44 3028.54C6397.43 3026.94 6400.32 3025.01 6403.04 3022.75C6424.75 3004.69 6427.72 2972.33 6409.66 2950.61C6391.6 2928.9 6359.24 2925.93 6337.52 2943.99C6328.63 2951.38 6322.95 2961.19 6320.5 2971.67C6301.92 2957.23 6275.14 2957.06 6256.32 2972.72C6240.13 2986.2 6234.37 3007.64 6239.99 3026.67C6222.29 3017.68 6200.18 3019.43 6183.97 3032.91C6164.46 3049.14 6160.15 3076.87 6172.54 3098.08C6160.46 3097.7 6148.21 3101.5 6138.21 3109.82C6116.5 3127.88 6113.53 3160.23 6131.59 3181.95C6149.65 3203.67 6182.01 3206.63 6203.72 3188.57C6206.05 3186.64 6208.1 3184.52 6210 3182.3H6210.03C6210.03 3182.3 6229 3160.86 6241.85 3174.03C6241.85 3174.03 6238.5 3185.04 6214.55 3201.6C6201.98 3210.29 6215.73 3211.56 6231.5 3209.02C6245.75 3206.73 6261.61 3200.98 6261.61 3200.98C6261.61 3200.98 6298.59 3188.31 6344.77 3150.08C6383.61 3117.95 6386.5 3110.35 6399.96 3091.85C6412.72 3074.34 6419.48 3057.24 6422.85 3044.02C6426.12 3031.27 6421.93 3025.52 6416.36 3031.14ZM6395.97 2961.99C6407.77 2976.17 6405.84 2997.25 6391.66 3009.06C6377.47 3020.86 6356.4 3018.93 6344.59 3004.75C6332.79 2990.56 6334.72 2969.49 6348.9 2957.67C6363.09 2945.87 6384.16 2947.8 6395.97 2961.99ZM6353.01 2942.08C6361.59 2939.3 6370.95 2939.35 6379.34 2942.01C6370.71 2940.33 6361.72 2941.04 6353.67 2944.01C6328.71 2953.22 6317.02 2986.23 6334.17 3007.78C6313.42 2986.92 6326.26 2950.53 6353 2942.09L6353.01 2942.08ZM6314.77 2990.72C6326.57 3004.9 6324.64 3025.98 6310.46 3037.79C6296.27 3049.59 6275.2 3047.66 6263.38 3033.48C6251.58 3019.29 6253.51 2998.22 6267.7 2986.4C6281.88 2974.6 6302.96 2976.53 6314.77 2990.72ZM6273.22 2968.55C6281.8 2965.77 6291.16 2965.82 6299.55 2968.49C6290.92 2966.81 6281.93 2967.51 6273.88 2970.48C6248.91 2979.69 6237.22 3012.7 6254.38 3034.25C6233.63 3013.39 6246.47 2977.01 6273.21 2968.56L6273.22 2968.55ZM6201.73 3030.09C6210.31 3027.31 6219.67 3027.36 6228.06 3030.03C6219.43 3028.35 6210.44 3029.05 6202.39 3032.02C6177.42 3041.23 6165.73 3074.24 6182.89 3095.79C6162.14 3074.94 6174.98 3038.55 6201.72 3030.11L6201.73 3030.09ZM6155.39 3106.51C6163.98 3103.73 6173.33 3103.78 6181.72 3106.44C6173.09 3104.76 6164.1 3105.47 6156.05 3108.44C6131.09 3117.65 6119.4 3150.66 6136.55 3172.21C6115.8 3151.35 6128.64 3114.96 6155.38 3106.52L6155.39 3106.51ZM6192.35 3174.89C6178.16 3186.69 6157.09 3184.76 6145.27 3170.57C6133.47 3156.39 6135.4 3135.32 6149.59 3123.5C6163.77 3111.7 6184.85 3113.63 6196.66 3127.82C6208.46 3142 6206.53 3163.07 6192.35 3174.89ZM6191.05 3093.66C6179.25 3079.47 6181.18 3058.4 6195.36 3046.58C6209.55 3034.78 6230.62 3036.71 6242.43 3050.9C6254.23 3065.08 6252.3 3086.15 6238.12 3097.97C6223.93 3109.77 6202.86 3107.84 6191.05 3093.66ZM6270.79 3185.83C6266.1 3188.07 6259.07 3187.13 6256.87 3182.42C6252.68 3173.46 6261.09 3165.93 6264.81 3171.08C6272.69 3181.97 6309.67 3159.39 6309.67 3159.39C6309.67 3159.39 6286.09 3178.48 6270.79 3185.83ZM6319.38 3128.93C6271.45 3162.9 6246.7 3161.05 6232.6 3137.32C6232.6 3137.32 6226.9 3129.1 6242.26 3116.63C6244.77 3115.18 6247.2 3113.57 6249.51 3111.65C6265.7 3098.17 6271.46 3076.74 6265.85 3057.71C6283.55 3066.7 6305.65 3064.94 6321.86 3051.46C6323.79 3049.86 6325.5 3048.12 6327.14 3046.3C6334.13 3040.45 6348.68 3030.78 6355.96 3044.26C6365.77 3062.38 6367.32 3094.96 6319.4 3128.93H6319.38ZM6388.96 3087.5C6379.04 3101.14 6356.17 3120.69 6356.17 3120.69C6356.17 3120.69 6384.83 3088.67 6375.56 3078.92C6371.18 3074.32 6380.03 3067.48 6388.08 3073.24C6392.3 3076.27 6391.99 3083.33 6388.96 3087.5Z" fill="white"/>
</g>
</g>
</g>
</svg>
