<svg width="512" height="512" viewBox="4096 896 512 512" fill="none" xmlns="http://www.w3.org/2000/svg">
<defs xmlns="http://www.w3.org/2000/svg">
<clipPath id="clip0_268_10729">
<rect width="512" height="512" fill="white" transform="translate(256 256)"/>
</clipPath>
<clipPath id="clip1_268_10729">
<rect width="512" height="512" fill="white" transform="translate(896 256)"/>
</clipPath>
<clipPath id="clip2_268_10729">
<rect width="512" height="512" fill="white" transform="translate(1536 256)"/>
</clipPath>
<clipPath id="clip3_268_10729">
<rect width="512" height="512" fill="white" transform="translate(2176 256)"/>
</clipPath>
<clipPath id="clip4_268_10729">
<rect width="512" height="512" fill="white" transform="translate(2816 256)"/>
</clipPath>
<clipPath id="clip5_268_10729">
<rect width="512" height="512" fill="white" transform="translate(3456 256)"/>
</clipPath>
<clipPath id="clip6_268_10729">
<rect width="592.227" height="238.456" fill="white" transform="translate(3418.64 638.171) rotate(-45)"/>
</clipPath>
<clipPath id="clip7_268_10729">
<rect width="512" height="512" fill="white" transform="translate(4096 256)"/>
</clipPath>
<clipPath id="clip8_268_10729">
<rect width="512" height="512" fill="white" transform="translate(4736 256)"/>
</clipPath>
<clipPath id="clip9_268_10729">
<rect width="116.168" height="650.538" fill="white" transform="translate(4802 782) rotate(-135)"/>
</clipPath>
<clipPath id="clip10_268_10729">
<rect width="512" height="512" fill="white" transform="translate(5376 256)"/>
</clipPath>
<clipPath id="clip11_268_10729">
<rect width="512" height="512" fill="white" transform="translate(6016 256)"/>
</clipPath>
<clipPath id="clip12_268_10729">
<rect width="512" height="512" fill="white" transform="translate(4736 2816)"/>
</clipPath>
</defs>
<g xmlns="http://www.w3.org/2000/svg" id="512/Cane">
<g id="512/Cane_2">
<g id="512/Handle_19">
<path id="512/Vector_122" d="M4247.2 1210.04C4246.86 1210.4 4246.52 1210.78 4246.18 1211.16C4246.18 1211.16 4178.4 1294.28 4134.36 1326.96C4132.04 1328.68 4131.36 1331.8 4132.68 1334.36C4136.6 1341.86 4145.84 1356.36 4160.84 1361.7C4162.62 1362.34 4164.6 1361.76 4165.74 1360.26C4172.94 1350.76 4203.42 1312.8 4279.28 1243.52C4271.84 1223.08 4255.5 1213.66 4247.22 1210.06L4247.2 1210.04ZM4169.58 1333.28C4168.46 1334.36 4167 1334.94 4165.44 1334.94C4165.4 1334.94 4165.36 1334.94 4165.32 1334.94C4163.72 1334.9 4162.24 1334.26 4161.12 1333.1C4160.02 1331.94 4159.42 1330.44 4159.46 1328.84C4159.5 1327.24 4160.14 1325.76 4161.3 1324.64C4162.46 1323.54 4164.06 1322.96 4165.56 1322.98C4167.16 1323.02 4168.64 1323.66 4169.76 1324.82C4170.86 1325.98 4171.46 1327.48 4171.42 1329.08C4171.38 1330.68 4170.74 1332.16 4169.58 1333.28ZM4213 1288.24C4211.88 1289.32 4210.42 1289.9 4208.86 1289.9C4208.82 1289.9 4208.78 1289.9 4208.74 1289.9C4207.14 1289.86 4205.66 1289.22 4204.54 1288.06C4203.44 1286.9 4202.84 1285.4 4202.88 1283.8C4202.92 1282.2 4203.56 1280.72 4204.72 1279.6C4207.1 1277.32 4210.9 1277.38 4213.18 1279.76C4215.46 1282.14 4215.38 1285.94 4213.02 1288.22L4213 1288.24ZM4254.6 1244.66C4253.48 1245.74 4252.02 1246.32 4250.46 1246.32C4250.42 1246.32 4250.38 1246.32 4250.34 1246.32C4248.74 1246.28 4247.26 1245.64 4246.14 1244.48C4245.04 1243.32 4244.44 1241.82 4244.48 1240.22C4244.52 1238.62 4245.16 1237.14 4246.32 1236.02C4247.44 1234.94 4248.9 1234.36 4250.46 1234.36C4250.5 1234.36 4250.54 1234.36 4250.58 1234.36C4252.18 1234.4 4253.66 1235.04 4254.78 1236.2C4255.88 1237.36 4256.48 1238.86 4256.44 1240.46C4256.4 1242.06 4255.76 1243.54 4254.6 1244.66Z" fill="#878787"/>
</g>
<g id="512/Blade_22">
<path id="512/Vector_123" d="M4565.8 1005.38L4565.84 1005.34L4544.2 986.04L4544.1 986.16L4503.3 949.92C4497.16 944.48 4487.82 944.84 4482.14 950.74L4470.42 962.92C4468.02 965.42 4470.26 970.4 4473.7 970.76L4484.32 969.7C4486.98 969.98 4490.02 971.78 4490.52 973.92C4491.02 976.12 4488.9 978.7 4486.44 979.9L4466.4 991.14C4466.4 991.14 4427.66 1019.1 4382.04 1062.76C4340.34 1102.66 4294.18 1159.08 4249.92 1207.08C4258.8 1211.18 4274.06 1220.68 4281.94 1239.82C4291.5 1233.18 4343.72 1197.68 4408.6 1168.02C4480.48 1135.14 4572 1010.94 4572 1010.94L4565.8 1005.38ZM4414.24 1138.18C4390.16 1151.32 4367.74 1164.92 4343.58 1177.92C4331.58 1184.44 4319.14 1190.44 4308.2 1198.66C4319.06 1190.34 4331.46 1184.2 4343.4 1177.58C4367.36 1164.38 4387.12 1150.7 4410.96 1137.4C4422.72 1130.46 4438.76 1117.98 4449.42 1109.44C4485.32 1080.2 4513.16 1047.48 4539.84 1010.84L4541.94 1012.62C4505.96 1060.84 4465.92 1106.94 4414.24 1138.18Z" fill="white"/>
</g>
</g>
</g>
</svg>
