<svg width="512" height="512" viewBox="3456 1536 512 512" fill="none" xmlns="http://www.w3.org/2000/svg">
<defs xmlns="http://www.w3.org/2000/svg">
<clipPath id="clip0_268_10729">
<rect width="512" height="512" fill="white" transform="translate(256 256)"/>
</clipPath>
<clipPath id="clip1_268_10729">
<rect width="512" height="512" fill="white" transform="translate(896 256)"/>
</clipPath>
<clipPath id="clip2_268_10729">
<rect width="512" height="512" fill="white" transform="translate(1536 256)"/>
</clipPath>
<clipPath id="clip3_268_10729">
<rect width="512" height="512" fill="white" transform="translate(2176 256)"/>
</clipPath>
<clipPath id="clip4_268_10729">
<rect width="512" height="512" fill="white" transform="translate(2816 256)"/>
</clipPath>
<clipPath id="clip5_268_10729">
<rect width="512" height="512" fill="white" transform="translate(3456 256)"/>
</clipPath>
<clipPath id="clip6_268_10729">
<rect width="592.227" height="238.456" fill="white" transform="translate(3418.64 638.171) rotate(-45)"/>
</clipPath>
<clipPath id="clip7_268_10729">
<rect width="512" height="512" fill="white" transform="translate(4096 256)"/>
</clipPath>
<clipPath id="clip8_268_10729">
<rect width="512" height="512" fill="white" transform="translate(4736 256)"/>
</clipPath>
<clipPath id="clip9_268_10729">
<rect width="116.168" height="650.538" fill="white" transform="translate(4802 782) rotate(-135)"/>
</clipPath>
<clipPath id="clip10_268_10729">
<rect width="512" height="512" fill="white" transform="translate(5376 256)"/>
</clipPath>
<clipPath id="clip11_268_10729">
<rect width="512" height="512" fill="white" transform="translate(6016 256)"/>
</clipPath>
<clipPath id="clip12_268_10729">
<rect width="512" height="512" fill="white" transform="translate(4736 2816)"/>
</clipPath>
</defs>
<g xmlns="http://www.w3.org/2000/svg" id="512/Club Weapon Type 02">
<g id="512/Club Weapon Type 02_2">
<g id="512/Handle_29">
<path id="512/Vector_244" d="M3643.3 1892.42L3619.76 1869.86L3534.52 1953.32L3563.56 1981.16L3643.3 1892.42Z" fill="#878787"/>
<path id="512/Vector_245" d="M3632.58 1857.44L3655.16 1879.08L3820.14 1692.7L3811.76 1684.66L3632.58 1857.44Z" fill="#878787"/>
<path id="512/Vector_246" d="M3621.54 1868.12L3621.44 1868.22L3644.88 1890.68L3644.98 1890.58C3661.56 1894.52 3653.54 1880.94 3653.54 1880.94L3653.62 1880.84L3630.9 1859.06L3630.8 1859.16C3630.8 1859.16 3616.88 1851.74 3621.52 1868.14L3621.54 1868.12Z" fill="#878787"/>
<path id="512/Vector_247" d="M3520.6 1964.98C3513.24 1966.9 3493.5 1974.08 3508.4 1993.12L3508.32 1993.26L3524.74 2009L3524.88 2008.92C3544.56 2023 3550.88 2002.98 3552.5 1995.54L3520.6 1964.98Z" fill="#878787"/>
<path id="512/Vector_248" d="M3507.14 1995.36L3502.12 2004.2L3514.1 2015.66L3522.7 2010.28L3507.14 1995.36Z" fill="#878787"/>
<path id="512/Vector_249" d="M3523.14 1964.18L3553.2 1992.98C3567.44 1995.26 3562.48 1983.84 3562.06 1982.92L3532.8 1954.88C3531.86 1954.5 3520.26 1950.04 3523.14 1964.16V1964.18Z" fill="#878787"/>
</g>
<g id="512/Morgen_2">
<path id="512/Vector_250" d="M3817.66 1684.36C3814.72 1681.54 3812.1 1678.3 3809.92 1674.74C3796.04 1652.14 3803.14 1622.48 3825.72 1608.6C3848.3 1594.72 3877.98 1601.82 3891.86 1624.4C3898.58 1635.34 3900.64 1648.26 3897.66 1660.74C3894.68 1673.22 3887 1683.8 3876.06 1690.54C3865.12 1697.26 3852.2 1699.32 3839.72 1696.34C3831.3 1694.32 3823.76 1690.2 3817.68 1684.36H3817.66ZM3881.74 1617.38C3867.46 1603.7 3845.18 1600.76 3827.56 1611.58C3806.62 1624.44 3800.04 1651.96 3812.9 1672.9C3819.14 1683.04 3828.94 1690.16 3840.52 1692.94C3852.1 1695.7 3864.08 1693.8 3874.22 1687.56C3884.36 1681.32 3891.48 1671.52 3894.26 1659.94C3897.02 1648.36 3895.12 1636.38 3888.88 1626.24C3886.84 1622.92 3884.44 1619.96 3881.74 1617.38Z" fill="white"/>
<path id="512/Vector_251" d="M3830.96 1687.52L3834.14 1719.22L3852.8 1693.1L3830.96 1687.52Z" fill="white"/>
<path id="512/Vector_252" d="M3845.36 1608.4L3821.96 1576.68L3826.2 1616.98L3845.36 1608.4Z" fill="white"/>
<path id="512/Vector_253" d="M3881.78 1621.8L3895.96 1584.8L3864.04 1610.12L3881.78 1621.8Z" fill="white"/>
<path id="512/Vector_254" d="M3897.36 1660.6L3926.74 1646.04L3890.42 1636.56L3897.36 1660.6Z" fill="white"/>
<path id="512/Vector_255" d="M3810.06 1624.78L3776.98 1629.28L3809.22 1646.78L3810.06 1624.78Z" fill="white"/>
<path id="512/Vector_256" d="M3811.48 1655.92L3787.78 1681.92L3827.3 1673.12L3811.48 1655.92Z" fill="white"/>
<path id="512/Vector_257" d="M3898.4 1713.08L3865.82 1691.26L3884.68 1674.52L3898.4 1713.08Z" fill="white"/>
<path id="512/Vector_258" d="M3890.38 1625.32C3876.98 1603.52 3848.46 1596.7 3826.66 1610.08C3804.86 1623.48 3798.04 1652 3811.42 1673.8C3824.82 1695.6 3853.34 1702.42 3875.14 1689.04C3896.94 1675.66 3903.76 1647.12 3890.38 1625.32ZM3817.92 1622.14C3824.66 1623.6 3831.38 1625.16 3837.86 1627.56C3832.64 1627.24 3827.5 1626.4 3822.38 1625.42C3823.32 1627.14 3824.24 1628.86 3825.1 1630.62C3826.32 1633.12 3827.46 1635.66 3828.38 1638.34C3824.28 1633.36 3821.04 1627.78 3817.92 1622.14ZM3866.22 1633.34C3870.6 1632.1 3875.12 1631.84 3879.64 1631.74C3878.24 1636.32 3876.74 1640.88 3874.44 1645.12C3874.76 1641.36 3875.56 1637.72 3876.54 1634.12C3873.08 1634.18 3869.64 1634.06 3866.22 1633.34ZM3845.1 1668.32C3846.28 1670.84 3847.22 1673.42 3848.08 1676.04C3848.68 1677.86 3849.2 1679.7 3849.72 1681.56C3852.74 1677.26 3855.88 1673.08 3859.44 1669.18C3856.42 1675.44 3852.64 1681.26 3848.78 1687C3847.12 1680.86 3845.6 1674.68 3845.1 1668.32Z" fill="white"/>
</g>
</g>
</g>
</svg>
