<svg width="512" height="512" viewBox="2816 1536 512 512" fill="none" xmlns="http://www.w3.org/2000/svg">
<defs xmlns="http://www.w3.org/2000/svg">
<clipPath id="clip0_268_10729">
<rect width="512" height="512" fill="white" transform="translate(256 256)"/>
</clipPath>
<clipPath id="clip1_268_10729">
<rect width="512" height="512" fill="white" transform="translate(896 256)"/>
</clipPath>
<clipPath id="clip2_268_10729">
<rect width="512" height="512" fill="white" transform="translate(1536 256)"/>
</clipPath>
<clipPath id="clip3_268_10729">
<rect width="512" height="512" fill="white" transform="translate(2176 256)"/>
</clipPath>
<clipPath id="clip4_268_10729">
<rect width="512" height="512" fill="white" transform="translate(2816 256)"/>
</clipPath>
<clipPath id="clip5_268_10729">
<rect width="512" height="512" fill="white" transform="translate(3456 256)"/>
</clipPath>
<clipPath id="clip6_268_10729">
<rect width="592.227" height="238.456" fill="white" transform="translate(3418.64 638.171) rotate(-45)"/>
</clipPath>
<clipPath id="clip7_268_10729">
<rect width="512" height="512" fill="white" transform="translate(4096 256)"/>
</clipPath>
<clipPath id="clip8_268_10729">
<rect width="512" height="512" fill="white" transform="translate(4736 256)"/>
</clipPath>
<clipPath id="clip9_268_10729">
<rect width="116.168" height="650.538" fill="white" transform="translate(4802 782) rotate(-135)"/>
</clipPath>
<clipPath id="clip10_268_10729">
<rect width="512" height="512" fill="white" transform="translate(5376 256)"/>
</clipPath>
<clipPath id="clip11_268_10729">
<rect width="512" height="512" fill="white" transform="translate(6016 256)"/>
</clipPath>
<clipPath id="clip12_268_10729">
<rect width="512" height="512" fill="white" transform="translate(4736 2816)"/>
</clipPath>
</defs>
<g xmlns="http://www.w3.org/2000/svg" id="512/Club Weapon Type 01">
<g id="512/Club Weapon Type 01_2">
<g id="512/Body">
<path id="512/Vector_217" d="M2865.4 1975.68C2849.16 1993.84 2864.12 2006.82 2864.12 2006.82C2864.12 2006.82 2877.08 2021.76 2895.26 2005.54L2921.9 1978.9L2892.06 1949.06L2865.42 1975.7L2865.4 1975.68Z" fill="#878787"/>
<path id="512/Vector_218" d="M3279.54 1637.48C3279.54 1637.48 3268.5 1622.2 3257.82 1613.14C3248.76 1602.44 3233.46 1591.4 3233.46 1591.4C3205.12 1573.78 3187.42 1597.02 3187.42 1597.02C3187.42 1597.02 3185.46 1598.98 3182.08 1602.36L3176.86 1597.14L3158.78 1615.22L3164 1620.44C3158.84 1625.6 3153.14 1631.3 3147.22 1637.22L3142 1632L3123.92 1650.08L3129.14 1655.3C3123.36 1661.08 3117.66 1666.78 3112.36 1672.08L3107.14 1666.86L3089.06 1684.94L3094.28 1690.16C3088.14 1696.3 3083.9 1700.54 3082.78 1701.68C3078.68 1705.78 3074.66 1719.74 3072.32 1729.24C3070.42 1736.88 3067.6 1744.22 3063.9 1751.18C3055.14 1767.66 3044 1784.46 3031.84 1800.8L3026.82 1807.42C3023.38 1811.88 3019.88 1816.32 3016.34 1820.7L2980.28 1862.02C2964.14 1879.24 2972.7 1869.96 2966.34 1876.84L2993.46 1903.84C3000.1 1897.36 3016.56 1883.64 3020.38 1880.22L3031.36 1870.5C3055.04 1849.96 3081.44 1829.46 3107.56 1813.96C3119.9 1806.64 3133.18 1801.04 3147.02 1797.28C3155.8 1794.9 3165.9 1791.58 3169.28 1788.18C3170.36 1787.1 3174.32 1783.16 3180.06 1777.4L3182.64 1779.98L3200.72 1761.9L3198.14 1759.32C3203.44 1754.02 3209.12 1748.34 3214.92 1742.54L3217.5 1745.12L3235.58 1727.04L3233 1724.46C3239.42 1718.04 3245.6 1711.86 3251.12 1706.34L3253.7 1708.92L3271.78 1690.84L3269.2 1688.26C3272.2 1685.26 3273.94 1683.52 3273.94 1683.52C3273.94 1683.52 3297.18 1665.86 3279.54 1637.48ZM3235.18 1679.88C3237 1680.6 3238.78 1681.4 3240.56 1682.24C3239.8 1676.84 3239.24 1671.42 3239.26 1665.94C3241.5 1672.72 3242.78 1679.74 3243.96 1686.78C3238.3 1684.36 3217.44 1672.82 3235.18 1679.88ZM3205.84 1702.26C3208.1 1709.04 3209.38 1716.06 3210.54 1723.08C3204.88 1720.66 3184.04 1709.12 3201.76 1716.2C3203.58 1716.92 3205.38 1717.72 3207.16 1718.54C3206.4 1713.14 3205.82 1707.74 3205.84 1702.26ZM3206.22 1632.36C3201.76 1633.36 3197.24 1633.76 3192.7 1633.96C3193.14 1635.34 3193.54 1636.72 3193.86 1638.14C3196.98 1651.6 3190.28 1635.86 3189.08 1631.42C3194.82 1631.32 3200.54 1631.36 3206.22 1632.36ZM3120.58 1705.72C3123.7 1719.2 3117.02 1703.46 3115.82 1699C3121.54 1698.92 3127.28 1698.96 3132.96 1699.96C3128.48 1700.96 3123.96 1701.34 3119.42 1701.56C3119.86 1702.94 3120.26 1704.32 3120.58 1705.72ZM3151.92 1665.38C3157.66 1665.28 3163.38 1665.32 3169.06 1666.32C3164.58 1667.32 3160.08 1667.72 3155.54 1667.94C3155.96 1669.3 3156.36 1670.7 3156.7 1672.1C3159.8 1685.58 3153.12 1669.84 3151.92 1665.38ZM3165.46 1749.6C3167.28 1750.32 3169.06 1751.12 3170.84 1751.96C3170.08 1746.56 3169.52 1741.14 3169.52 1735.66C3171.78 1742.44 3173.06 1749.46 3174.24 1756.5C3168.56 1754.08 3147.72 1742.52 3165.46 1749.6Z" fill="#878787"/>
<g id="512/Blade_30">
<path id="512/Vector_219" d="M3172.5 1597.6L3149.08 1586.52L3159.36 1610.74L3172.5 1597.6Z" fill="white"/>
<path id="512/Vector_220" d="M3137.58 1632.52L3114.18 1621.42L3124.46 1645.64L3137.58 1632.52Z" fill="white"/>
<path id="512/Vector_221" d="M3102.82 1667.3L3079.4 1656.2L3089.68 1680.42L3102.82 1667.3Z" fill="white"/>
<path id="512/Vector_222" d="M3271.06 1696.14L3282.16 1719.54L3257.92 1709.26L3271.06 1696.14Z" fill="white"/>
<path id="512/Vector_223" d="M3236.14 1731.04L3247.24 1754.46L3223.02 1744.18L3236.14 1731.04Z" fill="white"/>
<path id="512/Vector_224" d="M3201.36 1765.82L3212.46 1789.24L3188.24 1778.94L3201.36 1765.82Z" fill="white"/>
</g>
</g>
<g id="512/Handle_28">
<path id="512/Vector_225" d="M2934.22 1936.08C2927.46 1931.14 2921.42 1926.04 2916.86 1921.92C2915.88 1922.86 2914.92 1923.78 2913.98 1924.68C2919.96 1930 2928.22 1936.84 2937.22 1942.74C2936.16 1940.52 2935.16 1938.28 2934.22 1936.08Z" fill="white"/>
<path id="512/Vector_226" d="M2938.9 1946.2C2928.66 1939.82 2919.16 1932 2912.52 1926.06C2911.84 1926.72 2911.16 1927.34 2910.5 1927.96C2916.64 1935.6 2928.66 1949.54 2942.04 1959.66C2942.94 1958.66 2943.86 1957.66 2944.8 1956.62C2942.68 1953.3 2940.72 1949.78 2938.9 1946.2Z" fill="white"/>
<path id="512/Vector_227" d="M2942.18 1948.16C2943.46 1950.54 2944.8 1952.86 2946.2 1955.08C2947.16 1954.02 2948.14 1952.96 2949.16 1951.88C2946.82 1950.74 2944.5 1949.5 2942.18 1948.16Z" fill="white"/>
<path id="512/Vector_228" d="M2918.3 1920.54C2922.2 1924.04 2927.16 1928.28 2932.74 1932.5C2929.72 1925 2927.42 1918.06 2925.9 1913.08C2923.3 1915.66 2920.76 1918.16 2918.3 1920.54Z" fill="white"/>
<path id="512/Vector_229" d="M2937.38 1938.34C2938.34 1940.48 2939.36 1942.64 2940.44 1944.78C2943.76 1946.84 2947.18 1948.72 2950.58 1950.34C2951.38 1949.48 2952.18 1948.64 2953 1947.78C2947.66 1945.1 2942.38 1941.8 2937.4 1938.34H2937.38Z" fill="white"/>
<path id="512/Vector_230" d="M2902.1 1935.62C2900.4 1937.1 2899.08 1938.18 2898.18 1938.82C2905.68 1947.24 2919 1960.96 2933.04 1969.8C2933.24 1969.56 2933.46 1969.32 2933.66 1969.08C2920.66 1959.06 2908.86 1944.66 2902.08 1935.6L2902.1 1935.62Z" fill="white"/>
<path id="512/Vector_231" d="M2986.74 1916.34C2987.48 1915.8 2988.2 1915.3 2988.9 1914.84C2994.32 1911.24 2992.94 1909.22 2992.3 1908.12L2961.92 1877.56C2961.92 1877.56 2959.66 1876.44 2958.08 1878.42C2957.08 1879.68 2955.98 1881.02 2954.8 1882.4C2961.22 1890.98 2973.32 1905.98 2986.72 1916.34H2986.74Z" fill="white"/>
<path id="512/Vector_232" d="M2957.74 1899.46C2962.82 1907.3 2969.48 1916.5 2976.94 1924.28C2977.92 1923.42 2978.9 1922.58 2979.86 1921.76C2971.56 1915.02 2963.84 1906.72 2957.76 1899.44L2957.74 1899.46Z" fill="white"/>
<path id="512/Vector_233" d="M2904.02 1933.92C2903.88 1934.04 2903.74 1934.18 2903.6 1934.3C2910.32 1943.26 2922.08 1957.68 2935 1967.6C2936.18 1966.26 2937.46 1964.82 2938.84 1963.26C2924.78 1954.64 2911.52 1941.78 2904.02 1933.92Z" fill="white"/>
<path id="512/Vector_234" d="M2909.04 1929.34C2907.78 1930.5 2906.6 1931.6 2905.5 1932.6C2912.96 1940.44 2926.22 1953.26 2940.18 1961.76C2940.34 1961.56 2940.52 1961.38 2940.7 1961.18C2927.28 1950.98 2915.26 1937.06 2909.04 1929.34Z" fill="white"/>
<path id="512/Vector_235" d="M2953.48 1883.94C2952.56 1885 2951.6 1886.1 2950.62 1887.2C2956.7 1895.38 2968.34 1909.94 2981.4 1920.46C2982.66 1919.44 2983.88 1918.46 2985.08 1917.56C2971.86 1907.2 2959.96 1892.56 2953.48 1883.94Z" fill="white"/>
<path id="512/Vector_236" d="M2949 1889C2948.76 1889.28 2948.5 1889.56 2948.24 1889.84C2952.6 1900.44 2960.44 1917.4 2970.54 1930.12C2972.18 1928.56 2973.82 1927.06 2975.42 1925.62C2963.62 1913.28 2953.84 1897.46 2949 1889.02V1889Z" fill="white"/>
<path id="512/Vector_237" d="M2896.44 1939.88C2892.78 1942.1 2893 1944.16 2893 1944.16C2893 1944.16 2892.48 1944.5 2895.94 1947.56C2899.38 1950.62 2925.18 1976.76 2925.18 1976.76C2925.18 1976.76 2926.32 1977.52 2927.34 1976.42C2927.54 1976.2 2929.14 1974.34 2931.72 1971.36C2917.42 1962.28 2903.94 1948.32 2896.44 1939.9V1939.88Z" fill="white"/>
<path id="512/Vector_238" d="M2946.76 1891.46C2945.28 1893.08 2943.74 1894.74 2942.16 1896.4C2944.7 1902.78 2948.88 1912.5 2954.34 1922.28C2958.36 1926.26 2962.68 1930.1 2967.1 1933.4C2967.76 1932.76 2968.42 1932.12 2969.08 1931.48C2959.08 1918.9 2951.24 1902.24 2946.76 1891.44V1891.46Z" fill="white"/>
<path id="512/Vector_239" d="M2929.86 1909.1C2929.06 1909.9 2928.28 1910.68 2927.5 1911.48C2929.18 1917.1 2932 1925.68 2935.84 1934.8C2941.68 1939.04 2948.02 1943.12 2954.42 1946.28C2954.88 1945.8 2955.34 1945.32 2955.78 1944.84C2944.38 1932.92 2934.84 1917.72 2929.86 1909.1Z" fill="white"/>
<path id="512/Vector_240" d="M2959.36 1941.16C2947.94 1929.12 2938.42 1913.88 2933.54 1905.38C2932.8 1906.12 2932.08 1906.88 2931.34 1907.62C2936.18 1916.04 2945.74 1931.4 2957.2 1943.4C2957.92 1942.66 2958.64 1941.9 2959.38 1941.16H2959.36Z" fill="white"/>
<path id="512/Vector_241" d="M2952.74 1923.5C2945.82 1916.62 2939.74 1909.34 2935.26 1903.6C2935.16 1903.7 2935.08 1903.8 2934.98 1903.88C2939.72 1912.16 2949.26 1927.6 2960.76 1939.72C2961.24 1939.24 2961.72 1938.74 2962.2 1938.26C2958.74 1933.62 2955.58 1928.56 2952.74 1923.5Z" fill="white"/>
<path id="512/Vector_242" d="M2957.96 1928.46C2959.74 1931.34 2961.64 1934.16 2963.62 1936.84C2964.3 1936.16 2964.98 1935.5 2965.66 1934.82C2963.04 1932.86 2960.48 1930.7 2957.98 1928.46H2957.96Z" fill="white"/>
<path id="512/Vector_243" d="M2936.66 1902.16C2940.04 1906.5 2944.38 1911.78 2949.3 1917.08C2945.6 1909.84 2942.66 1903.04 2940.64 1898C2939.34 1899.38 2938 1900.76 2936.66 1902.16Z" fill="white"/>
</g>
</g>
</g>
</svg>
