<svg width="512" height="512" viewBox="6016 3456 512 512" fill="none" xmlns="http://www.w3.org/2000/svg">
<defs xmlns="http://www.w3.org/2000/svg">
<clipPath id="clip0_268_10729">
<rect width="512" height="512" fill="white" transform="translate(256 256)"/>
</clipPath>
<clipPath id="clip1_268_10729">
<rect width="512" height="512" fill="white" transform="translate(896 256)"/>
</clipPath>
<clipPath id="clip2_268_10729">
<rect width="512" height="512" fill="white" transform="translate(1536 256)"/>
</clipPath>
<clipPath id="clip3_268_10729">
<rect width="512" height="512" fill="white" transform="translate(2176 256)"/>
</clipPath>
<clipPath id="clip4_268_10729">
<rect width="512" height="512" fill="white" transform="translate(2816 256)"/>
</clipPath>
<clipPath id="clip5_268_10729">
<rect width="512" height="512" fill="white" transform="translate(3456 256)"/>
</clipPath>
<clipPath id="clip6_268_10729">
<rect width="592.227" height="238.456" fill="white" transform="translate(3418.64 638.171) rotate(-45)"/>
</clipPath>
<clipPath id="clip7_268_10729">
<rect width="512" height="512" fill="white" transform="translate(4096 256)"/>
</clipPath>
<clipPath id="clip8_268_10729">
<rect width="512" height="512" fill="white" transform="translate(4736 256)"/>
</clipPath>
<clipPath id="clip9_268_10729">
<rect width="116.168" height="650.538" fill="white" transform="translate(4802 782) rotate(-135)"/>
</clipPath>
<clipPath id="clip10_268_10729">
<rect width="512" height="512" fill="white" transform="translate(5376 256)"/>
</clipPath>
<clipPath id="clip11_268_10729">
<rect width="512" height="512" fill="white" transform="translate(6016 256)"/>
</clipPath>
<clipPath id="clip12_268_10729">
<rect width="512" height="512" fill="white" transform="translate(4736 2816)"/>
</clipPath>
</defs>
<g xmlns="http://www.w3.org/2000/svg" id="512/Club Weapon Type 03">
<g id="512/Club Weapon Type 03_2">
<g id="512/Handle_63">
<path id="512/Vector_736" d="M6165.66 3801.7C6164.22 3805.02 6163.5 3807.74 6163.76 3809.66C6165.96 3825.48 6149.38 3828.12 6149.38 3828.12C6149.38 3828.12 6137.32 3829.72 6138.68 3842.7C6140.02 3855.68 6123.7 3859.06 6123.7 3859.06C6123.7 3859.06 6116.8 3861.22 6113.68 3864.92C6112.08 3866.82 6110.5 3870.96 6111.9 3874.74C6116.94 3888.36 6103.84 3896.26 6103.84 3896.26C6103.84 3896.26 6092.74 3902.62 6090.24 3917.14C6087.74 3931.66 6080.86 3929.52 6080.86 3929.52C6050.74 3926.8 6051.88 3909.6 6051.88 3909.6C6069.72 3854.8 6126.72 3784.56 6129.06 3781.7L6165.62 3801.7H6165.66ZM6065.34 3902.02C6062.34 3905.06 6062.36 3909.98 6065.42 3912.98C6068.46 3915.98 6073.38 3915.94 6076.38 3912.9C6079.38 3909.86 6079.34 3904.94 6076.3 3901.94C6073.26 3898.94 6068.34 3898.98 6065.34 3902.02Z" fill="#878787"/>
</g>
<g id="512/Body_10">
<path id="512/Vector_737" d="M6475.94 3551.88C6457.62 3533.84 6428.14 3534.08 6410.1 3552.4C6392.06 3570.72 6392.3 3600.2 6410.62 3618.24C6428.94 3636.28 6458.42 3636.04 6476.46 3617.72C6494.5 3599.4 6494.26 3569.92 6475.94 3551.88ZM6465.22 3559.06C6476.88 3568.24 6480.56 3582.06 6476.88 3594.42L6473.68 3592.62C6476.48 3581.12 6473.14 3569.02 6465.22 3559.06ZM6472.46 3596.62L6475.48 3598.3C6474.54 3600.44 6473.38 3602.52 6471.98 3604.5L6469.3 3603C6470.6 3600.92 6471.64 3598.78 6472.46 3596.62ZM6456.9 3617.24C6460.58 3613.88 6464.1 3610.38 6467 3606.4L6469.4 3607.74C6467.86 3609.46 6466.14 3611.1 6464.2 3612.6C6461.88 3614.36 6459.48 3615.94 6456.9 3617.24Z" fill="white"/>
<path id="512/Vector_738" d="M6491.9 3557.54C6493.26 3560.54 6487.18 3562.32 6487.18 3562.32C6486.98 3562.02 6486.76 3561.74 6486.54 3561.44C6475.32 3539.48 6446.76 3529.42 6423.8 3539.48C6398.44 3549.6 6386.78 3581.84 6398.64 3606.08C6398.74 3606.52 6398.84 3606.96 6398.94 3607.4C6400.4 3614.46 6396.32 3614.86 6393.46 3614.36C6391.94 3614.1 6388.94 3610.74 6387.98 3609.54C6380.54 3600.32 6368.26 3601.1 6368.26 3601.1C6348.4 3597.42 6226.08 3721.62 6226.08 3721.62C6226.08 3721.62 6180.92 3772.16 6167.46 3797.94L6131.7 3778.38C6279.44 3590.3 6343.6 3550.58 6343.6 3550.58C6343.6 3550.58 6389.14 3513.5 6424.18 3506.34C6459.2 3499.18 6490.54 3554.52 6491.9 3557.54Z" fill="white"/>
</g>
</g>
</g>
</svg>
