<svg width="512" height="512" viewBox="256 2816 512 512" fill="none" xmlns="http://www.w3.org/2000/svg">
<defs xmlns="http://www.w3.org/2000/svg">
<clipPath id="clip0_268_10729">
<rect width="512" height="512" fill="white" transform="translate(256 256)"/>
</clipPath>
<clipPath id="clip1_268_10729">
<rect width="512" height="512" fill="white" transform="translate(896 256)"/>
</clipPath>
<clipPath id="clip2_268_10729">
<rect width="512" height="512" fill="white" transform="translate(1536 256)"/>
</clipPath>
<clipPath id="clip3_268_10729">
<rect width="512" height="512" fill="white" transform="translate(2176 256)"/>
</clipPath>
<clipPath id="clip4_268_10729">
<rect width="512" height="512" fill="white" transform="translate(2816 256)"/>
</clipPath>
<clipPath id="clip5_268_10729">
<rect width="512" height="512" fill="white" transform="translate(3456 256)"/>
</clipPath>
<clipPath id="clip6_268_10729">
<rect width="592.227" height="238.456" fill="white" transform="translate(3418.64 638.171) rotate(-45)"/>
</clipPath>
<clipPath id="clip7_268_10729">
<rect width="512" height="512" fill="white" transform="translate(4096 256)"/>
</clipPath>
<clipPath id="clip8_268_10729">
<rect width="512" height="512" fill="white" transform="translate(4736 256)"/>
</clipPath>
<clipPath id="clip9_268_10729">
<rect width="116.168" height="650.538" fill="white" transform="translate(4802 782) rotate(-135)"/>
</clipPath>
<clipPath id="clip10_268_10729">
<rect width="512" height="512" fill="white" transform="translate(5376 256)"/>
</clipPath>
<clipPath id="clip11_268_10729">
<rect width="512" height="512" fill="white" transform="translate(6016 256)"/>
</clipPath>
<clipPath id="clip12_268_10729">
<rect width="512" height="512" fill="white" transform="translate(4736 2816)"/>
</clipPath>
</defs>
<g xmlns="http://www.w3.org/2000/svg" id="512/Dolch">
<g id="512/Dolch_2">
<g id="512/Blade_41">
<path id="512/Vector_495" d="M444.64 3109.02L475.82 3141.06C502.36 3117.68 698.06 2943.64 714.96 2877.26C648.14 2892.34 468.74 3083.14 444.64 3109.02ZM571.22 3021.7C550 3041.56 507.18 3083.76 485.9 3102.56C540.28 3049.16 597.72 2989.24 654.4 2938.66L654.64 2938.9C627.84 2967.52 599.72 2994.8 571.22 3021.7Z" fill="white"/>
</g>
<g id="512/Handle_44">
<path id="512/Vector_496" d="M353.08 3206.94C351.68 3208.62 350.32 3210.24 349.02 3211.82C347.9 3213.18 348.82 3215.24 350.58 3215.32L387.08 3217.02C389.8 3217.14 392.46 3216.28 394.56 3214.58C396.66 3212.88 398.96 3211 401.18 3209.18C402.7 3207.94 401.88 3205.46 399.92 3205.38L360.78 3203.56C357.82 3203.42 354.98 3204.68 353.08 3206.96V3206.94Z" fill="#878787"/>
<path id="512/Vector_497" d="M340.8 3227.22L373.26 3228.74C375.44 3228.84 377.6 3228.16 379.32 3226.8C381.04 3225.44 382.74 3224.08 384.5 3222.68C386.04 3221.44 385.24 3218.94 383.26 3218.84L349.18 3217.26C346.36 3217.12 343.62 3218.34 341.82 3220.54C340.9 3221.66 340.02 3222.74 339.2 3223.74C338.08 3225.1 339.02 3227.14 340.78 3227.24L340.8 3227.22Z" fill="#878787"/>
<path id="512/Vector_498" d="M364.56 3193.3C363.18 3194.92 361.84 3196.52 360.5 3198.08C359.36 3199.44 360.26 3201.52 362.04 3201.6L402.44 3203.48C405.86 3203.64 409.22 3202.52 411.84 3200.32C413.62 3198.82 415.4 3197.32 417.16 3195.84C418.64 3194.58 417.8 3192.16 415.86 3192.06L372.1 3190.02C369.22 3189.88 366.44 3191.1 364.56 3193.3Z" fill="#878787"/>
<path id="512/Vector_499" d="M334.3 3229.8C334.2 3229.92 334.12 3230.02 334.02 3230.14C333.34 3230.98 333.4 3232.2 334.16 3232.98L340.68 3239.68C341.06 3240.08 341.58 3240.3 342.12 3240.32L360.12 3241.16C360.62 3241.18 361.12 3241.04 361.52 3240.72C363.98 3238.8 366.74 3236.68 369.7 3234.36C371.26 3233.14 370.46 3230.62 368.48 3230.52L336.06 3229.02C335.38 3228.98 334.72 3229.28 334.28 3229.82L334.3 3229.8Z" fill="#878787"/>
<path id="512/Vector_500" d="M437.28 3132.16L430.42 3125.12C429.3 3125.86 428.12 3126.72 426.86 3127.68C425.2 3128.96 426.02 3131.64 428.12 3131.74L437.28 3132.16Z" fill="#878787"/>
<path id="512/Vector_501" d="M352.6 3242.8L348.74 3242.62C346.8 3242.52 345.74 3244.86 347.1 3246.26L348.84 3248.06C349.6 3248.84 350.82 3248.94 351.68 3248.28C352.3 3247.8 353 3247.26 353.8 3246.66C355.4 3245.44 354.6 3242.9 352.6 3242.8Z" fill="#878787"/>
<path id="512/Vector_502" d="M375.62 3180.44C374.42 3181.82 373.24 3183.18 372.06 3184.54C370.88 3185.9 371.8 3188 373.6 3188.08L418.5 3190.16C421.72 3190.3 424.86 3189.2 427.28 3187.08C428.84 3185.7 430.38 3184.34 431.88 3183C433.38 3181.66 432.46 3179.34 430.54 3179.26L383.52 3177.08C380.52 3176.94 377.6 3178.18 375.62 3180.46V3180.44Z" fill="#878787"/>
<path id="512/Vector_503" d="M387.82 3166.62C386.36 3168.26 384.88 3169.9 383.42 3171.56C382.22 3172.9 383.12 3175.04 384.92 3175.12L433.06 3177.36C436.12 3177.5 439.1 3176.38 441.32 3174.28C443.34 3172.36 445.26 3170.5 447.04 3168.7C448.36 3167.38 447.46 3165.14 445.6 3165.04L396.96 3162.78C393.5 3162.62 390.12 3164.02 387.8 3166.6L387.82 3166.62Z" fill="#878787"/>
<path id="512/Vector_504" d="M490.72 3164.2L472.9 3143.8L441.84 3111.86L421.94 3093.48C424.26 3087.8 423.4 3081.3 419.12 3076.9C413.22 3070.82 403.16 3071.04 396.64 3077.4C390.12 3083.74 389.62 3093.8 395.52 3099.86C399.78 3104.24 406.16 3105.28 411.84 3103.18L424.44 3116.12L424.48 3116.08L468 3160.82L467.96 3160.86L480.74 3174C478.5 3179.64 479.38 3186.06 483.64 3190.42C489.54 3196.5 499.6 3196.28 506.12 3189.92C512.64 3183.58 513.14 3173.52 507.24 3167.46C502.94 3163.04 496.48 3162 490.74 3164.18L490.72 3164.2Z" fill="#878787"/>
<path id="512/Vector_505" d="M348.56 3250.64L331.58 3233.18L331.56 3233.22C327.1 3230.34 313.4 3239.38 312.12 3246.44C310.76 3254.1 304.98 3276.04 304.98 3276.04C304.98 3276.04 327.08 3270.88 334.78 3269.72C341.88 3268.64 351.3 3255.2 348.52 3250.66C348.52 3250.66 348.54 3250.66 348.56 3250.64ZM315.02 3266.72L313.52 3266.96C315.02 3260.98 316.64 3255.04 318.94 3249.26C318.38 3254.44 317.34 3259.52 316.16 3264.54C318.54 3264.18 320.92 3263.86 323.32 3263.62C326.22 3263.32 329.1 3263.1 332.02 3263.04C326.46 3264.72 320.74 3265.8 315.02 3266.72Z" fill="#878787"/>
<path id="512/Vector_506" d="M458.14 3153.6L455.18 3150.56C454.82 3150.2 454.34 3149.98 453.84 3149.96L410 3147.92C407.04 3147.78 404.2 3148.94 402.16 3151.08C400.12 3153.22 398.18 3155.3 396.16 3157.48C395 3158.72 395.84 3160.76 397.54 3160.84L447.72 3163.18C450.64 3163.32 453.46 3162.08 455.36 3159.86C456.46 3158.58 457.44 3157.36 458.3 3156.22C458.9 3155.42 458.84 3154.32 458.14 3153.6Z" fill="#878787"/>
<path id="512/Vector_507" d="M419.38 3134.04C416.82 3136.36 414.1 3138.98 411.24 3141.8C409.7 3143.32 410.72 3145.96 412.88 3146.06L446.32 3147.62C448.58 3147.72 449.8 3145.02 448.22 3143.4L440.02 3134.98C439.58 3134.52 438.98 3134.26 438.36 3134.22L421.18 3133.42C420.52 3133.38 419.88 3133.6 419.4 3134.06L419.38 3134.04Z" fill="#878787"/>
</g>
</g>
</g>
</svg>
