<svg width="512" height="512" viewBox="896 256 512 512" fill="none" xmlns="http://www.w3.org/2000/svg">
<defs xmlns="http://www.w3.org/2000/svg">
<clipPath id="clip0_268_10729">
<rect width="512" height="512" fill="white" transform="translate(256 256)"/>
</clipPath>
<clipPath id="clip1_268_10729">
<rect width="512" height="512" fill="white" transform="translate(896 256)"/>
</clipPath>
<clipPath id="clip2_268_10729">
<rect width="512" height="512" fill="white" transform="translate(1536 256)"/>
</clipPath>
<clipPath id="clip3_268_10729">
<rect width="512" height="512" fill="white" transform="translate(2176 256)"/>
</clipPath>
<clipPath id="clip4_268_10729">
<rect width="512" height="512" fill="white" transform="translate(2816 256)"/>
</clipPath>
<clipPath id="clip5_268_10729">
<rect width="512" height="512" fill="white" transform="translate(3456 256)"/>
</clipPath>
<clipPath id="clip6_268_10729">
<rect width="592.227" height="238.456" fill="white" transform="translate(3418.64 638.171) rotate(-45)"/>
</clipPath>
<clipPath id="clip7_268_10729">
<rect width="512" height="512" fill="white" transform="translate(4096 256)"/>
</clipPath>
<clipPath id="clip8_268_10729">
<rect width="512" height="512" fill="white" transform="translate(4736 256)"/>
</clipPath>
<clipPath id="clip9_268_10729">
<rect width="116.168" height="650.538" fill="white" transform="translate(4802 782) rotate(-135)"/>
</clipPath>
<clipPath id="clip10_268_10729">
<rect width="512" height="512" fill="white" transform="translate(5376 256)"/>
</clipPath>
<clipPath id="clip11_268_10729">
<rect width="512" height="512" fill="white" transform="translate(6016 256)"/>
</clipPath>
<clipPath id="clip12_268_10729">
<rect width="512" height="512" fill="white" transform="translate(4736 2816)"/>
</clipPath>
</defs>
<g xmlns="http://www.w3.org/2000/svg" id="512/Doppelkunchomer" clip-path="url(#clip1_268_10729)">
<g id="512/Doppelkunchomer_2">
<path id="512/Blade" d="M1255.79 390.607C1208.22 490.04 1130.44 560.087 1049.29 626.686C1054.14 633.454 1059.37 640.223 1064.55 647.11C1141.31 594.374 1177.75 570.197 1264.38 475.896C1354.99 377.269 1384.62 297.151 1391.93 272C1355.46 315.651 1307.12 357.611 1255.79 390.607ZM1257.78 394.092C1265.86 390.075 1273.95 386.081 1281.93 381.894C1305.92 369.539 1328.07 353.595 1346.31 333.644L1349.97 329.715C1339.81 360.647 1321.9 388.327 1302.17 413.96C1283.63 438.317 1262.77 460.754 1242.02 483.102C1221.34 505.554 1200.18 527.771 1176.5 547.14C1152.93 566.588 1128.2 584.502 1103.61 602.591C1127.71 583.867 1152.05 565.417 1175.35 545.764C1210.13 516.108 1240.15 481.214 1270.8 447.416C1280.68 436.066 1290.77 424.11 1299.95 412.242C1317.46 389.625 1333.53 365.588 1344.16 339.002C1332.62 350.524 1319.9 360.916 1306.03 369.512C1290.62 379.043 1274.21 386.62 1257.8 394.095L1257.78 394.092Z" fill="white"/>
<g id="512/Handle_2">
<path id="512/Vector_18" d="M1035.8 586.441C1038.56 589.74 1038.1 594.648 1034.8 597.404C1032.75 599.112 1030.08 599.582 1027.68 598.908C1028.57 605.261 1032.55 611.015 1036.5 616.189C1039.42 620.098 1042.5 623.978 1045.65 627.825C1048.32 631.187 1060.81 647.783 1063.28 651.274C1066.11 655.368 1068.98 659.406 1071.92 663.297C1075.81 668.515 1080.23 673.955 1086.08 676.562C1086.1 674.074 1087.29 671.637 1089.5 670.139C1093.06 667.734 1097.9 668.66 1100.31 672.224C1102.71 675.788 1101.79 680.628 1098.22 683.033C1096.27 684.357 1093.93 684.645 1091.81 684.061C1089.54 684.117 1087.13 683.965 1084.75 683.376C1076.54 681.355 1070.35 675.226 1064.77 669.318C1061.79 666.112 1058.81 662.666 1055.88 659.206C1051.17 662.495 1043.08 659.392 1037.65 652.177C1032.22 644.962 1031.51 636.332 1035.96 632.712C1033.45 628.934 1030.96 625.118 1028.71 621.367C1024.58 614.367 1020.4 606.731 1020.75 598.272C1020.85 595.816 1021.38 593.473 1022.05 591.298C1022.09 589.105 1022.99 586.941 1024.82 585.42C1028.12 582.664 1033.02 583.118 1035.78 586.417L1035.8 586.441Z" fill="#878787"/>
<path id="512/Vector_19" d="M1009.39 703.96L1009.26 704.057C1007.63 705.281 1005.41 705.228 1003.92 703.949C998.896 699.638 993.854 694.519 989.371 688.557C984.888 682.595 981.339 676.242 978.603 670.214C977.789 668.424 978.354 666.275 979.982 665.051L980.111 664.954C982.29 663.316 985.336 664.05 986.473 666.441C989.113 671.974 992.406 677.694 996.519 683.164C1000.63 688.633 1005.17 693.346 1009.74 697.426C1011.71 699.191 1011.56 702.31 1009.38 703.948L1009.39 703.96Z" fill="#878787"/>
<path id="512/Vector_20" d="M998.858 681.422C995.423 676.855 992.345 671.762 989.636 666.281C1006.25 656.063 1031.02 645.828 1031.02 645.828C1031.02 645.828 1032.04 649.614 1035.31 653.971C1038.59 658.328 1041.95 660.352 1041.95 660.352C1041.95 660.352 1025.21 681.333 1010.79 694.456C1006.29 690.335 1002.27 685.955 998.867 681.434L998.858 681.422Z" fill="#878787"/>
<path id="512/Vector_21" d="M961 730.026L960.906 730.096C959.665 731.03 958.041 731.114 957.017 730.289C953.578 727.52 950.154 724.21 947.185 720.263C944.217 716.316 941.952 712.06 940.258 707.979C939.75 706.766 940.281 705.23 941.523 704.296L941.616 704.226C943.28 702.975 945.47 703.327 946.184 704.935C947.821 708.673 949.936 712.51 952.658 716.129C955.38 719.748 958.441 722.819 961.565 725.438C962.912 726.57 962.643 728.772 960.979 730.023L961 730.026Z" fill="#878787"/>
<path id="512/Vector_22" d="M955.021 714.37C953.013 711.7 951.227 708.715 949.664 705.49C954.752 698.822 966.524 684.046 977.621 674.858C980.377 680.45 983.514 685.645 987.029 690.318C990.543 694.992 994.629 699.401 999.215 703.598C987.299 711.697 969.837 718.906 962.03 721.935C959.386 719.541 957.023 717.008 955.033 714.361L955.021 714.37Z" fill="#878787"/>
<path id="512/Vector_23" d="M924.258 709.817C928.493 707.915 933.695 707.395 937.531 708.692C937.589 708.941 937.648 709.19 937.751 709.424C939.677 714.082 942.059 718.323 944.852 722.036C947.644 725.749 951.01 729.177 954.939 732.328C955.156 732.495 955.376 732.641 955.61 732.758C955.792 736.949 953.691 742.032 950.486 745.597C949.33 746.888 947.408 747.233 945.853 746.459C938.21 742.635 932.879 745.03 929.577 746.175C928.355 746.598 929.577 746.175 928.355 746.598C927.248 744.516 921.66 745.546 918.744 741.669C915.829 737.792 918.369 732.709 916.676 731.067L917.422 730.011C919.373 727.242 923.61 721.342 922.024 714.503C921.582 712.599 922.497 710.646 924.287 709.831L924.258 709.817Z" fill="#878787"/>
</g>
</g>
</g>
</svg>
