<svg width="512" height="512" viewBox="256 3456 512 512" fill="none" xmlns="http://www.w3.org/2000/svg">
<defs xmlns="http://www.w3.org/2000/svg">
<clipPath id="clip0_268_10729">
<rect width="512" height="512" fill="white" transform="translate(256 256)"/>
</clipPath>
<clipPath id="clip1_268_10729">
<rect width="512" height="512" fill="white" transform="translate(896 256)"/>
</clipPath>
<clipPath id="clip2_268_10729">
<rect width="512" height="512" fill="white" transform="translate(1536 256)"/>
</clipPath>
<clipPath id="clip3_268_10729">
<rect width="512" height="512" fill="white" transform="translate(2176 256)"/>
</clipPath>
<clipPath id="clip4_268_10729">
<rect width="512" height="512" fill="white" transform="translate(2816 256)"/>
</clipPath>
<clipPath id="clip5_268_10729">
<rect width="512" height="512" fill="white" transform="translate(3456 256)"/>
</clipPath>
<clipPath id="clip6_268_10729">
<rect width="592.227" height="238.456" fill="white" transform="translate(3418.64 638.171) rotate(-45)"/>
</clipPath>
<clipPath id="clip7_268_10729">
<rect width="512" height="512" fill="white" transform="translate(4096 256)"/>
</clipPath>
<clipPath id="clip8_268_10729">
<rect width="512" height="512" fill="white" transform="translate(4736 256)"/>
</clipPath>
<clipPath id="clip9_268_10729">
<rect width="116.168" height="650.538" fill="white" transform="translate(4802 782) rotate(-135)"/>
</clipPath>
<clipPath id="clip10_268_10729">
<rect width="512" height="512" fill="white" transform="translate(5376 256)"/>
</clipPath>
<clipPath id="clip11_268_10729">
<rect width="512" height="512" fill="white" transform="translate(6016 256)"/>
</clipPath>
<clipPath id="clip12_268_10729">
<rect width="512" height="512" fill="white" transform="translate(4736 2816)"/>
</clipPath>
</defs>
<g xmlns="http://www.w3.org/2000/svg" id="512/Elfenbogen">
<g id="512/Elfenbogen_2">
<g id="512/Handle_53">
<path id="512/Vector_582" d="M719.62 3510.16C714.6 3511.2 703 3528.08 700.3 3532.08C699.28 3531.92 698.38 3532.08 697.86 3532.6C694 3531.98 689.08 3531.54 687.14 3532.92C686.32 3533.5 686.08 3534.22 686.02 3534.74C685.6 3538.12 686.02 3540.54 686.02 3540.64L688.98 3540.14C688.98 3540.14 688.64 3538.12 688.98 3535.32C689.88 3534.82 693.22 3534.94 697.14 3535.56L344.64 3886.52C344.64 3886.52 342.82 3888.96 338.46 3892.86C339.22 3891.22 339.76 3888.92 339.42 3885.82L337.44 3886.04C338.14 3892.24 334.82 3894.5 334.68 3894.6L334.74 3894.7C333.28 3895.52 332.38 3896.76 332.38 3897.86C330.06 3899.62 327.4 3901.52 324.28 3903.52C311.98 3911.46 315.42 3919.92 315.42 3919.92C316.42 3923.06 320.14 3919.1 320.14 3919.1C320.14 3919.1 319.42 3919.5 319 3917.88C317.44 3912.06 328.34 3905.64 328.34 3905.64L328.8 3907.16L332.44 3907.22L332.72 3904.98L335.52 3899.8L335.54 3899.78C336.16 3899.72 336.82 3899.56 337.48 3899.28C339.32 3898.48 340.5 3897 340.44 3895.74C353.6 3883.32 690.46 3548.64 690.46 3548.64L701.64 3537.86C703.08 3538.22 704.38 3537.98 704.88 3537.12C705.24 3536.52 705.12 3535.72 704.68 3534.94L706.12 3533.54L708.8 3527.5C716.22 3515.92 719.46 3516.8 719.46 3516.8L720.96 3518.16C720.96 3518.16 725.3 3508.94 719.62 3510.12V3510.16Z" fill="#878787"/>
<g id="512/Group_26">
<path id="512/Vector_583" d="M584.24 3769.74C585.54 3768.44 586.88 3767.12 588.24 3765.78C589.14 3761.82 589.42 3758 589.26 3754.42C587.36 3753.34 585.44 3752.44 583.54 3751.7C584.8 3757.02 585.3 3763.14 584.24 3769.74Z" fill="#878787"/>
<path id="512/Vector_584" d="M576.14 3734.54C578.18 3737.66 581.04 3742.8 582.92 3749.34C584.96 3750.06 587.04 3750.96 589.1 3752.04C588.12 3741.98 583.9 3733.94 581.14 3729.66C579.54 3731.22 577.86 3732.84 576.14 3734.54Z" fill="#878787"/>
<path id="512/Vector_585" d="M591.22 3753.24C593.1 3754.36 594.94 3755.68 596.76 3757.18C609.16 3744.48 622.76 3729.38 635.7 3712.64C635.7 3712.64 597.26 3735.48 597.34 3714.26C597.34 3714.26 591.24 3719.92 582.62 3728.24C585.62 3732.82 590.46 3741.86 591.22 3753.24Z" fill="#878787"/>
<path id="512/Vector_586" d="M591.3 3755.66C591.34 3758.1 591.16 3760.64 590.74 3763.26C591.48 3762.52 592.2 3761.78 592.96 3761.04C593.74 3760.26 594.54 3759.42 595.34 3758.62C594.02 3757.52 592.66 3756.54 591.3 3755.66Z" fill="#878787"/>
<path id="512/Vector_587" d="M581.72 3772.22C583.56 3764.3 582.9 3757 581.28 3750.88C573.86 3748.44 566.84 3748.24 561.96 3748.56C554.82 3755.6 547.54 3762.68 540.08 3770.68C540.08 3770.68 574.18 3752.34 537.04 3813.86C537.04 3813.86 554.48 3798.98 581.7 3772.22H581.72Z" fill="#878787"/>
<path id="512/Vector_588" d="M580.62 3748.58C578.88 3743.1 576.48 3738.74 574.68 3735.94C572.52 3738.06 570.32 3740.26 568.04 3742.52C566.72 3743.84 565.4 3745.14 564.08 3746.46C568.64 3746.34 574.46 3746.74 580.6 3748.58H580.62Z" fill="#878787"/>
</g>
</g>
<g id="512/Body_7">
<path id="512/Vector_589" d="M716.34 3549.14C716.34 3549.14 715.7 3548.34 716.4 3547.68C717.98 3546.16 721.26 3543.84 725.56 3546.36C725.86 3546.54 726.4 3546.88 726.42 3547.36C726.42 3547.36 728.5 3545.42 726.82 3543.56C725.14 3541.7 719.68 3541.62 714.96 3545.42C711.54 3548.16 716.36 3549.14 716.36 3549.14H716.34Z" fill="#878787"/>
<path id="512/Vector_590" d="M716.06 3544.26C716.06 3544.26 715.42 3543.46 716.12 3542.8C717.7 3541.28 720.98 3538.96 725.28 3541.48C725.58 3541.66 726.12 3542 726.14 3542.48C726.14 3542.48 728.22 3540.54 726.54 3538.68C724.86 3536.82 719.4 3536.74 714.68 3540.54C711.26 3543.28 716.08 3544.26 716.08 3544.26H716.06Z" fill="#878787"/>
<path id="512/Vector_591" d="M347.348 3909.48C347.348 3909.48 346.468 3908.98 345.928 3909.76C344.688 3911.56 342.928 3915.18 346.108 3919.02C346.328 3919.28 346.768 3919.76 347.228 3919.7C347.228 3919.7 345.648 3922.08 343.548 3920.7C341.448 3919.32 340.468 3913.98 343.448 3908.7C345.588 3904.9 347.348 3909.48 347.348 3909.48Z" fill="#878787"/>
<path id="512/Vector_592" d="M351.94 3909.24C351.94 3909.24 351.06 3908.74 350.52 3909.52C349.28 3911.32 347.52 3914.94 350.7 3918.78C350.92 3919.04 351.36 3919.52 351.82 3919.46C351.82 3919.46 350.24 3921.84 348.14 3920.46C346.04 3919.08 345.06 3913.74 348.04 3908.46C350.18 3904.66 351.94 3909.24 351.94 3909.24Z" fill="#878787"/>
<path id="512/Vector_593" d="M361.44 3910C361.44 3910 360.56 3909.5 360.02 3910.28C358.78 3912.08 357.02 3915.7 360.2 3919.54C360.42 3919.8 360.86 3920.28 361.32 3920.22C361.32 3920.22 359.74 3922.6 357.64 3921.22C355.54 3919.84 354.56 3914.5 357.54 3909.22C359.68 3905.42 361.44 3910 361.44 3910Z" fill="#878787"/>
<path id="512/Vector_594" d="M709.4 3500.54C711.04 3500.12 712.5 3500.08 713.66 3500.16C712.16 3495.88 709.68 3490.68 706.9 3493.08C705.66 3494.16 705.68 3497.56 706.36 3501.9C707.02 3501.44 707.98 3500.9 709.38 3500.54H709.4Z" fill="white"/>
<path id="512/Vector_595" d="M356.04 3909.78L352.7 3909.64C351.84 3910.5 350 3912.78 350.68 3915.86C351.04 3917.52 352.16 3918.48 353.1 3919.12C353.16 3919.16 353.22 3919.2 353.28 3919.24C353.7 3919.26 354.1 3919.28 354.48 3919.32C354.82 3919.34 355.2 3919.38 355.62 3919.4C355.08 3918.7 354.62 3917.86 354.38 3916.78C353.7 3913.7 354.92 3911.26 356.04 3909.78Z" fill="white"/>
<path id="512/Vector_596" d="M711.38 3514.54C713.56 3512.16 715.48 3510.64 716.38 3510C716.16 3509.12 715.96 3508.36 715.8 3507.72C715.1 3507.16 713.56 3506.18 711.54 3506.28C710.38 3506.34 709.64 3506.84 709.14 3507.26C708.76 3507.58 708.22 3508.38 707.84 3509.02C708.44 3511.5 709.12 3514.02 709.82 3516.44C710.22 3515.9 710.74 3515.28 711.4 3514.54H711.38Z" fill="white"/>
<path id="512/Vector_597" d="M709.9 3502.48C708.46 3502.84 707.62 3503.44 707.12 3503.84C707 3503.92 706.9 3504.06 706.78 3504.2C706.92 3504.9 707.06 3505.64 707.22 3506.36C707.42 3506.1 707.64 3505.88 707.86 3505.7C708.54 3505.14 709.66 3504.36 711.42 3504.26C712.86 3504.18 714.1 3504.5 715.1 3504.96C715.04 3504.7 714.78 3503.64 714.36 3502.26C713.3 3502.1 711.74 3502.02 709.92 3502.48H709.9Z" fill="white"/>
<path id="512/Vector_598" d="M313.2 3915.42C313.36 3914.4 314.38 3911.86 315.42 3910.24C315.84 3909.58 316.36 3908.94 316.86 3908.34C308 3908.4 297.62 3909.12 294.92 3912C290 3917.26 302.64 3918.02 302.64 3918.02C302.64 3918.02 307.06 3918.06 313.36 3918.16C313.22 3917.38 313.06 3916.26 313.2 3915.42Z" fill="white"/>
<path id="512/Vector_599" d="M730.5 3506.52C729.74 3504.46 725.94 3505.82 725.94 3505.82C725.94 3505.82 725.92 3516.42 724.8 3518.36C723.66 3520.3 718.82 3519.36 718.8 3519.06C718.8 3519.04 718.8 3519.02 718.8 3518.98C717.9 3519.58 716.84 3520.36 715.74 3521.4C714.44 3522.64 713.78 3523.6 713.4 3524.24C713.12 3524.7 712.88 3525.36 712.74 3525.86C713.66 3528.7 714.32 3530.54 714.32 3530.54L715.14 3537.92C715.36 3537.78 715.58 3537.62 715.78 3537.5C716.64 3536.96 718.04 3536.22 720.3 3535.94C722.46 3535.66 724.22 3535.88 725.54 3536.18C725.48 3535.46 725.42 3534.8 725.36 3534.2C725.16 3532.52 728.62 3530.24 729.26 3526.2C729.66 3523.72 731.8 3509.72 730.58 3506.5L730.5 3506.52Z" fill="white"/>
<path id="512/Vector_600" d="M341.885 3909.19L330.48 3908.72C330.48 3908.72 329.26 3908.64 327.3 3908.56C326.62 3909.02 324.76 3910.34 323.48 3911.78C322.28 3913.14 321.1 3915.22 320.9 3915.84C320.72 3916.4 320.72 3917.5 320.76 3918.28C320.86 3918.28 320.94 3918.28 321.04 3918.28C321.36 3918.28 321.48 3921.44 319.18 3922.86C316.88 3924.28 309.92 3925.16 309.92 3925.16C309.92 3925.16 308.58 3927.82 310.7 3928.48C314.08 3929.52 321.86 3928.68 324.64 3928.02C329.2 3926.94 334.5 3918.94 336.34 3918.98C339.34 3919.06 338.586 3918.96 340.966 3918.98C340.326 3918.24 340.219 3917.52 340.219 3915.45C340.219 3913.38 340.702 3910.83 341.885 3909.19Z" fill="white"/>
<path id="512/Vector_601" d="M707.3 3507.46C707.3 3507.46 706.8 3506.82 707.34 3506.28C708.62 3505.06 711.26 3503.2 714.72 3505.22C714.96 3505.36 715.4 3505.64 715.42 3506.02C715.42 3506.02 717.1 3504.46 715.74 3502.96C714.38 3501.46 710 3501.4 706.2 3504.44C703.46 3506.64 707.32 3507.44 707.32 3507.44L707.3 3507.46Z" fill="#878787"/>
<path id="512/Vector_602" d="M550.02 3772.74C546.82 3770.1 540.1 3774.38 535.62 3778.02C527.14 3787.66 519.98 3796.76 517.38 3802.58C509.4 3820.46 493.76 3843.94 493.76 3843.94C446.22 3910.78 363.36 3910.12 363.36 3910.12L362.64 3910.08C361.82 3910.88 359.84 3913.2 360.54 3916.38C360.88 3917.9 361.82 3918.8 362.68 3919.44C369.02 3919.3 378 3918.86 388.5 3918.2C399.68 3917.5 412.58 3915.36 426 3911.76C438.32 3908.46 465.48 3896.5 477.08 3887.28C496.72 3871.68 513.06 3852.68 532.72 3818.2C532.84 3817.98 532.98 3817.78 533.1 3817.56L533.04 3817.52C544.06 3798.22 553.52 3775.62 550.04 3772.76L550.02 3772.74ZM445.26 3898.44C444.32 3898.44 443.56 3897.68 443.56 3896.74C443.56 3895.8 444.32 3895.04 445.26 3895.04C446.2 3895.04 446.96 3895.8 446.96 3896.74C446.96 3897.68 446.2 3898.44 445.26 3898.44ZM465.46 3888C464.16 3888 463.1 3886.94 463.1 3885.64C463.1 3884.34 464.16 3883.28 465.46 3883.28C466.76 3883.28 467.82 3884.34 467.82 3885.64C467.82 3886.94 466.76 3888 465.46 3888ZM484.06 3872.6C482.42 3872.6 481.08 3871.26 481.08 3869.62C481.08 3867.98 482.42 3866.64 484.06 3866.64C485.7 3866.64 487.04 3867.98 487.04 3869.62C487.04 3871.26 485.7 3872.6 484.06 3872.6Z" fill="white"/>
<path id="512/Vector_603" d="M726.24 3548.58C725.28 3547.9 722.98 3546.62 720 3547.46C718.32 3547.94 717.42 3549 716.84 3549.86C716.74 3550.02 716.62 3550.2 716.5 3550.38L717.6 3560.22C717.6 3560.22 725.12 3622.48 668.5 3662.78C668.5 3662.78 646.32 3678.56 631.82 3687.62C625.12 3691.82 612.44 3702.74 600.92 3713.1C600.7 3715.2 601 3718.3 604.38 3719.36C609.34 3720.92 627.08 3713.32 637.38 3708.02C640.48 3705.5 643.58 3703.06 646.64 3700.76C673.46 3680.54 688.26 3671.94 701.08 3655.88C708.64 3646.4 719.96 3625.1 722.84 3614.34C725.96 3602.64 727.48 3587.68 727.26 3577.48C727.06 3568.38 726.7 3557.52 726.28 3548.56L726.24 3548.58ZM686.5 3662.12C684.86 3662.26 683.42 3661.06 683.26 3659.42C683.12 3657.78 684.32 3656.34 685.96 3656.18C687.6 3656.04 689.04 3657.24 689.2 3658.88C689.34 3660.52 688.14 3661.96 686.5 3662.12ZM702.88 3642.46C701.58 3642.58 700.44 3641.62 700.32 3640.32C700.2 3639.02 701.16 3637.88 702.46 3637.76C703.76 3637.64 704.9 3638.6 705.02 3639.9C705.14 3641.2 704.18 3642.34 702.88 3642.46ZM711.86 3623.12C710.92 3623.2 710.1 3622.52 710.02 3621.58C709.94 3620.64 710.62 3619.82 711.56 3619.74C712.5 3619.66 713.32 3620.34 713.4 3621.28C713.48 3622.22 712.8 3623.04 711.86 3623.12Z" fill="white"/>
</g>
</g>
</g>
</svg>
