<svg width="512" height="512" viewBox="4096 2816 512 512" fill="none" xmlns="http://www.w3.org/2000/svg">
<defs xmlns="http://www.w3.org/2000/svg">
<clipPath id="clip0_268_10729">
<rect width="512" height="512" fill="white" transform="translate(256 256)"/>
</clipPath>
<clipPath id="clip1_268_10729">
<rect width="512" height="512" fill="white" transform="translate(896 256)"/>
</clipPath>
<clipPath id="clip2_268_10729">
<rect width="512" height="512" fill="white" transform="translate(1536 256)"/>
</clipPath>
<clipPath id="clip3_268_10729">
<rect width="512" height="512" fill="white" transform="translate(2176 256)"/>
</clipPath>
<clipPath id="clip4_268_10729">
<rect width="512" height="512" fill="white" transform="translate(2816 256)"/>
</clipPath>
<clipPath id="clip5_268_10729">
<rect width="512" height="512" fill="white" transform="translate(3456 256)"/>
</clipPath>
<clipPath id="clip6_268_10729">
<rect width="592.227" height="238.456" fill="white" transform="translate(3418.64 638.171) rotate(-45)"/>
</clipPath>
<clipPath id="clip7_268_10729">
<rect width="512" height="512" fill="white" transform="translate(4096 256)"/>
</clipPath>
<clipPath id="clip8_268_10729">
<rect width="512" height="512" fill="white" transform="translate(4736 256)"/>
</clipPath>
<clipPath id="clip9_268_10729">
<rect width="116.168" height="650.538" fill="white" transform="translate(4802 782) rotate(-135)"/>
</clipPath>
<clipPath id="clip10_268_10729">
<rect width="512" height="512" fill="white" transform="translate(5376 256)"/>
</clipPath>
<clipPath id="clip11_268_10729">
<rect width="512" height="512" fill="white" transform="translate(6016 256)"/>
</clipPath>
<clipPath id="clip12_268_10729">
<rect width="512" height="512" fill="white" transform="translate(4736 2816)"/>
</clipPath>
</defs>
<g xmlns="http://www.w3.org/2000/svg" id="512/Entermesser">
<g id="512/Entermesser_2">
<g id="512/Blade_46">
<path id="512/Vector_553" d="M4550.5 2867.52L4268.26 3136.96C4273.04 3141.58 4285.1 3153.9 4297.58 3171.86C4331.68 3139.46 4484.98 2993.66 4519.34 2957.9C4558.08 2917.62 4550.5 2867.5 4550.5 2867.5V2867.52ZM4525.38 2916.04C4515.94 2937.76 4499.1 2955.22 4483.4 2972.54C4445.84 3011.68 4348.62 3100.98 4307.94 3138.46C4348.84 3098.92 4443.1 3010.06 4481.24 2970.48C4497.2 2953.58 4514.08 2936.66 4524.62 2915.72C4526 2912.7 4527.18 2909.56 4527.76 2906.26L4528.06 2906.3C4527.64 2909.66 4526.62 2912.9 4525.38 2916.04Z" fill="white"/>
</g>
<g id="512/Handle_50">
<path id="512/Vector_554" d="M4216.68 3194.06C4198.2 3212.8 4178.38 3233.24 4172.66 3240.34C4178 3251.28 4186.58 3256.72 4190.4 3258.68C4198 3252.38 4227.04 3228.2 4250.14 3207.56C4242.88 3207.22 4230.44 3204.76 4216.68 3194.04V3194.06Z" fill="#878787"/>
<path id="512/Vector_555" d="M4226.76 3183.86C4223.96 3186.68 4221.06 3189.62 4218.12 3192.6C4232.82 3203.88 4246 3205.54 4252.38 3205.56C4254.44 3203.72 4256.44 3201.9 4258.36 3200.14C4250.16 3198.68 4238.82 3194.58 4226.76 3183.86Z" fill="#878787"/>
<path id="512/Vector_556" d="M4228.18 3182.42C4240.62 3193.38 4252.36 3197.14 4260.34 3198.32C4265.14 3193.88 4269.38 3189.84 4272.74 3186.44L4249.78 3160.8C4245.8 3164.78 4237.72 3172.84 4228.2 3182.44L4228.18 3182.42Z" fill="#878787"/>
<path id="512/Vector_557" d="M4265.38 3139.72L4265.32 3139.78C4258.56 3133.34 4252.02 3128.6 4247 3128.06C4230.4 3126.26 4239.84 3144.82 4239.84 3144.82C4239.84 3144.82 4244.46 3151.1 4251.22 3159.38L4274.16 3185C4283.86 3195.48 4288.02 3201.54 4287.98 3210.8C4287.94 3221.88 4279.82 3252.22 4244.84 3264.66C4218.74 3273.94 4199.88 3267.12 4189.98 3261.3C4190.94 3264.34 4190.8 3266.84 4189.56 3268.76C4188.7 3270.06 4187.44 3270.92 4186.1 3271.48C4215.16 3290.78 4243.76 3282 4243.76 3282C4243.76 3282 4260.68 3282.4 4290.6 3250.78C4316.4 3223.54 4306.48 3195.16 4301.52 3185.1C4286.84 3161.24 4270.82 3144.92 4265.42 3139.72H4265.38Z" fill="#878787"/>
<path id="512/Vector_558" d="M4182.62 3270C4183 3269.98 4183.34 3269.92 4183.66 3269.84C4183.76 3269.92 4183.88 3269.98 4183.98 3270.06C4185.48 3269.66 4186.98 3268.96 4187.84 3267.64C4189.1 3265.72 4188.74 3262.8 4186.82 3258.98C4182.4 3256.26 4175.9 3251.02 4171.32 3242.14C4171.32 3242.16 4171.28 3242.2 4171.26 3242.22C4171.26 3242.22 4165.62 3236.3 4161.08 3243.68C4156.54 3251.06 4165.86 3262.26 4167.1 3263.56C4168.34 3264.86 4174.84 3270.5 4182.6 3269.98L4182.62 3270Z" fill="#878787"/>
</g>
</g>
</g>
</svg>
