<svg width="512" height="512" viewBox="2176 1536 512 512" fill="none" xmlns="http://www.w3.org/2000/svg">
<defs xmlns="http://www.w3.org/2000/svg">
<clipPath id="clip0_268_10729">
<rect width="512" height="512" fill="white" transform="translate(256 256)"/>
</clipPath>
<clipPath id="clip1_268_10729">
<rect width="512" height="512" fill="white" transform="translate(896 256)"/>
</clipPath>
<clipPath id="clip2_268_10729">
<rect width="512" height="512" fill="white" transform="translate(1536 256)"/>
</clipPath>
<clipPath id="clip3_268_10729">
<rect width="512" height="512" fill="white" transform="translate(2176 256)"/>
</clipPath>
<clipPath id="clip4_268_10729">
<rect width="512" height="512" fill="white" transform="translate(2816 256)"/>
</clipPath>
<clipPath id="clip5_268_10729">
<rect width="512" height="512" fill="white" transform="translate(3456 256)"/>
</clipPath>
<clipPath id="clip6_268_10729">
<rect width="592.227" height="238.456" fill="white" transform="translate(3418.64 638.171) rotate(-45)"/>
</clipPath>
<clipPath id="clip7_268_10729">
<rect width="512" height="512" fill="white" transform="translate(4096 256)"/>
</clipPath>
<clipPath id="clip8_268_10729">
<rect width="512" height="512" fill="white" transform="translate(4736 256)"/>
</clipPath>
<clipPath id="clip9_268_10729">
<rect width="116.168" height="650.538" fill="white" transform="translate(4802 782) rotate(-135)"/>
</clipPath>
<clipPath id="clip10_268_10729">
<rect width="512" height="512" fill="white" transform="translate(5376 256)"/>
</clipPath>
<clipPath id="clip11_268_10729">
<rect width="512" height="512" fill="white" transform="translate(6016 256)"/>
</clipPath>
<clipPath id="clip12_268_10729">
<rect width="512" height="512" fill="white" transform="translate(4736 2816)"/>
</clipPath>
</defs>
<g xmlns="http://www.w3.org/2000/svg" id="512/Flail Weapon">
<g id="512/Flail Weapon_2">
<g id="512/Handle_27">
<g id="512/Group 2">
<path id="512/Vector_162" d="M2299.89 1925.34C2296.71 1921.64 2291.11 1921.2 2287.41 1924.38C2284.61 1926.78 2284.01 1931.52 2285.07 1934.84C2285.49 1934.72 2285.91 1934.36 2286.29 1934.12C2286.73 1933.88 2288.39 1932.44 2288.83 1931.7C2288.55 1930.2 2289.05 1928.82 2290.29 1927.74C2291.25 1926.92 2292.47 1926.58 2293.63 1926.7C2294.73 1926.82 2295.77 1927.32 2296.53 1928.22C2298.13 1930.08 2297.91 1932.88 2296.05 1934.48C2295.27 1935.14 2294.43 1935.54 2293.47 1935.58C2293.47 1935.68 2292.71 1936.88 2292.19 1937.32C2291.31 1938.08 2290.55 1938.52 2290.21 1938.64C2290.03 1938.7 2289.41 1939.04 2289.23 1939.1C2290.11 1939.52 2291.29 1939.82 2292.23 1939.92C2294.57 1940.16 2296.99 1939.48 2298.91 1937.84C2302.61 1934.66 2303.05 1929.06 2299.87 1925.36L2299.89 1925.34Z" fill="#878787"/>
<path id="512/Vector_163" d="M2333.55 1957.28C2329.95 1953.98 2324.35 1954.22 2321.05 1957.82C2319.45 1959.56 2318.63 1961.82 2318.73 1964.18C2318.83 1966.5 2319.83 1968.64 2321.53 1970.24C2321.79 1969.9 2322.05 1969.54 2322.31 1969.2C2322.67 1968.7 2324.03 1966.52 2324.23 1966.24C2323.81 1965.6 2323.17 1964.78 2323.13 1964C2323.07 1962.82 2323.49 1961.68 2324.29 1960.82C2325.15 1959.88 2326.31 1959.4 2327.49 1959.38C2328.59 1959.38 2329.69 1959.74 2330.55 1960.54C2331.43 1961.34 2331.93 1962.44 2331.99 1963.62C2332.05 1964.8 2331.63 1965.94 2330.83 1966.8C2330.19 1967.5 2329.37 1967.94 2328.47 1968.14C2328.47 1968.22 2327.31 1970.62 2327.09 1970.94C2326.75 1971.46 2326.45 1972 2326.19 1972.54C2326.69 1972.62 2327.19 1972.66 2327.69 1972.66C2327.77 1972.66 2327.85 1972.66 2327.93 1972.66C2330.29 1972.56 2332.47 1971.54 2334.07 1969.8C2335.67 1968.06 2336.49 1965.8 2336.39 1963.44C2336.29 1961.08 2335.27 1958.9 2333.53 1957.3L2333.55 1957.28Z" fill="#878787"/>
<path id="512/Vector_164" d="M2328.81 1966.72C2328.67 1965.24 2327.45 1965.34 2327.27 1965.28C2327.25 1965.28 2326.03 1965.02 2325.37 1965.78C2322.09 1970.36 2310.43 1987.36 2297.41 1993.86C2267.35 2008.84 2251.39 1985.62 2251.39 1985.62C2251.39 1985.62 2237.67 1966.6 2252.91 1949.4C2255.77 1946.18 2265.99 1944.86 2270.85 1944.6C2273.07 1944.48 2275.23 1944.08 2277.35 1943.38C2283.29 1941.46 2294.35 1937.4 2293.25 1934.26C2291.75 1929.98 2289.01 1932.36 2289.01 1932.36C2289.01 1932.36 2286.71 1935.52 2281.35 1937.36C2275.99 1939.18 2256.05 1942.56 2256.05 1942.56C2256.05 1942.56 2241.91 1944.18 2240.11 1966.66C2238.33 1989.14 2259.69 1999.38 2259.69 1999.38C2259.69 1999.38 2282.67 2013.08 2307.61 1993.66C2318.23 1985.38 2328.93 1967.54 2328.85 1966.74L2328.81 1966.72Z" fill="#878787"/>
<g id="512/Group_10">
<path id="512/Vector_165" d="M2387.93 1902.96L2397.65 1892.16C2381.55 1887.86 2366.93 1874.8 2356.23 1862.66L2346.15 1872.76C2356.79 1885.1 2371.65 1898.76 2387.93 1902.96Z" fill="#878787"/>
<path id="512/Vector_166" d="M2391.73 1827.1L2388.75 1830.08C2394.95 1844.86 2404.45 1861.16 2418.03 1869.52L2430.79 1855.34C2415.69 1850.56 2401.97 1838.44 2391.73 1827.1Z" fill="#878787"/>
<path id="512/Vector_167" d="M2377.57 1914.48L2386.47 1904.6C2370.15 1899.98 2355.37 1886.44 2344.75 1874.18L2335.07 1883.88C2345.83 1896.42 2360.97 1910.4 2377.57 1914.5V1914.48Z" fill="#878787"/>
<path id="512/Vector_168" d="M2368.85 1924.18L2376.09 1916.14C2359.45 1911.6 2344.41 1897.74 2333.67 1885.28L2331.23 1887.74C2340.05 1902.1 2352.91 1918.14 2368.85 1924.2V1924.18Z" fill="#878787"/>
<path id="512/Vector_169" d="M2399.15 1890.5L2404.17 1884.92C2389.55 1877.88 2378.47 1862.48 2370.83 1848.04L2357.65 1861.26C2368.37 1873.48 2383.11 1886.64 2399.17 1890.5H2399.15Z" fill="#878787"/>
<path id="512/Vector_170" d="M2408.81 1809.98L2400.09 1818.72C2411.37 1830.3 2425.97 1841.48 2441.47 1843.46L2443.65 1841.04C2428.93 1836.64 2417.33 1823.64 2408.81 1809.98Z" fill="#878787"/>
<path id="512/Vector_171" d="M2380.43 1838.42L2372.25 1846.6C2379.83 1861.1 2390.89 1876.68 2405.51 1883.42L2412.77 1875.34C2398.59 1867.9 2387.85 1852.62 2380.41 1838.42H2380.43Z" fill="#878787"/>
<path id="512/Vector_172" d="M2329.81 1889.14L2300.27 1918.74L2304.83 1923.06C2282.79 1944.3 2301.57 1957.1 2301.57 1957.1C2301.57 1957.1 2315.35 1975.14 2335.39 1952.02L2339.93 1956.32L2367.45 1925.74C2351.51 1919.34 2338.67 1903.44 2329.81 1889.14Z" fill="#878787"/>
<path id="512/Vector_173" d="M2387.25 1831.58L2381.87 1836.96C2389.23 1851.2 2399.97 1866.64 2414.15 1873.82L2416.71 1870.98C2403.13 1862.44 2393.57 1846.32 2387.25 1831.58Z" fill="#878787"/>
<path id="512/Vector_174" d="M2432.21 1853.74L2439.87 1845.22C2424.35 1842.7 2409.91 1831.56 2398.69 1820.1L2393.09 1825.72C2403.33 1837.14 2417.15 1849.34 2432.19 1853.76L2432.21 1853.74Z" fill="#878787"/>
</g>
<path id="512/Vector_175" d="M2489.07 1777.44L2470.87 1760.2L2470.75 1760.32L2464.37 1754.28L2410.21 1808.56C2418.69 1822.32 2430.33 1835.44 2445.09 1839.42L2495.29 1783.62L2488.91 1777.58L2489.03 1777.46L2489.07 1777.44Z" fill="#878787"/>
</g>
</g>
<g id="512/Morgan">
<g id="512/Layer 2">
<path id="512/Vector_176" d="M2369.06 1643.74L2352.12 1632.1L2356.56 1654.18L2369.06 1643.74Z" fill="white" stroke="white" stroke-width="1.5" stroke-miterlimit="10"/>
<path id="512/Vector_177" d="M2402.94 1647.88L2403.24 1624.34L2387.92 1642.96L2402.94 1647.88Z" fill="white" stroke="white" stroke-width="1.5" stroke-miterlimit="10"/>
<path id="512/Vector_178" d="M2425.12 1675.78L2439.04 1661.1L2414.4 1658.22L2425.12 1675.78Z" fill="white" stroke="white" stroke-width="1.5" stroke-miterlimit="10"/>
<path id="512/Vector_179" d="M2343.14 1667.48L2323.92 1676.6L2346.86 1683.84L2343.14 1667.48Z" fill="white" stroke="white" stroke-width="1.5" stroke-miterlimit="10"/>
<path id="512/Vector_180" d="M2353.26 1694.04L2345.74 1711.8L2366.52 1702.46L2353.26 1694.04Z" fill="white" stroke="white" stroke-width="1.5" stroke-miterlimit="10"/>
<path id="512/Vector_181" d="M2376.4 1714.42L2385.06 1737.28L2393.7 1714.22L2376.4 1714.42Z" fill="white" stroke="white" stroke-width="1.5" stroke-miterlimit="10"/>
<path id="512/Vector_182" d="M2408.62 1710.24L2427.62 1714.78L2418.7 1694.94L2408.62 1710.24Z" fill="white" stroke="white" stroke-width="1.5" stroke-miterlimit="10"/>
<path id="512/Vector_183" d="M2591.4 1605.7C2589.9 1605.7 2588.62 1604.56 2588.48 1603.04C2588.32 1601.42 2589.5 1599.98 2591.12 1599.82L2607.98 1598.2C2609.6 1598.04 2611.04 1599.22 2611.2 1600.84C2611.36 1602.46 2610.18 1603.9 2608.56 1604.06L2591.7 1605.68C2591.7 1605.68 2591.52 1605.68 2591.42 1605.68L2591.4 1605.7Z" fill="white"/>
<path id="512/Vector_184" d="M2560.92 1613.64C2559.7 1613.64 2558.56 1612.88 2558.14 1611.66C2557.6 1610.12 2558.42 1608.44 2559.96 1607.92L2575.96 1602.38C2577.5 1601.86 2579.18 1602.66 2579.7 1604.2C2580.24 1605.74 2579.42 1607.42 2577.88 1607.94L2561.88 1613.48C2561.56 1613.58 2561.24 1613.64 2560.92 1613.64Z" fill="white"/>
<path id="512/Vector_185" d="M2529.02 1620.16C2527.64 1620.16 2526.42 1619.2 2526.14 1617.8C2525.82 1616.2 2526.86 1614.66 2528.44 1614.34L2545.04 1611C2546.64 1610.68 2548.18 1611.72 2548.5 1613.3C2548.82 1614.9 2547.78 1616.44 2546.2 1616.76L2529.6 1620.1C2529.4 1620.14 2529.2 1620.16 2529.02 1620.16Z" fill="white"/>
<path id="512/Vector_186" d="M2501.38 1632.38C2500.38 1632.38 2499.42 1631.88 2498.86 1630.96C2498.02 1629.56 2498.46 1627.76 2499.86 1626.92L2514.34 1618.14C2515.74 1617.3 2517.54 1617.74 2518.38 1619.14C2519.22 1620.54 2518.78 1622.34 2517.38 1623.18L2502.9 1631.96C2502.42 1632.24 2501.9 1632.38 2501.38 1632.38Z" fill="white"/>
<path id="512/Vector_187" d="M2487.32 1658.9C2486.86 1658.9 2486.4 1658.8 2485.98 1658.58C2484.54 1657.84 2483.96 1656.06 2484.72 1654.62L2492.48 1639.56C2493.22 1638.12 2495 1637.54 2496.44 1638.3C2497.88 1639.04 2498.46 1640.82 2497.7 1642.26L2489.94 1657.32C2489.42 1658.34 2488.38 1658.92 2487.32 1658.92V1658.9Z" fill="white"/>
<path id="512/Vector_188" d="M2462.36 1679.14C2461.42 1679.14 2460.48 1678.68 2459.92 1677.84C2459 1676.5 2459.36 1674.66 2460.7 1673.74L2474.74 1664.26C2476.1 1663.34 2477.92 1663.7 2478.84 1665.04C2479.76 1666.38 2479.4 1668.22 2478.06 1669.14L2464.02 1678.62C2463.52 1678.96 2462.94 1679.12 2462.38 1679.12L2462.36 1679.14Z" fill="white"/>
<path id="512/Vector_189" d="M2433.46 1689.18C2432.18 1689.18 2431 1688.34 2430.62 1687.06C2430.16 1685.5 2431.08 1683.86 2432.64 1683.42L2448.92 1678.72C2450.48 1678.28 2452.12 1679.16 2452.56 1680.74C2453.02 1682.3 2452.1 1683.94 2450.54 1684.38L2434.26 1689.08C2433.98 1689.16 2433.72 1689.2 2433.44 1689.2L2433.46 1689.18Z" fill="white"/>
<path id="512/Vector_190" d="M2592.12 1606.48C2592 1606.48 2591.88 1606.48 2591.76 1606.48C2591.44 1606.48 2591.12 1606.42 2590.82 1606.34C2590.08 1607.28 2589.04 1607.92 2587.84 1608.12L2580.56 1609.38C2577.9 1609.84 2575.36 1608.06 2574.9 1605.4C2574.44 1602.74 2576.22 1600.2 2578.88 1599.74L2586.16 1598.48C2586.44 1598.44 2586.72 1598.4 2587 1598.4C2588 1598.4 2588.98 1598.7 2589.8 1599.3C2589.86 1599.34 2589.9 1599.4 2589.96 1599.44C2590.4 1599.2 2590.88 1599.06 2591.4 1599L2596.6 1598.5C2595.82 1596.92 2594.7 1595.54 2593.22 1594.5C2590.86 1592.84 2588 1592.2 2585.18 1592.68L2577.9 1593.94C2572.04 1594.96 2568.1 1600.54 2569.12 1606.4C2570.02 1611.64 2574.6 1615.34 2579.74 1615.34C2580.34 1615.34 2580.96 1615.28 2581.58 1615.18L2588.86 1613.92C2591.7 1613.44 2594.18 1611.86 2595.84 1609.52C2596.62 1608.42 2597.14 1607.22 2597.46 1605.96L2592.14 1606.48H2592.12Z" fill="white"/>
<path id="512/Vector_191" d="M2619.48 1592.8C2615.24 1588.78 2608.5 1588.96 2604.48 1593.2C2603.18 1594.58 2602.36 1596.24 2601.94 1597.96L2606.8 1597.5C2607.04 1597.06 2607.34 1596.62 2607.7 1596.24C2608.92 1594.96 2610.56 1594.3 2612.2 1594.3C2613.74 1594.3 2615.26 1594.86 2616.46 1596C2618.94 1598.36 2619.04 1602.28 2616.7 1604.76C2614.36 1607.24 2610.42 1607.34 2607.94 1605C2607.92 1604.98 2607.9 1604.94 2607.88 1604.92L2602.84 1605.4C2603.36 1606.42 2604.02 1607.36 2604.9 1608.2C2606.94 1610.14 2609.58 1611.1 2612.2 1611.1C2615.02 1611.1 2617.82 1609.98 2619.9 1607.8C2623.92 1603.56 2623.74 1596.82 2619.5 1592.8H2619.48Z" fill="white"/>
</g>
<path id="512/Vector_192" d="M2369.06 1643.74L2352.12 1632.1L2356.56 1654.18L2369.06 1643.74Z" fill="white" stroke="white" stroke-width="1.5" stroke-miterlimit="10"/>
<path id="512/Vector_193" d="M2402.94 1647.88L2403.24 1624.34L2387.92 1642.96L2402.94 1647.88Z" fill="white" stroke="white" stroke-width="1.5" stroke-miterlimit="10"/>
<path id="512/Vector_194" d="M2425.12 1675.78L2439.04 1661.1L2414.4 1658.22L2425.12 1675.78Z" fill="white" stroke="white" stroke-width="1.5" stroke-miterlimit="10"/>
<path id="512/Vector_195" d="M2343.14 1667.48L2323.92 1676.6L2346.86 1683.84L2343.14 1667.48Z" fill="white" stroke="white" stroke-width="1.5" stroke-miterlimit="10"/>
<path id="512/Vector_196" d="M2353.26 1694.04L2345.74 1711.8L2366.52 1702.46L2353.26 1694.04Z" fill="white" stroke="white" stroke-width="1.5" stroke-miterlimit="10"/>
<path id="512/Vector_197" d="M2376.4 1714.42L2385.06 1737.28L2393.7 1714.22L2376.4 1714.42Z" fill="white" stroke="white" stroke-width="1.5" stroke-miterlimit="10"/>
<path id="512/Vector_198" d="M2408.62 1710.24L2427.62 1714.78L2418.7 1694.94L2408.62 1710.24Z" fill="white" stroke="white" stroke-width="1.5" stroke-miterlimit="10"/>
<path id="512/Vector_199" d="M2411.88 1648.84C2395.14 1632.98 2368.72 1633.7 2352.88 1650.42C2337.02 1667.16 2337.74 1693.58 2354.46 1709.42C2371.2 1725.28 2397.62 1724.56 2413.46 1707.84C2429.32 1691.1 2428.6 1664.68 2411.88 1648.84ZM2358.92 1669.6C2359.7 1671.2 2360.42 1672.84 2360.96 1674.6C2358.12 1671.66 2355.98 1668.24 2353.96 1664.74C2358.16 1663.86 2362.38 1663.08 2366.7 1663.02C2363.56 1664.38 2360.32 1665.3 2357.02 1666.08C2357.68 1667.24 2358.32 1668.4 2358.92 1669.6ZM2390.24 1706.08C2387.38 1703.22 2384.6 1700.28 2382.5 1696.8C2384.06 1697.76 2385.46 1698.88 2386.8 1700.04C2387.82 1700.92 2388.76 1701.86 2389.7 1702.8C2391.3 1699.8 2393.04 1696.9 2395.16 1694.2C2394 1698.36 2392.16 1702.24 2390.24 1706.08ZM2402.62 1669.78C2402.04 1666.42 2401.92 1663.04 2401.94 1659.66C2398.94 1660.54 2395.9 1661.24 2392.74 1661.46C2395.86 1659.64 2399.22 1658.44 2402.66 1657.4L2404 1657C2403.86 1661.3 2403.6 1665.58 2402.64 1669.78H2402.62Z" fill="white"/>
<path id="512/Vector_200" d="M2624.54 1595.82L2587.1 1634.22L2609.1 1655.08L2609.64 1655.6L2646 1616.16L2624.54 1595.82Z" fill="white"/>
<path id="512/Vector_201" d="M2591.4 1605.7C2589.9 1605.7 2588.62 1604.56 2588.48 1603.04C2588.32 1601.42 2589.5 1599.98 2591.12 1599.82L2607.98 1598.2C2609.6 1598.04 2611.04 1599.22 2611.2 1600.84C2611.36 1602.46 2610.18 1603.9 2608.56 1604.06L2591.7 1605.68C2591.7 1605.68 2591.52 1605.68 2591.42 1605.68L2591.4 1605.7Z" fill="white"/>
<path id="512/Vector_202" d="M2619.48 1592.8C2615.24 1588.78 2608.5 1588.96 2604.48 1593.2C2603.18 1594.58 2602.36 1596.24 2601.94 1597.96L2606.8 1597.5C2607.04 1597.06 2607.34 1596.62 2607.7 1596.24C2608.92 1594.96 2610.56 1594.3 2612.2 1594.3C2613.74 1594.3 2615.26 1594.86 2616.46 1596C2618.94 1598.36 2619.04 1602.28 2616.7 1604.76C2614.36 1607.24 2610.42 1607.34 2607.94 1605C2607.92 1604.98 2607.9 1604.94 2607.88 1604.92L2602.84 1605.4C2603.36 1606.42 2604.02 1607.36 2604.9 1608.2C2606.94 1610.14 2609.58 1611.1 2612.2 1611.1C2615.02 1611.1 2617.82 1609.98 2619.9 1607.8C2623.92 1603.56 2623.74 1596.82 2619.5 1592.8H2619.48Z" fill="white"/>
<g id="512/Group_11">
<path id="512/Vector_203" d="M2575.7 1601.62C2575.7 1601.62 2575.82 1601.6 2575.88 1601.58C2576.6 1600.66 2577.64 1599.98 2578.88 1599.76L2586.16 1598.5C2586.44 1598.46 2586.72 1598.42 2587 1598.42C2588 1598.42 2588.98 1598.72 2589.8 1599.32C2589.86 1599.36 2589.9 1599.42 2589.96 1599.46C2590.4 1599.22 2590.88 1599.08 2591.4 1599.02L2596.6 1598.52C2595.82 1596.94 2594.7 1595.56 2593.22 1594.52C2590.86 1592.86 2588 1592.22 2585.18 1592.7L2577.9 1593.96C2572.88 1594.82 2569.28 1599.06 2568.98 1603.94L2575.72 1601.62H2575.7Z" fill="white"/>
<path id="512/Vector_204" d="M2592.12 1606.48C2592 1606.48 2591.88 1606.48 2591.76 1606.48C2591.44 1606.48 2591.12 1606.42 2590.82 1606.34C2590.08 1607.28 2589.04 1607.92 2587.84 1608.12L2580.56 1609.38C2579.48 1609.56 2578.44 1609.38 2577.52 1608.9L2571.18 1611.08C2573.18 1613.68 2576.3 1615.32 2579.7 1615.32C2580.3 1615.32 2580.92 1615.26 2581.54 1615.16L2588.82 1613.9C2591.66 1613.42 2594.14 1611.84 2595.8 1609.5C2596.58 1608.4 2597.1 1607.2 2597.42 1605.94L2592.1 1606.46L2592.12 1606.48Z" fill="white"/>
</g>
<g id="512/Group_12">
<path id="512/Vector_205" d="M2544.88 1610.22C2545.22 1610.16 2545.56 1610.14 2545.9 1610.18C2546.6 1609.4 2547.54 1608.84 2548.66 1608.64L2555.94 1607.38C2556.22 1607.34 2556.5 1607.3 2556.78 1607.3C2557.46 1607.3 2558.1 1607.46 2558.7 1607.7C2559 1607.48 2559.32 1607.28 2559.7 1607.14L2565.06 1605.28C2562.66 1602.42 2558.86 1600.86 2554.96 1601.54L2547.66 1602.8C2543.12 1603.58 2539.76 1607.12 2538.92 1611.38L2544.88 1610.18V1610.22Z" fill="white"/>
<path id="512/Vector_206" d="M2562.14 1614.24C2561.8 1614.36 2561.46 1614.4 2561.1 1614.42C2560.42 1615.74 2559.18 1616.74 2557.6 1617.02L2550.32 1618.28C2548.98 1618.52 2547.68 1618.2 2546.68 1617.48C2546.58 1617.52 2546.48 1617.56 2546.36 1617.58L2540.14 1618.82C2542.04 1622.12 2545.58 1624.24 2549.48 1624.24C2550.08 1624.24 2550.7 1624.18 2551.32 1624.08L2558.6 1622.82C2561.44 1622.32 2563.92 1620.76 2565.58 1618.4C2566.84 1616.6 2567.5 1614.52 2567.54 1612.38L2562.14 1614.24Z" fill="white"/>
</g>
<g id="512/Group_13">
<path id="512/Vector_207" d="M2530.4 1620.76C2529.7 1621.94 2528.52 1622.82 2527.06 1623.08L2519.78 1624.34C2518.94 1624.5 2518.1 1624.4 2517.36 1624.12L2511.78 1627.5C2513.72 1629.24 2516.26 1630.28 2518.96 1630.28C2519.56 1630.28 2520.18 1630.22 2520.8 1630.12L2528.08 1628.86C2532.92 1628.02 2536.44 1624.08 2536.96 1619.42L2530.42 1620.74L2530.4 1620.76Z" fill="white"/>
<path id="512/Vector_208" d="M2513.92 1617.44C2514.18 1617.28 2514.46 1617.18 2514.72 1617.08C2515.42 1615.86 2516.62 1614.96 2518.1 1614.7L2525.38 1613.44C2525.66 1613.4 2525.94 1613.36 2526.22 1613.36C2526.8 1613.36 2527.36 1613.46 2527.88 1613.66C2528.02 1613.62 2528.14 1613.56 2528.28 1613.54L2535.1 1612.18C2532.78 1608.82 2528.66 1606.9 2524.38 1607.64L2517.1 1608.9C2511.4 1609.88 2507.54 1615.2 2508.26 1620.88L2513.92 1617.46V1617.44Z" fill="white"/>
</g>
<g id="512/Group_14">
<path id="512/Vector_209" d="M2509.82 1629.52C2509.76 1629.28 2509.66 1629.06 2509.6 1628.82L2504.14 1632.12C2504.08 1632.94 2503.84 1633.72 2503.4 1634.42L2499.38 1640.64C2499.2 1640.92 2499 1641.18 2498.76 1641.4C2498.7 1641.82 2498.58 1642.22 2498.38 1642.62L2495.22 1648.76C2495.22 1648.76 2495.22 1648.76 2495.24 1648.76C2498.78 1648.76 2502.26 1647.02 2504.32 1643.84L2508.34 1637.62C2509.9 1635.2 2510.42 1632.32 2509.82 1629.5V1629.52Z" fill="white"/>
<path id="512/Vector_210" d="M2488.2 1646.06L2491.08 1640.46C2490.18 1638.92 2490.12 1636.94 2491.16 1635.34L2495.18 1629.12C2495.88 1628.02 2496.98 1627.28 2498.26 1627C2498.36 1626.98 2498.46 1627 2498.56 1626.96C2498.8 1626.68 2499.08 1626.42 2499.42 1626.22L2505.16 1622.74C2505.16 1622.74 2505.16 1622.74 2505.14 1622.72C2502.72 1621.16 2499.84 1620.64 2497.02 1621.24C2494.2 1621.84 2491.8 1623.5 2490.24 1625.92L2486.22 1632.14C2483.28 1636.68 2484.24 1642.6 2488.2 1646.06Z" fill="white"/>
</g>
<g id="512/Group_15">
<path id="512/Vector_211" d="M2474.04 1663.78C2474.1 1662.62 2474.54 1661.54 2475.34 1660.7L2480.42 1655.34C2481.38 1654.32 2482.68 1653.82 2483.98 1653.82C2484.06 1653.82 2484.12 1653.82 2484.2 1653.82L2487 1648.38C2483.24 1647.28 2479.04 1648.24 2476.16 1651.26L2471.08 1656.62C2469.1 1658.72 2468.06 1661.44 2468.14 1664.32C2468.16 1665.38 2468.4 1666.38 2468.72 1667.36L2474.06 1663.74L2474.04 1663.78Z" fill="white"/>
<path id="512/Vector_212" d="M2493.08 1652.96L2490.66 1657.68C2490.26 1658.46 2489.6 1659.02 2488.84 1659.36C2488.7 1660.36 2488.28 1661.3 2487.56 1662.06L2482.48 1667.44C2481.66 1668.32 2480.56 1668.8 2479.44 1668.92C2479.2 1669.26 2478.88 1669.58 2478.52 1669.84L2473.38 1673.32C2475.08 1674.34 2477 1674.88 2478.92 1674.88C2481.78 1674.88 2484.62 1673.76 2486.74 1671.52L2491.82 1666.14C2493.8 1664.06 2494.84 1661.32 2494.78 1658.44C2494.72 1656.48 2494.12 1654.62 2493.1 1653L2493.08 1652.96Z" fill="white"/>
</g>
<path id="512/Vector_213" d="M2435.32 1689.6C2435.32 1689.6 2435.18 1689.78 2435.1 1689.88C2433.42 1691.64 2430.6 1691.74 2428.84 1690.04C2427.06 1688.36 2427 1685.54 2428.68 1683.76C2429.54 1682.84 2430.72 1682.38 2431.9 1682.38C2432.22 1682.38 2432.54 1682.42 2432.86 1682.5L2438.42 1680.9C2438.26 1680.74 2438.14 1680.54 2437.98 1680.4C2434.44 1677.04 2428.82 1677.2 2425.46 1680.74C2422.1 1684.28 2422.26 1689.9 2425.8 1693.26C2427.5 1694.88 2429.7 1695.68 2431.88 1695.68C2434.22 1695.68 2436.58 1694.76 2438.3 1692.92C2439.62 1691.54 2440.38 1689.84 2440.62 1688.08L2435.3 1689.62L2435.32 1689.6Z" fill="white"/>
<g id="512/Group_16">
<path id="512/Vector_214" d="M2448.38 1678.3C2448.88 1677.38 2449.66 1676.64 2450.64 1676.2L2457.38 1673.18C2458.02 1672.88 2458.7 1672.76 2459.38 1672.76C2459.84 1672.76 2460.3 1672.82 2460.72 1672.96L2466.16 1669.28C2463.1 1666.82 2458.8 1666.1 2454.98 1667.82L2448.24 1670.84C2445.62 1672.02 2443.6 1674.14 2442.58 1676.84C2442.16 1677.92 2441.98 1679.06 2441.92 1680.18L2448.38 1678.32V1678.3Z" fill="white"/>
<path id="512/Vector_215" d="M2470 1675.72L2464.16 1679.66C2464.02 1679.76 2463.86 1679.8 2463.72 1679.88C2463.22 1680.82 2462.46 1681.62 2461.4 1682.1L2454.66 1685.12C2453.5 1685.64 2452.24 1685.68 2451.04 1685.26C2450.86 1685.34 2450.66 1685.44 2450.46 1685.5L2444.2 1687.3C2445.4 1688.82 2446.96 1690.02 2448.82 1690.74C2450.06 1691.22 2451.36 1691.46 2452.66 1691.46C2454.16 1691.46 2455.66 1691.14 2457.06 1690.5L2463.8 1687.48C2468.4 1685.42 2470.84 1680.5 2469.98 1675.74L2470 1675.72Z" fill="white"/>
</g>
<path id="512/Vector_216" d="M2587.95 1642L2472.29 1758.78L2490.41 1775.96L2600.81 1654.2L2587.95 1642Z" fill="#878787"/>
</g>
</g>
</g>
</svg>
