<svg width="512" height="512" viewBox="4736 2816 512 512" fill="none" xmlns="http://www.w3.org/2000/svg">
<defs xmlns="http://www.w3.org/2000/svg">
<clipPath id="clip0_268_10729">
<rect width="512" height="512" fill="white" transform="translate(256 256)"/>
</clipPath>
<clipPath id="clip1_268_10729">
<rect width="512" height="512" fill="white" transform="translate(896 256)"/>
</clipPath>
<clipPath id="clip2_268_10729">
<rect width="512" height="512" fill="white" transform="translate(1536 256)"/>
</clipPath>
<clipPath id="clip3_268_10729">
<rect width="512" height="512" fill="white" transform="translate(2176 256)"/>
</clipPath>
<clipPath id="clip4_268_10729">
<rect width="512" height="512" fill="white" transform="translate(2816 256)"/>
</clipPath>
<clipPath id="clip5_268_10729">
<rect width="512" height="512" fill="white" transform="translate(3456 256)"/>
</clipPath>
<clipPath id="clip6_268_10729">
<rect width="592.227" height="238.456" fill="white" transform="translate(3418.64 638.171) rotate(-45)"/>
</clipPath>
<clipPath id="clip7_268_10729">
<rect width="512" height="512" fill="white" transform="translate(4096 256)"/>
</clipPath>
<clipPath id="clip8_268_10729">
<rect width="512" height="512" fill="white" transform="translate(4736 256)"/>
</clipPath>
<clipPath id="clip9_268_10729">
<rect width="116.168" height="650.538" fill="white" transform="translate(4802 782) rotate(-135)"/>
</clipPath>
<clipPath id="clip10_268_10729">
<rect width="512" height="512" fill="white" transform="translate(5376 256)"/>
</clipPath>
<clipPath id="clip11_268_10729">
<rect width="512" height="512" fill="white" transform="translate(6016 256)"/>
</clipPath>
<clipPath id="clip12_268_10729">
<rect width="512" height="512" fill="white" transform="translate(4736 2816)"/>
</clipPath>
</defs>
<g xmlns="http://www.w3.org/2000/svg" id="512/Florett Type 02" clip-path="url(#clip12_268_10729)">
<g id="512/Florett_2">
<g id="512/Handle_51">
<path id="512/Vector_559" d="M4778.63 3288.21L4788.11 3297.69C4788.11 3297.69 4783.51 3304.11 4776.85 3304.43C4765.34 3304.77 4759.13 3297.41 4760.75 3286.02C4761.58 3280.87 4766.75 3276.33 4766.75 3276.33L4778.63 3288.21Z" fill="#878787"/>
<path id="512/Vector_560" d="M4828.2 3219.32L4845.22 3236.34C4841.51 3238.51 4838.24 3240.18 4834.36 3236.29C4831.99 3233.93 4828.67 3232.5 4825.25 3231.86C4823.16 3231.46 4822.45 3230.77 4823.87 3228.82C4825.86 3226.08 4826.87 3222.82 4828.18 3219.33L4828.2 3219.32Z" fill="#878787"/>
<path id="512/Vector_561" d="M4815.07 3239.37C4816.85 3237.21 4818.26 3235.63 4819.51 3233.94C4820.17 3233.05 4820.85 3232.57 4821.97 3232.7C4826.97 3233.22 4831.08 3235.6 4834.85 3238.73C4835.29 3239.09 4835.62 3239.52 4835.38 3240.18C4834.84 3241.56 4829.09 3244.19 4827.77 3243.46C4824.02 3241.39 4819.95 3240.24 4815.07 3239.37Z" fill="#878787"/>
<path id="512/Vector_562" d="M4827.3 3245.98C4825.95 3248.05 4823.8 3249.25 4822.05 3250.87C4821.27 3251.6 4820.5 3251.86 4819.4 3251.29C4816.02 3249.57 4812.4 3248.43 4808.53 3247.8C4813 3240.21 4819.24 3239.7 4827.33 3245.98L4827.3 3245.98Z" fill="#878787"/>
<path id="512/Vector_563" d="M4801.72 3254.85C4805.36 3249.29 4812.98 3248.47 4818.06 3252.84C4818.78 3253.45 4818.95 3253.87 4818.32 3254.45C4816.15 3256.42 4814.66 3259.56 4810.59 3257.48C4807.9 3256.1 4804.72 3255.7 4801.71 3254.86L4801.72 3254.85Z" fill="#878787"/>
<path id="512/Vector_564" d="M4795.39 3261.32C4799.25 3255.8 4803.42 3255.57 4811.88 3260.25C4811.41 3261.82 4809.83 3262.47 4808.91 3263.65C4807.24 3265.81 4805.57 3265.98 4803.14 3264.47C4800.83 3263.02 4798.03 3262.35 4795.39 3261.32Z" fill="#878787"/>
<path id="512/Vector_565" d="M4787.55 3269.63C4793.13 3262.74 4794.27 3262.35 4800.62 3265.25C4801.85 3265.81 4804.67 3266.13 4803.66 3267.85C4802.49 3269.85 4800.79 3272.93 4797.54 3271.85C4794.46 3270.82 4791.43 3269.83 4787.55 3269.63Z" fill="#878787"/>
<path id="512/Vector_566" d="M4796.63 3273.99C4792.78 3283.37 4786.72 3277.9 4781.19 3276.27C4784.71 3270.7 4790.41 3269.91 4796.63 3273.99Z" fill="#878787"/>
<path id="512/Vector_567" d="M4789.5 3282.14C4783.74 3290.13 4783.46 3289.23 4776.39 3282.29C4775.92 3281.69 4775.43 3281.18 4776.04 3280.5C4777.01 3279.43 4778.09 3278.63 4779.68 3278.6C4781.96 3278.56 4786 3279.94 4789.49 3282.15L4789.5 3282.14Z" fill="#878787"/>
<path id="512/Vector_568" d="M4762.96 3301.17C4763.72 3301.92 4764.51 3302.66 4765.24 3303.44C4765.81 3304.07 4767.37 3304.2 4766.04 3305.86C4765.17 3306.96 4764.02 3307.62 4762.95 3307.26C4760.1 3306.3 4758.15 3304.37 4757.29 3301.45C4756.96 3300.32 4757.71 3299.24 4758.78 3298.39C4760.2 3297.28 4760.46 3298.46 4761 3299.05C4761.65 3299.75 4762.27 3300.5 4762.9 3301.23C4762.92 3301.21 4762.94 3301.19 4762.96 3301.17Z" fill="#878787"/>
<path id="512/Vector_569" d="M4763.97 3205.83C4741.41 3230.23 4761.53 3278.42 4761.53 3278.42L4766.69 3273.16L4772.94 3279.41C4772.94 3279.41 4762.59 3241.48 4780.44 3223.83C4795.55 3208.91 4812.38 3204.6 4812.38 3204.6L4798.23 3190.45C4798.23 3190.45 4782.45 3185.84 4763.97 3205.83ZM4783.54 3199.48C4768.47 3209.69 4758.12 3227.32 4759.59 3245.81C4755.19 3224.39 4770.31 3202.56 4790.26 3195.36C4787.91 3196.56 4785.66 3197.94 4783.54 3199.48Z" fill="#878787"/>
<path id="512/Vector_570" d="M4800.42 3188.27L4876.27 3264.12C4876.27 3264.12 4910.23 3223.64 4875.55 3188.99C4837.61 3151.05 4800.42 3188.27 4800.42 3188.27ZM4867.34 3193.16C4853.41 3180.28 4831.25 3176.68 4814.89 3187.03C4833.21 3172.42 4861.09 3179.81 4873.13 3198.93C4871.35 3196.84 4869.41 3194.9 4867.34 3193.14V3193.16Z" fill="#878787"/>
</g>
<g id="512/Blade_47">
<path id="512/Vector_571" d="M4884.06 3194.02C4884.06 3194.02 4881.2 3189.93 4877.88 3186.63C4874.56 3183.34 4870.49 3180.45 4870.49 3180.45C4870.49 3180.45 5229.35 2827.63 5233.12 2831.4C5236.89 2835.17 4884.06 3194.02 4884.06 3194.02Z" fill="white"/>
</g>
</g>
</g>
</svg>
