<svg width="512" height="512" viewBox="1536 896 512 512" fill="none" xmlns="http://www.w3.org/2000/svg">
<defs xmlns="http://www.w3.org/2000/svg">
<clipPath id="clip0_268_10729">
<rect width="512" height="512" fill="white" transform="translate(256 256)"/>
</clipPath>
<clipPath id="clip1_268_10729">
<rect width="512" height="512" fill="white" transform="translate(896 256)"/>
</clipPath>
<clipPath id="clip2_268_10729">
<rect width="512" height="512" fill="white" transform="translate(1536 256)"/>
</clipPath>
<clipPath id="clip3_268_10729">
<rect width="512" height="512" fill="white" transform="translate(2176 256)"/>
</clipPath>
<clipPath id="clip4_268_10729">
<rect width="512" height="512" fill="white" transform="translate(2816 256)"/>
</clipPath>
<clipPath id="clip5_268_10729">
<rect width="512" height="512" fill="white" transform="translate(3456 256)"/>
</clipPath>
<clipPath id="clip6_268_10729">
<rect width="592.227" height="238.456" fill="white" transform="translate(3418.64 638.171) rotate(-45)"/>
</clipPath>
<clipPath id="clip7_268_10729">
<rect width="512" height="512" fill="white" transform="translate(4096 256)"/>
</clipPath>
<clipPath id="clip8_268_10729">
<rect width="512" height="512" fill="white" transform="translate(4736 256)"/>
</clipPath>
<clipPath id="clip9_268_10729">
<rect width="116.168" height="650.538" fill="white" transform="translate(4802 782) rotate(-135)"/>
</clipPath>
<clipPath id="clip10_268_10729">
<rect width="512" height="512" fill="white" transform="translate(5376 256)"/>
</clipPath>
<clipPath id="clip11_268_10729">
<rect width="512" height="512" fill="white" transform="translate(6016 256)"/>
</clipPath>
<clipPath id="clip12_268_10729">
<rect width="512" height="512" fill="white" transform="translate(4736 2816)"/>
</clipPath>
</defs>
<g xmlns="http://www.w3.org/2000/svg" id="512/Golok">
<g id="512/Golok_2">
<g id="512/Blade_16">
<path id="512/Vector_116" d="M1984.96 932C1984.96 932 1935.58 1028.36 1767.96 1156.1L1686.94 1211.44C1694.7 1215.7 1704.94 1223.94 1706.86 1238.22L1708.66 1239.48L1745.72 1214.3L1812.6 1168.84C1812.6 1168.84 1996.22 1041.08 2005.52 994.58C2014.84 948.1 1984.96 932 1984.96 932ZM1991.42 984.22C1976.82 1046.4 1854.28 1122.46 1802.44 1162.42C1783.24 1176.54 1763.82 1190.46 1745.64 1205.9C1741.16 1209.8 1736.74 1213.82 1732.98 1218.44C1731.88 1219.92 1730.44 1221.62 1730.26 1223.42L1729.9 1223.56C1729.82 1222.32 1730.42 1221.52 1730.88 1220.62C1732.44 1218.04 1734.44 1215.78 1736.5 1213.6C1744.76 1204.94 1754.16 1197.48 1763.44 1189.98C1800.78 1160.24 1839.86 1132.7 1877.48 1103.38C1912.28 1075.04 1974.02 1026.44 1989.64 983.8C1991.68 976.26 1991.78 968.1 1989.1 960.62L1989.46 960.48C1992.76 967.82 1993.06 976.32 1991.42 984.22Z" fill="white"/>
</g>
<g id="512/Handle_14">
<path id="512/Subtract_2" fill-rule="evenodd" clip-rule="evenodd" d="M1663.63 1225.75C1656.76 1230.2 1648.69 1235.72 1640.28 1242.1C1648.46 1245.84 1653.3 1252.79 1656.12 1259.06C1657.72 1262.61 1658.68 1265.95 1659.24 1268.41C1659.33 1268.81 1659.41 1269.18 1659.48 1269.53C1668.83 1262.93 1676.27 1257.77 1682.18 1253.73C1682.07 1253.08 1681.91 1252.22 1681.68 1251.22C1681.13 1248.8 1680.19 1245.52 1678.63 1242.05C1675.9 1235.99 1671.31 1229.39 1663.63 1225.75ZM1616.17 1262.37C1623.71 1255.26 1631.66 1248.67 1639.37 1242.79C1647.55 1246.34 1652.38 1253.19 1655.21 1259.47C1656.77 1262.94 1657.71 1266.22 1658.26 1268.64C1658.39 1269.19 1658.49 1269.71 1658.58 1270.16C1658 1270.58 1657.4 1271 1656.8 1271.42C1649.68 1277.56 1643.83 1283.18 1639.05 1288.3C1638.92 1287.79 1638.75 1287.17 1638.53 1286.46C1637.89 1284.36 1636.82 1281.49 1635.11 1278.43C1631.77 1272.44 1625.98 1265.67 1616.17 1262.37ZM1615.34 1263.16C1608.23 1269.94 1601.51 1277.19 1595.75 1284.77C1603.21 1286.42 1609.91 1291.02 1615.18 1295.81C1618.97 1299.25 1622.06 1302.82 1624.19 1305.53C1624.43 1305.82 1624.65 1306.11 1624.86 1306.39C1627.89 1301.46 1632.18 1295.74 1638.23 1289.18C1638.1 1288.6 1637.89 1287.77 1637.58 1286.75C1636.95 1284.71 1635.9 1281.91 1634.23 1278.92C1630.92 1272.97 1625.16 1266.28 1615.34 1263.16ZM1580.28 1312.8C1583.36 1303.48 1588.58 1294.35 1595.08 1285.65C1602.47 1287.16 1609.17 1291.7 1614.51 1296.55C1618.25 1299.95 1621.3 1303.47 1623.41 1306.14C1623.73 1306.55 1624.03 1306.94 1624.31 1307.31C1620.36 1313.96 1618.75 1319.11 1618.23 1322.87C1617.79 1322.49 1617.22 1322.03 1616.53 1321.54C1614.55 1320.14 1611.57 1318.43 1607.52 1317.16C1600.88 1315.07 1591.41 1314.17 1578.81 1317.66C1579.24 1316.09 1579.73 1314.47 1580.28 1312.8ZM1578.5 1318.79C1574.44 1334.2 1575.75 1345.29 1579.36 1353.25C1582.61 1346.3 1586.67 1341.57 1591.05 1338.43C1596.44 1334.56 1602.3 1333.14 1607.69 1332.96C1613.08 1332.78 1618.01 1333.84 1621.57 1334.94C1621.69 1334.97 1621.81 1335.01 1621.93 1335.05C1622.02 1335.08 1622.1 1335.1 1622.19 1335.13C1621.26 1333.74 1620.2 1332.3 1618.98 1330.82C1618.98 1330.82 1617.71 1328.66 1618.1 1324.08L1618.06 1324.05C1617.6 1323.63 1616.9 1323.03 1615.95 1322.36C1614.05 1321.01 1611.16 1319.35 1607.22 1318.11C1600.69 1316.06 1591.22 1315.15 1578.5 1318.79ZM1593.26 1368.44C1588.56 1365.68 1583.37 1361.3 1579.92 1354.43C1583.17 1347.2 1587.25 1342.38 1591.63 1339.24C1596.83 1335.51 1602.49 1334.13 1607.72 1333.96C1612.96 1333.78 1617.78 1334.82 1621.28 1335.89C1621.91 1336.09 1622.51 1336.29 1623.05 1336.48C1630.3 1348.26 1627.54 1356.7 1622.18 1362.45C1623.21 1360.34 1623.43 1358.14 1622.5 1356.25C1621.42 1354.05 1619.05 1352.83 1616.24 1352.53C1613.42 1352.24 1610.06 1352.87 1606.82 1354.46C1603.58 1356.05 1601.03 1358.33 1599.54 1360.74C1598.05 1363.15 1597.58 1365.77 1598.66 1367.97C1599.47 1369.61 1600.99 1370.7 1602.88 1371.28C1599.54 1371.13 1596.24 1370.18 1593.26 1368.44ZM1618.16 1366.01C1616.86 1366.97 1615.52 1367.82 1614.2 1368.56C1613.33 1369.05 1612.43 1369.48 1611.52 1369.84C1609.22 1370.62 1606.96 1370.89 1605.02 1370.69C1602.41 1370.41 1600.43 1369.3 1599.56 1367.52C1598.68 1365.75 1599.01 1363.51 1600.39 1361.27C1601.77 1359.04 1604.17 1356.88 1607.26 1355.36C1610.36 1353.84 1613.53 1353.26 1616.14 1353.53C1618.75 1353.8 1620.73 1354.91 1621.6 1356.69C1622.47 1358.47 1622.15 1360.71 1620.77 1362.95C1620.11 1364 1619.23 1365.04 1618.16 1366.01ZM1664.62 1225.12C1672.25 1228.95 1676.82 1235.6 1679.54 1241.64C1681.14 1245.19 1682.1 1248.53 1682.66 1250.99C1682.84 1251.8 1682.98 1252.52 1683.09 1253.11C1695.16 1244.89 1700.62 1241.55 1703.06 1240.26C1701.8 1225.28 1690.58 1217.44 1683.24 1213.9H1683.22C1681.07 1215.09 1674.06 1219.04 1664.62 1225.12ZM1659.46 1241.28C1661.63 1241.28 1663.38 1239.52 1663.38 1237.36C1663.38 1235.19 1661.63 1233.44 1659.46 1233.44C1657.3 1233.44 1655.54 1235.19 1655.54 1237.36C1655.54 1239.52 1657.3 1241.28 1659.46 1241.28ZM1617.06 1276.32C1617.06 1278.48 1615.31 1280.24 1613.14 1280.24C1610.98 1280.24 1609.22 1278.48 1609.22 1276.32C1609.22 1274.15 1610.98 1272.4 1613.14 1272.4C1615.31 1272.4 1617.06 1274.15 1617.06 1276.32ZM1589.66 1331.38C1591.83 1331.38 1593.58 1329.62 1593.58 1327.46C1593.58 1325.3 1591.83 1323.54 1589.66 1323.54C1587.5 1323.54 1585.74 1325.3 1585.74 1327.46C1585.74 1329.62 1587.5 1331.38 1589.66 1331.38Z" fill="#878787"/>
</g>
</g>
</g>
</svg>
