<svg width="512" height="512" viewBox="4736 2176 512 512" fill="none" xmlns="http://www.w3.org/2000/svg">
<defs xmlns="http://www.w3.org/2000/svg">
<clipPath id="clip0_268_10729">
<rect width="512" height="512" fill="white" transform="translate(256 256)"/>
</clipPath>
<clipPath id="clip1_268_10729">
<rect width="512" height="512" fill="white" transform="translate(896 256)"/>
</clipPath>
<clipPath id="clip2_268_10729">
<rect width="512" height="512" fill="white" transform="translate(1536 256)"/>
</clipPath>
<clipPath id="clip3_268_10729">
<rect width="512" height="512" fill="white" transform="translate(2176 256)"/>
</clipPath>
<clipPath id="clip4_268_10729">
<rect width="512" height="512" fill="white" transform="translate(2816 256)"/>
</clipPath>
<clipPath id="clip5_268_10729">
<rect width="512" height="512" fill="white" transform="translate(3456 256)"/>
</clipPath>
<clipPath id="clip6_268_10729">
<rect width="592.227" height="238.456" fill="white" transform="translate(3418.64 638.171) rotate(-45)"/>
</clipPath>
<clipPath id="clip7_268_10729">
<rect width="512" height="512" fill="white" transform="translate(4096 256)"/>
</clipPath>
<clipPath id="clip8_268_10729">
<rect width="512" height="512" fill="white" transform="translate(4736 256)"/>
</clipPath>
<clipPath id="clip9_268_10729">
<rect width="116.168" height="650.538" fill="white" transform="translate(4802 782) rotate(-135)"/>
</clipPath>
<clipPath id="clip10_268_10729">
<rect width="512" height="512" fill="white" transform="translate(5376 256)"/>
</clipPath>
<clipPath id="clip11_268_10729">
<rect width="512" height="512" fill="white" transform="translate(6016 256)"/>
</clipPath>
<clipPath id="clip12_268_10729">
<rect width="512" height="512" fill="white" transform="translate(4736 2816)"/>
</clipPath>
</defs>
<g xmlns="http://www.w3.org/2000/svg" id="512/Grober Sklaventod">
<g id="512/Grober Sklaventod_2">
<g id="512/Handle_41">
<path id="512/Vector_463" d="M4824.06 2622.88C4823.84 2622.88 4823.62 2622.88 4823.4 2622.86C4819.84 2622.62 4816.72 2620.64 4815.06 2617.58C4813.52 2614.76 4813.44 2611.36 4814.72 2607.82C4811.4 2606.12 4803.9 2603.24 4796.78 2607.04C4788.84 2611.28 4784.74 2619.84 4784.74 2619.84C4784.74 2619.84 4793.6 2613.82 4806.94 2621.82C4806.94 2621.82 4813.56 2631.1 4808.9 2648.6C4815.86 2644.6 4828.04 2635.5 4825.86 2622.7C4825.28 2622.8 4824.66 2622.88 4824.04 2622.88H4824.06Z" fill="#878787"/>
<path id="512/Vector_464" d="M4902.88 2562.24C4902.88 2562.24 4902.9 2562.28 4902.92 2562.3C4908.46 2559.74 4910.54 2556.52 4911.28 2554.54C4911.16 2554.42 4911.04 2554.3 4910.92 2554.14C4909.56 2552.36 4909.54 2550.1 4909.54 2549.9C4906.54 2539.74 4899.34 2533.98 4896 2531.78L4895.92 2531.88C4895.92 2531.88 4891.28 2531.6 4889.42 2528.94C4888.38 2531.32 4885.94 2534.64 4880.3 2537.24C4880.76 2538.4 4880.38 2540.1 4880.9 2541.74C4881.46 2543.48 4883.96 2547.54 4884.68 2548.76C4884.68 2548.76 4876.92 2552.52 4868 2559.9C4856.32 2569.58 4842 2584.22 4834 2592.16C4830.02 2596.1 4827.56 2603.44 4827.56 2603.44L4827.02 2603.92C4829.06 2606.52 4830.88 2608.4 4832.36 2609.74L4833.12 2609.1C4833.12 2609.1 4837.58 2610.82 4845.56 2604.38C4852.94 2598.44 4871.12 2583.68 4882.58 2571.86C4889.88 2564.32 4893.24 2557.04 4893.24 2557.04L4899.78 2560.4C4899.78 2560.4 4901.7 2560.72 4902.86 2562.26L4902.88 2562.24ZM4841.34 2605.26C4839.78 2600.96 4839.12 2597.2 4834.28 2595.06C4840.28 2592.74 4844.32 2600.46 4841.34 2605.26ZM4848.96 2598.72C4847.4 2594.14 4846.62 2590.06 4841.5 2587.9C4847.76 2585.6 4851.96 2593.68 4848.96 2598.72ZM4855.38 2592.92C4853.44 2588.44 4852.56 2584.18 4847.76 2581.58C4853.88 2579.88 4857.9 2587.96 4855.38 2592.92ZM4862.72 2586.48C4860.78 2582 4859.9 2577.74 4855.1 2575.14C4861.22 2573.44 4865.24 2581.52 4862.72 2586.48ZM4869.88 2579.56C4867.94 2575.08 4867.06 2570.82 4862.26 2568.22C4868.38 2566.52 4872.4 2574.6 4869.88 2579.56ZM4876.8 2573.48C4874.86 2569 4873.98 2564.74 4869.18 2562.14C4875.3 2560.44 4879.32 2568.52 4876.8 2573.48ZM4883.66 2565.2C4883.08 2567.18 4883 2567.24 4882.28 2565.3C4880.86 2561.82 4879.9 2559.18 4876.3 2556.98C4878.68 2555.98 4881.6 2557.52 4882.86 2559.78C4883.84 2561.46 4883.98 2563.36 4883.66 2565.2Z" fill="#878787"/>
<path id="512/Vector_465" d="M4907.46 2567.54C4913.32 2564.84 4915.3 2561.46 4915.96 2559.5C4915.56 2558.44 4915.78 2557.2 4915.14 2556.56C4914.34 2555.78 4913.7 2555.6 4913.08 2555.44C4912.1 2557.88 4909.66 2561.46 4903.52 2564.24C4903.68 2565 4903.86 2565.78 4904.38 2566.3C4905.1 2567.04 4906.72 2566.5 4907.34 2567.32C4907.38 2567.38 4907.42 2567.48 4907.46 2567.54Z" fill="#878787"/>
<path id="512/Vector_466" d="M4816.48 2608.82C4815.52 2611.68 4815.62 2614.4 4816.82 2616.62C4818.16 2619.08 4820.66 2620.66 4823.54 2620.86C4824.2 2620.9 4824.84 2620.84 4825.46 2620.72C4825.46 2620.68 4825.46 2620.64 4825.44 2620.6C4825.44 2620.6 4828.26 2620.64 4830.54 2617.4C4832.66 2614.4 4830.7 2611.14 4830.7 2611.14L4830.84 2611.02C4829.32 2609.62 4827.52 2607.76 4825.54 2605.2L4825.18 2605.52C4825.18 2605.52 4822.16 2604.26 4819.56 2606.1C4816.96 2607.96 4816.5 2608.78 4816.5 2608.78L4816.48 2608.82Z" fill="#878787"/>
<path id="512/Vector_467" d="M4874.64 2532.52C4874.88 2533.38 4875.08 2534.3 4875.46 2534.86C4876.12 2535.82 4877.32 2535.68 4878.44 2535.9C4887.92 2531.94 4888.2 2526.1 4888.2 2525.84H4888.5C4888.38 2524.98 4888.26 2524.18 4887.84 2523.78C4887.18 2523.16 4886.22 2523.06 4885.26 2522.5C4884.52 2524.96 4882.16 2529.34 4874.62 2532.5L4874.64 2532.52Z" fill="#878787"/>
<path id="512/Vector_468" d="M4864.54 2514.88C4865.08 2516.74 4864.42 2519.78 4864.94 2522.18C4865.16 2523.18 4865.82 2524.82 4867.86 2527.04C4869.2 2528.5 4871.9 2528.82 4873.74 2530.72C4882.3 2527.18 4883.44 2522.14 4883.58 2520.9C4881.86 2518.56 4881.42 2515.78 4878.76 2513.44C4876.4 2511.36 4870.28 2511.34 4868.48 2509.84C4867.52 2509.04 4867.26 2508.26 4866.42 2507.62C4865.36 2506.8 4862.98 2506.3 4862.98 2506.3L4860.72 2508.08C4860.72 2508.08 4860.64 2510.62 4861.88 2512.22C4862.66 2513.24 4864 2513.1 4864.52 2514.86L4864.54 2514.88Z" fill="#878787"/>
<path id="512/Vector_469" d="M4929.08 2577.16C4928.08 2575.16 4928.88 2572.92 4927.94 2570.56C4926.82 2567.7 4923.9 2564.8 4921.96 2563.72C4920.5 2562.92 4918.72 2562.14 4917.42 2561.16C4916.34 2563.54 4913.88 2566.74 4908.38 2569.3C4908.9 2570.58 4909.28 2571.94 4909.72 2572.86C4911.18 2575.94 4914.06 2579.5 4917.74 2580.82C4920.62 2581.86 4921.7 2581.04 4923.92 2582.22C4926.68 2583.68 4924.58 2586.7 4928.32 2587.78C4931.32 2588.66 4934.88 2585.46 4934.12 2582.68C4933.36 2579.9 4931.08 2581.14 4929.1 2577.14L4929.08 2577.16Z" fill="#878787"/>
</g>
<g id="512/Blade_38">
<path id="512/Vector_470" d="M5114.12 2274.54C5114.12 2274.54 5082.4 2280.06 5079.14 2301.18C5079.14 2301.18 5086.22 2295.7 5088.42 2296.46C5090.58 2297.2 5092.12 2297.86 5091.06 2300.6C5088.24 2307.9 5079.18 2309.72 5079.18 2309.72C5079.18 2309.72 5064.82 2312.22 5057.56 2333.84C5057.56 2333.84 5069.38 2325.24 5071.74 2328.12C5075.36 2332.52 5070.4 2337.4 5065.6 2341C5060.8 2344.6 5044.6 2345.38 5037.26 2364.76C5037.26 2364.76 5048.66 2355.58 5050.68 2362.28C5052.7 2368.98 5037.94 2372.84 5037.94 2372.84C5037.94 2372.84 5021.7 2377.48 5019.3 2390.22C5019.3 2390.22 5027.16 2386.14 5026.34 2391.18C5025.52 2396.22 5018.88 2395.14 5014.14 2397.76C5009.4 2400.36 5005.18 2403.26 5003.74 2410.4C5003.74 2410.4 5010.96 2405.6 5011.04 2410.6C5011.12 2415.62 4996.4 2417.66 4996.4 2417.66L4947.72 2476.56L4898.76 2528.84C4902.56 2531.44 4909.34 2537.22 4912.78 2547.04L4963.76 2502.68C4963.76 2502.68 5151.88 2336.46 5199.24 2228.58C5199.24 2228.58 5166.9 2260.9 5114.12 2274.56V2274.54ZM5095.18 2305.62C5098.26 2303.28 5102.94 2299.66 5101.14 2295.48C5098.6 2291.9 5093.16 2292 5088.88 2291.2C5093.6 2289.92 5100.4 2289.26 5103.58 2294.18C5105.46 2298.04 5103.34 2301.98 5100.34 2304.3C5096.42 2307.38 5091.84 2309.78 5086.96 2310.68C5089.94 2309.3 5092.62 2307.52 5095.18 2305.62ZM5081.3 2329.64C5082.92 2327.38 5083.44 2324.32 5081.88 2322.32C5078.58 2319.48 5073.36 2320.84 5069.02 2321.04C5073.28 2318.58 5079.78 2316.28 5084.08 2320.36C5086.8 2323.46 5085.78 2328.16 5083.36 2331.06C5080.28 2334.98 5076.38 2338.4 5071.82 2340.42C5075.54 2337.3 5078.72 2333.68 5081.3 2329.66V2329.64ZM5055.62 2368.22C5058.26 2365.42 5062.36 2361.7 5060.42 2357.68C5057.66 2354.5 5052.34 2355.48 5048.16 2355.22C5052.52 2353.18 5059.32 2351.38 5062.94 2356.12C5065.1 2359.52 5063.1 2364.12 5060.6 2366.44C5057.14 2369.9 5053 2372.84 5048.36 2374.36C5051.04 2372.58 5053.4 2370.46 5055.62 2368.26V2368.22ZM5040.7 2382.96C5042.62 2386.22 5040.82 2389.9 5038.66 2391.98C5035.66 2394.92 5032.1 2397.4 5028.08 2398.6C5031.38 2396.22 5034.28 2393.44 5036.78 2390.34C5037.54 2389.34 5038.34 2388.26 5038.42 2387.38C5039.64 2381.54 5031.86 2382.76 5027.92 2382.3C5031.64 2380.38 5037.54 2378.78 5040.7 2382.94V2382.96ZM5014.92 2414.1C5016.7 2411.96 5019.2 2409.88 5019.56 2407.08C5019.62 2406.28 5019.68 2405.66 5019.08 2405.2C5016.68 2403.98 5013.74 2404.64 5010.68 2404.54C5019.3 2398.36 5027.5 2404.56 5019.12 2412.96C5016.32 2415.62 5013.12 2417.94 5009.48 2419.26C5011.46 2417.66 5013.2 2415.88 5014.92 2414.1ZM4984.06 2470.54C4974.26 2479.32 4964.64 2488.34 4955.72 2498.02C4951.34 2502.9 4946.9 2507.86 4943.84 2513.66L4943.52 2513.5C4946.52 2507.56 4950.88 2502.5 4955.2 2497.52C4968.3 2482.66 4983.22 2469.58 4997.54 2455.96C5054.52 2401.32 5101.8 2336.14 5151.1 2275.62C5102.9 2346.38 5047.92 2413.28 4984.08 2470.52L4984.06 2470.54Z" fill="white"/>
</g>
</g>
</g>
</svg>
