<svg width="512" height="512" viewBox="3456 2176 512 512" fill="none" xmlns="http://www.w3.org/2000/svg">
<defs xmlns="http://www.w3.org/2000/svg">
<clipPath id="clip0_268_10729">
<rect width="512" height="512" fill="white" transform="translate(256 256)"/>
</clipPath>
<clipPath id="clip1_268_10729">
<rect width="512" height="512" fill="white" transform="translate(896 256)"/>
</clipPath>
<clipPath id="clip2_268_10729">
<rect width="512" height="512" fill="white" transform="translate(1536 256)"/>
</clipPath>
<clipPath id="clip3_268_10729">
<rect width="512" height="512" fill="white" transform="translate(2176 256)"/>
</clipPath>
<clipPath id="clip4_268_10729">
<rect width="512" height="512" fill="white" transform="translate(2816 256)"/>
</clipPath>
<clipPath id="clip5_268_10729">
<rect width="512" height="512" fill="white" transform="translate(3456 256)"/>
</clipPath>
<clipPath id="clip6_268_10729">
<rect width="592.227" height="238.456" fill="white" transform="translate(3418.64 638.171) rotate(-45)"/>
</clipPath>
<clipPath id="clip7_268_10729">
<rect width="512" height="512" fill="white" transform="translate(4096 256)"/>
</clipPath>
<clipPath id="clip8_268_10729">
<rect width="512" height="512" fill="white" transform="translate(4736 256)"/>
</clipPath>
<clipPath id="clip9_268_10729">
<rect width="116.168" height="650.538" fill="white" transform="translate(4802 782) rotate(-135)"/>
</clipPath>
<clipPath id="clip10_268_10729">
<rect width="512" height="512" fill="white" transform="translate(5376 256)"/>
</clipPath>
<clipPath id="clip11_268_10729">
<rect width="512" height="512" fill="white" transform="translate(6016 256)"/>
</clipPath>
<clipPath id="clip12_268_10729">
<rect width="512" height="512" fill="white" transform="translate(4736 2816)"/>
</clipPath>
</defs>
<g xmlns="http://www.w3.org/2000/svg" id="512/Hakendolch">
<g id="512/Hakendolch_2">
<g id="512/Blade_36">
<path id="512/Vector_448" d="M3652.48 2509.82C3653.3 2506.22 3626.82 2530.14 3628.46 2526.82C3625.62 2528.5 3649.94 2502.92 3646.78 2503.86C3634.98 2507.46 3622.34 2504.6 3611.64 2498.72C3611.62 2498.76 3603.58 2512.18 3610 2523.24C3610 2523.24 3610 2523.26 3609.96 2523.32C3616.86 2532.18 3628.86 2544.4 3641.9 2550.86C3651.42 2553.66 3658.48 2547.48 3659.72 2546.28C3652.72 2535.64 3649.5 2522.4 3652.48 2509.84V2509.82Z" fill="white"/>
<path id="512/Vector_449" d="M3862.14 2360.96L3698.54 2530.36C3665.12 2533.34 3669.02 2501.84 3669.02 2501.84C3669.02 2501.84 3849.38 2313.38 3878.38 2284.96C3907.38 2256.54 3909.66 2237.58 3909.66 2237.58C3909.66 2237.58 3890 2237.28 3862.62 2267.26C3835.28 2297.18 3650.7 2485.7 3650.7 2485.7C3650.7 2485.7 3621.84 2489.02 3623.64 2455.52L3787.28 2286.08C3787.28 2286.08 3798.12 2273.54 3794.98 2263.76C3785.5 2259.78 3771.86 2271.64 3771.86 2271.64L3599.48 2450.14C3599.48 2450.14 3591.54 2463.66 3598 2478.8C3601.66 2487.38 3609.42 2494.82 3611.98 2497.14C3626.96 2504.42 3645.84 2505.34 3659.48 2494.82L3663.72 2491.74C3653.92 2505 3651.34 2522.54 3657.82 2537.88C3658.94 2540.74 3660.34 2543.48 3661.92 2546.14C3664.64 2548.98 3673.94 2558.2 3682.84 2560.54C3692.64 2563.1 3704.74 2554.4 3704.74 2554.4L3877.18 2375.86C3877.18 2375.86 3887.6 2361.88 3884.7 2353.7C3876.28 2349.98 3862.18 2361 3862.18 2361L3862.14 2360.96ZM3837.02 2309.68C3856.84 2289.06 3877 2267.12 3898.32 2248.8C3861.46 2290.68 3816.96 2332.64 3777.64 2372.46L3777.42 2372.26C3792.24 2356.6 3822.1 2325.24 3837 2309.7L3837.02 2309.68Z" fill="white"/>
</g>
<g id="512/Handle_39">
<path id="512/Vector_450" d="M3589.34 2571.92C3585.74 2567.84 3581.2 2564.96 3576.64 2562.9C3574.34 2564.7 3571.98 2566.5 3569.72 2568.2C3574.74 2570.36 3579.82 2573.52 3583.86 2578.08C3585.96 2580.46 3587.62 2583.1 3588.88 2585.96C3590.46 2583.6 3592.14 2581.14 3593.8 2578.76C3592.66 2576.28 3591.2 2573.98 3589.36 2571.88L3589.34 2571.92Z" fill="#878787"/>
<path id="512/Vector_451" d="M3582.36 2579.42C3578.28 2574.8 3572.98 2571.7 3567.82 2569.62C3564.34 2572.22 3561.3 2574.42 3559.42 2575.78C3565.72 2578.2 3572.64 2582.1 3577.64 2588.38C3579.56 2590.78 3581.02 2593.42 3582.14 2596.22C3583.34 2594.34 3585.28 2591.36 3587.54 2587.96C3586.32 2584.82 3584.62 2581.96 3582.36 2579.4V2579.42Z" fill="#878787"/>
<path id="512/Vector_452" d="M3576.08 2589.64C3571.02 2583.28 3563.7 2579.46 3557.3 2577.18C3555.38 2577.02 3535.78 2575.82 3529.2 2591.88C3522.32 2608.72 3526.04 2633.74 3526.04 2633.74C3526.04 2633.74 3548.52 2636.58 3565.2 2629.12C3580.94 2622.06 3580.86 2600.66 3580.82 2598.46C3579.76 2595.24 3578.2 2592.28 3576.08 2589.62V2589.64ZM3534.1 2624.88L3533.32 2624.8L3533.24 2624C3532.02 2611.88 3534 2598.9 3540.92 2588.7C3535.64 2599.24 3534.12 2611.3 3535.16 2622.96C3547.12 2623.9 3559.74 2621.78 3569.94 2615.18C3560.1 2623.36 3546.64 2625.98 3534.1 2624.9V2624.88Z" fill="#878787"/>
<path id="512/Vector_453" d="M3607.64 2526.82C3603.28 2533.4 3593.9 2547.22 3588.56 2552.76C3586.38 2555.02 3582.6 2558.2 3578.44 2561.5C3582.88 2563.62 3587.28 2566.56 3590.84 2570.6C3592.56 2572.54 3593.96 2574.66 3595.1 2576.92C3598.06 2572.76 3600.84 2569.1 3602.74 2567.12C3607.5 2562.2 3622.12 2551.96 3628.82 2547.38C3620.42 2541.16 3612.92 2533.44 3607.64 2526.82Z" fill="#878787"/>
</g>
</g>
</g>
</svg>
