<svg width="512" height="512" viewBox="0 0 512 512" fill="none" xmlns="http://www.w3.org/2000/svg">
  <path d="M238 150H274V374H238V150Z" fill="#151515"/>
  <path d="M214 268H318V318H214V268Z" fill="#151515"/>
  <path d="M92 204C142 154 206 156 256 214C306 156 370 154 420 204C360 200 308 218 256 258C204 218 152 200 92 204Z" fill="#151515"/>
  <path d="M138 202C184 194 222 210 256 238C290 210 328 194 374 202C326 218 288 236 256 268C224 236 186 218 138 202Z" fill="#878787"/>
  <path d="M260 314L330 440H282L236 314H260Z" fill="#151515"/>
</svg>
