<svg width="512" height="512" viewBox="0 0 512 512" fill="none" xmlns="http://www.w3.org/2000/svg">
  <path d="M232 112H286V444H232V112Z" fill="#151515"/>
  <path d="M190 246H330V310H190V246Z" fill="#151515"/>
  <path d="M42 178C116 92 202 112 258 194C314 112 400 92 470 178C394 170 326 194 258 264C190 194 122 170 42 178Z" fill="#151515"/>
  <path d="M98 176C154 156 210 178 258 224C306 178 362 156 418 176C350 196 302 226 258 276C214 226 166 196 98 176Z" fill="#878787"/>
  <path d="M256 56L290 112H222L256 56Z" fill="#878787"/>
  <path d="M256 310L346 460H290L232 310H256Z" fill="#151515"/>
</svg>
