<svg width="512" height="512" viewBox="4096 256 512 512" fill="none" xmlns="http://www.w3.org/2000/svg">
<defs xmlns="http://www.w3.org/2000/svg">
<clipPath id="clip0_268_10729">
<rect width="512" height="512" fill="white" transform="translate(256 256)"/>
</clipPath>
<clipPath id="clip1_268_10729">
<rect width="512" height="512" fill="white" transform="translate(896 256)"/>
</clipPath>
<clipPath id="clip2_268_10729">
<rect width="512" height="512" fill="white" transform="translate(1536 256)"/>
</clipPath>
<clipPath id="clip3_268_10729">
<rect width="512" height="512" fill="white" transform="translate(2176 256)"/>
</clipPath>
<clipPath id="clip4_268_10729">
<rect width="512" height="512" fill="white" transform="translate(2816 256)"/>
</clipPath>
<clipPath id="clip5_268_10729">
<rect width="512" height="512" fill="white" transform="translate(3456 256)"/>
</clipPath>
<clipPath id="clip6_268_10729">
<rect width="592.227" height="238.456" fill="white" transform="translate(3418.64 638.171) rotate(-45)"/>
</clipPath>
<clipPath id="clip7_268_10729">
<rect width="512" height="512" fill="white" transform="translate(4096 256)"/>
</clipPath>
<clipPath id="clip8_268_10729">
<rect width="512" height="512" fill="white" transform="translate(4736 256)"/>
</clipPath>
<clipPath id="clip9_268_10729">
<rect width="116.168" height="650.538" fill="white" transform="translate(4802 782) rotate(-135)"/>
</clipPath>
<clipPath id="clip10_268_10729">
<rect width="512" height="512" fill="white" transform="translate(5376 256)"/>
</clipPath>
<clipPath id="clip11_268_10729">
<rect width="512" height="512" fill="white" transform="translate(6016 256)"/>
</clipPath>
<clipPath id="clip12_268_10729">
<rect width="512" height="512" fill="white" transform="translate(4736 2816)"/>
</clipPath>
</defs>
<g xmlns="http://www.w3.org/2000/svg" id="512/Hellebarde" clip-path="url(#clip7_268_10729)">
<g id="512/Hellebarde_2">
<g id="512/Handle_7">
<path id="512/Vector_74" d="M4430.26 442.029L4126.67 748.437C4123.32 751.823 4117.84 751.838 4114.47 748.466C4111.1 745.095 4111.11 739.617 4114.5 736.259L4420.9 432.669L4430.26 442.029Z" fill="#878787"/>
<path id="512/Vector_75" d="M4528.95 341.907C4528.95 341.907 4600.8 270.801 4597.4 267.4C4594.47 264.475 4521.42 334.38 4521.42 334.38L4527.29 335.94L4528.94 341.9L4528.95 341.907Z" fill="#878787"/>
</g>
<g id="512/Blade_8">
<path id="512/Vector_76" d="M4422.21 430.274C4420.58 428.651 4420.58 426.019 4422.2 424.397C4423.82 422.775 4426.45 422.777 4428.08 424.401L4438.53 434.854C4440.16 436.478 4440.16 439.109 4438.53 440.731C4436.91 442.353 4434.28 442.351 4432.66 440.727L4422.21 430.274Z" fill="white"/>
<path id="512/Vector_77" d="M4441.4 433.337L4526.93 343.92L4525.29 337.961L4519.41 336.393L4429.29 421.223L4441.4 433.337Z" fill="white"/>
<path id="512/Vector_78" d="M4502.8 396.378C4499.21 394.861 4496.33 397.802 4496.89 402.201C4497.11 403.898 4494.17 396.321 4489.46 397.514C4484.77 398.707 4485.88 404.372 4485.88 404.372L4471.74 404.574L4523.95 350.685C4523.95 350.685 4523.47 377.119 4525.81 390.397C4531.51 422.898 4512.54 443.689 4512.5 442.754C4511.4 418.707 4504.04 402.288 4504.04 402.288C4504.04 402.288 4506.93 398.111 4502.8 396.364L4502.8 396.378ZM4500.43 390.383C4501.4 389.412 4501.4 387.831 4500.43 386.86C4499.46 385.89 4497.88 385.89 4496.91 386.86C4495.94 387.831 4495.94 389.412 4496.91 390.383C4497.88 391.353 4499.46 391.353 4500.43 390.383Z" fill="white"/>
<path id="512/Vector_79" d="M4486.73 273.497C4500.56 296.351 4497.81 309.507 4497.81 309.507C4497.81 309.507 4493.4 309.686 4492.86 314.46C4492.26 319.614 4497.08 321.253 4497.08 321.253C4497.08 321.253 4486.81 326.394 4492.03 334.74C4497.27 343.094 4505.16 336.667 4505.16 336.667L4512.53 339.636L4461.88 387.176C4461.88 387.176 4461.46 382.216 4457.82 381.202C4453.41 379.98 4451.02 383.834 4451.02 383.834L4419.2 385.185C4419.2 385.185 4471.47 341.9 4486.73 273.497ZM4488.05 322.044C4488.63 321.462 4488.63 320.513 4488.05 319.931C4487.47 319.348 4486.52 319.348 4485.94 319.931C4485.35 320.513 4485.35 321.462 4485.94 322.044C4486.52 322.627 4487.47 322.627 4488.05 322.044ZM4497.6 346.451C4498.57 345.48 4498.57 343.899 4497.6 342.928C4496.63 341.958 4495.05 341.958 4494.08 342.928C4493.11 343.899 4493.11 345.48 4494.08 346.451C4495.05 347.421 4496.63 347.421 4497.6 346.451ZM4485.45 340.491C4486.42 339.521 4486.42 337.939 4485.45 336.969C4484.48 335.998 4482.89 335.998 4481.92 336.969C4480.95 337.939 4480.95 339.521 4481.92 340.491C4482.89 341.462 4484.48 341.462 4485.45 340.491ZM4451.36 379.024C4451.97 378.413 4451.97 377.414 4451.36 376.803C4450.75 376.192 4449.75 376.184 4449.14 376.803C4448.52 377.421 4448.52 378.406 4449.14 379.024C4449.76 379.642 4450.75 379.635 4451.36 379.024Z" fill="white"/>
</g>
</g>
</g>
</svg>
