<svg width="512" height="512" viewBox="2176 3456 512 512" fill="none" xmlns="http://www.w3.org/2000/svg">
<defs xmlns="http://www.w3.org/2000/svg">
<clipPath id="clip0_268_10729">
<rect width="512" height="512" fill="white" transform="translate(256 256)"/>
</clipPath>
<clipPath id="clip1_268_10729">
<rect width="512" height="512" fill="white" transform="translate(896 256)"/>
</clipPath>
<clipPath id="clip2_268_10729">
<rect width="512" height="512" fill="white" transform="translate(1536 256)"/>
</clipPath>
<clipPath id="clip3_268_10729">
<rect width="512" height="512" fill="white" transform="translate(2176 256)"/>
</clipPath>
<clipPath id="clip4_268_10729">
<rect width="512" height="512" fill="white" transform="translate(2816 256)"/>
</clipPath>
<clipPath id="clip5_268_10729">
<rect width="512" height="512" fill="white" transform="translate(3456 256)"/>
</clipPath>
<clipPath id="clip6_268_10729">
<rect width="592.227" height="238.456" fill="white" transform="translate(3418.64 638.171) rotate(-45)"/>
</clipPath>
<clipPath id="clip7_268_10729">
<rect width="512" height="512" fill="white" transform="translate(4096 256)"/>
</clipPath>
<clipPath id="clip8_268_10729">
<rect width="512" height="512" fill="white" transform="translate(4736 256)"/>
</clipPath>
<clipPath id="clip9_268_10729">
<rect width="116.168" height="650.538" fill="white" transform="translate(4802 782) rotate(-135)"/>
</clipPath>
<clipPath id="clip10_268_10729">
<rect width="512" height="512" fill="white" transform="translate(5376 256)"/>
</clipPath>
<clipPath id="clip11_268_10729">
<rect width="512" height="512" fill="white" transform="translate(6016 256)"/>
</clipPath>
<clipPath id="clip12_268_10729">
<rect width="512" height="512" fill="white" transform="translate(4736 2816)"/>
</clipPath>
</defs>
<g xmlns="http://www.w3.org/2000/svg" id="512/Katana Type 01">
<g id="512/Katana Type 01_2">
<g id="512/Blade_48">
<g id="512/Group_28">
<path id="512/Vector_651" d="M2368.86 3808.64C2368.86 3808.64 2369.54 3804.5 2361 3795.48C2354.66 3788.8 2351.98 3792.44 2351.98 3792.44C2351.98 3792.44 2346.38 3786.28 2342.82 3789.66C2339.82 3792.52 2344.3 3799.28 2344.3 3799.28C2344.3 3799.28 2344.66 3799.88 2345.78 3801.24C2345.9 3801.08 2346.02 3800.98 2346.12 3800.9C2347.38 3799.88 2348.68 3799.5 2349.96 3799.58C2349.2 3797.96 2348.9 3796.56 2349.18 3795.44C2349.22 3795.3 2349.26 3795.22 2349.32 3795.1C2349.16 3794.94 2349.04 3794.72 2348.88 3794.56C2347.48 3793.14 2345.86 3791.04 2343.76 3790.92C2342.94 3790.96 2342.56 3792 2342.42 3792.86C2342.42 3791.94 2342.58 3790.74 2343.64 3790.42C2346.16 3790.06 2348.18 3791.94 2350.1 3793.24C2350.26 3793.38 2350.44 3793.5 2350.62 3793.62C2350.72 3793.58 2350.82 3793.54 2350.92 3793.52C2353.02 3793.16 2355.06 3794.08 2356.84 3795.06C2362.02 3798.7 2365.8 3804.66 2367.36 3810.8C2371.42 3814.1 2376.48 3817.96 2376.68 3823.62C2376.66 3824.42 2376.34 3825.26 2375.68 3825.7C2378.64 3821.54 2370.38 3814.8 2366.68 3812.14C2365.78 3811.66 2364.8 3811.16 2363.82 3810.76C2364.64 3811.88 2365.36 3812.92 2365.86 3813.76C2367.14 3815.9 2367.58 3817.82 2367.14 3819.5C2366.92 3820.34 2366.52 3820.96 2366.14 3821.38C2369.16 3824.28 2375.7 3829.5 2378.42 3823.24C2381.18 3816.9 2368.88 3808.6 2368.88 3808.6L2368.86 3808.64Z" fill="white"/>
<path id="512/Vector_652" d="M2362.24 3808.8C2363.4 3809.06 2364.44 3809.48 2365.46 3809.98C2363.86 3805.7 2360.86 3802.12 2358 3798.6C2356.32 3796.92 2353.84 3795.32 2351.4 3795.4C2351.4 3795.4 2351.18 3795.58 2351.1 3796.02C2351 3796.6 2351.1 3797.88 2352.6 3800.28C2354.3 3801.06 2356.02 3802.38 2357.66 3803.76C2358.82 3804.72 2360.58 3806.72 2362.22 3808.8H2362.24Z" fill="white"/>
</g>
<path id="512/Vector_653" d="M2650.88 3516.32L2359.8 3791.92C2360.42 3792.38 2361.04 3792.88 2361.68 3793.46C2364.96 3796.44 2366.92 3799.6 2368.34 3801.92C2368.62 3802.36 2368.86 3802.78 2369.12 3803.16C2370.38 3805.1 2370.7 3806.88 2370.78 3807.72L2373.28 3809.88L2635.28 3561.2C2635.28 3561.2 2657.06 3537.76 2650.88 3516.32ZM2626 3555.68C2618.04 3567.18 2592.4 3590.34 2582.24 3600.52C2541.44 3639.08 2441.82 3733.02 2399.5 3771.68C2457.24 3716.56 2553.18 3622.88 2610.74 3569.96C2620.66 3560.46 2630.22 3549.98 2636.36 3537.56L2636.64 3537.68C2633.98 3544.14 2630.16 3550.08 2626 3555.68Z" fill="white"/>
</g>
<g id="512/Handle_56">
<path id="512/Vector_654" d="M2357.88 3825.1C2357.88 3825.1 2361.9 3824.16 2364.18 3821.34C2365.38 3817.86 2357.94 3809.68 2357.94 3809.68C2357.94 3809.68 2351.7 3802.66 2347 3802.68C2347 3802.68 2343.48 3805.6 2342.16 3808.56C2344.48 3808.92 2358.34 3822.58 2357.86 3825.1H2357.88Z" fill="#878787"/>
<path id="512/Vector_655" d="M2285.04 3863.2C2285.6 3864.8 2286.06 3866.42 2286.46 3868.02C2289.24 3867.74 2291.84 3868.36 2293.48 3868.96C2292.98 3865.28 2292.16 3861.42 2290.9 3857.62L2285.04 3863.22V3863.2Z" fill="#878787"/>
<path id="512/Vector_656" d="M2294.08 3885.34C2294.16 3883.82 2294.24 3882.02 2294.22 3880C2293.02 3879.46 2290.68 3878.66 2288.28 3878.88C2288.68 3883.36 2288.68 3887.4 2288.54 3890.56L2294.08 3885.34Z" fill="#878787"/>
<path id="512/Vector_657" d="M2307.88 3872.34C2308.04 3870.52 2308.24 3867.74 2308.22 3864.4C2307.1 3863.9 2304.98 3863.16 2302.76 3863.24C2303.44 3868.14 2303.6 3872.72 2303.52 3876.44L2307.86 3872.34H2307.88Z" fill="#878787"/>
<path id="512/Vector_658" d="M2286.4 3892.58C2286.8 3886.62 2286.88 3875.46 2283.44 3864.74L2278.18 3869.76C2281.58 3880.46 2281.56 3891.36 2281.16 3897.52L2286.4 3892.58Z" fill="#878787"/>
<path id="512/Vector_659" d="M2301.44 3878.4C2301.7 3871.74 2301.36 3861.06 2297.76 3851.06L2292.5 3856.08C2296.06 3866.12 2296.46 3876.6 2296.2 3883.34L2301.44 3878.4Z" fill="#878787"/>
<path id="512/Vector_660" d="M2299.34 3849.54C2299.7 3850.5 2300.04 3851.44 2300.36 3852.4C2303.18 3852.08 2305.84 3852.72 2307.5 3853.32C2307.08 3850.2 2306.42 3846.94 2305.46 3843.7L2299.34 3849.54Z" fill="#878787"/>
<path id="512/Vector_661" d="M2308.2 3862.22C2308.14 3860.16 2308.02 3857.92 2307.76 3855.6C2306.64 3855.12 2303.88 3854.14 2300.92 3854.38C2301.58 3856.7 2302.08 3859 2302.46 3861.26C2304.68 3861.14 2306.76 3861.68 2308.18 3862.22H2308.2Z" fill="#878787"/>
<path id="512/Vector_662" d="M2294.2 3877.84C2294.14 3875.78 2294.02 3873.54 2293.76 3871.22C2292.64 3870.74 2289.88 3869.76 2286.92 3870C2287.44 3872.36 2287.8 3874.68 2288.06 3876.92C2290.42 3876.7 2292.68 3877.28 2294.18 3877.86L2294.2 3877.84Z" fill="#878787"/>
<path id="512/Vector_663" d="M2278.98 3899.58C2279.14 3897.76 2279.3 3895.12 2279.3 3891.94C2278.18 3891.44 2276.06 3890.7 2273.84 3890.78C2274.52 3895.58 2274.66 3900.04 2274.6 3903.7L2278.96 3899.58H2278.98Z" fill="#878787"/>
<path id="512/Vector_664" d="M2240.14 3906.1C2242.14 3907.54 2244.06 3909.18 2245.4 3910.5C2246 3911.1 2246.84 3912 2247.76 3913.04C2247.76 3910.4 2247.5 3905.64 2246.28 3900.26L2240.16 3906.1H2240.14Z" fill="#878787"/>
<path id="512/Vector_665" d="M2265.14 3912.6C2265.22 3911.14 2265.28 3909.44 2265.28 3907.54C2263.98 3906.96 2261.4 3906.04 2258.82 3906.46L2258.5 3904.48C2261.08 3904.08 2263.6 3904.76 2265.24 3905.38C2265.18 3903.32 2265.06 3901.08 2264.8 3898.76C2263.58 3898.24 2260.48 3897.12 2257.28 3897.6C2259.08 3905.48 2259.26 3913.08 2259.04 3918.34L2265.12 3912.6H2265.14Z" fill="#878787"/>
<path id="512/Vector_666" d="M2253.92 3892.92L2247.94 3898.62C2250.14 3907.26 2249.72 3914.58 2249.68 3915.3C2251.3 3917.24 2252.9 3919.28 2253.84 3920.7C2254.22 3921.28 2254.54 3921.84 2254.8 3922.34L2256.94 3920.34C2257.3 3914.28 2257.3 3903.36 2253.94 3892.92H2253.92Z" fill="#878787"/>
<path id="512/Vector_667" d="M2264.54 3896.5C2264.04 3892.84 2263.24 3889 2261.98 3885.22L2255.52 3891.38C2256 3892.8 2256.44 3894.22 2256.8 3895.64C2259.84 3895.14 2262.74 3895.86 2264.52 3896.5H2264.54Z" fill="#878787"/>
<path id="512/Vector_668" d="M2270.42 3877.16C2270.78 3878.08 2271.1 3879.02 2271.4 3879.96C2274.22 3879.64 2276.88 3880.28 2278.54 3880.88C2278.12 3877.78 2277.48 3874.54 2276.52 3871.32L2270.4 3877.16H2270.42Z" fill="#878787"/>
<path id="512/Vector_669" d="M2272.52 3905.66C2272.76 3899 2272.38 3888.5 2268.84 3878.68L2263.58 3883.7C2267.06 3893.58 2267.5 3903.86 2267.26 3910.62L2272.5 3905.68L2272.52 3905.66Z" fill="#878787"/>
<path id="512/Vector_670" d="M2279.26 3889.76C2279.2 3887.7 2279.08 3885.46 2278.82 3883.14C2277.7 3882.66 2274.94 3881.68 2271.98 3881.92C2272.64 3884.24 2273.14 3886.54 2273.52 3888.8C2275.74 3888.68 2277.82 3889.22 2279.24 3889.76H2279.26Z" fill="#878787"/>
<path id="512/Vector_671" d="M2330.8 3850.74C2330.92 3843.64 2330.26 3833.22 2326.42 3823.7L2321.18 3828.7C2324.96 3838.32 2325.68 3848.54 2325.56 3855.68L2330.8 3850.74Z" fill="#878787"/>
<path id="512/Vector_672" d="M2252.18 3921.8C2250.42 3919.08 2245.88 3913.8 2243.98 3911.92C2242.18 3910.16 2240.34 3908.66 2238.68 3907.48L2236.08 3909.96C2233.52 3912.4 2233.42 3916.46 2235.86 3919.02L2242.42 3925.94C2244.66 3928.3 2248.38 3928.4 2250.74 3926.18L2253.26 3923.8C2253.06 3923.28 2252.72 3922.64 2252.18 3921.8Z" fill="#878787"/>
<path id="512/Vector_673" d="M2344.92 3837.44C2345.46 3831.04 2345.54 3819.46 2340.9 3810.04C2340.86 3810.02 2340.82 3810 2340.78 3809.96L2335.8 3814.72C2339.46 3825.02 2339.78 3835.8 2339.48 3842.54L2344.9 3837.44H2344.92Z" fill="#878787"/>
<path id="512/Vector_674" d="M2356.64 3826.38C2356.58 3826.1 2356.34 3825.32 2355.3 3823.86C2354.84 3823.22 2354.22 3822.44 2353.5 3821.58C2352.24 3821.26 2349.44 3820.76 2346.44 3821.48C2347.26 3826.64 2347.3 3831.58 2347.08 3835.4L2356.64 3826.4V3826.38Z" fill="#878787"/>
<path id="512/Vector_675" d="M2346.84 3814.5C2345.9 3813.64 2344.94 3812.88 2344 3812.16C2344.92 3814.58 2345.62 3817.04 2346.1 3819.5C2348.06 3819.06 2349.9 3819.04 2351.4 3819.2C2349.66 3817.28 2347.84 3815.4 2346.84 3814.5Z" fill="#878787"/>
<path id="512/Vector_676" d="M2337.54 3838.7C2336.42 3838.2 2334.32 3837.46 2332.08 3837.54C2332.66 3841.62 2332.86 3845.48 2332.86 3848.8L2337.36 3844.56C2337.46 3842.94 2337.54 3840.96 2337.54 3838.7Z" fill="#878787"/>
<path id="512/Vector_677" d="M2313.96 3835.58C2314.74 3837.82 2315.36 3840.08 2315.84 3842.32C2318.6 3842.06 2321.16 3842.68 2322.78 3843.26C2322.2 3839.02 2321.2 3834.54 2319.6 3830.2L2313.96 3835.58Z" fill="#878787"/>
<path id="512/Vector_678" d="M2323.46 3857.64C2323.5 3856.62 2323.52 3855.5 2323.52 3854.32C2322.28 3853.78 2319.84 3852.92 2317.36 3853.22C2317.62 3857.08 2317.6 3860.56 2317.46 3863.3L2323.46 3857.64Z" fill="#878787"/>
<path id="512/Vector_679" d="M2323.5 3852.16C2323.44 3850.1 2323.32 3847.86 2323.06 3845.54C2321.94 3845.06 2319.2 3844.08 2316.24 3844.32C2316.68 3846.7 2317 3849.02 2317.2 3851.26C2319.62 3851 2321.94 3851.6 2323.48 3852.18L2323.5 3852.16Z" fill="#878787"/>
<path id="512/Vector_680" d="M2337.5 3836.54C2337.44 3834.48 2337.32 3832.24 2337.06 3829.92C2335.94 3829.44 2333.18 3828.46 2330.22 3828.7C2330.88 3831.02 2331.38 3833.32 2331.76 3835.58C2333.98 3835.46 2336.06 3836.02 2337.48 3836.56L2337.5 3836.54Z" fill="#878787"/>
<path id="512/Vector_681" d="M2315.32 3865.32C2315.74 3859.42 2315.88 3848.02 2312.34 3837.12L2307.08 3842.14C2310.56 3853.02 2310.48 3864.14 2310.06 3870.26L2315.3 3865.32H2315.32Z" fill="#878787"/>
<path id="512/Vector_682" d="M2327.98 3822.2C2328.62 3823.7 2329.18 3825.2 2329.66 3826.72C2332.48 3826.4 2335.14 3827.04 2336.8 3827.64C2336.3 3823.94 2335.48 3820.06 2334.2 3816.24L2327.98 3822.18V3822.2Z" fill="#878787"/>
</g>
<g id="512/Cover">
<path id="512/Vector_683" d="M2516.02 3508.14C2516.02 3507.4 2515.36 3506.78 2514.56 3506.78C2513.96 3506.78 2513.44 3507.12 2513.22 3507.6C2512.72 3507.74 2512.3 3508.06 2512.06 3508.48C2484.98 3511.3 2458.74 3497.14 2458.46 3496.98L2457.5 3498.74C2457.74 3498.88 2479.92 3510.86 2504.76 3510.86C2505.86 3510.86 2506.96 3510.8 2508.06 3510.76C2483.62 3517.62 2457.96 3510.84 2457.68 3510.76L2457.16 3512.68C2457.34 3512.74 2468.96 3515.8 2484.08 3515.8C2493.26 3515.8 2503.7 3514.64 2513.68 3511C2513.72 3511 2513.76 3511.02 2513.8 3511.02C2514.9 3511.02 2515.78 3510.22 2515.78 3509.24C2515.78 3509.12 2515.72 3509 2515.7 3508.9C2515.88 3508.68 2516 3508.42 2516 3508.12L2516.02 3508.14Z" fill="white"/>
<path id="512/Vector_684" d="M2534.6 3531.6C2532.42 3528.52 2529.94 3525.34 2527.16 3522.24C2527.2 3528.84 2526.66 3534.78 2525.96 3539.56L2534.6 3531.6Z" fill="white"/>
<path id="512/Vector_685" d="M2515.58 3509.1C2518.98 3511.54 2522.12 3514.26 2525 3517.1C2524.72 3512.36 2524.1 3507.36 2522.96 3502.3L2515.58 3509.1Z" fill="white"/>
<path id="512/Vector_686" d="M2516.4 3512.18C2520.7 3521.62 2522.86 3531.58 2523.88 3540.16C2524.7 3534.82 2525.36 3527.84 2525.14 3520.06C2522.48 3517.3 2519.56 3514.62 2516.4 3512.18Z" fill="white"/>
<path id="512/Vector_687" d="M2269.92 3775.96L2522.18 3543.08C2521.28 3533.52 2518.98 3521.76 2513.6 3510.94L2249.42 3754.82C2254.28 3757.44 2263.94 3763.9 2269.92 3775.96Z" fill="white"/>
<path id="512/Vector_688" d="M2557.16 3490.5C2548.1 3480.04 2543.58 3483.24 2543.58 3483.24L2537.9 3488.48C2541.44 3490.52 2545.8 3494.58 2548.04 3497C2550.16 3499.3 2555.2 3505.64 2557.2 3508.86C2557.48 3509.3 2557.68 3509.7 2557.9 3510.1L2563.56 3504.86C2563.56 3504.86 2566.24 3500.94 2557.18 3490.48L2557.16 3490.5Z" fill="white"/>
<path id="512/Vector_689" d="M2555.5 3509.94C2553.56 3506.82 2548.64 3500.62 2546.58 3498.38C2542.76 3494.24 2538.76 3491.22 2536.38 3489.92L2524.66 3500.74C2526.18 3507.12 2526.9 3513.4 2527.12 3519.26C2530.52 3522.88 2533.52 3526.62 2536.1 3530.26L2556.4 3511.52C2556.18 3511.06 2555.9 3510.56 2555.52 3509.94H2555.5Z" fill="white"/>
<path id="512/Vector_690" d="M2247.04 3756.82C2246.4 3756.72 2246.02 3756.72 2246.02 3756.72L2242.54 3759.94C2242.04 3760.4 2241.88 3761.12 2242.14 3761.76C2247.58 3774.76 2258.48 3781.62 2262.24 3783.68C2263 3784.1 2263.96 3783.98 2264.6 3783.4L2268.76 3779.56C2268.76 3779.56 2268.78 3779.46 2268.76 3779.34C2262.56 3765.58 2251.04 3758.82 2247.06 3756.82H2247.04ZM2262.26 3781.78C2261.42 3782.56 2256.72 3778.82 2251.74 3773.44C2246.78 3768.06 2243.42 3763.08 2244.26 3762.3C2245.1 3761.52 2249.8 3765.26 2254.78 3770.64C2259.76 3776.02 2263.1 3781 2262.26 3781.78Z" fill="white"/>
</g>
</g>
</g>
</svg>
