<svg width="512" height="512" viewBox="2816 3456 512 512" fill="none" xmlns="http://www.w3.org/2000/svg">
<defs xmlns="http://www.w3.org/2000/svg">
<clipPath id="clip0_268_10729">
<rect width="512" height="512" fill="white" transform="translate(256 256)"/>
</clipPath>
<clipPath id="clip1_268_10729">
<rect width="512" height="512" fill="white" transform="translate(896 256)"/>
</clipPath>
<clipPath id="clip2_268_10729">
<rect width="512" height="512" fill="white" transform="translate(1536 256)"/>
</clipPath>
<clipPath id="clip3_268_10729">
<rect width="512" height="512" fill="white" transform="translate(2176 256)"/>
</clipPath>
<clipPath id="clip4_268_10729">
<rect width="512" height="512" fill="white" transform="translate(2816 256)"/>
</clipPath>
<clipPath id="clip5_268_10729">
<rect width="512" height="512" fill="white" transform="translate(3456 256)"/>
</clipPath>
<clipPath id="clip6_268_10729">
<rect width="592.227" height="238.456" fill="white" transform="translate(3418.64 638.171) rotate(-45)"/>
</clipPath>
<clipPath id="clip7_268_10729">
<rect width="512" height="512" fill="white" transform="translate(4096 256)"/>
</clipPath>
<clipPath id="clip8_268_10729">
<rect width="512" height="512" fill="white" transform="translate(4736 256)"/>
</clipPath>
<clipPath id="clip9_268_10729">
<rect width="116.168" height="650.538" fill="white" transform="translate(4802 782) rotate(-135)"/>
</clipPath>
<clipPath id="clip10_268_10729">
<rect width="512" height="512" fill="white" transform="translate(5376 256)"/>
</clipPath>
<clipPath id="clip11_268_10729">
<rect width="512" height="512" fill="white" transform="translate(6016 256)"/>
</clipPath>
<clipPath id="clip12_268_10729">
<rect width="512" height="512" fill="white" transform="translate(4736 2816)"/>
</clipPath>
</defs>
<g xmlns="http://www.w3.org/2000/svg" id="512/Katana Type 02">
<g id="512/Katana Type 02_2">
<g id="512/Handle_57">
<path id="512/Vector_691" d="M2897.78 3901.18L2878.88 3917.7C2879.88 3920.02 2882.68 3925.1 2889.02 3929.2L2908.08 3912.38C2902.18 3908.58 2899.16 3904 2897.78 3901.18ZM2884.24 3923.7L2882.68 3916.82L2888.62 3919.34L2890.44 3925.86L2884.22 3923.7H2884.24ZM2889.88 3918.16L2888.32 3911.28L2894.26 3913.8L2896.08 3920.32L2889.86 3918.16H2889.88ZM2896.02 3912.4L2894.46 3905.52L2900.4 3908.04L2902.22 3914.56L2896 3912.4H2896.02Z" fill="#878787"/>
<path id="512/Vector_692" d="M2877.3 3919.1L2873.48 3922.44C2874.88 3925.2 2877.98 3929.86 2884.18 3933.5L2887.48 3930.6C2881.44 3926.58 2878.54 3921.8 2877.3 3919.12V3919.1Z" fill="#878787"/>
<path id="512/Vector_693" d="M2902.16 3897.38L2899.38 3899.82C2900.58 3902.38 2903.5 3907.18 2909.66 3911.02L2912.52 3908.5C2906.64 3904.76 2903.6 3900.24 2902.16 3897.38Z" fill="#878787"/>
<path id="512/Vector_694" d="M2972.98 3855.16L2978.5 3850.3L2967.98 3839.84L2962.98 3844.22C2964.2 3846.78 2967.06 3851.42 2973 3855.18L2972.98 3855.16Z" fill="#878787"/>
<path id="512/Vector_695" d="M2927 3875.66L2908.14 3892.14C2909.12 3894.42 2911.88 3899.46 2918.14 3903.54L2937.38 3886.58C2931.6 3882.94 2928.54 3878.54 2927.02 3875.64L2927 3875.66ZM2929.8 3882.34L2931.62 3888.86L2925.4 3886.7L2923.84 3879.82L2929.78 3882.34H2929.8ZM2913.92 3897.56L2912.36 3890.68L2918.3 3893.2L2920.12 3899.72L2913.9 3897.56H2913.92ZM2919.52 3892.42L2917.96 3885.54L2923.9 3888.06L2925.72 3894.58L2919.5 3892.42H2919.52Z" fill="#878787"/>
<path id="512/Vector_696" d="M2906.54 3893.52L2903.72 3895.98C2904.98 3898.6 2907.94 3903.34 2914.06 3907.1L2916.56 3904.9C2910.62 3900.9 2907.76 3896.18 2906.54 3893.5V3893.52Z" fill="#878787"/>
<path id="512/Vector_697" d="M2956.32 3850.02L2952.48 3853.38C2953.84 3856.08 2956.82 3860.6 2962.74 3864.2L2966.18 3861.16C2960.44 3857.28 2957.6 3852.72 2956.32 3850.02Z" fill="#878787"/>
<path id="512/Vector_698" d="M2961.4 3845.6L2957.9 3848.66C2958.96 3851.04 2961.74 3855.86 2967.74 3859.8L2971.42 3856.56C2965.74 3852.84 2962.8 3848.4 2961.4 3845.6Z" fill="#878787"/>
<path id="512/Vector_699" d="M2950.92 3854.76L2932.64 3870.74C2934.2 3873.6 2937.38 3877.94 2943.32 3881.34L2961.18 3865.58C2955.48 3861.98 2952.44 3857.64 2950.92 3854.76ZM2954.12 3860.8L2955.94 3867.32L2949.72 3865.16L2948.16 3858.28L2954.1 3860.8H2954.12ZM2938.32 3876.24L2936.76 3869.36L2942.7 3871.88L2944.52 3878.4L2938.3 3876.24H2938.32ZM2944.14 3870.7L2942.58 3863.82L2948.52 3866.34L2950.34 3872.86L2944.12 3870.7H2944.14Z" fill="#878787"/>
<path id="512/Vector_700" d="M2871.92 3923.8L2864.62 3930.18C2863.16 3931.44 2863.1 3933.68 2864.5 3935.02L2868.7 3939.1C2871.14 3941.48 2875 3941.58 2877.56 3939.32L2882.6 3934.88C2876.64 3931.22 2873.48 3926.76 2871.92 3923.8Z" fill="#878787"/>
<path id="512/Vector_701" d="M2985.8 3846.46C2983.46 3844.3 2980.34 3841.38 2978.9 3839.88C2976.9 3837.8 2972.44 3832.62 2970.82 3830.72L2969.36 3829.12C2968.2 3827.86 2966.22 3827.86 2965.06 3829.12L2964.88 3829.32C2963.82 3830.46 2963.8 3832.24 2964.86 3833.4L2968.98 3838L2980.02 3848.96H2980.04L2985.14 3854.04C2986.24 3855.14 2988.02 3855.12 2989.1 3854L2989.2 3853.88C2990.36 3852.7 2990.32 3850.78 2989.14 3849.64L2985.82 3846.44L2985.8 3846.46Z" fill="#878787"/>
<path id="512/Vector_702" d="M2931.08 3872.08L2928.56 3874.28C2929.9 3876.98 2932.92 3881.56 2938.92 3885.2L2941.74 3882.72C2935.98 3879.28 2932.78 3875.06 2931.1 3872.08H2931.08Z" fill="#878787"/>
</g>
<g id="512/Blade_49">
<g id="512/Group_29">
<path id="512/Vector_703" d="M3005.8 3829.32C3005.8 3829.1 3005.72 3828.86 3005.56 3828.68L2992.2 3814.74C2991.86 3814.38 2991.3 3814.38 2990.94 3814.72C2990.58 3815.06 2990.58 3815.62 2990.92 3815.98L3004.28 3829.92C3004.62 3830.28 3005.18 3830.28 3005.54 3829.94C3005.72 3829.78 3005.8 3829.54 3005.82 3829.32H3005.8Z" fill="white"/>
</g>
<path id="512/Vector_704" d="M2979.08 3829.86C2979.96 3829.82 2982.02 3829.72 2982.02 3829.72C2984.18 3829.7 2986.42 3829.62 2988.68 3829.58C2988.86 3829.2 2989.22 3828.92 2989.64 3828.84C2989.68 3827.28 2989.72 3825.78 2989.8 3824.48C2990 3822.92 2990.02 3821.14 2990.28 3819.56C2985.22 3824.22 2981.38 3827.76 2979.08 3829.88V3829.86Z" fill="white"/>
<path id="512/Vector_705" d="M2989.48 3837.64C2989.54 3835.84 2989.56 3833.68 2989.58 3831.5C2989.06 3831.36 2988.68 3830.94 2988.58 3830.4C2987.7 3830.38 2982 3830.24 2982 3830.24C2981.28 3830.24 2979.9 3830.2 2978.72 3830.2C2977.92 3830.94 2977.34 3831.46 2977 3831.78C2978.76 3833.8 2980.7 3835.98 2981.78 3837.14C2982.92 3838.32 2985.24 3840.52 2987.32 3842.46C2987.76 3842.08 2988.48 3841.46 2989.46 3840.6C2989.46 3839.76 2989.46 3837.66 2989.46 3837.66L2989.48 3837.64Z" fill="white"/>
<path id="512/Vector_706" d="M2991.28 3830.48C2991.18 3830.96 2990.84 3831.34 2990.4 3831.48C2990.24 3833.58 2990.08 3835.64 2989.98 3837.66C2989.96 3838.02 2989.88 3839.26 2989.82 3840.3C2992.34 3838.12 2996.32 3834.64 3001.4 3830.22C2998.18 3830.68 2994.7 3830.6 2991.3 3830.5L2991.28 3830.48Z" fill="white"/>
<path id="512/Vector_707" d="M2991.38 3818.54C2991.16 3818.74 2990.94 3818.94 2990.74 3819.14C2990.92 3822.32 2990.78 3825.62 2990.58 3828.94C2990.84 3829.08 2991.06 3829.3 2991.2 3829.56C2994.72 3829.54 2998.24 3829.62 3001.58 3830.06C3001.74 3829.92 3001.9 3829.78 3002.06 3829.64L2991.42 3818.54H2991.38Z" fill="white"/>
<path id="512/Vector_708" d="M3288.66 3511.3C3288.66 3511.3 3261.56 3546.62 3224.8 3588.08C3193.9 3622.92 3155.48 3661.96 3127.62 3689.52C3084.06 3732.58 3024.32 3788.16 2994.74 3815.48L3005.46 3826.66C3035.9 3799.98 3094.64 3747.9 3111.42 3728.58C3134.38 3702.12 3292.78 3563.94 3288.66 3511.32V3511.3Z" fill="white"/>
</g>
<g id="512/Cover_2">
<path id="512/Vector_709" d="M3221.42 3499.96C3213.8 3509.28 3201.3 3524.36 3187.66 3540C3167.04 3563.64 3143.64 3588.52 3134.72 3598.1C3116.2 3618 3059.72 3677.96 3017.46 3718.12C2997.04 3737.52 2914.76 3812.88 2914.76 3812.88C2920.54 3823.02 2926.54 3826.48 2926.54 3826.48C2926.54 3826.48 2959.88 3798.32 2997.64 3762.88C3040.46 3722.68 3089.36 3673.54 3109.14 3653.26C3139.96 3621.68 3210.56 3539.86 3234 3512.58C3232.78 3510.5 3228.06 3503.08 3221.42 3499.98V3499.96ZM3204.1 3533.22L3202.54 3526.34L3208.48 3528.86L3210.3 3535.38L3204.08 3533.22H3204.1ZM3212.96 3523.34L3211.4 3516.46L3217.34 3518.98L3219.16 3525.5L3212.94 3523.34H3212.96ZM3220.7 3513.64L3219.14 3506.76L3225.08 3509.28L3226.9 3515.8L3220.68 3513.64H3220.7Z" fill="white"/>
<path id="512/Vector_710" d="M3240.64 3499.92C3238.62 3495.2 3234.84 3492.74 3232.16 3491.54C3230.46 3490.78 3228.48 3491.28 3227.3 3492.72C3226.22 3494.06 3224.64 3496 3222.72 3498.38C3229.18 3501.58 3233.72 3508.22 3235.38 3510.96C3237.22 3508.82 3238.68 3507.1 3239.76 3505.86C3241.18 3504.22 3241.5 3501.9 3240.64 3499.92Z" fill="white"/>
<path id="512/Vector_711" d="M2920.46 3832.64C2920.46 3832.64 2910.34 3824.48 2908.52 3817.96L2912.76 3814.7C2912.76 3814.7 2917.52 3823.66 2924.94 3828.62C2924.94 3828.62 2922.22 3832.38 2920.48 3832.64H2920.46Z" fill="white"/>
</g>
</g>
</g>
</svg>
