<svg width="512" height="512" viewBox="3456 2816 512 512" fill="none" xmlns="http://www.w3.org/2000/svg">
<defs xmlns="http://www.w3.org/2000/svg">
<clipPath id="clip0_268_10729">
<rect width="512" height="512" fill="white" transform="translate(256 256)"/>
</clipPath>
<clipPath id="clip1_268_10729">
<rect width="512" height="512" fill="white" transform="translate(896 256)"/>
</clipPath>
<clipPath id="clip2_268_10729">
<rect width="512" height="512" fill="white" transform="translate(1536 256)"/>
</clipPath>
<clipPath id="clip3_268_10729">
<rect width="512" height="512" fill="white" transform="translate(2176 256)"/>
</clipPath>
<clipPath id="clip4_268_10729">
<rect width="512" height="512" fill="white" transform="translate(2816 256)"/>
</clipPath>
<clipPath id="clip5_268_10729">
<rect width="512" height="512" fill="white" transform="translate(3456 256)"/>
</clipPath>
<clipPath id="clip6_268_10729">
<rect width="592.227" height="238.456" fill="white" transform="translate(3418.64 638.171) rotate(-45)"/>
</clipPath>
<clipPath id="clip7_268_10729">
<rect width="512" height="512" fill="white" transform="translate(4096 256)"/>
</clipPath>
<clipPath id="clip8_268_10729">
<rect width="512" height="512" fill="white" transform="translate(4736 256)"/>
</clipPath>
<clipPath id="clip9_268_10729">
<rect width="116.168" height="650.538" fill="white" transform="translate(4802 782) rotate(-135)"/>
</clipPath>
<clipPath id="clip10_268_10729">
<rect width="512" height="512" fill="white" transform="translate(5376 256)"/>
</clipPath>
<clipPath id="clip11_268_10729">
<rect width="512" height="512" fill="white" transform="translate(6016 256)"/>
</clipPath>
<clipPath id="clip12_268_10729">
<rect width="512" height="512" fill="white" transform="translate(4736 2816)"/>
</clipPath>
</defs>
<g xmlns="http://www.w3.org/2000/svg" id="512/Keule">
<g id="512/Keule_2">
<g id="512/Handle_49">
<path id="512/Vector_545" d="M3594.72 3167.7C3600.66 3170.18 3607.1 3172.6 3613.76 3174.66C3613.74 3163.32 3615.58 3151.36 3618.1 3140.38C3613.9 3145.38 3605.34 3155.5 3594.74 3167.7H3594.72Z" fill="#878787"/>
<path id="512/Vector_546" d="M3614.62 3186.86C3614.14 3183.66 3613.88 3180.36 3613.8 3176.98C3606.58 3174.76 3599.6 3172.12 3593.24 3169.42C3591.04 3171.96 3588.74 3174.56 3586.4 3177.24C3595.02 3180.86 3604.76 3184.4 3614.62 3186.86Z" fill="#878787"/>
<path id="512/Vector_547" d="M3704.36 3127.76C3684.9 3127.76 3659.82 3119.42 3642.88 3111.94C3641.46 3111.32 3639.78 3111.68 3638.78 3112.86C3627.56 3126 3622.72 3135.08 3621.22 3136.7C3618.24 3148.86 3615.88 3162.56 3615.96 3175.34C3627.98 3178.9 3640.54 3181.16 3651.72 3180.34C3671.22 3163.84 3696.5 3146.98 3717.24 3130.34C3718.36 3129.44 3717.68 3127.62 3716.24 3127.68C3712.12 3127.86 3707.06 3127.78 3704.38 3127.78L3704.36 3127.76Z" fill="#878787"/>
<path id="512/Vector_548" d="M3616 3177.64C3616.1 3180.98 3616.38 3184.26 3616.88 3187.4C3624.72 3189.24 3632.58 3190.34 3639.98 3190.26C3642.96 3187.74 3645.96 3185.2 3649 3182.62C3648.24 3182.64 3647.48 3182.66 3646.7 3182.66C3636.82 3182.66 3626.22 3180.62 3616 3177.64Z" fill="#878787"/>
<path id="512/Vector_549" d="M3584.9 3178.94C3574.78 3190.42 3561.1 3202.24 3550.2 3213.36C3549.24 3214.34 3549.66 3215.96 3550.96 3216.38C3566.14 3221.44 3586.5 3225.44 3600.74 3223.98C3602.64 3223.78 3604.38 3222.94 3605.78 3221.64C3611.04 3216.72 3615 3211.54 3621.3 3206.16C3618.18 3201.2 3616.16 3195.44 3615.02 3189.2C3604.44 3186.62 3594.02 3182.8 3584.9 3178.92V3178.94Z" fill="#878787"/>
<path id="512/Vector_550" d="M3617.3 3189.76C3618.38 3195.3 3620.18 3200.4 3622.88 3204.82C3627.62 3200.78 3632.5 3196.64 3637.48 3192.4C3630.94 3192.26 3624.12 3191.28 3617.3 3189.76Z" fill="#878787"/>
</g>
<g id="512/Body_4">
<path id="512/Vector_551" d="M3591.28 3228.4C3577.18 3228.4 3561.72 3224.32 3547.92 3219.26C3544.1 3223.2 3540.38 3226.96 3536.86 3230.38C3503.26 3263.12 3531.96 3274.7 3531.96 3274.7C3531.96 3274.7 3541.1 3275.56 3548.28 3269.06C3548.7 3268.68 3567.54 3252.24 3595.48 3228.26C3594.1 3228.34 3592.7 3228.4 3591.28 3228.4Z" fill="white"/>
<path id="512/Vector_552" d="M3916.84 2938.86C3922.16 2938.04 3926.6 2937.28 3926.6 2937.28L3915.96 2931.18C3914.52 2921.4 3911.18 2907.38 3903.6 2897.3C3907.92 2888.12 3914.84 2873.3 3914.84 2873.3L3895.6 2889.52C3893.3 2887.96 3890.78 2886.7 3887.96 2885.86C3878.3 2882.98 3869.72 2882.4 3862.6 2882.82C3859.76 2877.18 3856.76 2869.24 3856.76 2869.24L3850.58 2884.66C3844.38 2886.26 3840.86 2888.22 3840.86 2888.22C3840.86 2888.22 3827.1 2897.48 3807.16 2915.5L3796.22 2909.04L3800.7 2921.48C3789.6 2931.9 3777.04 2944.72 3764.1 2959.88L3750.94 2953.12L3758.2 2966.92C3751.02 2975.66 3743.78 2985.08 3736.64 2995.2C3734.04 2998.9 3731.36 3002.62 3728.68 3006.32L3712.04 2997.76L3721.62 3015.94C3695.24 3051.38 3666.56 3085.38 3646.56 3108.28C3669.26 3118.44 3702.76 3129.72 3724.06 3119.92C3757.5 3092.46 3788.86 3067.5 3810.86 3051.7L3828.96 3062.72L3821.3 3044.42C3823.04 3043.24 3824.72 3042.14 3826.28 3041.16C3843.14 3030.44 3857.62 3018.12 3869.74 3005.92C3876.4 3009.26 3883.96 3012.92 3883.96 3012.92L3876.62 2998.72C3903.72 2969.4 3917.06 2942.66 3917.06 2942.66C3917.06 2942.66 3917.02 2941.24 3916.84 2938.88V2938.86ZM3767.24 3051.8C3771.24 3050.52 3775.34 3049.72 3779.46 3049.04C3778.88 3047.78 3778.32 3046.52 3777.82 3045.22C3773.46 3033.82 3780.74 3046.74 3782.38 3050.62C3777.36 3051.32 3772.34 3051.92 3767.24 3051.82V3051.8ZM3796.54 2969C3793.96 2967.18 3791.5 2965.22 3789.1 2963.18C3788.52 2968.18 3787.76 2973.18 3786.6 2978.08C3786.42 2971.8 3786.92 2965.5 3787.54 2959.26C3791.86 2962.92 3796.1 2966.72 3799.72 2971.08C3798.62 2970.44 3797.6 2969.7 3796.54 2969ZM3828.9 2906.04C3833.08 2909.86 3837.16 2913.82 3840.64 2918.3C3839.56 2917.62 3838.58 2916.84 3837.54 2916.1C3835.04 2914.18 3832.64 2912.12 3830.32 2910C3829.54 2914.98 3828.62 2919.94 3827.26 2924.8C3827.32 2918.52 3828.04 2912.24 3828.9 2906.02V2906.04ZM3827.04 3021.9C3827.96 3021.02 3828.96 3020.24 3829.9 3019.42C3832.36 3017.44 3834.92 3015.62 3837.54 3013.88C3832.9 3011.94 3828.3 3009.84 3823.9 3007.38C3830 3008.92 3835.9 3011.14 3841.74 3013.46C3837.04 3016.6 3832.2 3019.64 3827.02 3021.92L3827.04 3021.9ZM3843.7 2968.22C3844.76 2964.16 3846.28 2960.26 3847.92 2956.42C3846.54 2956.24 3845.18 2956.04 3843.8 2955.76C3831.84 2953.34 3846.64 2954.1 3850.78 2954.8C3848.68 2959.42 3846.5 2963.98 3843.68 2968.22H3843.7ZM3873.74 2903.42C3862.34 2907.76 3875.26 2900.5 3879.14 2898.88C3879.84 2903.9 3880.42 2908.92 3880.32 2914.02C3879.04 2910.02 3878.24 2905.92 3877.58 2901.8C3876.32 2902.38 3875.04 2902.94 3873.74 2903.44V2903.42ZM3884.44 2965.88C3885.36 2965 3886.36 2964.22 3887.3 2963.4C3889.76 2961.42 3892.32 2959.6 3894.94 2957.86C3890.3 2955.92 3885.7 2953.82 3881.3 2951.36C3887.4 2952.92 3893.3 2955.12 3899.14 2957.44C3894.44 2960.58 3889.6 2963.62 3884.42 2965.9L3884.44 2965.88Z" fill="white"/>
</g>
</g>
</g>
</svg>
