<svg width="512" height="512" viewBox="2816 2176 512 512" fill="none" xmlns="http://www.w3.org/2000/svg">
<defs xmlns="http://www.w3.org/2000/svg">
<clipPath id="clip0_268_10729">
<rect width="512" height="512" fill="white" transform="translate(256 256)"/>
</clipPath>
<clipPath id="clip1_268_10729">
<rect width="512" height="512" fill="white" transform="translate(896 256)"/>
</clipPath>
<clipPath id="clip2_268_10729">
<rect width="512" height="512" fill="white" transform="translate(1536 256)"/>
</clipPath>
<clipPath id="clip3_268_10729">
<rect width="512" height="512" fill="white" transform="translate(2176 256)"/>
</clipPath>
<clipPath id="clip4_268_10729">
<rect width="512" height="512" fill="white" transform="translate(2816 256)"/>
</clipPath>
<clipPath id="clip5_268_10729">
<rect width="512" height="512" fill="white" transform="translate(3456 256)"/>
</clipPath>
<clipPath id="clip6_268_10729">
<rect width="592.227" height="238.456" fill="white" transform="translate(3418.64 638.171) rotate(-45)"/>
</clipPath>
<clipPath id="clip7_268_10729">
<rect width="512" height="512" fill="white" transform="translate(4096 256)"/>
</clipPath>
<clipPath id="clip8_268_10729">
<rect width="512" height="512" fill="white" transform="translate(4736 256)"/>
</clipPath>
<clipPath id="clip9_268_10729">
<rect width="116.168" height="650.538" fill="white" transform="translate(4802 782) rotate(-135)"/>
</clipPath>
<clipPath id="clip10_268_10729">
<rect width="512" height="512" fill="white" transform="translate(5376 256)"/>
</clipPath>
<clipPath id="clip11_268_10729">
<rect width="512" height="512" fill="white" transform="translate(6016 256)"/>
</clipPath>
<clipPath id="clip12_268_10729">
<rect width="512" height="512" fill="white" transform="translate(4736 2816)"/>
</clipPath>
</defs>
<g xmlns="http://www.w3.org/2000/svg" id="512/Khunchomer">
<g id="512/Khunchomer_2">
<g id="512/Blade_35">
<path id="512/Vector_433" d="M3184.4 2262.58C3177.32 2297.84 3138.14 2359.5 3091.16 2412.64C3041.98 2468.28 2986.26 2515.96 2970.94 2528.78C2986.54 2536.58 2990.86 2549.86 2991.98 2558C3063.6 2500.22 3135.9 2443.38 3183.48 2390.34C3252.4 2313.52 3281.08 2250.08 3281.08 2250.08C3238.06 2280.38 3184.4 2262.6 3184.4 2262.6V2262.58ZM3088.84 2463.62C3060.86 2489.4 3030.88 2514.8 2999.02 2534.86C3059.44 2488.4 3119.06 2439.42 3165.8 2378.74L3166 2378.88C3143.2 2409.62 3116.92 2437.64 3088.84 2463.62ZM3180.4 2326.74C3175.54 2334.34 3170 2343.8 3164.96 2351.2C3161.02 2356.76 3152.36 2369.7 3148.28 2374.84C3135.52 2392 3119.88 2411.1 3105.5 2427.04C3071.24 2464.92 3033.1 2501.98 2991.24 2530.26C3035.5 2493.44 3077.78 2453.72 3116.26 2410.84C3123.58 2402.18 3134.04 2390.16 3140.78 2381.22C3144.08 2376.94 3149.46 2370.38 3152.5 2365.98C3156.28 2360.66 3165.8 2347.88 3169.12 2342.42C3171.72 2338.42 3177.02 2330.3 3179.62 2326.3C3183.24 2320.46 3190.54 2307.32 3194.06 2301.32L3194.38 2301.48C3190.92 2307.66 3183.82 2320.94 3180.4 2326.78V2326.74Z" fill="white"/>
</g>
<g id="512/Handle_38">
<path id="512/Vector_434" d="M2927.48 2515.68C2929.28 2515.96 2933.76 2516.36 2937.32 2513.92C2938.72 2512.96 2939.82 2511.66 2940.66 2510.04L2940.42 2509.88C2941.82 2506.38 2941.3 2502.26 2938.64 2499.24C2934.88 2494.98 2928.38 2494.58 2924.14 2498.34C2919.88 2502.1 2919.48 2508.6 2923.24 2512.84C2924.44 2514.2 2925.92 2515.14 2927.5 2515.7L2927.48 2515.68Z" fill="#878787"/>
<path id="512/Vector_435" d="M2898.08 2598.22C2901.14 2601.6 2902.74 2605.64 2903.6 2609.24C2904.54 2608.6 2905.5 2607.92 2906.54 2607.2C2904.68 2603.1 2901.36 2598.28 2895.56 2595.68C2895.5 2595.72 2895.46 2595.76 2895.4 2595.8C2896.36 2596.54 2897.26 2597.32 2898.08 2598.24V2598.22Z" fill="#878787"/>
<path id="512/Vector_436" d="M2878.4 2617.1C2877.06 2614.76 2874.54 2613.22 2870.96 2612.52C2870.96 2612.52 2870.96 2612.56 2870.96 2612.58C2869.04 2613.74 2861.14 2619.06 2866.2 2624.78C2868.68 2627.6 2874.14 2626.34 2879.52 2624C2879.78 2621.68 2879.6 2619.18 2878.4 2617.1Z" fill="#878787"/>
<path id="512/Vector_437" d="M2896.56 2599.58C2895.18 2598.06 2893.56 2596.8 2891.74 2595.82C2891.68 2595.78 2891.62 2595.74 2891.54 2595.72C2886.1 2593.26 2879.76 2593.86 2875.3 2597.78C2871.68 2600.98 2870.12 2605.68 2870.6 2610.38C2875.2 2611.14 2878.42 2613.04 2880.16 2616.1C2881.7 2618.8 2881.84 2621.94 2881.48 2624.72C2886.78 2626.86 2892.78 2626.18 2897.06 2622.42C2900.42 2619.46 2902 2615.18 2901.84 2610.82C2901.12 2607.2 2899.64 2602.98 2896.56 2599.58Z" fill="#878787"/>
<path id="512/Vector_438" d="M2942.44 2511C2941.46 2512.92 2940.12 2514.46 2938.44 2515.6C2936.84 2516.7 2935.1 2517.3 2933.46 2517.62C2931.76 2521 2932.22 2524.84 2935.04 2528.02C2938.54 2532 2944.42 2532.54 2948.64 2529.56C2950.8 2527.92 2952.26 2525.42 2952.96 2522.06C2953.18 2519.36 2952.36 2516.6 2950.44 2514.42C2948.34 2512.04 2945.38 2510.92 2942.44 2511Z" fill="#878787"/>
<path id="512/Vector_439" d="M2967.5 2531.64C2967.5 2531.64 2967.48 2531.66 2967.46 2531.68C2964.18 2530.32 2961.02 2529.86 2958.32 2530.36C2956.32 2530.9 2954.66 2531.84 2953.36 2533.2C2953.12 2533.44 2952.92 2533.7 2952.72 2533.96C2951.12 2536.4 2950.72 2539.72 2951.38 2543.42C2964.64 2549.44 2967.18 2559.82 2967.5 2565.66C2970.58 2567.56 2973.7 2568.76 2976.56 2569.14C2978.68 2569.34 2981.68 2569.22 2984.06 2567.58C2985.78 2566.38 2986.96 2564.52 2987.6 2562.02C2987.64 2561.86 2987.68 2561.7 2987.72 2561.52C2987.9 2560.72 2988.02 2559.88 2988.08 2558.98C2987.24 2551.6 2983.38 2538.76 2967.48 2531.64H2967.5Z" fill="#878787"/>
<path id="512/Vector_440" d="M2989.6 2568.5L2987.92 2566.46C2987.2 2567.58 2986.3 2568.5 2985.22 2569.24C2983.66 2570.32 2981.92 2570.84 2980.24 2571.06L2983.22 2574.86C2983.78 2573.6 2984.56 2572.32 2985.64 2571.2C2986.74 2570.04 2988.08 2569.14 2989.6 2568.48V2568.5Z" fill="#878787"/>
<path id="512/Vector_441" d="M2950.12 2530.98L2951.36 2532.4C2951.54 2532.2 2951.7 2531.98 2951.9 2531.78C2953.22 2530.38 2954.86 2529.36 2956.76 2528.68L2954.1 2525.46C2953.2 2527.76 2951.86 2529.6 2950.12 2530.98Z" fill="#878787"/>
<path id="512/Vector_442" d="M2952 2545.94C2950.6 2547.34 2949 2548.92 2947.2 2550.68C2955.8 2555.3 2959.22 2561.88 2960.52 2567.2L2964.98 2563.9C2965.14 2564.02 2965.3 2564.12 2965.46 2564.24C2964.88 2559.02 2962.2 2551.12 2952.02 2545.94H2952Z" fill="#878787"/>
<path id="512/Vector_443" d="M3005.9 2585.28C3004.9 2587.28 3003.54 2588.9 3001.82 2590.1C3000.12 2591.26 2998.28 2591.88 2996.54 2592.18L2996.62 2592.28C2995.52 2595.64 2996.14 2599.46 2998.64 2602.3C3002.4 2606.56 3008.9 2606.96 3013.14 2603.2C3017.4 2599.44 3017.8 2592.94 3014.04 2588.7C3011.9 2586.28 3008.9 2585.16 3005.92 2585.28H3005.9Z" fill="#878787"/>
<path id="512/Vector_444" d="M2928.34 2591.16C2928.22 2588.62 2927.66 2585.86 2926.24 2583.3C2924.68 2580.48 2922.26 2578.24 2919.04 2576.6C2913.46 2573.88 2906.7 2574.52 2901.9 2578.74C2897.42 2582.7 2895.9 2588.76 2897.36 2594.32C2902.86 2597.18 2906.2 2601.94 2908.16 2606.06C2908.24 2606 2908.32 2605.96 2908.4 2605.9C2913.44 2607.46 2919.06 2606.52 2923.2 2602.86C2926.64 2599.82 2928.3 2595.56 2928.28 2591.22C2928.3 2591.22 2928.32 2591.18 2928.34 2591.18V2591.16Z" fill="#878787"/>
<path id="512/Vector_445" d="M2995.08 2589.98L2995.28 2590.3C2997.02 2590.12 2998.96 2589.6 3000.66 2588.42C3001.76 2587.66 3002.7 2586.66 3003.44 2585.48L3003.2 2585.02C3005.44 2581.28 3005.16 2576.4 3002.12 2572.96C2999.26 2569.72 2994.84 2568.74 2991.02 2570.1C2989.48 2570.66 2988.18 2571.5 2987.12 2572.6C2985.84 2573.96 2985.04 2575.56 2984.56 2577.1C2983.7 2580.32 2984.36 2583.88 2986.72 2586.56C2988.9 2589.02 2992 2590.16 2995.06 2589.98H2995.08Z" fill="#878787"/>
<path id="512/Vector_446" d="M2945.66 2552.18C2945.66 2552.18 2945.54 2552.3 2945.46 2552.38C2940.96 2551.58 2936.22 2552.66 2932.6 2555.86C2928.86 2559.16 2927.22 2563.92 2927.58 2568.62C2930.96 2569.36 2933.68 2570.88 2935.62 2573.22C2937.94 2576.02 2938.9 2579.56 2939.16 2583.04C2944.18 2584.56 2949.76 2583.62 2953.9 2579.98C2957.08 2577.16 2958.74 2573.3 2958.94 2569.28C2958.1 2564.1 2955.1 2556.98 2945.66 2552.18Z" fill="#878787"/>
<path id="512/Vector_447" d="M2934.06 2574.5C2932.24 2572.3 2929.58 2570.94 2926.16 2570.4C2924.38 2571.98 2922.58 2573.6 2920.74 2575.2C2923.94 2577 2926.4 2579.36 2928.04 2582.32C2929.38 2584.72 2930.02 2587.26 2930.28 2589.64C2930.84 2589.2 2931.4 2588.76 2931.98 2588.32L2937.22 2584.44C2937.14 2580.9 2936.36 2577.22 2934.08 2574.48L2934.06 2574.5Z" fill="#878787"/>
</g>
</g>
</g>
</svg>
