<svg width="512" height="512" viewBox="896 3456 512 512" fill="none" xmlns="http://www.w3.org/2000/svg">
<defs xmlns="http://www.w3.org/2000/svg">
<clipPath id="clip0_268_10729">
<rect width="512" height="512" fill="white" transform="translate(256 256)"/>
</clipPath>
<clipPath id="clip1_268_10729">
<rect width="512" height="512" fill="white" transform="translate(896 256)"/>
</clipPath>
<clipPath id="clip2_268_10729">
<rect width="512" height="512" fill="white" transform="translate(1536 256)"/>
</clipPath>
<clipPath id="clip3_268_10729">
<rect width="512" height="512" fill="white" transform="translate(2176 256)"/>
</clipPath>
<clipPath id="clip4_268_10729">
<rect width="512" height="512" fill="white" transform="translate(2816 256)"/>
</clipPath>
<clipPath id="clip5_268_10729">
<rect width="512" height="512" fill="white" transform="translate(3456 256)"/>
</clipPath>
<clipPath id="clip6_268_10729">
<rect width="592.227" height="238.456" fill="white" transform="translate(3418.64 638.171) rotate(-45)"/>
</clipPath>
<clipPath id="clip7_268_10729">
<rect width="512" height="512" fill="white" transform="translate(4096 256)"/>
</clipPath>
<clipPath id="clip8_268_10729">
<rect width="512" height="512" fill="white" transform="translate(4736 256)"/>
</clipPath>
<clipPath id="clip9_268_10729">
<rect width="116.168" height="650.538" fill="white" transform="translate(4802 782) rotate(-135)"/>
</clipPath>
<clipPath id="clip10_268_10729">
<rect width="512" height="512" fill="white" transform="translate(5376 256)"/>
</clipPath>
<clipPath id="clip11_268_10729">
<rect width="512" height="512" fill="white" transform="translate(6016 256)"/>
</clipPath>
<clipPath id="clip12_268_10729">
<rect width="512" height="512" fill="white" transform="translate(4736 2816)"/>
</clipPath>
</defs>
<g xmlns="http://www.w3.org/2000/svg" id="512/Kompositbogen">
<g id="512/Kompositbogen_2">
<g id="512/Body_8">
<path id="512/Vector_604" d="M1153.64 3772.7C1150.8 3771.54 1148.4 3770.06 1146.38 3768.36C1145.38 3769.88 1142.58 3773.64 1138.82 3774.96C1139.56 3779.7 1138.42 3784.72 1135.12 3788.44C1134.98 3788.65 1134.94 3788.72 1134.74 3788.92C1133.22 3790.86 1131.76 3792.58 1131.04 3794.94C1129.14 3799.86 1135.52 3804.12 1139.5 3801.54C1141.36 3800.16 1141.62 3797.06 1140.2 3795.08C1138.58 3792.78 1135.16 3792.62 1134.84 3796.06C1134.62 3792.18 1138.9 3792.02 1140.98 3794.48C1142.86 3796.74 1142.92 3800.54 1140.52 3802.7C1138.02 3804.82 1134.46 3804.16 1131.9 3802.58C1129.22 3800.9 1128.14 3797.3 1129.12 3794.38C1129.44 3793.28 1129.92 3792.28 1130.5 3791.36C1128.9 3791.86 1127.2 3791.9 1125.54 3791.1C1121.26 3788.64 1119.34 3781.5 1123.76 3778.34C1129.34 3774.1 1134.34 3779.94 1128.38 3784.14C1129.56 3783.18 1130.68 3781.9 1130.8 3780.38C1130.9 3778.9 1129.74 3777.4 1128.26 3777.4C1125.32 3777.34 1122.4 3779.78 1122.24 3782.64C1122.12 3785.28 1123.78 3788.58 1126.16 3789.76C1128.6 3790.88 1131.68 3789.18 1133.56 3787.32C1133.56 3787.32 1133.58 3787.3 1133.6 3787.28C1139.18 3781.24 1138.76 3772.22 1134.22 3765.5C1136.22 3767.62 1137.6 3770.24 1138.34 3773.02C1141.62 3771.76 1144.14 3768.1 1144.8 3767.06C1140.96 3763.3 1138.7 3758.9 1137.46 3755.28C1135.8 3755.5 1133.26 3756.42 1131.02 3759.68C1127.38 3764.98 1123.74 3763.36 1123.74 3763.36C1123.74 3763.36 1120.96 3766.56 1123.34 3769.26C1123.34 3769.26 1113.1 3774.42 1116.48 3801.8C1119.86 3829.18 1081.96 3866.16 1061.28 3876.34C1050.72 3881.54 1039.88 3891.46 987.32 3899.98L975.24 3902.66C975.24 3902.66 973.34 3901.02 971.78 3905.08C971.64 3905.44 971.44 3905.78 971.22 3906.08C970.66 3907.18 969.52 3909.66 969.46 3912.08C969.42 3913.98 970.42 3915.98 971.94 3917.04V3917.08L973.86 3918.42C973.86 3918.42 977.14 3917.48 977.9 3914.76C978.66 3912.04 995.04 3911.16 995.04 3911.16C995.04 3911.16 1064.64 3901.36 1094.12 3878.3C1123.6 3855.24 1150.68 3808.7 1150.68 3808.7C1150.68 3808.7 1154.48 3800.04 1150.7 3795.14C1146.86 3793.86 1143.74 3791.38 1140.7 3788.82C1143.22 3790.36 1145.82 3791.72 1148.6 3792.64C1148.86 3792.72 1149.14 3792.8 1149.4 3792.88C1150.48 3792.32 1151.96 3791.1 1150.74 3788.84C1150.74 3788.84 1152.46 3788.68 1151.86 3787.42C1151.86 3787.42 1150.54 3786.78 1150.22 3786.54C1150.22 3786.54 1151.82 3787.5 1152.44 3787C1153.06 3786.5 1153.14 3786.06 1153.14 3786.06C1153.14 3786.06 1152.52 3785.44 1152.8 3784.86C1153.08 3784.28 1153.16 3783.64 1153.16 3783.64L1155.7 3783.28C1156.3 3783.28 1156.38 3782.16 1156.2 3781.58L1153.58 3772.8L1153.64 3772.7ZM1092.64 3868.44L1091.24 3867C1121.34 3837.82 1130.88 3809.96 1130.96 3809.68L1132.86 3810.32C1132.76 3810.6 1123.12 3838.88 1092.64 3868.44ZM1151.1 3775.76C1148.76 3777.02 1146.14 3775.32 1145.24 3773.1C1146.6 3773.34 1148.14 3774.08 1149.36 3774.16C1149.38 3773.42 1149.22 3772.7 1148.94 3771.88C1150.38 3772.24 1151.26 3773.76 1151.14 3775.24L1151.1 3775.74V3775.76Z" fill="white"/>
<path id="512/Vector_605" d="M961.72 3907.28C960.7 3907.16 959.12 3907.46 956.62 3908.62C948.96 3912.16 944.58 3920.14 944.58 3920.14C944.58 3920.14 944.58 3928.22 951 3926.18C955.42 3924.78 959.84 3921.16 962.16 3919.06C960.04 3913.96 961.14 3909.12 961.72 3907.26V3907.28Z" fill="white"/>
<path id="512/Vector_606" d="M1346.96 3526.18C1346.28 3525.76 1345.14 3525.76 1343.66 3526.18C1341.66 3526.76 1340.2 3527.38 1338.28 3528.48C1338.22 3528.72 1338.16 3528.96 1338.1 3529.2L1335.52 3534.6C1340.52 3530.06 1344.4 3528.78 1346.38 3528.46L1347.52 3526.92C1347.46 3526.74 1347.3 3526.42 1346.94 3526.18H1346.96Z" fill="white"/>
<path id="512/Vector_607" d="M1356.18 3505.56C1356.18 3505.56 1343.14 3512.68 1338.96 3525.84C1340.3 3525.18 1341.56 3524.7 1343.1 3524.26C1345.22 3523.66 1346.88 3523.74 1348.08 3524.54C1348.38 3524.74 1348.62 3524.96 1348.8 3525.2L1359.44 3510.82C1359.44 3510.82 1362.96 3505.32 1356.16 3505.56H1356.18Z" fill="white"/>
<path id="512/Vector_608" d="M1347.7 3530.3V3530.34C1347.7 3530.34 1341.54 3530.12 1332.78 3540.32L1324.5 3557.62C1324.5 3557.62 1282.76 3660.04 1270.36 3672.14C1256.5 3685.66 1246.68 3702.84 1210.58 3700.24C1182.96 3698.24 1183.72 3704.34 1185.6 3707.32C1184.02 3705.72 1181.3 3704.08 1179.6 3709.34C1178.42 3712.96 1177.96 3714.72 1177.8 3715.6C1179.96 3716.68 1182.24 3718.14 1184.42 3720.06C1184.6 3719.68 1184.8 3719.58 1185 3719.4C1188.48 3717.94 1192.26 3718.9 1195.86 3718.84C1198.7 3718.84 1201.74 3719.32 1204.4 3718.26C1206.82 3717.08 1208.62 3714.18 1208.22 3711.46C1207.84 3708.44 1204.52 3707.12 1201.78 3707.12C1198.42 3707.3 1198.44 3711.64 1198.74 3714.18C1198.3 3711.58 1198.2 3707.02 1201.76 3706.74C1203.8 3706.7 1205.94 3707.14 1207.46 3708.56C1210.72 3711.74 1208.54 3717.36 1204.88 3719.24C1204.36 3719.44 1203.84 3719.56 1203.32 3719.7C1204.6 3722.12 1205.8 3724.6 1206.56 3727.22C1210.16 3728.64 1221.04 3732.28 1230.42 3728.98C1241.84 3724.94 1282.08 3706.2 1305.98 3641.14C1329.88 3576.06 1339.92 3551.1 1339.92 3551.1C1339.92 3551.1 1341.36 3544.8 1347.2 3538.84C1351.94 3533.98 1349 3531.14 1347.76 3530.26L1347.7 3530.3ZM1221.94 3717.02L1221.58 3715.06C1221.9 3715 1253.94 3708.96 1281.06 3677.06L1282.58 3678.36C1254.96 3710.82 1222.24 3716.96 1221.92 3717.02H1221.94Z" fill="white"/>
<path id="512/Vector_609" d="M1203.24 3719.76C1197.7 3721.2 1191.54 3719.36 1186.1 3720.98C1186.16 3720.96 1186.22 3720.78 1186.22 3720.66L1185.78 3721.34C1187.98 3723.56 1189.94 3726.34 1191.38 3729.74C1191.46 3729.7 1191.52 3729.66 1191.6 3729.62L1195.98 3732.6C1196.24 3732.78 1196.58 3732.58 1196.56 3732.26L1196.38 3729.78C1196.38 3729.78 1198.18 3730.32 1198.78 3731.22C1199.24 3731.92 1199.96 3729.98 1200.26 3729.06C1200.08 3729.66 1199.86 3730.64 1200.24 3730.64C1200.78 3730.64 1203.52 3730.1 1204.38 3730.58C1204.88 3730.86 1205.1 3729.5 1205.2 3728.32C1205 3725.42 1204.14 3722.5 1203.24 3719.76ZM1194.5 3726.3C1194.46 3726.98 1193.84 3727.88 1193.04 3727.64C1193.4 3727 1193.04 3726.76 1192.94 3726.4C1192.28 3725.02 1191.7 3723.9 1191.76 3722.08C1193.58 3722.78 1194.64 3724.4 1194.5 3726.3Z" fill="white"/>
</g>
<g id="512/Handle_54">
<path id="512/Vector_610" d="M1164.54 3743.8C1167.42 3744 1170.22 3743.38 1172.82 3742.22C1173.52 3741.9 1174.22 3741.54 1174.84 3741.16C1175.88 3740.24 1176.96 3739.32 1178.08 3738.4C1179.2 3737.48 1178.74 3735.76 1177.38 3735.56C1176.58 3735.44 1175.78 3735.24 1175 3735C1177.86 3735.4 1180.7 3735 1183.38 3734.04C1184.18 3733.76 1184.98 3733.4 1185.68 3733.02C1186.4 3732.56 1187.12 3732.12 1187.88 3731.7C1185.02 3724.66 1179.66 3720.9 1175.34 3718.92L1169.78 3724.52C1168.42 3725.88 1168.94 3728.26 1170.78 3728.84C1172.24 3729.3 1173.78 3729.58 1175.32 3729.62C1173.22 3729.92 1171.08 3729.8 1169 3729.34C1166.92 3728.88 1164.8 3729.54 1163.32 3731.02L1161.82 3732.52C1160.86 3733.48 1161.16 3735.16 1162.42 3735.66C1164.24 3736.38 1166.16 3736.8 1168.12 3736.86C1165.76 3737.2 1163.34 3737 1161.02 3736.38C1159.56 3736 1158.02 3736.38 1156.96 3737.44L1154.48 3739.94C1153.12 3741.32 1153.56 3743.7 1155.36 3744.38C1157.16 3745.06 1158.98 3745.44 1160.88 3745.5C1158.56 3745.84 1156.2 3745.66 1153.92 3745.08C1151.64 3744.5 1149.26 3745.18 1147.62 3746.84L1145.7 3748.76C1144.84 3749.64 1145.12 3751.16 1146.28 3751.58C1148 3752.22 1149.84 3752.62 1151.68 3752.66C1148.72 3753.08 1145.66 3752.66 1142.82 3751.64L1142.4 3752.06C1141.6 3752.86 1141.34 3754.04 1141.74 3755.08C1143.5 3759.64 1147.1 3765.46 1154.4 3768.7C1154.84 3767.72 1155.44 3766.48 1156.18 3765.08C1156.52 3764.44 1156.04 3763.64 1155.3 3763.7C1154.04 3763.78 1153.4 3763.3 1151.34 3762.9C1154.22 3762.96 1154.16 3763.16 1156.7 3761.9C1157.36 3761.56 1158.02 3761.18 1158.62 3760.78C1159.56 3759.24 1160.62 3757.58 1161.82 3755.86C1162.28 3755.2 1161.7 3754.34 1160.92 3754.5C1159.2 3754.82 1157.46 3754.9 1155.74 3754.7C1158.62 3754.54 1161.34 3753.6 1163.78 3752.14C1164.4 3751.76 1165 3751.34 1165.56 3750.92C1167.02 3749.12 1168.64 3747.26 1170.42 3745.42C1170.88 3744.94 1170.52 3744.16 1169.86 3744.2C1168.08 3744.32 1166.28 3744.2 1164.56 3743.78L1164.54 3743.8Z" fill="#878787"/>
<path id="512/Vector_611" d="M977.4 3899.92L998.9 3879.16L1316.72 3550.9C1316.72 3550.9 1325.38 3538.68 1332.76 3532.08C1337.92 3527.46 1344.04 3525.94 1345.06 3525.78C1348.72 3525.22 1347.62 3529.66 1347.62 3529.66C1347.62 3529.66 1347 3528.22 1345.28 3528.74C1342.48 3529.58 1338.82 3531.76 1336.96 3533.2C1333.96 3535.54 1323.32 3548.5 1323.32 3548.5L1327.36 3547.22L1325.1 3551.7L1320.16 3553.46C1320.16 3553.46 1319.58 3557.18 1316.46 3557.38L1069.66 3811.88L993.4 3890.24C993.4 3890.24 993.32 3894.98 989.32 3894.7L985.24 3898.12L977.38 3899.92H977.4Z" fill="#878787"/>
<path id="512/Vector_612" d="M971.08 3917.4C971.08 3917.4 963.92 3924.9 962.96 3914.12C962 3903.36 970.16 3905.64 970.16 3905.64C970.16 3905.64 963.7 3913.8 971.1 3917.38L971.08 3917.4Z" fill="#878787"/>
</g>
</g>
</g>
</svg>
