<svg width="512" height="512" viewBox="1536 256 512 512" fill="none" xmlns="http://www.w3.org/2000/svg">
<defs xmlns="http://www.w3.org/2000/svg">
<clipPath id="clip0_268_10729">
<rect width="512" height="512" fill="white" transform="translate(256 256)"/>
</clipPath>
<clipPath id="clip1_268_10729">
<rect width="512" height="512" fill="white" transform="translate(896 256)"/>
</clipPath>
<clipPath id="clip2_268_10729">
<rect width="512" height="512" fill="white" transform="translate(1536 256)"/>
</clipPath>
<clipPath id="clip3_268_10729">
<rect width="512" height="512" fill="white" transform="translate(2176 256)"/>
</clipPath>
<clipPath id="clip4_268_10729">
<rect width="512" height="512" fill="white" transform="translate(2816 256)"/>
</clipPath>
<clipPath id="clip5_268_10729">
<rect width="512" height="512" fill="white" transform="translate(3456 256)"/>
</clipPath>
<clipPath id="clip6_268_10729">
<rect width="592.227" height="238.456" fill="white" transform="translate(3418.64 638.171) rotate(-45)"/>
</clipPath>
<clipPath id="clip7_268_10729">
<rect width="512" height="512" fill="white" transform="translate(4096 256)"/>
</clipPath>
<clipPath id="clip8_268_10729">
<rect width="512" height="512" fill="white" transform="translate(4736 256)"/>
</clipPath>
<clipPath id="clip9_268_10729">
<rect width="116.168" height="650.538" fill="white" transform="translate(4802 782) rotate(-135)"/>
</clipPath>
<clipPath id="clip10_268_10729">
<rect width="512" height="512" fill="white" transform="translate(5376 256)"/>
</clipPath>
<clipPath id="clip11_268_10729">
<rect width="512" height="512" fill="white" transform="translate(6016 256)"/>
</clipPath>
<clipPath id="clip12_268_10729">
<rect width="512" height="512" fill="white" transform="translate(4736 2816)"/>
</clipPath>
</defs>
<g xmlns="http://www.w3.org/2000/svg" id="512/Kriegsbeil" clip-path="url(#clip2_268_10729)">
<g id="512/Kriegsbell">
<g id="512/Handle_3">
<path id="512/Vector_24" d="M1708.04 573.371L1703.74 570.062C1699.76 567.007 1696.27 563.408 1693.33 559.344L1690.15 554.948L1836.79 412.621C1836.79 412.621 1839.14 417.175 1844.74 422.79C1850.35 428.404 1854.67 431.043 1854.67 431.043L1708.04 573.371Z" fill="#878787"/>
<path id="512/Vector_25" d="M1862.54 430.911L1861.62 430.359C1856.89 427.569 1852.5 424.245 1848.65 420.339C1848.21 419.885 1847.76 419.419 1847.32 418.966C1843.56 415.008 1840.35 410.533 1837.69 405.711L1837.17 404.77L1916.55 327.72C1916.55 327.72 1926.24 329.625 1933.28 336.876C1940.32 344.128 1941.93 353.874 1941.93 353.874L1862.55 430.924L1862.54 430.911Z" fill="#878787"/>
<g id="512/Group_4">
<path id="512/Vector_26" d="M1604.15 634.029L1592.6 645.234C1594.89 649.59 1597.91 654.167 1601.84 658.22C1605.78 662.272 1610.3 665.466 1614.61 667.856L1626.16 656.651C1621.87 654.235 1617.39 651.081 1613.41 646.989C1609.44 642.896 1606.45 638.398 1604.15 634.029Z" fill="#878787"/>
<path id="512/Vector_27" d="M1617.05 621.504L1605.51 632.709C1607.79 637.065 1610.81 641.642 1614.75 645.695C1618.68 649.747 1623.2 652.941 1627.52 655.331L1639.06 644.126C1634.78 641.71 1630.29 638.556 1626.32 634.464C1622.35 630.371 1619.35 625.873 1617.05 621.504Z" fill="#878787"/>
<path id="512/Vector_28" d="M1578.17 659.246L1566.46 670.607C1568.64 674.528 1571.42 678.537 1574.92 682.149C1579.36 686.721 1584.42 690.094 1589.15 692.569L1600.52 681.532C1596 679.06 1591.24 675.784 1587.04 671.452C1583.32 667.626 1580.43 663.366 1578.17 659.246Z" fill="#878787"/>
<path id="512/Vector_29" d="M1591.24 646.553L1579.53 657.926C1581.76 662.072 1584.66 666.332 1588.37 670.158C1592.58 674.49 1597.36 677.767 1601.88 680.212L1613.25 669.175C1608.97 666.76 1604.48 663.606 1600.51 659.513C1596.54 655.421 1593.54 650.923 1591.24 646.553Z" fill="#878787"/>
<path id="512/Vector_30" d="M1573.6 683.43C1570.1 679.817 1567.32 675.835 1565.12 671.913L1556.96 679.832C1554.99 681.747 1554.26 684.39 1555.28 686.073L1555.89 687.107C1559.84 693.708 1565.16 699.187 1571.64 703.33L1572.65 703.976C1574.31 705.038 1576.97 704.395 1578.94 702.48L1587.81 693.875C1583.08 691.375 1578.03 687.962 1573.62 683.417L1573.6 683.43Z" fill="#878787"/>
<path id="512/Vector_31" d="M1629.97 608.966L1618.42 620.171C1620.71 624.527 1623.73 629.104 1627.66 633.157C1631.6 637.209 1636.12 640.403 1640.43 642.793L1651.98 631.588C1647.69 629.172 1643.21 626.018 1639.23 621.926C1635.26 617.834 1632.27 613.335 1629.97 608.966Z" fill="#878787"/>
<path id="512/Vector_32" d="M1643.27 596.053L1631.73 607.258C1634.01 611.614 1637.03 616.192 1640.97 620.244C1644.9 624.296 1649.42 627.491 1653.74 629.88L1665.28 618.675C1661 616.26 1656.51 613.105 1652.54 609.013C1648.57 604.921 1645.57 600.423 1643.27 596.053Z" fill="#878787"/>
<path id="512/Vector_33" d="M1656.58 583.14L1645.03 594.345C1647.32 598.701 1650.34 603.279 1654.27 607.331C1658.2 611.384 1662.73 614.578 1667.04 616.967L1678.59 605.762C1674.3 603.347 1669.81 600.193 1665.84 596.1C1661.87 592.008 1658.88 587.51 1656.58 583.14Z" fill="#878787"/>
<path id="512/Vector_34" d="M1669.87 570.24L1658.32 581.445C1660.61 585.801 1663.63 590.379 1667.56 594.431C1671.49 598.483 1676.02 601.678 1680.33 604.067L1691.88 592.862C1687.59 590.447 1683.1 587.292 1679.13 583.2C1675.16 579.108 1672.17 574.61 1669.87 570.24Z" fill="#878787"/>
<path id="512/Vector_35" d="M1680.88 581.531C1684.85 585.624 1689.34 588.778 1693.65 591.167L1702.66 582.421C1705.02 580.131 1705.51 576.906 1703.7 575.434L1698.8 571.459C1696.08 569.238 1693.64 566.732 1691.51 563.941L1687.68 558.931C1686.27 557.084 1683.02 557.469 1680.66 559.759L1671.64 568.519C1673.93 572.875 1676.94 577.453 1680.88 581.505L1680.88 581.531Z" fill="#878787"/>
</g>
</g>
<g id="512/Blade_2">
<path id="512/Vector_36" d="M1938.05 336.782L1956.73 334.235L1983.78 288.198L1936.94 313.853L1933.81 332.528L1938.03 336.795L1938.05 336.782ZM1940.33 315.953L1940.46 315.824C1943.12 318.031 1945.61 320.407 1948.07 322.834C1951.81 318.844 1957.32 313.855 1961.12 310.141C1965.74 305.94 1970.44 300.782 1975.09 297.12C1966.46 306.174 1957.67 315.975 1948.71 324.723L1948 325.382C1945.36 322.308 1942.71 319.26 1940.32 315.966L1940.33 315.953Z" fill="white"/>
<path id="512/Vector_37" d="M1881.71 356.405L1890.42 348.061L1889.62 333.9L1846.48 311.121L1867.97 354.913L1881.71 356.405ZM1871.56 338.61C1867.12 333.526 1857.59 323.977 1854.15 319.367C1860.15 325.145 1866.75 331.602 1872.73 337.472C1874.59 339.273 1876.44 341.074 1878.2 342.939C1879.4 341.828 1880.82 340.522 1881.93 339.553C1883.43 338.249 1884.95 336.957 1886.55 335.733L1886.68 335.867C1884.1 339.257 1881.09 342.457 1878.22 345.58C1875.9 343.352 1873.73 340.981 1871.57 338.624L1871.56 338.61Z" fill="white"/>
<path id="512/Vector_38" d="M2038.37 399.215C2015.58 398.429 1978.33 401.369 1937.15 364.837L1893.13 407.562C1893.13 407.562 1920.89 465.662 1898.04 512.957C1956.07 504.652 2017.22 453.25 2038.37 399.215ZM2007.15 402.981C1994 442.46 1952.06 477.634 1910.32 481.466C1951.26 471.96 1988.61 440.448 2007.15 402.981Z" fill="white"/>
</g>
</g>
</g>
</svg>
