<svg width="512" height="512" viewBox="896 896 512 512" fill="none" xmlns="http://www.w3.org/2000/svg">
<defs xmlns="http://www.w3.org/2000/svg">
<clipPath id="clip0_268_10729">
<rect width="512" height="512" fill="white" transform="translate(256 256)"/>
</clipPath>
<clipPath id="clip1_268_10729">
<rect width="512" height="512" fill="white" transform="translate(896 256)"/>
</clipPath>
<clipPath id="clip2_268_10729">
<rect width="512" height="512" fill="white" transform="translate(1536 256)"/>
</clipPath>
<clipPath id="clip3_268_10729">
<rect width="512" height="512" fill="white" transform="translate(2176 256)"/>
</clipPath>
<clipPath id="clip4_268_10729">
<rect width="512" height="512" fill="white" transform="translate(2816 256)"/>
</clipPath>
<clipPath id="clip5_268_10729">
<rect width="512" height="512" fill="white" transform="translate(3456 256)"/>
</clipPath>
<clipPath id="clip6_268_10729">
<rect width="592.227" height="238.456" fill="white" transform="translate(3418.64 638.171) rotate(-45)"/>
</clipPath>
<clipPath id="clip7_268_10729">
<rect width="512" height="512" fill="white" transform="translate(4096 256)"/>
</clipPath>
<clipPath id="clip8_268_10729">
<rect width="512" height="512" fill="white" transform="translate(4736 256)"/>
</clipPath>
<clipPath id="clip9_268_10729">
<rect width="116.168" height="650.538" fill="white" transform="translate(4802 782) rotate(-135)"/>
</clipPath>
<clipPath id="clip10_268_10729">
<rect width="512" height="512" fill="white" transform="translate(5376 256)"/>
</clipPath>
<clipPath id="clip11_268_10729">
<rect width="512" height="512" fill="white" transform="translate(6016 256)"/>
</clipPath>
<clipPath id="clip12_268_10729">
<rect width="512" height="512" fill="white" transform="translate(4736 2816)"/>
</clipPath>
</defs>
<g xmlns="http://www.w3.org/2000/svg" id="512/Kukri">
<g id="512/Kurki">
<g id="512/Blade_14">
<path id="512/Blade_15" d="M1123.38 1063.34C1058.08 1134.72 1034.36 1174.66 1027.68 1187.3C1041.06 1196.92 1052.52 1209.18 1060.7 1223.46C1060.92 1223.84 1061.14 1224.24 1061.36 1224.62C1061.46 1224.8 1061.56 1224.98 1061.66 1225.14C1061.62 1225.1 1061.6 1225.06 1061.56 1225C1061.62 1225.1 1061.64 1225.18 1061.66 1225.28C1061.7 1225.34 1061.76 1225.4 1061.8 1225.48C1061.86 1225.54 1061.88 1225.6 1061.92 1225.66C1061.92 1225.66 1080.22 1242.58 1081.6 1243.52C1082.3 1244 1084.14 1242.12 1085.38 1240.88C1086.78 1239.46 1087 1237.26 1085.98 1235.56L1064.88 1200.9L1071.88 1192.88C1074.22 1186.26 1074.8 1180.48 1078.5 1174.92C1095.66 1149.16 1118.56 1130.46 1132.16 1120.74C1138.72 1116.04 1145.86 1112.26 1153.4 1109.4L1198.64 1092.16C1198.64 1092.16 1256.84 1072.92 1298.54 1037.02C1340.24 1001.12 1374.1 944 1374.1 944C1374.1 944 1204.06 975.18 1123.4 1063.36L1123.38 1063.34ZM1071.28 1165.44C1065.82 1173.56 1057.92 1181.92 1057.58 1192.14C1060.06 1190.92 1062.28 1189 1063.66 1186.58C1065.18 1184.06 1065.6 1181.06 1065.36 1178.16L1065.62 1178.14C1067.92 1185.38 1063 1192.82 1056.1 1195.34L1055.46 1193.12C1053.06 1179.94 1076.1 1156.16 1085.02 1146.64C1086.84 1144.8 1088.7 1142.98 1090.64 1141.24L1090.84 1141.42C1083.98 1149.14 1077.48 1157.18 1071.32 1165.46L1071.28 1165.44ZM1243.44 1057.72C1219.4 1071.38 1193.3 1080.88 1167.48 1090.42L1167.32 1090.02C1192.78 1079.68 1218.4 1069.38 1242.02 1055.3C1281.16 1031.28 1312.98 997.66 1345.8 965.94L1346.12 966.24C1315.74 1000.62 1283.84 1035 1243.44 1057.72Z" fill="white"/>
</g>
<g id="512/Handle_12">
<g id="512/Handle_13">
<path d="M981.659 1349.96C978.939 1350.16 976.079 1350.3 973.439 1350.1C972.339 1350.1 970.879 1349.98 969.799 1349.78L966.179 1349.24L962.619 1348.3C960.279 1347.68 957.879 1346.72 955.719 1345.68C946.839 1341.36 939.739 1334.12 935.519 1325.06C933.699 1326.24 932.039 1327.1 930.659 1327.72C928.279 1328.76 927.299 1331.64 928.539 1333.9C944.079 1361.96 974.179 1360.5 981.619 1359.68C982.539 1359.58 983.139 1358.68 982.959 1357.78C982.379 1354.96 981.939 1352.38 981.639 1349.98L981.659 1349.96Z" fill="#878787"/>
<path d="M1061.66 1226.36C1057.04 1219.44 1051.64 1213.08 1045.52 1207.46C1039.58 1201.92 1025.7 1193.3 1025.7 1193.3C1023.9 1192.38 1019.32 1193.72 1019.32 1193.72C1019.32 1204.52 1009.62 1214.62 1009.62 1214.62C968.599 1261.7 970.079 1269.04 957.079 1297.76C950.919 1311.36 939.279 1323.02 939.279 1323.02C943.879 1336.14 956.299 1346.3 970.019 1348.72C971.039 1348.98 972.499 1349.22 973.559 1349.3C976.159 1349.68 978.959 1349.76 981.679 1349.76C979.039 1329.14 985.499 1323.44 985.499 1323.44C985.499 1323.44 1016.1 1290.24 1024.38 1262.56C1032.64 1234.9 1046.08 1232.1 1046.08 1232.1C1054.36 1230.7 1061.5 1226.18 1061.66 1226.34V1226.36ZM973.299 1321.56C971.279 1323.78 967.839 1323.94 965.619 1321.92C963.399 1319.9 963.239 1316.46 965.259 1314.24C967.279 1312.02 970.719 1311.86 972.939 1313.88C975.159 1315.9 975.319 1319.34 973.299 1321.56Z" fill="#878787"/>
</g>
</g>
</g>
</g>
</svg>
