<svg width="512" height="512" viewBox="1536 3456 512 512" fill="none" xmlns="http://www.w3.org/2000/svg">
<defs xmlns="http://www.w3.org/2000/svg">
<clipPath id="clip0_268_10729">
<rect width="512" height="512" fill="white" transform="translate(256 256)"/>
</clipPath>
<clipPath id="clip1_268_10729">
<rect width="512" height="512" fill="white" transform="translate(896 256)"/>
</clipPath>
<clipPath id="clip2_268_10729">
<rect width="512" height="512" fill="white" transform="translate(1536 256)"/>
</clipPath>
<clipPath id="clip3_268_10729">
<rect width="512" height="512" fill="white" transform="translate(2176 256)"/>
</clipPath>
<clipPath id="clip4_268_10729">
<rect width="512" height="512" fill="white" transform="translate(2816 256)"/>
</clipPath>
<clipPath id="clip5_268_10729">
<rect width="512" height="512" fill="white" transform="translate(3456 256)"/>
</clipPath>
<clipPath id="clip6_268_10729">
<rect width="592.227" height="238.456" fill="white" transform="translate(3418.64 638.171) rotate(-45)"/>
</clipPath>
<clipPath id="clip7_268_10729">
<rect width="512" height="512" fill="white" transform="translate(4096 256)"/>
</clipPath>
<clipPath id="clip8_268_10729">
<rect width="512" height="512" fill="white" transform="translate(4736 256)"/>
</clipPath>
<clipPath id="clip9_268_10729">
<rect width="116.168" height="650.538" fill="white" transform="translate(4802 782) rotate(-135)"/>
</clipPath>
<clipPath id="clip10_268_10729">
<rect width="512" height="512" fill="white" transform="translate(5376 256)"/>
</clipPath>
<clipPath id="clip11_268_10729">
<rect width="512" height="512" fill="white" transform="translate(6016 256)"/>
</clipPath>
<clipPath id="clip12_268_10729">
<rect width="512" height="512" fill="white" transform="translate(4736 2816)"/>
</clipPath>
</defs>
<g xmlns="http://www.w3.org/2000/svg" id="512/Langbogen">
<g id="512/Langbogen_2">
<g id="512/Body_9">
<path id="512/Vector_613" d="M1604.18 3913.54C1604.22 3914.68 1605 3915.8 1606.84 3916.84C1605.58 3915.98 1604.54 3914.88 1604.18 3913.54Z" fill="white"/>
<path id="512/Vector_614" d="M1994.5 3510.64C1992.74 3509.74 1989.56 3508.72 1985.26 3513.18C1985.16 3515.98 1984.66 3518.58 1984.14 3520.62C1984.36 3520.24 1984.5 3520.02 1984.52 3520C1984.52 3520 1985.82 3517.4 1989.06 3515.18C1990.84 3513.98 1992.9 3514.28 1994.58 3514.94C1993.98 3513.4 1993.64 3511.68 1994.48 3510.64H1994.5Z" fill="white"/>
<path id="512/Vector_615" d="M1982.54 3526L1982.58 3525.72C1982.6 3525.56 1982.62 3525.44 1982.64 3525.32C1982.42 3526.22 1982.22 3527.1 1982.02 3527.94C1982.24 3527.56 1982.4 3526.94 1982.54 3526Z" fill="white"/>
<path id="512/Vector_616" d="M1814.78 3789.26C1813.66 3789.26 1812.64 3789.54 1812.12 3789.7C1811.66 3789.84 1811.16 3789.92 1810.68 3789.92C1810 3789.92 1809.34 3789.76 1808.72 3789.48C1715.4 3867.96 1620.04 3903.58 1620.04 3903.58H1619.94C1612.7 3906.82 1605.98 3910.76 1606.04 3912.56C1606.12 3914.94 1610.64 3916.68 1613.14 3917.38C1615.76 3916.66 1619.06 3914.92 1620.8 3910.82C1620.8 3910.82 1720.66 3864.7 1744.98 3851.44C1760.94 3842.74 1790.24 3821.38 1820.04 3796.22C1819.16 3789.26 1816.1 3789.24 1814.8 3789.24L1814.78 3789.26Z" fill="white"/>
<path id="512/Vector_617" d="M2000.4 3497.38C1996.18 3495.22 1991.8 3499.52 1991.8 3499.52C1991.8 3499.52 1986.74 3504.34 1985.54 3510.24C1990.68 3506.16 1994.66 3508.42 1996.12 3509.26C1996.12 3509.26 1996.14 3509.26 1996.16 3509.28C1998.04 3507.64 1999.18 3505.88 1999.18 3505.88C1999.18 3505.88 2004.62 3499.52 2000.4 3497.38Z" fill="white"/>
<path id="512/Vector_618" d="M1996.22 3518.08C1995.16 3517.34 1992.16 3515.5 1990.22 3516.84C1987.42 3518.76 1986.28 3521 1986.26 3521.02C1986.18 3521.16 1985.4 3522.3 1984.84 3524.12C1984.74 3524.44 1984.74 3524.54 1984.72 3524.82C1984.7 3525.08 1984.68 3525.42 1984.58 3526.02L1984.54 3526.28C1984.36 3527.52 1983.92 3530.28 1981.44 3530.46C1976.22 3552.66 1975.16 3558.84 1962.7 3584.4C1941.9 3627.04 1906.94 3683.56 1874.54 3723.84C1878.4 3724.98 1883.86 3727.2 1886.42 3731.1C1924.68 3683.6 1969.38 3607.7 1979.5 3568.46C1989.44 3529.9 1989.58 3527.72 1989.58 3527.72C1989.58 3527.72 2000.56 3520.54 1996.24 3518.08H1996.22Z" fill="white"/>
<path id="512/Vector_619" d="M1599.08 3916.74C1598.48 3915.42 1598.34 3914.1 1598.38 3912.94C1595.44 3915.02 1591.56 3918.44 1591.46 3921.9C1591.3 3927.5 1595.08 3927.22 1595.08 3927.22C1595.08 3927.22 1599.14 3925.68 1600.02 3922.24C1600.32 3921.1 1600.86 3920.3 1601.46 3919.7C1600.4 3918.88 1599.6 3917.9 1599.08 3916.74Z" fill="white"/>
</g>
<g id="512/Handle_55">
<g id="512/Group_27">
<path id="512/Vector_620" d="M1831.58 3763.84C1832.62 3765.02 1833.66 3766.46 1834.56 3768.18C1837.44 3768.42 1840.68 3769.06 1844.26 3770.24C1844.06 3766.16 1843.06 3762.92 1841.76 3760.4C1836.64 3760.94 1833.26 3762.7 1831.58 3763.82V3763.84Z" fill="#878787"/>
<path id="512/Vector_621" d="M1840.72 3755.5C1841.4 3756.3 1842.08 3757.2 1842.7 3758.22C1845.4 3758.06 1848.48 3758.22 1851.98 3758.92C1851.5 3756.2 1850.64 3753.94 1849.6 3752.06C1845.06 3752.8 1842.12 3754.5 1840.72 3755.48V3755.5Z" fill="#878787"/>
<path id="512/Vector_622" d="M1823.76 3771.32C1825.26 3773.02 1826.74 3775.24 1827.82 3778.1C1830.12 3778.42 1832.66 3778.96 1835.42 3779.76C1835.34 3775.88 1834.56 3772.72 1833.44 3770.2C1829.48 3770 1826.26 3770.54 1823.78 3771.32H1823.76Z" fill="#878787"/>
<path id="512/Vector_623" d="M1840.18 3783.52C1839.22 3783.14 1838.26 3782.8 1837.34 3782.48C1837.26 3783.84 1837.12 3785.24 1836.88 3786.74C1837.9 3785.76 1838.98 3784.7 1840.16 3783.52H1840.18Z" fill="#878787"/>
<path id="512/Vector_624" d="M1860.58 3752.32C1857.22 3751.7 1854.26 3751.6 1851.72 3751.82C1852.78 3753.92 1853.64 3756.44 1854.1 3759.42C1856.2 3759.96 1858.44 3760.7 1860.8 3761.66C1861.22 3758.06 1861.08 3754.98 1860.58 3752.34V3752.32Z" fill="#878787"/>
<path id="512/Vector_625" d="M1858.92 3743.16C1860.24 3745.12 1861.42 3747.54 1862.16 3750.54C1864.32 3751.02 1866.62 3751.7 1869.08 3752.64C1869.26 3749.4 1868.96 3746.6 1868.38 3744.22C1864.8 3743.36 1861.64 3743.06 1858.92 3743.16Z" fill="#878787"/>
<path id="512/Vector_626" d="M1860.06 3750.12C1859.24 3747.28 1858.02 3745.04 1856.7 3743.32C1853.58 3743.66 1851.1 3744.46 1849.28 3745.3C1848.86 3745.72 1848.44 3746.14 1848.02 3746.56C1848.88 3747.46 1849.76 3748.54 1850.58 3749.82C1853.28 3749.5 1856.44 3749.52 1860.06 3750.14V3750.12Z" fill="#878787"/>
<path id="512/Vector_627" d="M1826.44 3779.98C1823.88 3779.7 1821.64 3779.7 1819.72 3779.88C1820.92 3782.42 1821.8 3785.56 1822.04 3789.34C1822.16 3789.54 1822.28 3789.76 1822.38 3789.98C1823.9 3789.6 1825.62 3789.32 1827.54 3789.2C1827.68 3785.56 1827.24 3782.52 1826.44 3779.98Z" fill="#878787"/>
<path id="512/Vector_628" d="M1868.88 3754.72C1866.68 3753.86 1864.6 3753.22 1862.64 3752.76C1863.02 3755.06 1863.12 3757.64 1862.9 3760.54C1865.1 3758.38 1867.12 3756.42 1868.88 3754.72Z" fill="#878787"/>
<path id="512/Vector_629" d="M1816.64 3778.24C1816.36 3777.8 1816.06 3777.38 1815.76 3777C1815.18 3777.64 1814.6 3778.26 1814.06 3778.88C1814.82 3778.64 1815.7 3778.42 1816.64 3778.24Z" fill="#878787"/>
<path id="512/Vector_630" d="M1837.38 3780.38C1838.76 3780.84 1840.2 3781.36 1841.7 3781.98C1842.22 3781.44 1842.76 3780.88 1843.32 3780.32C1843.96 3777.42 1844.26 3774.78 1844.3 3772.42C1841.1 3771.34 1838.18 3770.7 1835.56 3770.4C1836.64 3773.12 1837.36 3776.42 1837.38 3780.4V3780.38Z" fill="#878787"/>
<path id="512/Vector_631" d="M1864 3732.86C1867.38 3732.76 1871.42 3733.44 1875.9 3735.72C1874.2 3731.18 1871.44 3728.44 1869.4 3726.92C1868.52 3727.16 1866.38 3728.08 1862.54 3731.58C1863 3731.94 1863.5 3732.38 1864.02 3732.86H1864Z" fill="#878787"/>
<path id="512/Vector_632" d="M1879 3739.96C1879.22 3741.32 1879.36 3742.8 1879.38 3744.36C1880.02 3743.6 1880.68 3742.72 1881.32 3741.76C1880.54 3741.1 1879.76 3740.5 1879 3739.94V3739.96Z" fill="#878787"/>
<path id="512/Vector_633" d="M1843.82 3760.28C1845.16 3763.08 1846.14 3766.6 1846.26 3770.96C1847.68 3771.48 1849.14 3772.1 1850.64 3772.8C1850.94 3772.48 1851.24 3772.18 1851.54 3771.88C1852.4 3767.74 1852.56 3764.18 1852.28 3761.12C1849.12 3760.44 1846.28 3760.22 1843.82 3760.3V3760.28Z" fill="#878787"/>
<path id="512/Vector_634" d="M1825.66 3777.86C1824.58 3775.36 1823.18 3773.44 1821.82 3772.02C1820.92 3772.4 1820.18 3772.78 1819.54 3773.14C1818.74 3773.92 1817.92 3774.74 1817.1 3775.6C1817.64 3776.3 1818.18 3777.08 1818.7 3777.94C1820.7 3777.7 1823.02 3777.64 1825.66 3777.88V3777.86Z" fill="#878787"/>
<path id="512/Vector_635" d="M1876.84 3747.12C1874.6 3746.14 1872.5 3745.38 1870.5 3744.8C1870.98 3747.08 1871.2 3749.68 1871.08 3752.6C1874.18 3749.62 1876.24 3747.7 1876.84 3747.14V3747.12Z" fill="#878787"/>
<path id="512/Vector_636" d="M1854.32 3761.6C1854.5 3763.94 1854.42 3766.52 1854 3769.38C1856.06 3767.3 1858.06 3765.32 1859.92 3763.46C1857.96 3762.68 1856.08 3762.06 1854.32 3761.6Z" fill="#878787"/>
<path id="512/Vector_637" d="M1831.86 3791.34C1831 3791.28 1830.18 3791.24 1829.38 3791.26C1829.32 3792 1829.22 3792.78 1829.12 3793.58C1829.92 3792.98 1830.82 3792.26 1831.86 3791.36V3791.34Z" fill="#878787"/>
<path id="512/Vector_638" d="M1827.38 3791.32C1825.84 3791.42 1824.44 3791.66 1823.18 3791.94C1823.54 3793.06 1823.84 3794.36 1824.02 3795.88C1824.02 3795.88 1824.36 3796.6 1826.84 3795.12C1827.1 3793.78 1827.28 3792.52 1827.4 3791.32H1827.38Z" fill="#878787"/>
<path id="512/Vector_639" d="M1833.98 3789.46C1834.12 3789.34 1834.26 3789.2 1834.4 3789.08C1834.98 3786.44 1835.28 3784.04 1835.38 3781.86C1832.9 3781.1 1830.62 3780.6 1828.54 3780.26C1829.24 3782.78 1829.62 3785.74 1829.52 3789.14C1830.92 3789.14 1832.4 3789.26 1834 3789.46H1833.98Z" fill="#878787"/>
<path id="512/Vector_640" d="M1878.38 3737.14C1879.68 3737.96 1881.02 3738.92 1882.36 3740.04C1883.62 3737.72 1884.28 3735.24 1883.1 3733.38C1881.2 3730.4 1876.3 3728.56 1873.04 3727.62C1875.08 3729.76 1877.16 3732.84 1878.38 3737.14Z" fill="#878787"/>
<path id="512/Vector_641" d="M1819.8 3786.82C1819.4 3784.18 1818.64 3781.98 1817.72 3780.12C1814.72 3780.6 1812.66 3781.48 1811.5 3782.1C1810.22 3783.92 1809.54 3785.44 1809.98 3786.22C1809.98 3786.22 1815.6 3783.7 1819.8 3786.8V3786.82Z" fill="#878787"/>
<path id="512/Vector_642" d="M1845.84 3777.72C1846.96 3776.56 1848.08 3775.42 1849.16 3774.3C1848.18 3773.86 1847.2 3773.46 1846.26 3773.1C1846.22 3774.56 1846.08 3776.08 1845.84 3777.72Z" fill="#878787"/>
<path id="512/Vector_643" d="M1857.38 3741.14C1860.32 3740.92 1863.76 3741.1 1867.7 3741.96C1866.56 3738.82 1864.92 3736.52 1863.32 3734.88C1861.26 3735 1859.52 3735.44 1858.18 3735.9C1857.8 3736.3 1857.42 3736.7 1857.02 3737.14C1856.46 3737.76 1855.88 3738.4 1855.28 3739.02C1855.96 3739.62 1856.66 3740.3 1857.36 3741.12L1857.38 3741.14Z" fill="#878787"/>
<path id="512/Vector_644" d="M1861.32 3733.1C1861.32 3733.1 1861.16 3732.98 1861.1 3732.92C1861.02 3733 1860.92 3733.08 1860.84 3733.18C1861 3733.16 1861.16 3733.12 1861.32 3733.1Z" fill="#878787"/>
<path id="512/Vector_645" d="M1832.32 3768.06C1831.38 3766.46 1830.3 3765.18 1829.28 3764.18C1826.9 3766.32 1825.44 3767.6 1825.44 3767.6C1825.44 3767.6 1824.8 3768.18 1823.78 3769.12C1826.1 3768.44 1828.94 3768 1832.32 3768.06Z" fill="#878787"/>
<path id="512/Vector_646" d="M1869.92 3742.5C1872.26 3743.14 1874.76 3744 1877.42 3745.16C1877.44 3742.64 1877.18 3740.42 1876.72 3738.46C1872.7 3736.06 1869.02 3735.08 1865.88 3734.88C1867.44 3736.8 1868.92 3739.3 1869.92 3742.5Z" fill="#878787"/>
<path id="512/Vector_647" d="M1840.58 3758.42C1839.88 3757.4 1839.16 3756.52 1838.44 3755.78C1836.62 3757.48 1834.9 3759.08 1833.34 3760.5C1835.18 3759.64 1837.58 3758.82 1840.6 3758.4L1840.58 3758.42Z" fill="#878787"/>
<path id="512/Vector_648" d="M1848.4 3750.14C1847.8 3749.3 1847.2 3748.58 1846.6 3747.94C1845.1 3749.42 1843.6 3750.86 1842.14 3752.26C1843.72 3751.46 1845.8 3750.64 1848.42 3750.12L1848.4 3750.14Z" fill="#878787"/>
<path id="512/Vector_649" d="M1855.04 3741.42C1854.68 3741.06 1854.34 3740.74 1853.98 3740.44C1853.52 3740.94 1853.04 3741.44 1852.56 3741.92C1853.34 3741.72 1854.16 3741.54 1855.04 3741.4V3741.42Z" fill="#878787"/>
</g>
<path id="512/Vector_650" d="M1995.1 3511C1991.34 3508.44 1987.62 3510.82 1985.76 3512.68C1983.9 3514.54 1983.72 3515.34 1981.36 3519.02C1980.02 3521.14 1977.44 3523.82 1975.36 3525.84C1974.16 3525.6 1973.02 3525.94 1972.52 3526.8C1972.22 3527.32 1972.2 3527.96 1972.42 3528.58C1972.3 3528.68 1972.22 3528.76 1972.22 3528.76L1624.08 3890.38C1624.44 3888.98 1624.6 3887.3 1624.36 3885.26L1622.38 3885.48C1622.96 3890.6 1620.8 3893.02 1619.96 3893.76C1618.3 3894.12 1617.1 3895.12 1617.1 3896.28C1617.1 3896.64 1617.22 3896.98 1617.42 3897.3L1617.32 3897.4C1617.32 3897.4 1612.64 3899.32 1613.28 3901.48C1613.28 3901.48 1603.86 3903.72 1601.52 3908.88C1599.2 3914.04 1601.22 3916.74 1601.22 3916.74C1601.22 3916.74 1605.54 3922.24 1608.64 3917.84L1606.02 3915.96C1606.02 3915.96 1603.08 3914.2 1604.82 3910.72C1606.56 3907.24 1614 3904.28 1614 3904.28L1617.74 3902.5C1617.74 3902.5 1619.5 3902.26 1619.54 3899.88C1619.54 3899.88 1620.22 3899.5 1621.04 3898.94C1621.14 3898.94 1621.24 3898.94 1621.34 3898.94C1623.7 3898.94 1625.6 3897.74 1625.6 3896.26C1625.6 3895.7 1625.32 3895.18 1624.86 3894.74L1972.64 3533.94C1972.58 3535.28 1972.92 3536.58 1974.12 3537.46L1975.3 3535.84C1974.12 3534.96 1974.68 3532.82 1975.4 3531.16C1976.7 3531.48 1977.94 3531.16 1978.48 3530.24C1978.84 3529.62 1978.8 3528.86 1978.46 3528.12C1979.1 3527.98 1980.82 3527.62 1982.06 3527.7C1982.34 3526.76 1983.9 3521.74 1984.38 3520.76C1984.26 3518.8 1988.06 3514.9 1990.74 3514.44C1993.8 3513.92 1996.58 3515.86 1996.58 3515.86C1996.58 3515.86 1998.86 3513.52 1995.1 3510.96V3511Z" fill="#878787"/>
</g>
</g>
</g>
</svg>
