<svg width="512" height="512" viewBox="3456 3456 512 512" fill="none" xmlns="http://www.w3.org/2000/svg">
<defs xmlns="http://www.w3.org/2000/svg">
<clipPath id="clip0_268_10729">
<rect width="512" height="512" fill="white" transform="translate(256 256)"/>
</clipPath>
<clipPath id="clip1_268_10729">
<rect width="512" height="512" fill="white" transform="translate(896 256)"/>
</clipPath>
<clipPath id="clip2_268_10729">
<rect width="512" height="512" fill="white" transform="translate(1536 256)"/>
</clipPath>
<clipPath id="clip3_268_10729">
<rect width="512" height="512" fill="white" transform="translate(2176 256)"/>
</clipPath>
<clipPath id="clip4_268_10729">
<rect width="512" height="512" fill="white" transform="translate(2816 256)"/>
</clipPath>
<clipPath id="clip5_268_10729">
<rect width="512" height="512" fill="white" transform="translate(3456 256)"/>
</clipPath>
<clipPath id="clip6_268_10729">
<rect width="592.227" height="238.456" fill="white" transform="translate(3418.64 638.171) rotate(-45)"/>
</clipPath>
<clipPath id="clip7_268_10729">
<rect width="512" height="512" fill="white" transform="translate(4096 256)"/>
</clipPath>
<clipPath id="clip8_268_10729">
<rect width="512" height="512" fill="white" transform="translate(4736 256)"/>
</clipPath>
<clipPath id="clip9_268_10729">
<rect width="116.168" height="650.538" fill="white" transform="translate(4802 782) rotate(-135)"/>
</clipPath>
<clipPath id="clip10_268_10729">
<rect width="512" height="512" fill="white" transform="translate(5376 256)"/>
</clipPath>
<clipPath id="clip11_268_10729">
<rect width="512" height="512" fill="white" transform="translate(6016 256)"/>
</clipPath>
<clipPath id="clip12_268_10729">
<rect width="512" height="512" fill="white" transform="translate(4736 2816)"/>
</clipPath>
</defs>
<g xmlns="http://www.w3.org/2000/svg" id="512/Latin">
<g id="512/Latin_2">
<g id="512/Handle_58">
<path id="512/Handle_59" d="M3594.82 3813.42C3592.98 3815.38 3584.84 3824.1 3584.72 3824.62C3584.6 3825.22 3513.14 3897.2 3500.76 3909.72C3494.58 3915.98 3489.6 3919.2 3486.18 3920.86C3483.2 3922.3 3481.52 3925.56 3482.24 3928.8L3482.4 3929.56C3483 3932.3 3484.54 3934.76 3486.74 3936.52L3493.8 3942.14C3495.98 3943.88 3498.6 3944.96 3501.36 3945.26L3502.22 3945.36C3508.84 3946.08 3515.34 3943.16 3519.2 3937.72L3520.6 3932.3C3521.6 3930.88 3528.84 3924.42 3530.12 3923.24C3537.38 3916.5 3563.52 3891.94 3573.04 3879.28C3596.7 3847.8 3600 3849.82 3600 3849.82L3608.84 3853.14C3611.92 3854.3 3615.4 3853.56 3617.76 3851.26L3625.6 3843.62L3594.8 3813.42H3594.82ZM3509.88 3929.32C3508.02 3931.14 3505.02 3931.1 3503.2 3929.24C3501.38 3927.38 3501.42 3924.38 3503.28 3922.56C3505.14 3920.74 3508.14 3920.78 3509.96 3922.64C3511.78 3924.5 3511.74 3927.5 3509.88 3929.32ZM3536.62 3903.24C3534.76 3905.06 3531.76 3905.02 3529.94 3903.16C3528.12 3901.3 3528.16 3898.3 3530.02 3896.48C3531.88 3894.66 3534.88 3894.7 3536.7 3896.56C3538.52 3898.42 3538.48 3901.42 3536.62 3903.24ZM3562.22 3876.1C3560.38 3877.9 3557.42 3877.86 3555.64 3876.02C3553.84 3874.18 3553.88 3871.22 3555.72 3869.44C3557.56 3867.64 3560.52 3867.68 3562.3 3869.52C3564.1 3871.36 3564.06 3874.32 3562.22 3876.1ZM3585.36 3849.64C3583.44 3851.52 3580.38 3851.48 3578.5 3849.56C3576.62 3847.64 3576.66 3844.58 3578.58 3842.7C3580.5 3840.82 3583.56 3840.86 3585.44 3842.78C3587.32 3844.7 3587.28 3847.76 3585.36 3849.64Z" fill="#878787"/>
</g>
<g id="512/Blade_50">
<path id="512/Blade_51" d="M3921.4 3478.66C3915.88 3506.3 3850.26 3572.16 3850.26 3572.16L3598.98 3811.9L3621.84 3834.32L3621.36 3833.42C3621.36 3833.42 3693.8 3765.1 3768.86 3698.4C3829.9 3644.14 3894.34 3592.46 3909.5 3567.28C3943.3 3511.12 3921.42 3478.68 3921.42 3478.68L3921.4 3478.66ZM3916.88 3526.86C3911.78 3546 3899.9 3562.58 3886.14 3576.5C3861.64 3601.78 3835.18 3625.04 3808.7 3648.14C3773.58 3679.12 3737.6 3709.2 3703.54 3741.32C3693.98 3750.96 3684.1 3760.64 3677.16 3772.4C3676.3 3774.08 3675.32 3775.94 3675.28 3777.74L3674.88 3777.82C3678.16 3759.94 3722.12 3722.16 3736.78 3708.26C3759.9 3687.42 3818.84 3634.28 3841.06 3614.02C3852.62 3603.54 3864.64 3590.66 3876 3580C3893 3563 3908.96 3549.12 3915.72 3526.52C3917.88 3519.12 3919.28 3511.28 3918.48 3503.58L3918.88 3503.5C3920 3511.32 3918.88 3519.26 3916.9 3526.86H3916.88Z" fill="white"/>
</g>
</g>
</g>
</svg>
