<svg width="512" height="512" viewBox="0 0 512 512" fill="none" xmlns="http://www.w3.org/2000/svg">
  <path d="M244 126H280V430H244V126Z" fill="#151515"/>
  <path d="M210 250H314V300H210V250Z" fill="#151515"/>
  <path d="M68 178C126 120 204 122 260 190C316 122 394 120 452 178C394 174 331 192 260 246C189 192 126 174 68 178Z" fill="#151515"/>
  <path d="M116 176C164 162 214 180 260 218C306 180 356 162 404 176C346 192 300 214 260 250C220 214 174 192 116 176Z" fill="#878787"/>
  <path d="M256 72L278 126H234L256 72Z" fill="#878787"/>
</svg>
