<svg width="512" height="512" viewBox="4736 3456 512 512" fill="none" xmlns="http://www.w3.org/2000/svg">
<defs xmlns="http://www.w3.org/2000/svg">
<clipPath id="clip0_268_10729">
<rect width="512" height="512" fill="white" transform="translate(256 256)"/>
</clipPath>
<clipPath id="clip1_268_10729">
<rect width="512" height="512" fill="white" transform="translate(896 256)"/>
</clipPath>
<clipPath id="clip2_268_10729">
<rect width="512" height="512" fill="white" transform="translate(1536 256)"/>
</clipPath>
<clipPath id="clip3_268_10729">
<rect width="512" height="512" fill="white" transform="translate(2176 256)"/>
</clipPath>
<clipPath id="clip4_268_10729">
<rect width="512" height="512" fill="white" transform="translate(2816 256)"/>
</clipPath>
<clipPath id="clip5_268_10729">
<rect width="512" height="512" fill="white" transform="translate(3456 256)"/>
</clipPath>
<clipPath id="clip6_268_10729">
<rect width="592.227" height="238.456" fill="white" transform="translate(3418.64 638.171) rotate(-45)"/>
</clipPath>
<clipPath id="clip7_268_10729">
<rect width="512" height="512" fill="white" transform="translate(4096 256)"/>
</clipPath>
<clipPath id="clip8_268_10729">
<rect width="512" height="512" fill="white" transform="translate(4736 256)"/>
</clipPath>
<clipPath id="clip9_268_10729">
<rect width="116.168" height="650.538" fill="white" transform="translate(4802 782) rotate(-135)"/>
</clipPath>
<clipPath id="clip10_268_10729">
<rect width="512" height="512" fill="white" transform="translate(5376 256)"/>
</clipPath>
<clipPath id="clip11_268_10729">
<rect width="512" height="512" fill="white" transform="translate(6016 256)"/>
</clipPath>
<clipPath id="clip12_268_10729">
<rect width="512" height="512" fill="white" transform="translate(4736 2816)"/>
</clipPath>
</defs>
<g xmlns="http://www.w3.org/2000/svg" id="512/Mace">
<g id="512/Mace_2">
<g id="512/Handle_61">
<path id="512/Vector_720" d="M4826.32 3919.5L4826.36 3919.46L4795.8 3890.54L4795.74 3890.6L4791.58 3886.66C4789.74 3884.9 4786.82 3884.98 4785.06 3886.84L4784.8 3887.12C4782.96 3889.08 4783.04 3892.14 4784.98 3894L4823.16 3930.14C4825.04 3931.92 4828.02 3931.84 4829.8 3929.96L4830.32 3929.42C4832.02 3927.64 4831.94 3924.8 4830.14 3923.12L4826.32 3919.52V3919.5Z" fill="#878787"/>
<path id="512/Vector_721" d="M4924.4 3814.76L4893.36 3785.68C4891.14 3783.88 4887.86 3784.06 4885.88 3786.18L4885.32 3786.78C4883.4 3788.82 4883.38 3791.94 4885.14 3794.04L4914.56 3821.6L4914.6 3821.56L4916.94 3823.7C4919.08 3825.64 4922.38 3825.52 4924.36 3823.42L4924.98 3822.76C4926.98 3820.64 4926.86 3817.08 4924.74 3815.08L4924.42 3814.78L4924.4 3814.76Z" fill="#878787"/>
<path id="512/Vector_722" d="M4827.7 3917.98L4913.2 3823.08L4886.62 3798.18L4797.2 3889.12L4827.7 3917.98Z" fill="#878787"/>
<path id="512/Vector_723" d="M4997.02 3686.44L4897.16 3786.52L4923.8 3811.46L5016.42 3705.36L4997.02 3686.44Z" fill="#878787"/>
<path id="512/Vector_724" d="M5026.4 3694.6L5081.3 3636.6C5077.8 3634.38 5071.62 3629.6 5063.44 3619.88L5008.3 3676.94L5026.4 3694.6Z" fill="#878787"/>
<path id="512/Vector_725" d="M5027.6 3698.58L5024.98 3696.1L5025.02 3696.06L5003.44 3675.02C5001.36 3673.82 4998.66 3674.12 4996.94 3675.94L4996.76 3676.14C4994.8 3678.2 4994.86 3681.4 4996.8 3683.44L4998.08 3684.68L4998.44 3685.02L5017.74 3703.84L5017.8 3703.78L5021.14 3706.94C5023.1 3708.8 5026.58 3708.6 5028.44 3706.64L5028.56 3706.52C5030.48 3704.5 5030.42 3701.34 5028.48 3699.38L5027.64 3698.56L5027.6 3698.58Z" fill="#878787"/>
<path id="512/Vector_726" d="M5181.2 3538.68L5151.86 3510.92C5151.58 3510.64 5151.56 3510.2 5151.84 3509.92L5153.28 3508.38C5160.64 3500.6 5172.92 3500.26 5180.7 3507.62L5182.94 3509.74C5190.7 3517.08 5191.02 3529.32 5183.7 3537.06L5182.2 3538.64C5181.92 3538.92 5181.48 3538.94 5181.2 3538.66V3538.68Z" fill="#878787"/>
</g>
<g id="512/Blade_53">
<path id="512/Vector_727" d="M5130.26 3496.76L5097.48 3500.82C5100.14 3510.7 5081.1 3538.08 5081.1 3538.08C5094.5 3553.46 5081.92 3586.2 5081.92 3586.2C5081.92 3586.2 5069.76 3565.62 5060.62 3581.74C5051.48 3597.86 5066.28 3616.96 5066.28 3616.96L5066.22 3617.02C5074.9 3627.4 5081.18 3631.92 5084.1 3633.68C5099.94 3641.8 5107.96 3644.14 5119.22 3637.5C5135.5 3627.9 5114.92 3618.72 5114.92 3618.72C5134.06 3599.54 5163 3615.1 5163 3615.1C5170.06 3605.04 5197.46 3595.28 5197.46 3595.28L5200.36 3563.18L5130.22 3496.8L5130.26 3496.76ZM5097.72 3556.14C5100.04 3553.42 5102.32 3550.64 5104.5 3547.8C5111.2 3539.72 5115.48 3530.2 5119.72 3520.68C5127.88 3519.04 5136.1 3517.58 5144.38 3516.84L5144.48 3517.22C5137.34 3519.98 5130 3522.14 5122.6 3524.12C5117.76 3536.62 5109.42 3547.28 5100.28 3556.94C5101.34 3568.82 5098.44 3580.66 5093.5 3591.38L5093.14 3591.22C5097.46 3580.18 5099.56 3567.86 5097.72 3556.12V3556.14ZM5072.26 3606.4C5071.42 3609.4 5070.84 3612.46 5070.2 3615.54L5069.8 3615.5C5070.1 3607.74 5070 3594.64 5077.38 3589.96C5082.12 3587.7 5087.04 3591.82 5088.44 3596.06L5088.12 3596.3C5085.78 3594.96 5083.04 3593.12 5080.52 3593.32C5075.1 3594.64 5073.74 3601.6 5072.24 3606.38L5072.26 3606.4ZM5075.44 3620.48C5075.2 3620.48 5074.96 3620.4 5074.76 3620.22C5074.36 3619.84 5074.34 3619.22 5074.7 3618.8L5157.4 3529.36C5157.78 3528.96 5158.4 3528.94 5158.82 3529.3C5159.22 3529.68 5159.24 3530.3 5158.88 3530.72L5076.18 3620.16C5075.98 3620.38 5075.72 3620.48 5075.44 3620.48ZM5079.92 3624.72C5079.68 3624.72 5079.42 3624.64 5079.24 3624.44C5078.84 3624.06 5078.82 3623.42 5079.2 3623.02L5162.94 3534.56C5163.32 3534.16 5163.96 3534.14 5164.36 3534.52C5164.76 3534.9 5164.78 3535.54 5164.4 3535.94L5080.66 3624.4C5080.46 3624.6 5080.2 3624.72 5079.94 3624.72H5079.92ZM5110.26 3620.36C5106.06 3627.94 5092.86 3628.62 5085.18 3629.34L5085.12 3628.94C5088.16 3628.14 5091.2 3627.38 5094.14 3626.38C5098.82 3624.62 5105.72 3622.88 5106.72 3617.4C5106.78 3614.88 5104.8 3612.24 5103.32 3609.98L5103.54 3609.64C5107.86 3610.82 5112.24 3615.5 5110.24 3620.36H5110.26ZM5175 3573.84C5165.74 3578.58 5156.46 3583.38 5148.76 3590.52C5146.06 3592.86 5143.38 3595.28 5140.8 3597.74L5140.22 3597.68C5128.56 3596.68 5116.6 3599.4 5106 3604.24L5105.82 3603.88C5113.74 3599.62 5122.4 3596.66 5131.36 3595.56C5134.18 3595.24 5136.94 3595.06 5139.86 3595.2C5144.54 3590.36 5149.28 3585.74 5154.52 3581.46C5159.76 3577.34 5165.38 3573.96 5171.38 3571.14C5172.96 3563.7 5174.74 3556.3 5177.1 3549.06L5177.5 3549.14C5177.2 3557.42 5176.18 3565.64 5174.98 3573.84H5175Z" fill="white"/>
</g>
</g>
</g>
</svg>
