<svg width="512" height="512" viewBox="256 256 512 512" fill="none" xmlns="http://www.w3.org/2000/svg">
<defs xmlns="http://www.w3.org/2000/svg">
<clipPath id="clip0_268_10729">
<rect width="512" height="512" fill="white" transform="translate(256 256)"/>
</clipPath>
<clipPath id="clip1_268_10729">
<rect width="512" height="512" fill="white" transform="translate(896 256)"/>
</clipPath>
<clipPath id="clip2_268_10729">
<rect width="512" height="512" fill="white" transform="translate(1536 256)"/>
</clipPath>
<clipPath id="clip3_268_10729">
<rect width="512" height="512" fill="white" transform="translate(2176 256)"/>
</clipPath>
<clipPath id="clip4_268_10729">
<rect width="512" height="512" fill="white" transform="translate(2816 256)"/>
</clipPath>
<clipPath id="clip5_268_10729">
<rect width="512" height="512" fill="white" transform="translate(3456 256)"/>
</clipPath>
<clipPath id="clip6_268_10729">
<rect width="592.227" height="238.456" fill="white" transform="translate(3418.64 638.171) rotate(-45)"/>
</clipPath>
<clipPath id="clip7_268_10729">
<rect width="512" height="512" fill="white" transform="translate(4096 256)"/>
</clipPath>
<clipPath id="clip8_268_10729">
<rect width="512" height="512" fill="white" transform="translate(4736 256)"/>
</clipPath>
<clipPath id="clip9_268_10729">
<rect width="116.168" height="650.538" fill="white" transform="translate(4802 782) rotate(-135)"/>
</clipPath>
<clipPath id="clip10_268_10729">
<rect width="512" height="512" fill="white" transform="translate(5376 256)"/>
</clipPath>
<clipPath id="clip11_268_10729">
<rect width="512" height="512" fill="white" transform="translate(6016 256)"/>
</clipPath>
<clipPath id="clip12_268_10729">
<rect width="512" height="512" fill="white" transform="translate(4736 2816)"/>
</clipPath>
</defs>
<g xmlns="http://www.w3.org/2000/svg" id="512/Morgenstern" clip-path="url(#clip0_268_10729)">
<g id="512/Morgenstern_2">
<g id="512/Handle">
<path id="512/Vector" d="M396.101 630.695L400.205 636.765C403.986 642.368 408.437 647.502 413.447 652.04L418.873 656.963L670.845 438.527L662.984 431.495C659.998 428.815 657.348 425.789 655.071 422.495L648.058 412.273L396.086 630.709L396.101 630.695Z" fill="#878787"/>
<path id="512/Vector_2" d="M684.199 378.872C686.58 378.85 688.641 377.505 689.789 375.488L700.661 379.883C700.537 382.032 700.988 384.206 702.018 386.127C706.274 393.995 717.005 394.76 722.334 387.575C725.015 383.954 725.387 378.942 723.231 374.991C720.869 370.612 716.487 368.453 712.177 368.604C712.09 368.568 712.006 368.503 711.92 368.467L697.861 362.781C698.741 362.046 699.662 361.358 700.666 360.735C709.32 355.413 720.761 356.583 728.235 363.454C738.576 372.997 738.108 389.098 727.777 398.054C724.25 401.112 720.044 402.911 715.747 403.491C712.763 403.899 710.386 406.152 710.025 409.141L709.626 412.466C709.408 414.282 708.52 415.963 707.149 417.15L684.645 436.659C681.574 439.322 676.929 438.99 674.267 435.92L666.394 428.843C663.297 426.066 660.567 422.916 658.257 419.457L652.369 410.659C649.706 407.588 650.038 402.943 653.109 400.281L675.723 380.676C677.046 379.53 678.731 378.896 680.49 378.889L684.215 378.859L684.199 378.872Z" fill="#878787"/>
<g id="512/Group">
<path id="512/Vector_3" d="M372.827 707.225L359.189 719.048C353.066 714.371 346.588 708.649 340.663 701.814C334.738 694.98 329.925 687.677 326.223 680.957L339.861 669.134C343.622 675.859 348.38 683.098 354.333 689.964C360.285 696.83 366.69 702.532 372.827 707.225Z" fill="#878787"/>
<path id="512/Vector_4" d="M388.071 694.009L374.433 705.832C368.31 701.155 361.833 695.434 355.908 688.599C349.983 681.764 345.169 674.462 341.467 667.742L355.105 655.919C358.866 662.643 363.625 669.883 369.577 676.749C375.53 683.615 381.934 689.317 388.071 694.009Z" fill="#878787"/>
<path id="512/Vector_5" d="M342.134 733.833L328.307 745.82C322.796 741.467 317.094 736.259 311.825 730.18C305.176 722.511 300.024 714.372 296.144 707.033L309.577 695.387C313.433 702.444 318.397 710.111 324.704 717.387C330.274 723.812 336.341 729.283 342.134 733.833Z" fill="#878787"/>
<path id="512/Vector_6" d="M357.583 720.44L343.74 732.44C337.93 727.934 331.863 722.463 326.279 716.022C319.958 708.73 315.01 701.049 311.183 693.995L324.617 682.349C328.378 689.074 333.136 696.313 339.089 703.18C345.041 710.046 351.446 715.747 357.583 720.44Z" fill="#878787"/>
<path id="512/Vector_7" d="M310.266 731.531C315.522 737.594 321.207 742.816 326.716 747.198L317.078 755.554C314.747 757.574 311.287 757.623 308.902 755.636L307.45 754.439C298.132 746.712 290.145 737.499 283.805 727.163L282.826 725.556C281.211 722.93 281.736 719.495 284.067 717.474L294.54 708.396C298.462 715.752 303.633 723.848 310.268 731.502L310.266 731.531Z" fill="#878787"/>
<path id="512/Vector_8" d="M403.331 680.78L389.693 692.603C383.57 687.926 377.093 682.205 371.168 675.37C365.243 668.535 360.43 661.233 356.727 654.512L370.365 642.69C374.126 649.414 378.885 656.654 384.837 663.52C390.79 670.386 397.194 676.088 403.331 680.78Z" fill="#878787"/>
<path id="512/Vector_9" d="M386.412 662.154C380.446 655.272 375.674 648.017 371.971 641.297L382.617 632.068C385.405 629.651 389.671 630.118 391.851 633.11L397.761 641.2C401.059 645.705 404.718 649.925 408.71 653.83L415.879 660.827C418.532 663.41 418.388 667.699 415.601 670.116L404.939 679.358C398.816 674.681 392.339 668.96 386.414 662.125L386.412 662.154Z" fill="#878787"/>
</g>
</g>
<g id="512/Morgen">
<path id="512/Vector_10" d="M656.752 357.306L656.746 357.326C655.875 360.129 652.897 361.695 650.094 360.824L621.372 351.902C618.569 351.031 617.003 348.053 617.874 345.25L617.88 345.23C618.751 342.427 621.729 340.86 624.532 341.731L653.253 350.654C656.056 351.524 657.623 354.503 656.752 357.306Z" fill="white"/>
<path id="512/Vector_11" d="M713.956 377.287L713.948 377.306C712.849 380.028 709.751 381.342 707.029 380.242L674.412 367.058C671.69 365.958 670.376 362.861 671.476 360.139L671.484 360.12C672.583 357.399 675.681 356.084 678.403 357.184L711.02 370.368C713.742 371.468 715.056 374.566 713.956 377.287Z" fill="white"/>
<path id="512/Vector_12" d="M607.588 341.325L607.582 341.345C606.711 344.148 603.733 345.714 600.93 344.843L572.209 335.921C569.406 335.05 567.839 332.072 568.71 329.269L568.716 329.249C569.587 326.446 572.565 324.879 575.368 325.75L604.089 334.673C606.893 335.543 608.459 338.522 607.588 341.325Z" fill="white"/>
<g id="512/Group_2">
<path id="512/Vector_13" d="M679.306 355.283C678.071 354.781 676.764 354.673 675.54 354.852L658.222 349.48C657.196 349.156 656.154 349.067 655.112 349.17C654.756 348.982 654.382 348.837 653.993 348.706L644.264 345.692C648.391 341.48 654.697 339.655 660.71 341.531L678.243 346.992C682.391 348.278 685.78 351.105 687.809 354.973C688.565 356.386 689.08 357.871 689.371 359.384L679.318 355.328L679.306 355.283Z" fill="white"/>
<path id="512/Vector_14" d="M649.573 362.826C649.949 362.941 650.3 362.996 650.68 363.052C651.473 363.744 652.41 364.284 653.494 364.612L671.027 370.073C672.732 370.608 674.468 370.51 676.045 369.943L685.221 373.656C681.084 378.015 674.697 379.938 668.567 378.053L651.034 372.593C648.042 371.655 645.505 369.938 643.594 367.733C641.683 365.528 640.374 362.746 639.874 359.814L649.603 362.828L649.573 362.826Z" fill="white"/>
</g>
<g id="512/Group_3">
<path id="512/Vector_15" d="M625.273 339.758C625.013 339.681 624.764 339.648 624.531 339.602C624.503 339.57 624.476 339.539 624.449 339.507C623.507 338.421 622.281 337.58 620.821 337.136L603.288 331.675C602.377 331.389 601.452 331.308 600.519 331.345L589.316 327.872C593.443 323.66 599.749 321.834 605.762 323.711L623.294 329.171C629.567 331.126 633.791 336.539 634.596 342.654L625.273 339.758Z" fill="white"/>
<path id="512/Vector_16" d="M596.009 345.488C596.763 346.103 597.631 346.564 598.571 346.853L616.104 352.314C616.899 352.562 617.69 352.648 618.475 352.63C619.188 353.198 619.984 353.639 620.865 353.924L629.552 356.626C625.421 360.483 619.382 362.077 613.63 360.278L596.097 354.817C593.106 353.88 590.569 352.163 588.657 349.958C586.746 347.753 585.437 344.971 584.921 342.053L596.023 345.504L596.009 345.488Z" fill="white"/>
</g>
<path id="512/Vector_17" d="M496.997 304.521C501.601 294.654 509.938 286.517 520.984 282.458C523.957 281.37 526.949 280.652 529.962 280.246L537.636 265.457L545.06 280.894C556.593 283.475 566.827 290.794 572.905 301.496L588.414 303.222L577.719 314.59C580.275 327.848 576.363 341.28 567.705 351.02L571.399 366.768L556.213 360.1C554.398 361.093 552.531 361.995 550.544 362.725C542.138 365.819 533.416 366.099 525.331 364.06L513.315 374.89L511.803 357.968C504.644 353.114 498.849 346.111 495.63 337.371C493.082 330.423 492.427 323.24 493.447 316.398L483.256 307.22L496.997 304.521ZM555.478 335.58C544.056 338.09 558.917 338.337 562.605 337.787C561.305 334.06 559.869 330.367 557.222 327.283C557.163 329.982 557.645 332.543 558.383 335.049C557.414 335.172 556.427 335.338 555.465 335.565L555.478 335.58ZM508.626 336.421C512.455 337.433 516.325 338.27 520.333 337.803C518.125 336.242 515.729 335.229 513.229 334.445C513.661 333.574 514.08 332.659 514.426 331.752C518.689 320.857 510.21 333.062 508.61 336.435L508.626 336.421ZM529.271 302.581C531.221 300.725 532.689 298.57 533.947 296.266C534.717 296.867 535.518 297.441 536.366 297.975C546.215 304.277 535.896 293.583 532.893 291.359C531.177 294.916 529.588 298.555 529.271 302.581Z" fill="white"/>
</g>
</g>
</g>
</svg>
