<svg width="512" height="512" viewBox="896 2176 512 512" fill="none" xmlns="http://www.w3.org/2000/svg">
<defs xmlns="http://www.w3.org/2000/svg">
<clipPath id="clip0_268_10729">
<rect width="512" height="512" fill="white" transform="translate(256 256)"/>
</clipPath>
<clipPath id="clip1_268_10729">
<rect width="512" height="512" fill="white" transform="translate(896 256)"/>
</clipPath>
<clipPath id="clip2_268_10729">
<rect width="512" height="512" fill="white" transform="translate(1536 256)"/>
</clipPath>
<clipPath id="clip3_268_10729">
<rect width="512" height="512" fill="white" transform="translate(2176 256)"/>
</clipPath>
<clipPath id="clip4_268_10729">
<rect width="512" height="512" fill="white" transform="translate(2816 256)"/>
</clipPath>
<clipPath id="clip5_268_10729">
<rect width="512" height="512" fill="white" transform="translate(3456 256)"/>
</clipPath>
<clipPath id="clip6_268_10729">
<rect width="592.227" height="238.456" fill="white" transform="translate(3418.64 638.171) rotate(-45)"/>
</clipPath>
<clipPath id="clip7_268_10729">
<rect width="512" height="512" fill="white" transform="translate(4096 256)"/>
</clipPath>
<clipPath id="clip8_268_10729">
<rect width="512" height="512" fill="white" transform="translate(4736 256)"/>
</clipPath>
<clipPath id="clip9_268_10729">
<rect width="116.168" height="650.538" fill="white" transform="translate(4802 782) rotate(-135)"/>
</clipPath>
<clipPath id="clip10_268_10729">
<rect width="512" height="512" fill="white" transform="translate(5376 256)"/>
</clipPath>
<clipPath id="clip11_268_10729">
<rect width="512" height="512" fill="white" transform="translate(6016 256)"/>
</clipPath>
<clipPath id="clip12_268_10729">
<rect width="512" height="512" fill="white" transform="translate(4736 2816)"/>
</clipPath>
</defs>
<g xmlns="http://www.w3.org/2000/svg" id="512/Nachtwind">
<g id="512/Nachtwind_2">
<g id="512/Blade_32">
<path id="512/Vector_412" d="M1342.62 2276.76C1321.43 2301.13 1114.79 2505.66 1086.89 2533.28C1081.71 2520.32 1076.29 2505.65 1075.51 2500.46C1106.57 2470.37 1346.18 2237.64 1355.23 2214.36C1355.23 2214.36 1365.39 2250.61 1342.62 2276.76Z" fill="white"/>
</g>
<g id="512/Handle_35">
<path id="512/Vector_413" d="M993.587 2597.01C997.34 2592.55 1005.09 2591.46 1016.55 2593.7L993.05 2615.82C992.268 2613.82 988.453 2603.1 993.587 2597.01Z" fill="#878787"/>
<path id="512/Vector_414" d="M1026.82 2571.75C1023.85 2576.2 1015.62 2577.33 1002.87 2575.15C1009.86 2568.43 1017.22 2561.25 1024.27 2554.34C1026.9 2559.25 1030.03 2566.95 1026.82 2571.73L1026.82 2571.75Z" fill="#878787"/>
<path id="512/Vector_415" d="M1043.36 2547.79C1041.66 2549.75 1041.11 2552.29 1041.14 2554.89C1041.2 2560.77 1044.33 2566.96 1044.51 2567.34C1044.51 2567.34 1044.51 2567.36 1044.53 2567.38L1018.37 2591.98C1005.34 2589.22 996.437 2590.44 992.013 2595.69C989.584 2598.57 988.843 2602.22 988.88 2605.68C988.942 2611.42 991.138 2616.64 991.302 2616.97C991.343 2617.09 991.424 2617.17 991.505 2617.27L984.496 2623.87C982.951 2621.62 981.286 2619.26 979.439 2616.78C976.577 2612.91 973.474 2608.91 970.372 2604.98C974.877 2601.73 987.036 2590.4 1001.05 2576.93C1015.68 2579.65 1024.93 2578.31 1028.55 2572.91C1032.47 2567.05 1028.73 2558.11 1025.83 2552.84C1041.09 2537.87 1054.59 2524.45 1059.08 2519.98C1062.34 2527.55 1066.75 2537.52 1069.56 2543.85L1066.37 2546.86C1054.73 2543.35 1046.98 2543.63 1043.38 2547.81L1043.36 2547.79Z" fill="#878787"/>
<path id="512/Vector_416" d="M1044.92 2549.13C1047.8 2545.78 1054.6 2545.59 1064.63 2548.46L1046.1 2565.9C1045.03 2563.61 1040.87 2553.86 1044.92 2549.13Z" fill="#878787"/>
<path id="512/Vector_417" d="M977.772 2618C979.66 2620.56 981.386 2622.98 982.971 2625.28L982.971 2625.3C982.971 2625.3 982.991 2625.34 983.052 2625.4C983.316 2625.8 983.601 2626.2 983.865 2626.59C984.561 2628.09 984.81 2630.8 980.749 2634.47C980.749 2634.47 974.816 2640.65 969.71 2645.77C964.783 2650.7 959.488 2651.22 954.735 2644.39C946.893 2633.15 942.131 2625.52 952.129 2615.97C961.553 2606.97 964.503 2602.28 968.218 2605.58C971.483 2609.69 974.768 2613.93 977.772 2618ZM962.222 2617.17L955.811 2623.58C955 2624.38 954.689 2625.31 954.7 2626.29C954.718 2627.95 955.678 2629.82 956.798 2631.65L961.6 2639.31C962.409 2640.11 963.64 2641.13 965.116 2640.78C966.094 2640.55 966.826 2639.8 967.677 2638.95L974.917 2631.47C977.074 2629.31 975.482 2626.34 973.951 2623.48L969.909 2617.7C968.606 2615.6 967.18 2615.09 966.2 2615.02C964.779 2614.94 963.406 2615.67 962.183 2617.19L962.222 2617.17Z" fill="#878787"/>
<path id="512/Vector_418" d="M968.2 2618.8L968.241 2618.86L972.222 2624.56C973.794 2627.5 974.451 2629.06 973.481 2630.03L966.36 2637.4C965.668 2638.11 965.094 2638.68 964.675 2638.76C964.335 2638.85 963.832 2638.57 963.166 2637.94L958.566 2630.57C956.714 2627.59 956.357 2625.99 957.287 2625.04L963.757 2618.55C964.586 2617.52 965.401 2617.03 966.102 2617.09C967.002 2617.14 967.732 2618.05 968.2 2618.8Z" fill="#878787"/>
<path id="512/Vector_419" d="M1071.68 2490.24C1071.68 2490.24 1069.52 2499.11 1071.86 2503.18C1074.27 2513.28 1083.25 2535.44 1086.39 2543.07C1088.91 2550.52 1091.22 2562 1083.31 2565.48C1071.31 2570.75 1074.88 2557.05 1074.88 2557.05C1074.88 2557.05 1075.84 2550.86 1072.87 2546.27C1070.35 2540.62 1064.52 2527.5 1060.61 2518.4C1060.61 2518.4 1047.14 2486.33 1058.37 2483.3C1069.6 2480.3 1071.64 2490.24 1071.64 2490.24L1071.68 2490.24Z" fill="#878787"/>
</g>
</g>
</g>
</svg>
