<svg width="512" height="512" viewBox="6016 1536 512 512" fill="none" xmlns="http://www.w3.org/2000/svg">
<defs xmlns="http://www.w3.org/2000/svg">
<clipPath id="clip0_268_10729">
<rect width="512" height="512" fill="white" transform="translate(256 256)"/>
</clipPath>
<clipPath id="clip1_268_10729">
<rect width="512" height="512" fill="white" transform="translate(896 256)"/>
</clipPath>
<clipPath id="clip2_268_10729">
<rect width="512" height="512" fill="white" transform="translate(1536 256)"/>
</clipPath>
<clipPath id="clip3_268_10729">
<rect width="512" height="512" fill="white" transform="translate(2176 256)"/>
</clipPath>
<clipPath id="clip4_268_10729">
<rect width="512" height="512" fill="white" transform="translate(2816 256)"/>
</clipPath>
<clipPath id="clip5_268_10729">
<rect width="512" height="512" fill="white" transform="translate(3456 256)"/>
</clipPath>
<clipPath id="clip6_268_10729">
<rect width="592.227" height="238.456" fill="white" transform="translate(3418.64 638.171) rotate(-45)"/>
</clipPath>
<clipPath id="clip7_268_10729">
<rect width="512" height="512" fill="white" transform="translate(4096 256)"/>
</clipPath>
<clipPath id="clip8_268_10729">
<rect width="512" height="512" fill="white" transform="translate(4736 256)"/>
</clipPath>
<clipPath id="clip9_268_10729">
<rect width="116.168" height="650.538" fill="white" transform="translate(4802 782) rotate(-135)"/>
</clipPath>
<clipPath id="clip10_268_10729">
<rect width="512" height="512" fill="white" transform="translate(5376 256)"/>
</clipPath>
<clipPath id="clip11_268_10729">
<rect width="512" height="512" fill="white" transform="translate(6016 256)"/>
</clipPath>
<clipPath id="clip12_268_10729">
<rect width="512" height="512" fill="white" transform="translate(4736 2816)"/>
</clipPath>
</defs>
<g xmlns="http://www.w3.org/2000/svg" id="512/Nagaika">
<g id="512/Nagaika_2">
<g id="512/Handle_33">
<path id="512/Vector_397" d="M6349.76 1885.58C6335.82 1883.98 6321.7 1877.42 6310.74 1870.94C6306.34 1875.66 6301.68 1880.76 6296.82 1886.22C6308.26 1892.84 6323.02 1899.5 6337.1 1900.38C6341.3 1895.64 6345.52 1890.68 6349.76 1885.56V1885.58Z" fill="#878787"/>
<path id="512/Vector_398" d="M6370.82 1858.06C6360.22 1851.96 6353.36 1844.72 6349.96 1840.5C6348.44 1838.6 6347.26 1836.9 6346.32 1835.38C6343.4 1838.04 6337.34 1843.7 6329.16 1851.9C6339.62 1857.9 6352.74 1863.82 6365.56 1865.38C6367.34 1862.96 6369.1 1860.52 6370.84 1858.06H6370.82Z" fill="#878787"/>
<path id="512/Vector_399" d="M6363.52 1868.08C6350.46 1866.16 6337.38 1860.08 6327.02 1854.02C6322.74 1858.34 6317.96 1863.26 6312.76 1868.78C6323.92 1875.24 6338.22 1881.7 6351.98 1882.84C6355.86 1878.06 6359.72 1873.12 6363.52 1868.08Z" fill="#878787"/>
<path id="512/Vector_400" d="M6346.92 1831.86C6347.88 1833.5 6349.16 1835.48 6350.98 1837.72C6354.26 1841.8 6360.8 1849.02 6371.12 1854.9C6373.38 1855.9 6381.64 1861.7 6386.08 1853.4C6389.26 1847.46 6387.84 1843.4 6387.84 1843.4C6387.84 1843.4 6385.12 1842.28 6385.2 1842.26C6383.86 1841.54 6382.4 1840.7 6380.78 1839.64C6375.68 1836.26 6366.34 1828.88 6358.7 1816.5C6358.66 1816.86 6342.04 1814.76 6346.9 1831.86H6346.92Z" fill="#878787"/>
<path id="512/Vector_401" d="M6265.22 1924.2C6262.5 1927.7 6259.78 1931.26 6257.04 1934.9C6262.04 1946.18 6269.96 1951.4 6274.76 1953.64C6277.3 1954.82 6279.64 1955.48 6281.66 1955.86C6285.2 1952.76 6292.72 1946.06 6302.44 1936.64C6289.46 1935.72 6276.14 1930.18 6265.22 1924.2Z" fill="#878787"/>
<path id="512/Vector_402" d="M6279.5 1958.24C6277.7 1957.8 6275.7 1957.14 6273.6 1956.14C6271.1 1954.96 6267.78 1953.04 6264.44 1950C6260.84 1946.72 6257.2 1942.1 6254.42 1935.74C6252.18 1935.14 6247.62 1935.28 6241.72 1942.56C6232.24 1954.26 6245.48 1967.14 6245.48 1967.14C6245.48 1967.14 6255.18 1976.48 6261.84 1976.32C6267.48 1976.18 6282.42 1970.72 6279.5 1958.24Z" fill="#878787"/>
<path id="512/Vector_403" d="M6320.08 1918.9C6306.14 1918.26 6291.7 1912.14 6280.16 1905.66C6275.86 1910.84 6271.48 1916.24 6267.08 1921.86C6278.42 1927.98 6292.24 1933.56 6305.34 1933.84C6309.9 1929.38 6314.86 1924.36 6320.1 1918.9H6320.08Z" fill="#878787"/>
<path id="512/Vector_404" d="M6376.86 1794.1C6371.02 1797.92 6363.16 1804.56 6360.58 1813.62L6360.66 1813.58C6368.26 1827.08 6378.2 1834.9 6383.44 1838.38C6385.9 1840 6388.02 1841.12 6389.76 1841.92C6394.14 1839.74 6401.86 1834.4 6409.1 1822.26C6408.64 1821.6 6408.14 1820.92 6407.62 1820.22C6402.72 1813.68 6392.86 1802.78 6376.86 1794.1Z" fill="#878787"/>
<path id="512/Vector_405" d="M6334.66 1903.16C6320.48 1901.74 6306.04 1895.04 6294.88 1888.46C6290.72 1893.18 6286.44 1898.16 6282.06 1903.38C6293.98 1909.96 6308.9 1916.1 6322.82 1916.04C6326.66 1911.98 6330.64 1907.66 6334.66 1903.16Z" fill="#878787"/>
</g>
<g id="512/Whip">
<path id="512/Vector_406" d="M6138.44 1920.5C6138.32 1920.5 6138.22 1920.52 6138.12 1920.54C6138.12 1920.54 6139.96 1902.8 6120.54 1882.88C6101.12 1862.96 6064.96 1873.64 6064.96 1873.64C6064.96 1873.64 6058.62 1905.42 6081.94 1926.66C6094.96 1938.52 6107.56 1941.46 6116.16 1941.74C6122 1941.94 6127.72 1940.2 6132.52 1936.86L6135.66 1934.68C6138.36 1932.82 6138.82 1925.74 6138.46 1920.48L6138.44 1920.5ZM6090.64 1913.9C6097.7 1921.54 6107.56 1925.98 6117.24 1929.5C6114.68 1928.9 6112.1 1928.28 6109.54 1927.6C6101.92 1925.14 6094.52 1921.44 6088.68 1915.84C6080.32 1907.88 6075.92 1896.06 6077.78 1884.44C6102.06 1880.84 6120.44 1897.24 6125.78 1920.12C6118.4 1900.64 6102.74 1885.58 6081.06 1887.78C6080.28 1897.2 6084.2 1906.94 6090.66 1913.88L6090.64 1913.9Z" fill="white"/>
<path id="512/Vector_407" d="M6455.02 1797.54C6446.18 1795.7 6432.86 1801.08 6432.86 1801.08C6432.86 1801.08 6447.38 1788.98 6469.48 1785.88C6469.48 1785.88 6477.46 1783.28 6467.4 1781.76C6457.34 1780.24 6434.84 1793.34 6434.84 1793.34C6434.84 1793.34 6453.5 1775.3 6474.6 1770.66C6474.6 1770.66 6481.62 1765.92 6472.1 1765.36C6462.58 1764.8 6439.16 1782.48 6439.16 1782.48C6439.16 1782.48 6455.54 1765.72 6470.4 1762.7C6470.4 1762.7 6474.4 1757.04 6463.8 1759.1C6458.4 1760.14 6456.32 1761.52 6452.12 1763.42C6466.24 1747.42 6500.86 1700.86 6478.56 1649.94C6450.96 1586.92 6384.16 1590.7 6384.16 1590.7C6384.16 1590.7 6320.92 1585.32 6258.28 1660.4C6195.64 1735.46 6206.28 1817.12 6206.28 1817.12C6206.28 1817.12 6211.1 1909.98 6141.2 1920.2C6141.36 1922.5 6141.48 1926.22 6140.88 1929.68C6145.9 1928.52 6179.22 1920.1 6193.9 1898.5C6209.8 1875.1 6215.34 1847.34 6216.08 1816.82C6216.82 1786.3 6223.88 1720.22 6268.48 1674.66C6301.4 1641.02 6368.84 1580.94 6437.02 1631.56C6505.2 1682.2 6412.96 1772.98 6412.96 1772.98C6412.96 1772.98 6430 1744.58 6431.42 1728.68C6431.42 1728.68 6429.08 1723.82 6426.06 1730.3C6423.02 1736.78 6428.48 1734.26 6403.38 1774.42C6403.38 1774.42 6419.4 1732.7 6414.68 1720.4C6408.8 1705.02 6407.52 1731.24 6407.52 1731.24C6407.52 1731.24 6403.1 1761.28 6394.5 1778.76C6394.5 1778.76 6402.22 1753.16 6399.3 1737.14C6396.38 1721.12 6391.42 1737.92 6391.42 1737.92C6391.42 1737.92 6392.26 1774.02 6382.02 1790.32L6388.8 1794.86C6395.06 1799.06 6400.82 1803.96 6405.96 1809.48L6412.24 1816.24C6412.24 1816.24 6418.06 1816.14 6425.56 1810.7C6433.06 1805.26 6448.04 1803.48 6448.04 1803.48L6456.26 1803.02C6456.26 1803.02 6463.36 1799.32 6455 1797.58L6455.02 1797.54Z" fill="white"/>
</g>
</g>
</g>
</svg>
