<svg width="512" height="512" viewBox="4096 1536 512 512" fill="none" xmlns="http://www.w3.org/2000/svg">
<defs xmlns="http://www.w3.org/2000/svg">
<clipPath id="clip0_268_10729">
<rect width="512" height="512" fill="white" transform="translate(256 256)"/>
</clipPath>
<clipPath id="clip1_268_10729">
<rect width="512" height="512" fill="white" transform="translate(896 256)"/>
</clipPath>
<clipPath id="clip2_268_10729">
<rect width="512" height="512" fill="white" transform="translate(1536 256)"/>
</clipPath>
<clipPath id="clip3_268_10729">
<rect width="512" height="512" fill="white" transform="translate(2176 256)"/>
</clipPath>
<clipPath id="clip4_268_10729">
<rect width="512" height="512" fill="white" transform="translate(2816 256)"/>
</clipPath>
<clipPath id="clip5_268_10729">
<rect width="512" height="512" fill="white" transform="translate(3456 256)"/>
</clipPath>
<clipPath id="clip6_268_10729">
<rect width="592.227" height="238.456" fill="white" transform="translate(3418.64 638.171) rotate(-45)"/>
</clipPath>
<clipPath id="clip7_268_10729">
<rect width="512" height="512" fill="white" transform="translate(4096 256)"/>
</clipPath>
<clipPath id="clip8_268_10729">
<rect width="512" height="512" fill="white" transform="translate(4736 256)"/>
</clipPath>
<clipPath id="clip9_268_10729">
<rect width="116.168" height="650.538" fill="white" transform="translate(4802 782) rotate(-135)"/>
</clipPath>
<clipPath id="clip10_268_10729">
<rect width="512" height="512" fill="white" transform="translate(5376 256)"/>
</clipPath>
<clipPath id="clip11_268_10729">
<rect width="512" height="512" fill="white" transform="translate(6016 256)"/>
</clipPath>
<clipPath id="clip12_268_10729">
<rect width="512" height="512" fill="white" transform="translate(4736 2816)"/>
</clipPath>
</defs>
<g xmlns="http://www.w3.org/2000/svg" id="512/Nunchaku">
<g id="512/Nunchaku_2">
<g id="512/Chain">
<path id="512/Vector_259" d="M4473.4 1606.32C4472.88 1605.78 4472.5 1605.08 4472.38 1604.28C4472.06 1602.24 4473.46 1600.34 4475.48 1600.02L4496.68 1596.7C4498.72 1596.38 4500.62 1597.78 4500.94 1599.8C4501.26 1601.84 4499.86 1603.74 4497.84 1604.06L4476.64 1607.38C4475.4 1607.58 4474.22 1607.14 4473.4 1606.3V1606.32Z" fill="white"/>
<path id="512/Vector_260" d="M4443.4 1626.52C4443.28 1626.4 4443.16 1626.26 4443.06 1626.12C4441.84 1624.46 4442.18 1622.12 4443.84 1620.9L4461.1 1608.16C4462.76 1606.94 4465.12 1607.28 4466.32 1608.94C4467.54 1610.6 4467.2 1612.94 4465.54 1614.16L4448.28 1626.9C4446.76 1628.02 4444.68 1627.82 4443.4 1626.52Z" fill="white"/>
<path id="512/Vector_261" d="M4521.7 1713.7C4520.28 1712.26 4520.28 1709.94 4521.7 1708.48L4536.66 1693.1C4538.1 1691.62 4540.46 1691.6 4541.94 1693.02L4542 1693.08C4543.42 1694.52 4543.42 1696.84 4542 1698.3L4527.04 1713.68C4525.6 1715.16 4523.24 1715.18 4521.76 1713.76L4521.7 1713.7Z" fill="white"/>
<path id="512/Vector_262" d="M4511.66 1605.98C4510.62 1604.92 4510.28 1603.3 4510.9 1601.88C4511.72 1600 4513.92 1599.14 4515.82 1599.96L4535.48 1608.54C4537.34 1609.36 4538.24 1611.56 4537.4 1613.46C4536.56 1615.36 4534.38 1616.2 4532.48 1615.38L4512.82 1606.8C4512.36 1606.6 4511.98 1606.32 4511.64 1606L4511.66 1605.98Z" fill="white"/>
<path id="512/Vector_263" d="M4523.86 1605.54C4524 1604.88 4524.12 1604.26 4524.14 1603.6L4516.16 1600.04C4516.72 1601.26 4516.84 1602.6 4516.6 1603.94C4516.3 1605.34 4515.52 1606.52 4514.42 1607.42L4521.56 1610.6C4522.66 1609.1 4523.44 1607.4 4523.86 1605.54ZM4512.3 1608.5C4511.3 1608.8 4510.24 1608.84 4509.18 1608.62L4500.04 1606.6C4499.4 1606.48 4498.8 1606.24 4498.28 1605.92C4498.2 1605.94 4498.14 1605.94 4498.06 1605.98L4489.5 1607.26C4489.6 1607.48 4489.7 1607.68 4489.84 1607.86C4490.38 1608.68 4490.96 1609.42 4491.64 1610.12C4493.46 1611.98 4495.8 1613.3 4498.44 1613.86L4507.58 1615.88C4511.14 1616.68 4514.78 1616.04 4517.88 1614.08C4518.78 1613.5 4519.6 1612.8 4520.32 1612.04L4512.28 1608.48L4512.3 1608.5ZM4522.04 1595.26C4520.12 1592.18 4517.06 1590.06 4513.5 1589.26L4504.36 1587.24C4500.8 1586.44 4497.14 1587.06 4494.06 1589.04C4491.44 1590.72 4489.5 1593.18 4488.52 1596.14L4496.4 1594.96C4496.58 1594.94 4496.76 1594.92 4496.96 1594.88C4497.54 1594.84 4498.1 1594.92 4498.62 1595.08C4499.86 1594.38 4501.32 1594.22 4502.74 1594.54L4511.88 1596.56C4512.8 1596.76 4513.62 1597.16 4514.32 1597.72C4515.08 1597.72 4515.9 1597.84 4516.66 1598.2L4524.16 1601.54C4524 1599.34 4523.26 1597.2 4522.04 1595.26Z" fill="white"/>
<path id="512/Vector_264" d="M4474.92 1592.04C4471.32 1591.4 4467.7 1592.18 4464.68 1594.28L4457 1599.6C4454.02 1601.68 4452.02 1604.8 4451.38 1608.4C4451.08 1610.06 4451.08 1611.72 4451.36 1613.34L4459.76 1607.14C4459.76 1607.14 4459.82 1607.08 4459.86 1607.08H4459.88C4460.26 1606.54 4460.7 1606.08 4461.26 1605.7L4468.94 1600.38C4470.02 1599.62 4471.28 1599.24 4472.56 1599.28C4473.28 1598.68 4474.2 1598.24 4475.2 1598.1L4483.1 1596.94C4481.04 1594.3 4478.14 1592.62 4474.9 1592.02L4474.92 1592.04ZM4485.94 1607.82L4477.52 1609.08C4477.12 1609.62 4476.62 1610.12 4476.02 1610.54L4468.32 1615.9C4467.42 1616.52 4466.38 1616.9 4465.3 1616.98L4457.78 1622.52C4459.16 1623.36 4460.74 1623.94 4462.4 1624.26C4465.98 1624.92 4469.6 1624.1 4472.6 1622.04L4480.3 1616.68C4483.4 1614.52 4485.34 1611.28 4485.92 1607.82H4485.94Z" fill="white"/>
<path id="512/Vector_265" d="M4549.74 1647.12C4549.32 1646.7 4549 1646.16 4548.82 1645.54L4542.88 1624.92C4542.3 1622.94 4543.46 1620.88 4545.44 1620.3C4547.42 1619.72 4549.48 1620.86 4550.06 1622.84L4556 1643.46C4556.58 1645.44 4555.42 1647.5 4553.44 1648.08C4552.08 1648.48 4550.66 1648.06 4549.74 1647.1V1647.12Z" fill="white"/>
<path id="512/Vector_266" d="M4542.88 1685.02C4541.96 1684.08 4541.56 1682.7 4541.96 1681.36L4548.02 1660.78C4548.6 1658.8 4550.68 1657.68 4552.66 1658.26C4554.64 1658.84 4555.76 1660.92 4555.18 1662.9L4549.12 1683.48C4548.54 1685.46 4546.46 1686.58 4544.48 1686C4543.84 1685.82 4543.3 1685.48 4542.88 1685.04V1685.02Z" fill="white"/>
<path id="512/Vector_267" d="M4402.58 1692.98C4416.56 1678.58 4426.8 1668.1 4430 1664.98C4444.28 1650.98 4430.72 1638.28 4430.72 1638.28C4430.72 1638.28 4418.28 1624.46 4404 1638.46C4400.8 1641.58 4390.12 1651.62 4375.44 1665.3L4402.58 1693V1692.98Z" fill="white"/>
<path id="512/Vector_268" d="M4484.54 1776.66C4498.52 1762.26 4508.76 1751.78 4511.96 1748.66C4526.24 1734.66 4512.82 1721.94 4512.82 1721.94C4512.82 1721.94 4500.24 1708.12 4485.96 1722.12C4482.76 1725.24 4472.08 1735.28 4457.4 1748.96L4484.54 1776.66Z" fill="white"/>
<g id="512/Group_17">
<path id="512/Vector_269" d="M4552.64 1671.56L4555.22 1663.18L4552.64 1671.56Z" fill="white"/>
<path id="512/Vector_270" d="M4555.94 1643.4C4555.18 1642.9 4554.32 1642.6 4553.34 1642.5C4551.44 1642.32 4549.66 1643.02 4548.42 1644.24L4546.28 1636.68C4548.46 1635.48 4550.94 1634.88 4553.54 1635.04L4555.94 1643.4Z" fill="white"/>
<path id="512/Vector_271" d="M4543.7 1668.86C4543.14 1668.46 4542.62 1668.04 4542.16 1667.56C4541.9 1667.3 4541.62 1667 4541.38 1666.7C4539.06 1663.9 4537.96 1660.34 4538.32 1656.7L4539.18 1647.4C4539.54 1643.4 4541.62 1639.94 4544.64 1637.72L4547 1646.06C4547 1646.06 4547.02 1646.2 4547.06 1646.28C4546.82 1646.84 4546.66 1647.46 4546.6 1648.1L4545.76 1657.42C4545.64 1658.52 4545.84 1659.58 4546.3 1660.54L4543.7 1668.88V1668.86Z" fill="white"/>
<path id="512/Vector_272" d="M4560.62 1668.48C4558.86 1669.94 4556.82 1670.84 4554.66 1671.3L4557.06 1663.52C4557.34 1662.74 4557.32 1661.92 4557.22 1661.12C4557.68 1660.36 4557.98 1659.5 4558.06 1658.58L4558.94 1649.26C4559.06 1647.84 4558.7 1646.46 4557.92 1645.3C4558.04 1644.56 4557.98 1643.78 4557.76 1643L4555.56 1635.32C4558.56 1635.94 4561.28 1637.54 4563.24 1639.96C4565.58 1642.78 4566.68 1646.3 4566.32 1649.94L4565.46 1659.3C4565.14 1662.9 4563.38 1666.18 4560.6 1668.5L4560.62 1668.48Z" fill="white"/>
</g>
<g id="512/Group_18">
<path id="512/Vector_273" d="M4550.04 1622.8C4550.04 1622.84 4550.08 1622.86 4550.08 1622.88L4552.52 1631.4L4550.08 1622.9C4550.08 1622.86 4550.04 1622.84 4550.04 1622.8Z" fill="white"/>
<path id="512/Vector_274" d="M4532.08 1615.26L4524.5 1611.88C4524.82 1609.42 4525.82 1607.04 4527.48 1605.06L4534.88 1608.36C4534.54 1608.54 4534.18 1608.78 4533.9 1609.06C4532.12 1610.66 4531.48 1613.1 4532.1 1615.26H4532.08Z" fill="white"/>
<path id="512/Vector_275" d="M4543.64 1634.2C4540.3 1634.04 4537.04 1632.68 4534.56 1630.16L4534.14 1629.74L4527.88 1622.76C4525.62 1620.24 4524.44 1617.06 4524.4 1613.88L4531.64 1617.12C4532.14 1617.36 4532.7 1617.5 4533.24 1617.54C4533.3 1617.64 4533.34 1617.7 4533.42 1617.78L4539.66 1624.72C4540.12 1625.26 4540.68 1625.66 4541.26 1625.98L4543.62 1634.2H4543.64Z" fill="white"/>
<path id="512/Vector_276" d="M4554.08 1630.04L4551.88 1622.36C4551.6 1621.44 4551.1 1620.62 4550.4 1619.94C4550.28 1618.7 4549.8 1617.46 4548.88 1616.42L4542.62 1609.5L4542.42 1609.28C4541.36 1608.18 4539.9 1607.52 4538.36 1607.42C4537.96 1607.38 4537.56 1607.42 4537.22 1607.48C4536.94 1607.24 4536.6 1607.06 4536.22 1606.9L4528.78 1603.58L4528.88 1603.48C4534.44 1598.44 4543.14 1598.9 4548.14 1604.5L4554.4 1611.48C4559.22 1616.84 4558.96 1624.92 4554.06 1630.04H4554.08Z" fill="white"/>
</g>
<g id="512/Group_19">
<path id="512/Vector_277" d="M4528.16 1699.2L4527.74 1699.68C4525.94 1696.12 4525.66 1691.8 4527.44 1687.86L4531.3 1679.32C4532.78 1675.98 4535.48 1673.46 4538.9 1672.14C4540.24 1671.66 4541.6 1671.42 4542.96 1671.34L4540.4 1679.7C4539.4 1680.32 4538.6 1681.26 4538.08 1682.4L4534.24 1690.9C4533.88 1691.66 4533.7 1692.48 4533.72 1693.3L4528.18 1699.2H4528.16Z" fill="white"/>
<path id="512/Vector_278" d="M4544.7 1706.22C4542 1707.24 4539.14 1707.38 4536.5 1706.64L4542.52 1700.26L4543.42 1699.26C4543.96 1698.68 4544.36 1698.02 4544.62 1697.34C4544.96 1696.94 4545.24 1696.48 4545.48 1695.98L4549.34 1687.44C4549.56 1686.96 4549.62 1686.44 4549.7 1685.94C4550.18 1685.36 4550.54 1684.7 4550.74 1683.98L4553.42 1675.36C4554.72 1676.7 4555.8 1678.26 4556.46 1680.06C4557.76 1683.48 4557.66 1687.2 4556.14 1690.5L4552.3 1699.06C4550.78 1702.36 4548.1 1704.9 4544.68 1706.2L4544.7 1706.22Z" fill="white"/>
</g>
<g id="512/Group_20">
<path id="512/Vector_279" d="M4433.26 1635.76C4436.3 1638.82 4438.42 1642.18 4439.44 1645.66C4439.6 1646.24 4439.74 1646.78 4439.84 1647.34L4455.04 1632.44C4455.04 1632.44 4458.6 1628.2 4456.5 1622.48L4452.28 1625.54C4451.88 1625.82 4451.43 1626.11 4451.04 1626.44C4450.8 1627.42 4450.26 1628.36 4449.46 1629.14C4447.12 1631.44 4443.34 1631.42 4441.04 1629.08C4438.74 1626.74 4438.78 1622.94 4441.12 1620.64C4441.9 1619.88 4442.82 1619.4 4443.8 1619.16C4444.62 1618.5 4445.39 1617.94 4446.25 1617.32L4449.48 1614.82C4443.54 1611.92 4437.96 1614.82 4437.96 1614.82L4423.2 1629.28C4426.24 1630.2 4429.58 1632.04 4433.26 1635.74V1635.76Z" fill="white"/>
<path id="512/Vector_280" d="M4435.86 1646.72C4435 1643.8 4433.36 1641.26 4430.6 1638.4C4426.54 1634.34 4423.14 1632.86 4420.02 1632.4L4419.24 1633.18L4435.58 1651.52L4436.48 1650.64C4436.42 1649.48 4436.26 1648.14 4435.84 1646.74L4435.86 1646.72Z" fill="white"/>
</g>
<g id="512/Group_21">
<path id="512/Vector_281" d="M4515.18 1719.48C4518.34 1722.58 4520.34 1725.86 4521.38 1729.38C4521.5 1729.78 4521.58 1730.16 4521.66 1730.56L4533.76 1718.7C4533.76 1718.7 4537.46 1714.5 4534.84 1708.56L4534.22 1709.22L4530.56 1713.06C4530.28 1713.38 4529.9 1713.68 4529.54 1713.88C4529.3 1714.26 4529.04 1714.6 4528.72 1714.94C4526.48 1717.12 4522.9 1717.08 4520.72 1714.86C4518.54 1712.64 4518.58 1709.06 4520.8 1706.86C4521.18 1706.5 4521.6 1706.2 4522.04 1705.96C4522.16 1705.78 4522.26 1705.6 4522.42 1705.44L4525.3 1702.4L4526.96 1700.62C4521.34 1698.08 4516.64 1701.12 4516.64 1701.12L4504.68 1712.84C4507.84 1713.7 4511.32 1715.56 4515.2 1719.46L4515.18 1719.48Z" fill="white"/>
<path id="512/Vector_282" d="M4517.8 1730.44C4516.94 1727.52 4515.24 1724.98 4512.54 1722.12C4508.26 1717.8 4504.68 1716.44 4501.42 1716.04L4498.84 1718.56L4515.22 1736.88L4518.4 1733.76C4518.32 1732.74 4518.16 1731.62 4517.8 1730.42V1730.44Z" fill="white"/>
</g>
</g>
<g id="512/Handle_30">
<g id="512/Group_22">
<path id="512/Vector_283" d="M4204.1 1824.54L4194.04 1834.02L4230.16 1870.9L4239.86 1861.02L4204.1 1824.54Z" fill="#878787"/>
<path id="512/Vector_284" d="M4245.64 1855.14L4210.12 1818.86L4206.82 1821.98L4242.48 1858.36L4245.64 1855.14Z" fill="#878787"/>
<path id="512/Vector_285" d="M4169.48 1857.18L4206.5 1894.96L4209.68 1891.74L4172.78 1854.08L4169.48 1857.18Z" fill="#878787"/>
<path id="512/Vector_286" d="M4188.04 1839.68L4224.38 1876.78L4227.54 1873.56L4191.32 1836.58L4188.04 1839.68Z" fill="#878787"/>
<path id="512/Vector_287" d="M4175.5 1851.52L4212.3 1889.08L4221.76 1879.44L4185.32 1842.24L4175.5 1851.52Z" fill="#878787"/>
<path id="512/Vector_288" d="M4212.82 1816.3L4248.26 1852.48L4258.52 1842.02L4223.48 1806.26L4212.82 1816.3Z" fill="#878787"/>
<path id="512/Vector_289" d="M4252.1 1779.74L4285.62 1813.96C4289.26 1810.2 4293.18 1806.12 4297.34 1801.82L4264.48 1768.28C4260.1 1772.34 4255.94 1776.18 4252.1 1779.74Z" fill="#878787"/>
<path id="512/Vector_290" d="M4267.22 1765.74L4299.94 1799.12C4301 1798.02 4302.08 1796.9 4303.16 1795.78L4270.62 1762.58C4269.48 1763.64 4268.34 1764.7 4267.22 1765.74Z" fill="#878787"/>
<path id="512/Vector_291" d="M4203.9 1897.62L4166.78 1859.72L4152.78 1872.92C4152.78 1872.92 4123.94 1897.26 4145.74 1917.48C4165.5 1939.68 4190.42 1911.34 4190.42 1911.34L4203.9 1897.62Z" fill="#878787"/>
<path id="512/Vector_292" d="M4232.26 1798.1L4266.86 1833.4C4269.62 1830.54 4273.16 1826.88 4277.3 1822.58L4243.3 1787.88C4238.92 1791.94 4235.18 1795.4 4232.26 1798.1Z" fill="#878787"/>
<path id="512/Vector_293" d="M4246.04 1785.34L4279.88 1819.88C4280.9 1818.82 4281.94 1817.74 4283.02 1816.62L4249.36 1782.26C4248.22 1783.32 4247.12 1784.34 4246.04 1785.34Z" fill="#878787"/>
<path id="512/Vector_294" d="M4226.2 1803.72L4261.12 1839.36C4261.8 1838.64 4262.86 1837.54 4264.26 1836.1L4229.52 1800.64C4228.04 1802 4226.92 1803.04 4226.2 1803.72Z" fill="#878787"/>
</g>
<g id="512/Group_23">
<path id="512/Vector_295" d="M4327.62 1938.8L4292.08 1902.54L4288.8 1905.64L4324.44 1942.02L4327.62 1938.8Z" fill="#878787"/>
<path id="512/Vector_296" d="M4286.08 1908.2L4276.02 1917.68L4312.14 1954.56L4321.84 1944.68L4286.08 1908.2Z" fill="#878787"/>
<path id="512/Vector_297" d="M4257.46 1935.18L4294.26 1972.74L4303.74 1963.1L4267.3 1925.92L4257.46 1935.18Z" fill="#878787"/>
<path id="512/Vector_298" d="M4270 1923.36L4306.34 1960.44L4309.52 1957.22L4273.3 1920.24L4270 1923.36Z" fill="#878787"/>
<path id="512/Vector_299" d="M4251.46 1940.84L4288.48 1978.64L4291.66 1975.4L4254.74 1937.74L4251.46 1940.84Z" fill="#878787"/>
<path id="512/Vector_300" d="M4294.8 1899.98L4330.22 1936.14L4340.5 1925.7L4305.46 1889.92L4294.8 1899.98Z" fill="#878787"/>
<path id="512/Vector_301" d="M4314.24 1881.76L4348.84 1917.06C4351.6 1914.2 4355.14 1910.54 4359.28 1906.24L4325.28 1871.54C4320.9 1875.6 4317.16 1879.06 4314.24 1881.76Z" fill="#878787"/>
<path id="512/Vector_302" d="M4328.02 1869.02L4361.86 1903.56C4362.88 1902.5 4363.92 1901.42 4365 1900.3L4331.34 1865.94C4330.2 1867 4329.1 1868.02 4328.02 1869.02Z" fill="#878787"/>
<path id="512/Vector_303" d="M4285.86 1981.3L4248.74 1943.4L4234.74 1956.6C4234.74 1956.6 4205.9 1980.94 4227.7 2001.16C4247.46 2023.36 4272.38 1995.02 4272.38 1995.02L4285.86 1981.3Z" fill="#878787"/>
<path id="512/Vector_304" d="M4349.18 1849.42L4381.9 1882.8C4382.96 1881.7 4384.04 1880.58 4385.12 1879.46L4352.58 1846.26C4351.44 1847.32 4350.3 1848.38 4349.18 1849.42Z" fill="#878787"/>
<path id="512/Vector_305" d="M4308.18 1887.38L4343.1 1923.02C4343.78 1922.3 4344.84 1921.2 4346.24 1919.76L4311.5 1884.3C4310.02 1885.66 4308.9 1886.7 4308.18 1887.38Z" fill="#878787"/>
<path id="512/Vector_306" d="M4334.08 1863.4L4367.6 1897.62C4371.24 1893.86 4375.16 1889.78 4379.32 1885.48L4346.46 1851.94C4342.08 1856 4337.92 1859.84 4334.08 1863.4Z" fill="#878787"/>
</g>
<g id="512/Group_24">
<path id="512/Vector_307" d="M4369.98 1670.38C4342.44 1696.02 4303.8 1731.86 4273.36 1760.06L4305.74 1793.12C4334.56 1763.26 4371.18 1725.36 4397.38 1698.36L4369.98 1670.38Z" fill="#878787"/>
</g>
<g id="512/Group_25">
<path id="512/Vector_308" d="M4451.94 1754.04C4424.4 1779.68 4385.76 1815.52 4355.32 1843.72L4387.7 1876.78C4416.52 1846.92 4453.14 1809.02 4479.34 1782.02L4451.94 1754.04Z" fill="#878787"/>
</g>
</g>
</g>
</g>
</svg>
