<svg width="512" height="512" viewBox="2176 896 512 512" fill="none" xmlns="http://www.w3.org/2000/svg">
<defs xmlns="http://www.w3.org/2000/svg">
<clipPath id="clip0_268_10729">
<rect width="512" height="512" fill="white" transform="translate(256 256)"/>
</clipPath>
<clipPath id="clip1_268_10729">
<rect width="512" height="512" fill="white" transform="translate(896 256)"/>
</clipPath>
<clipPath id="clip2_268_10729">
<rect width="512" height="512" fill="white" transform="translate(1536 256)"/>
</clipPath>
<clipPath id="clip3_268_10729">
<rect width="512" height="512" fill="white" transform="translate(2176 256)"/>
</clipPath>
<clipPath id="clip4_268_10729">
<rect width="512" height="512" fill="white" transform="translate(2816 256)"/>
</clipPath>
<clipPath id="clip5_268_10729">
<rect width="512" height="512" fill="white" transform="translate(3456 256)"/>
</clipPath>
<clipPath id="clip6_268_10729">
<rect width="592.227" height="238.456" fill="white" transform="translate(3418.64 638.171) rotate(-45)"/>
</clipPath>
<clipPath id="clip7_268_10729">
<rect width="512" height="512" fill="white" transform="translate(4096 256)"/>
</clipPath>
<clipPath id="clip8_268_10729">
<rect width="512" height="512" fill="white" transform="translate(4736 256)"/>
</clipPath>
<clipPath id="clip9_268_10729">
<rect width="116.168" height="650.538" fill="white" transform="translate(4802 782) rotate(-135)"/>
</clipPath>
<clipPath id="clip10_268_10729">
<rect width="512" height="512" fill="white" transform="translate(5376 256)"/>
</clipPath>
<clipPath id="clip11_268_10729">
<rect width="512" height="512" fill="white" transform="translate(6016 256)"/>
</clipPath>
<clipPath id="clip12_268_10729">
<rect width="512" height="512" fill="white" transform="translate(4736 2816)"/>
</clipPath>
</defs>
<g xmlns="http://www.w3.org/2000/svg" id="512/Parang">
<g id="512/Parang_2">
<g id="512/Handle_15">
<path id="512/Handle_16" d="M2331.44 1233.06C2316.18 1242.16 2275.38 1268.18 2253 1298.78C2225.1 1336.9 2210 1349.5 2210 1349.5C2239.34 1368.18 2263.56 1354.74 2263.56 1354.74C2263.68 1344.86 2261.4 1340.2 2266.48 1330.5C2267.76 1328.08 2273.02 1322.58 2274.56 1320.12C2276.14 1317.6 2277.96 1312.22 2279.72 1309.76C2281.2 1307.68 2285.32 1305.06 2286.92 1303.04C2289.06 1300.32 2289.18 1297.48 2291.46 1294.88C2293.4 1292.66 2296.66 1291.36 2298.66 1289.22C2301.02 1286.7 2302.1 1282.96 2304.48 1280.6C2306.64 1278.48 2310.12 1277.72 2312.24 1275.74C2325.62 1263.28 2338.04 1253.86 2343.9 1249.58L2331.44 1233.06ZM2245.18 1346.92C2243.7 1348.4 2241.32 1348.42 2239.82 1346.94C2238.34 1345.46 2238.32 1343.08 2239.8 1341.58C2241.28 1340.1 2243.66 1340.08 2245.16 1341.56C2246.64 1343.04 2246.66 1345.42 2245.18 1346.92ZM2264.38 1313.62C2262.9 1315.1 2260.52 1315.12 2259.02 1313.64C2257.54 1312.16 2257.52 1309.78 2259 1308.28C2260.48 1306.78 2262.86 1306.78 2264.36 1308.26C2265.84 1309.74 2265.86 1312.12 2264.38 1313.62ZM2289.32 1284.42C2287.84 1285.9 2285.46 1285.92 2283.96 1284.44C2282.48 1282.96 2282.46 1280.58 2283.94 1279.08C2285.42 1277.6 2287.8 1277.58 2289.3 1279.06C2290.78 1280.54 2290.8 1282.92 2289.32 1284.42ZM2314.52 1260.82C2313.04 1259.34 2313.02 1256.96 2314.5 1255.46C2315.98 1253.96 2318.36 1253.96 2319.86 1255.44C2321.34 1256.92 2321.36 1259.3 2319.88 1260.8C2318.4 1262.28 2316.02 1262.3 2314.52 1260.82Z" fill="#878787"/>
</g>
<g id="512/Blade_17">
<path id="512/Blade_18" d="M2598.82 963.703C2535.68 1069.08 2429.04 1159.68 2397.16 1185.9C2392.14 1190.04 2375.88 1203 2368.64 1207.82L2337.46 1229.6C2337.46 1229.6 2336.56 1230.1 2334.94 1231.04L2347.18 1247.26C2347.36 1247.14 2349.58 1249.66 2349.58 1249.66L2368.48 1234.5L2459.54 1165.66C2603.8 1059.38 2653.44 950.483 2653.44 950.483C2613.16 935.243 2598.88 963.743 2598.88 963.743L2598.82 963.703ZM2515.22 1110.58C2474.58 1148 2425.74 1182.36 2381.92 1216.08L2372.24 1223.42C2370.18 1225.4 2366.46 1226.52 2366.44 1229.78C2366.44 1230.78 2367.02 1231.64 2367.4 1232.58C2367.48 1232.7 2367.26 1232.8 2367.2 1232.68C2364.08 1227.68 2368.7 1225.92 2372.02 1223.16L2381.62 1215.74C2438.52 1171.62 2498.18 1126.5 2547.7 1074.04C2581.24 1039.18 2613.84 1002.96 2635.52 959.383C2633.02 966.263 2628.5 974.183 2624.78 981.183C2596.5 1030.56 2557.06 1072.48 2515.2 1110.6L2515.22 1110.58Z" fill="white"/>
</g>
</g>
</g>
</svg>
