<svg width="512" height="512" viewBox="5376 3456 512 512" fill="none" xmlns="http://www.w3.org/2000/svg">
<defs xmlns="http://www.w3.org/2000/svg">
<clipPath id="clip0_268_10729">
<rect width="512" height="512" fill="white" transform="translate(256 256)"/>
</clipPath>
<clipPath id="clip1_268_10729">
<rect width="512" height="512" fill="white" transform="translate(896 256)"/>
</clipPath>
<clipPath id="clip2_268_10729">
<rect width="512" height="512" fill="white" transform="translate(1536 256)"/>
</clipPath>
<clipPath id="clip3_268_10729">
<rect width="512" height="512" fill="white" transform="translate(2176 256)"/>
</clipPath>
<clipPath id="clip4_268_10729">
<rect width="512" height="512" fill="white" transform="translate(2816 256)"/>
</clipPath>
<clipPath id="clip5_268_10729">
<rect width="512" height="512" fill="white" transform="translate(3456 256)"/>
</clipPath>
<clipPath id="clip6_268_10729">
<rect width="592.227" height="238.456" fill="white" transform="translate(3418.64 638.171) rotate(-45)"/>
</clipPath>
<clipPath id="clip7_268_10729">
<rect width="512" height="512" fill="white" transform="translate(4096 256)"/>
</clipPath>
<clipPath id="clip8_268_10729">
<rect width="512" height="512" fill="white" transform="translate(4736 256)"/>
</clipPath>
<clipPath id="clip9_268_10729">
<rect width="116.168" height="650.538" fill="white" transform="translate(4802 782) rotate(-135)"/>
</clipPath>
<clipPath id="clip10_268_10729">
<rect width="512" height="512" fill="white" transform="translate(5376 256)"/>
</clipPath>
<clipPath id="clip11_268_10729">
<rect width="512" height="512" fill="white" transform="translate(6016 256)"/>
</clipPath>
<clipPath id="clip12_268_10729">
<rect width="512" height="512" fill="white" transform="translate(4736 2816)"/>
</clipPath>
</defs>
<g xmlns="http://www.w3.org/2000/svg" id="512/Richtschwert">
<g id="512/Richtschwert_2">
<g id="512/Handle_62">
<path id="512/Vector_728" d="M5513.7 3830.88L5511.84 3832.78L5509.6 3838.98C5511 3841.08 5514.16 3846.28 5515.06 3851.68L5516.86 3849.1L5525.58 3843.38C5522.08 3837.86 5517.08 3833.46 5513.68 3830.86L5513.7 3830.88Z" fill="#878787"/>
<path id="512/Vector_729" d="M5492.56 3857.46L5481.72 3863.72L5476.56 3872.9C5477.96 3875.08 5480.32 3879.22 5481.36 3883.68L5481.56 3883.32L5490.94 3878.12L5496.58 3868.98C5496.7 3864.74 5494.58 3860.06 5492.84 3856.94L5492.58 3857.46H5492.56Z" fill="#878787"/>
<path id="512/Vector_730" d="M5460.08 3889.98L5451.7 3894.56L5448.68 3897.68L5447.42 3898.96C5450.26 3900.9 5454.94 3904.62 5457.44 3909.24L5462.64 3905.96L5465.04 3901.78C5464.88 3897.1 5462.28 3892.04 5460.54 3889.2L5460.06 3889.96L5460.08 3889.98Z" fill="#878787"/>
<path id="512/Vector_731" d="M5445.72 3900.22C5439.44 3900.74 5436.26 3900.56 5431.2 3906.06C5425.24 3912.54 5426.7 3918.4 5427.9 3921.52C5429.06 3924.66 5432.54 3928.16 5435.66 3929.42C5438.76 3930.68 5444.3 3931.7 5449.66 3927.08C5455.74 3921.84 5456.4 3919.32 5456.56 3912.06C5454.64 3906.68 5448.62 3902.16 5445.74 3900.24L5445.72 3900.22Z" fill="#878787"/>
<path id="512/Vector_732" d="M5466.96 3878.9L5461.76 3887.32C5463.24 3889.62 5465.82 3894.14 5466.74 3898.9L5467.5 3897.58L5476.04 3892.8L5479.82 3886.34C5479.34 3881.88 5476.9 3877.24 5475.3 3874.62L5466.96 3878.9Z" fill="#878787"/>
<path id="512/Vector_733" d="M5508.56 3841.86L5497.86 3847.14L5493.92 3854.8C5495.56 3857.52 5497.84 3862.02 5498.44 3866.56L5509.04 3860.28L5513.3 3854.18C5513.2 3849.42 5510.48 3844.2 5508.74 3841.34L5508.56 3841.84V3841.86Z" fill="#878787"/>
<path id="512/Vector_734" d="M5531.36 3799.46C5529.56 3799.74 5526.78 3800.34 5523.28 3800.82C5518.1 3801.52 5508.44 3810.74 5508.44 3810.74C5491.1 3805.3 5478.24 3811.66 5478.24 3811.66L5494.5 3817.28C5503.96 3821.62 5509.24 3825.08 5512.06 3827.24C5514.74 3829.02 5522.36 3834.54 5527.28 3842.32L5527.48 3842.2C5527.48 3842.2 5536.2 3851.88 5538.9 3872.84C5538.9 3872.84 5542.4 3880.96 5546.96 3873.06C5546.96 3873.06 5549.32 3868.86 5544.16 3851.4L5550.34 3845.8C5550.34 3845.8 5557.68 3838.92 5558.64 3830.28C5556.48 3803.4 5537.72 3799.9 5531.4 3799.5L5531.36 3799.46Z" fill="#878787"/>
</g>
<g id="512/Blade_54">
<path id="512/Vector_735" d="M5835.84 3525.62C5822.6 3514.7 5808.66 3519.68 5808.66 3519.68L5536.28 3796.22C5544.62 3798.04 5557.78 3804 5561.68 3823.3L5841.36 3552.5C5841.36 3552.5 5846.58 3539.04 5835.84 3525.62ZM5560.4 3786.78L5613.12 3730.62C5616.34 3727.38 5621.06 3726.6 5625.02 3728.24L5623.44 3729.82C5622.6 3729.56 5621.74 3729.4 5620.86 3729.4C5618.58 3729.4 5616.3 3730.26 5614.56 3732L5561.84 3788.16C5560.26 3789.74 5558.28 3792.3 5558.4 3795.06L5556.7 3796.76C5555.84 3793.64 5557.06 3790.12 5560.4 3786.78ZM5628.56 3745.94L5572.68 3799.36C5570.14 3801.9 5567.46 3803.2 5564.9 3803.2C5563.96 3803.2 5563.04 3803 5562.16 3802.66L5563.76 3801.06C5567 3801.72 5569.94 3799.3 5571.3 3797.96L5627.18 3744.54C5629.64 3742.08 5630.3 3738.5 5629.22 3735.4L5630.76 3733.86C5632.54 3737.84 5631.84 3742.7 5628.58 3745.98L5628.56 3745.94ZM5642.62 3719.5C5700.24 3657.06 5759.94 3596.5 5821.48 3537.94C5763.82 3600.36 5704.2 3660.94 5642.62 3719.5Z" fill="white"/>
</g>
</g>
</g>
</svg>
