<svg width="512" height="512" viewBox="1536 2816 512 512" fill="none" xmlns="http://www.w3.org/2000/svg">
<defs xmlns="http://www.w3.org/2000/svg">
<clipPath id="clip0_268_10729">
<rect width="512" height="512" fill="white" transform="translate(256 256)"/>
</clipPath>
<clipPath id="clip1_268_10729">
<rect width="512" height="512" fill="white" transform="translate(896 256)"/>
</clipPath>
<clipPath id="clip2_268_10729">
<rect width="512" height="512" fill="white" transform="translate(1536 256)"/>
</clipPath>
<clipPath id="clip3_268_10729">
<rect width="512" height="512" fill="white" transform="translate(2176 256)"/>
</clipPath>
<clipPath id="clip4_268_10729">
<rect width="512" height="512" fill="white" transform="translate(2816 256)"/>
</clipPath>
<clipPath id="clip5_268_10729">
<rect width="512" height="512" fill="white" transform="translate(3456 256)"/>
</clipPath>
<clipPath id="clip6_268_10729">
<rect width="592.227" height="238.456" fill="white" transform="translate(3418.64 638.171) rotate(-45)"/>
</clipPath>
<clipPath id="clip7_268_10729">
<rect width="512" height="512" fill="white" transform="translate(4096 256)"/>
</clipPath>
<clipPath id="clip8_268_10729">
<rect width="512" height="512" fill="white" transform="translate(4736 256)"/>
</clipPath>
<clipPath id="clip9_268_10729">
<rect width="116.168" height="650.538" fill="white" transform="translate(4802 782) rotate(-135)"/>
</clipPath>
<clipPath id="clip10_268_10729">
<rect width="512" height="512" fill="white" transform="translate(5376 256)"/>
</clipPath>
<clipPath id="clip11_268_10729">
<rect width="512" height="512" fill="white" transform="translate(6016 256)"/>
</clipPath>
<clipPath id="clip12_268_10729">
<rect width="512" height="512" fill="white" transform="translate(4736 2816)"/>
</clipPath>
</defs>
<g xmlns="http://www.w3.org/2000/svg" id="512/Sabel">
<g id="512/Sabel_2">
<g id="512/Blade_43">
<path id="512/Vector_513" d="M1993.82 2872.4L1676.22 3172.42C1678.28 3175.66 1680.5 3178.98 1682.42 3181.4C1685.26 3185.16 1688.64 3188.14 1692.36 3190.96L1971.92 2926.88C1971.92 2926.88 1994.68 2904.22 1993.82 2872.4Z" fill="white"/>
</g>
<g id="512/Handle_46">
<path id="512/Vector_514" d="M1602.38 3242.28C1600.78 3245.9 1599.3 3250.32 1598.66 3255.22C1606.5 3258.98 1615.3 3260.58 1623.74 3257.94C1623.74 3257.94 1624.08 3259.12 1624.28 3259.84C1624.48 3258.06 1624.86 3256.38 1625.52 3254.88C1625.52 3254.88 1625.52 3254.88 1625.52 3254.86C1618.84 3253.7 1612.32 3251.34 1607.06 3247C1605.34 3245.56 1603.78 3244 1602.34 3242.28H1602.38Z" fill="#878787"/>
<path id="512/Vector_515" d="M1598.58 3255.98C1598.1 3260.4 1598.32 3265.18 1599.74 3270.1C1608.22 3270.96 1616.78 3268.16 1624.14 3263.66C1624.12 3262.56 1624.14 3261.46 1624.22 3260.4C1615.32 3262.48 1606.38 3260.32 1598.58 3255.98Z" fill="#878787"/>
<path id="512/Vector_516" d="M1625.8 3254.4C1626.4 3253.3 1627.48 3251.8 1628.98 3249.98C1620.22 3246.34 1614 3238.92 1610.14 3230.44L1608.22 3232.26C1608.22 3232.26 1605.92 3235.14 1603.54 3239.86C1608.56 3247.62 1616.9 3252.22 1625.8 3254.4Z" fill="#878787"/>
<path id="512/Vector_517" d="M1600.42 3272.18C1601.66 3275.66 1603.54 3279.18 1606.22 3282.68C1614.16 3280.1 1621.26 3275.36 1625.2 3267.78C1624.74 3266.86 1624.34 3266.44 1624.32 3266.42L1624.36 3266.38C1624.36 3266.38 1624.32 3266.38 1624.3 3266.36C1624.22 3265.56 1624.18 3264.76 1624.14 3263.96C1617.76 3268.46 1610.38 3271.86 1602.52 3272.16C1601.82 3272.18 1601.12 3272.18 1600.42 3272.16V3272.18Z" fill="#878787"/>
<path id="512/Vector_518" d="M1662.1 3181.36L1654.28 3188.74C1658.62 3196.52 1665.08 3203.1 1673.72 3205.8C1675.94 3203.74 1677.34 3202.48 1677.54 3202.3C1667.74 3199.92 1663.36 3192.16 1661.92 3181.56C1664.56 3186.2 1665.94 3191.42 1669.2 3195.16C1672.36 3198.78 1676.94 3201 1681.48 3202.74C1680.86 3199.18 1681.4 3196.44 1683.12 3194.54C1684.96 3192.5 1687.7 3192 1689.62 3191.92C1682.16 3188.98 1676.5 3182.1 1673.92 3174.38L1667.84 3173.64C1667.84 3173.64 1656.92 3164.94 1665.16 3156.78C1665.16 3156.78 1674.46 3159.32 1673.88 3148.54C1673.3 3137.76 1661.38 3143.84 1661.38 3143.84C1661.38 3143.84 1657.54 3147.08 1658.28 3151.94C1658.28 3151.94 1649.12 3157.7 1654.58 3170.6C1654.58 3170.6 1655.9 3176.46 1662.08 3181.38L1662.1 3181.36Z" fill="#878787"/>
<path id="512/Vector_519" d="M1621.66 3231.44C1619.66 3229.32 1617.94 3227.04 1616.46 3224.46L1610.58 3230.02C1614.96 3238.24 1621.64 3245.22 1630.7 3247.98C1632.56 3245.84 1634.82 3243.42 1637.34 3240.82C1631.5 3238.88 1625.96 3235.9 1621.68 3231.44H1621.66Z" fill="#878787"/>
<path id="512/Vector_520" d="M1681.54 3202.94C1681.54 3202.94 1681.54 3202.92 1681.54 3202.9C1681.18 3202.86 1680.8 3202.84 1680.46 3202.78C1680.8 3202.84 1681.18 3202.88 1681.56 3202.94H1681.54Z" fill="#878787"/>
<path id="512/Vector_521" d="M1626.24 3270.78C1621.58 3277.38 1614.48 3281.38 1606.78 3283.4C1607.3 3284.04 1607.8 3284.68 1608.38 3285.32C1608.38 3285.32 1613.7 3293.06 1626.32 3280.72C1626.98 3276.28 1626.76 3273.04 1626.26 3270.8L1626.24 3270.78Z" fill="#878787"/>
<path id="512/Vector_522" d="M1690.98 3194.04C1689.7 3193.96 1686.48 3193.94 1684.66 3195.94C1683.3 3197.44 1683.02 3199.88 1683.74 3203.12C1683.86 3203.12 1683.98 3203.12 1684.1 3203.12C1687.18 3205.26 1694.6 3211.66 1696.32 3224.86C1697.5 3233.88 1692.34 3246.52 1680.88 3254.94C1671.06 3262.14 1656.92 3267.38 1646.56 3267.94C1636.54 3268.46 1630.7 3267.92 1627.3 3267.2C1628.32 3269.4 1629.34 3273.28 1628.62 3279.52C1631.22 3279.44 1635.38 3279.38 1641.98 3279.36C1665.98 3279.26 1690.3 3266.66 1697.56 3257.84C1707.42 3245.88 1708.3 3236.82 1707.06 3224.28C1706.04 3214.08 1695.04 3199.2 1690.98 3194.02V3194.04Z" fill="#878787"/>
<path id="512/Vector_523" d="M1625.2 3216.22L1618.34 3222.7C1622 3231.16 1629.4 3236.9 1637.78 3240.36C1639.52 3238.56 1641.38 3236.68 1643.3 3234.78C1635.02 3231.22 1629.02 3224.26 1625.2 3216.24V3216.22Z" fill="#878787"/>
<path id="512/Vector_524" d="M1664.98 3213.92C1667.5 3211.56 1669.78 3209.44 1671.7 3207.66C1663.52 3204.08 1657.58 3197.16 1653.78 3189.2L1649.18 3193.56C1651.36 3202.3 1657.5 3209.12 1664.98 3213.9V3213.92Z" fill="#878787"/>
<path id="512/Vector_525" d="M1636.4 3215.56C1635.02 3213.46 1633.84 3211.28 1632.9 3208.92L1625.68 3215.74C1630.04 3223.56 1636.54 3230.16 1645.22 3232.84C1646.96 3231.12 1648.72 3229.4 1650.5 3227.68C1644.96 3224.74 1639.9 3220.82 1636.4 3215.58V3215.56Z" fill="#878787"/>
<path id="512/Vector_526" d="M1650.88 3202.52C1649.4 3200.28 1648.18 3197.94 1647.22 3195.42L1640.22 3202.04C1644.6 3209.78 1651.06 3216.28 1659.68 3218.92C1661.34 3217.34 1662.96 3215.82 1664.5 3214.38C1659.14 3211.46 1654.3 3207.62 1650.88 3202.54V3202.52Z" fill="#878787"/>
<path id="512/Vector_527" d="M1650.94 3227.24C1653.2 3225.06 1655.46 3222.88 1657.66 3220.8C1649.46 3217.28 1643.52 3210.42 1639.68 3202.52L1634.82 3207.1C1637.16 3215.78 1643.38 3222.52 1650.92 3227.24H1650.94Z" fill="#878787"/>
</g>
</g>
</g>
</svg>
