<svg width="512" height="512" viewBox="896 2816 512 512" fill="none" xmlns="http://www.w3.org/2000/svg">
<defs xmlns="http://www.w3.org/2000/svg">
<clipPath id="clip0_268_10729">
<rect width="512" height="512" fill="white" transform="translate(256 256)"/>
</clipPath>
<clipPath id="clip1_268_10729">
<rect width="512" height="512" fill="white" transform="translate(896 256)"/>
</clipPath>
<clipPath id="clip2_268_10729">
<rect width="512" height="512" fill="white" transform="translate(1536 256)"/>
</clipPath>
<clipPath id="clip3_268_10729">
<rect width="512" height="512" fill="white" transform="translate(2176 256)"/>
</clipPath>
<clipPath id="clip4_268_10729">
<rect width="512" height="512" fill="white" transform="translate(2816 256)"/>
</clipPath>
<clipPath id="clip5_268_10729">
<rect width="512" height="512" fill="white" transform="translate(3456 256)"/>
</clipPath>
<clipPath id="clip6_268_10729">
<rect width="592.227" height="238.456" fill="white" transform="translate(3418.64 638.171) rotate(-45)"/>
</clipPath>
<clipPath id="clip7_268_10729">
<rect width="512" height="512" fill="white" transform="translate(4096 256)"/>
</clipPath>
<clipPath id="clip8_268_10729">
<rect width="512" height="512" fill="white" transform="translate(4736 256)"/>
</clipPath>
<clipPath id="clip9_268_10729">
<rect width="116.168" height="650.538" fill="white" transform="translate(4802 782) rotate(-135)"/>
</clipPath>
<clipPath id="clip10_268_10729">
<rect width="512" height="512" fill="white" transform="translate(5376 256)"/>
</clipPath>
<clipPath id="clip11_268_10729">
<rect width="512" height="512" fill="white" transform="translate(6016 256)"/>
</clipPath>
<clipPath id="clip12_268_10729">
<rect width="512" height="512" fill="white" transform="translate(4736 2816)"/>
</clipPath>
</defs>
<g xmlns="http://www.w3.org/2000/svg" id="512/Schwerer Dolch">
<g id="512/Schwerer Dolch_2">
<g id="512/Handle_45">
<path id="512/Vector_508" d="M1077.29 3157.8C1075.93 3162.32 1075.21 3166.98 1075.69 3171.6C1076.19 3174.96 1076.99 3178.7 1076.91 3182.24C1081.11 3179.82 1084.83 3174.54 1084.83 3174.54C1084.83 3174.54 1086.35 3172.26 1087.29 3167.9L1077.29 3157.78V3157.8Z" fill="#878787"/>
<path id="512/Vector_509" d="M1077.36 3157.84L1066.8 3147.16C1056.14 3145.62 1050.86 3148.72 1050.86 3148.72C1050.86 3148.72 1044.12 3152.96 1042.62 3157.94C1042.62 3157.94 1048.5 3157.64 1050.6 3157.6C1054.48 3157.32 1058.64 3158.36 1062.34 3158.94C1066.82 3159.46 1071.34 3158.82 1075.74 3157.6C1074.2 3158.5 1064.98 3162.02 1061.98 3161.68C1055.12 3160.02 1049.26 3159.84 1042.48 3159.72C1040.6 3159.88 1039.3 3160.46 1039.3 3160.46C1039.3 3160.46 1032.56 3164.7 1031.06 3169.68C1031.06 3169.68 1035.94 3169.7 1037.34 3169.68C1041.22 3169.4 1045.38 3170.44 1049.08 3171.02C1053.12 3171.5 1057.2 3171.02 1061.2 3170.04C1059.94 3170.66 1058.7 3171.2 1058.18 3171.42C1054.76 3172.38 1052.28 3174.16 1048.7 3173.78C1042.48 3172.28 1036.74 3171.72 1030.68 3171.54C1029.18 3172 1028.4 3172.44 1028.4 3172.44C1028.4 3172.44 1021.94 3176.5 1020.52 3181.26C1020.52 3181.26 1025.74 3181 1027.66 3180.96C1031.54 3180.68 1035.7 3181.72 1039.4 3182.3C1043.12 3182.74 1046.9 3182.38 1050.6 3181.56C1049.36 3182.42 1041.7 3185.34 1039.04 3185.06C1032.52 3183.48 1026.5 3182.96 1020.08 3182.82C1019.22 3183.14 1018.78 3183.4 1018.78 3183.4C1018.78 3183.4 1012.32 3187.46 1010.9 3192.22C1010.9 3192.22 1015.18 3192.48 1016.04 3192.46C1019.92 3192.18 1024.08 3193.22 1027.78 3193.8C1030.8 3194.16 1033.84 3193.98 1036.84 3193.46C1036.16 3194.06 1029.76 3196.8 1027.42 3196.54C1021.84 3195.2 1016.64 3194.62 1011.26 3194.38C1009.82 3194.82 1009.08 3195.24 1009.08 3195.24C1009.08 3195.24 1002.76 3199.2 1001.38 3203.86C1001.38 3203.86 1003.82 3204.22 1006.88 3204.74C1006.94 3204.74 1015.1 3205.02 1018.84 3205.38C1020.74 3205.5 1022.62 3205.34 1024.5 3205.1C1024.04 3206.04 1020.18 3208.22 1018.64 3208.14C1012.7 3207.06 1007.24 3206.8 1001.56 3206.92C1001.46 3206.98 1001.4 3207 1001.4 3207C1001.4 3207 995.88 3210.84 994.82 3215.1C994.82 3215.1 996.36 3215.26 998.48 3215.5C1001.96 3214.88 1005.78 3215.1 1009.16 3215.06C1011.1 3214.96 1013 3214.64 1014.88 3214.18C1014.04 3215 1010.26 3217.78 1009.26 3217.82C1004.46 3217.48 1000.04 3217.62 995.58 3218.06C994.24 3218.66 993.56 3219.2 993.56 3219.2C993.56 3219.2 989.18 3223.08 988.7 3226.86C988.7 3226.86 989.06 3226.86 989.64 3226.86C994.04 3225.34 998.8 3224.76 1003.38 3225.04C1003.76 3225.04 1004.14 3224.96 1004.52 3224.92C1004.28 3225.12 1004.04 3225.32 1003.8 3225.54C1003.2 3226.14 1000.4 3227.68 999.5 3227.68C995.96 3227.64 992.64 3227.9 989.14 3228.28C988.46 3228.92 987.36 3230.06 986.54 3231.38L1000.16 3245.52C1000.16 3245.52 1000.2 3245.42 1000.24 3245.36C999.96 3242.4 999.54 3239.46 998.8 3236.3C998.74 3235.72 998.8 3235.16 998.78 3234.6C999.66 3234.48 1000.6 3234.26 1001.5 3233.94C1001.5 3234.62 1001.48 3235.3 1001.54 3235.98C1002.16 3238.78 1002.46 3241.72 1002.4 3244.64C1005.36 3243.74 1008.06 3240.72 1008.06 3240.72C1008.06 3240.72 1008.6 3240.06 1009.12 3238.72C1009 3235.28 1008.6 3231.68 1008.74 3228.52C1008.88 3225.36 1010.02 3223.8 1010.92 3223.48C1010.76 3224.92 1010.68 3226.36 1010.78 3227.8C1010.98 3228.88 1011.1 3230 1011.2 3231.12C1011.88 3234.5 1012.48 3238.8 1012.48 3238.8C1014.92 3237.6 1017.1 3234.66 1018.12 3233.14C1018.42 3228.48 1017.76 3222.72 1017.9 3219.14C1018.04 3215.56 1020.9 3212.18 1021.86 3211.74C1021.6 3212.6 1021.24 3214.34 1021.24 3214.34L1020.98 3215.52C1020.98 3215.52 1020.68 3217.9 1020.68 3219.1C1021.06 3222.74 1020.92 3226.5 1020.18 3230.16C1020.24 3231.44 1020.26 3232.28 1020.26 3232.28C1024.18 3230.78 1028.02 3225.32 1028.02 3225.32C1028.02 3225.32 1028.62 3224.36 1029.26 3222.56C1029.24 3218.72 1029.04 3215.04 1028.34 3210.92C1028.26 3208.62 1031.08 3203.68 1031.96 3203.38C1031.34 3205.8 1030.98 3208.26 1031.12 3210.76C1031.74 3214.66 1031.7 3218.78 1030.9 3222.72C1030.94 3223.88 1030.96 3224.66 1030.96 3224.66C1035.32 3223 1039.58 3216.96 1039.58 3216.96C1039.58 3216.96 1040 3216.3 1040.54 3215.04C1040.18 3212.6 1039.76 3210.12 1039.12 3207.58C1038.52 3202.36 1043.04 3191.98 1043.7 3191.76C1042.1 3196.78 1041.24 3202.04 1041.88 3207.2C1041.98 3207.76 1042.08 3208.34 1042.18 3208.92C1042.2 3208.78 1042.22 3208.66 1042.24 3208.52C1042.26 3208.88 1042.28 3209.26 1042.3 3209.6C1042.62 3211.3 1042.92 3213.06 1043.1 3214.8C1047.34 3212.82 1051.32 3207.18 1051.32 3207.18C1051.32 3207.18 1051.72 3206.56 1052.22 3205.38C1051.9 3202.32 1051.46 3199.24 1050.72 3196.02C1050.2 3190.76 1055.68 3178.82 1056.46 3177.76C1054.22 3183.5 1052.82 3189.64 1053.46 3195.68C1053.88 3198.56 1054.56 3201.72 1054.68 3204.8C1058.64 3202.56 1062.18 3197.56 1062.18 3197.56C1062.18 3197.56 1063.08 3196.16 1063.9 3193.52C1063.38 3191.36 1062.8 3189.18 1062.06 3186.96C1061.08 3182.06 1063.68 3174.52 1065.72 3169.26C1064.24 3174.88 1063.6 3180.76 1064.76 3186.36C1065.36 3188.78 1066.16 3191.4 1066.64 3194.02C1070.74 3191.54 1074.32 3186.46 1074.32 3186.46C1074.32 3186.46 1075.06 3185.34 1075.84 3183.16C1075.52 3179.96 1075.06 3176.74 1074.3 3173.38C1073.76 3168.02 1074.98 3162.68 1077.32 3157.9L1077.36 3157.84Z" fill="#878787"/>
<path id="512/Vector_510" d="M1002.94 3258.74C1000.42 3251.54 999.2 3248.18 998.64 3246.74L983.72 3231.66C982.3 3231.08 978.96 3229.84 971.78 3227.22C953.64 3220.62 950.38 3237.78 950.38 3237.78C956.18 3243.3 953.46 3250.62 953.46 3250.62C962.94 3256.16 960.2 3269.82 960.2 3269.82C960.2 3269.82 973.88 3267.24 979.32 3276.78C979.32 3276.78 986.68 3274.14 992.16 3280.02C992.16 3280.02 1009.34 3276.94 1002.94 3258.72V3258.74ZM962.66 3245.7C964.44 3240.7 960.9 3237.38 960.9 3237.38C969.84 3236.12 977.94 3241.8 977.94 3241.8C969.44 3239.76 962.66 3245.72 962.66 3245.72V3245.7ZM972.9 3262.6C972.9 3262.6 969.62 3261.96 966.8 3263.46C966.8 3263.46 967.92 3260.4 967.02 3257.48C967.02 3257.48 973.82 3250.78 980.16 3250.3C980.16 3250.3 980.54 3254.88 972.92 3262.6H972.9ZM992.22 3269.06C992.22 3269.06 988.92 3265.48 983.92 3267.2C983.92 3267.2 989.96 3260.48 988 3251.96C988 3251.96 993.58 3260.12 992.22 3269.04V3269.06Z" fill="#878787"/>
<path id="512/Vector_511" d="M1158.4 3153.64C1158.4 3153.64 1145.68 3140.12 1134.5 3153.26C1123.32 3166.42 1139.98 3168.54 1139.98 3168.54L1142.96 3172.88C1142.96 3172.88 1131.22 3183.82 1121.48 3168.92C1111.74 3154.02 1114.08 3156.9 1114.08 3156.9C1110.74 3153.08 1106.6 3149.4 1106.54 3149.34L1104.98 3147.98L1106.4 3146.48C1106.4 3146.48 1110.56 3141.98 1110.32 3136.32C1110.18 3132.86 1108.44 3129.6 1105.14 3126.6C1094.48 3116.9 1086.94 3124.08 1086.62 3124.38L1085.3 3125.68L1083.9 3124.48C1080.32 3121.38 1076.42 3118.66 1074.04 3117.06C1072.6 3116.18 1069.5 3114.2 1063.1 3109.9C1048.32 3100 1059.4 3088.4 1059.4 3088.4L1063.72 3091.42C1063.72 3091.42 1065.62 3108.08 1078.9 3097.06C1092.18 3086.02 1078.82 3073.18 1078.82 3073.18C1078.82 3073.18 1068.9 3057.12 1045.8 3074.66C1022.7 3092.2 1041.12 3118.4 1041.12 3118.4L1063 3140.52L1090.86 3168.68L1112.76 3190.82C1112.76 3190.82 1138.74 3209.54 1156.54 3186.64C1174.34 3163.74 1158.4 3153.64 1158.4 3153.64ZM1098.42 3142.22C1096 3144.62 1092.1 3144.58 1089.7 3142.18C1087.3 3139.78 1087.34 3135.86 1089.74 3133.48C1092.16 3131.08 1096.06 3131.12 1098.46 3133.52C1100.86 3135.94 1100.82 3139.84 1098.42 3142.22Z" fill="#878787"/>
</g>
<g id="512/Blade_42">
<path id="512/Vector_512" d="M1166.28 3030.46C1123.92 3071.62 1087.96 3105.36 1077.88 3114.78C1079.98 3116.22 1082.64 3118.16 1085.3 3120.36C1088.62 3118.06 1097.28 3113.98 1107.86 3123.62C1112 3127.38 1114.18 3131.6 1114.34 3136.2C1114.54 3141.3 1112.14 3145.48 1110.6 3147.64C1112.12 3149.06 1114.6 3151.46 1116.86 3154C1126.56 3143.86 1160.62 3108.42 1202.08 3066.68C1295.16 2973.04 1352.78 2909.02 1363.4 2871.38C1325.68 2881.6 1261 2938.5 1166.28 3030.46ZM1221.6 3013.5C1202.8 3031.3 1164.88 3069.34 1146 3086.08C1194.06 3038.04 1244.64 2983.98 1295.04 2938.72L1295.28 2938.96C1271.72 2964.8 1246.86 2989.32 1221.6 3013.48V3013.5Z" fill="white"/>
</g>
</g>
</g>
</svg>
