<svg width="512" height="512" viewBox="0 0 512 512" fill="none" xmlns="http://www.w3.org/2000/svg">
  <path d="M188 96C158 148 156 210 188 260L230 326L198 350L154 280C110 210 116 126 158 66L188 96Z" fill="#151515"/>
  <path d="M324 96C354 148 356 210 324 260L282 326L314 350L358 280C402 210 396 126 354 66L324 96Z" fill="#151515"/>
  <path d="M192 324C226 294 286 294 320 324L302 388C274 406 238 406 210 388L192 324Z" fill="#151515"/>
  <path d="M220 332C244 318 268 318 292 332L282 366C266 376 246 376 230 366L220 332Z" fill="#878787"/>
</svg>
