<svg width="512" height="512" viewBox="2176 256 512 512" fill="none" xmlns="http://www.w3.org/2000/svg">
<defs xmlns="http://www.w3.org/2000/svg">
<clipPath id="clip0_268_10729">
<rect width="512" height="512" fill="white" transform="translate(256 256)"/>
</clipPath>
<clipPath id="clip1_268_10729">
<rect width="512" height="512" fill="white" transform="translate(896 256)"/>
</clipPath>
<clipPath id="clip2_268_10729">
<rect width="512" height="512" fill="white" transform="translate(1536 256)"/>
</clipPath>
<clipPath id="clip3_268_10729">
<rect width="512" height="512" fill="white" transform="translate(2176 256)"/>
</clipPath>
<clipPath id="clip4_268_10729">
<rect width="512" height="512" fill="white" transform="translate(2816 256)"/>
</clipPath>
<clipPath id="clip5_268_10729">
<rect width="512" height="512" fill="white" transform="translate(3456 256)"/>
</clipPath>
<clipPath id="clip6_268_10729">
<rect width="592.227" height="238.456" fill="white" transform="translate(3418.64 638.171) rotate(-45)"/>
</clipPath>
<clipPath id="clip7_268_10729">
<rect width="512" height="512" fill="white" transform="translate(4096 256)"/>
</clipPath>
<clipPath id="clip8_268_10729">
<rect width="512" height="512" fill="white" transform="translate(4736 256)"/>
</clipPath>
<clipPath id="clip9_268_10729">
<rect width="116.168" height="650.538" fill="white" transform="translate(4802 782) rotate(-135)"/>
</clipPath>
<clipPath id="clip10_268_10729">
<rect width="512" height="512" fill="white" transform="translate(5376 256)"/>
</clipPath>
<clipPath id="clip11_268_10729">
<rect width="512" height="512" fill="white" transform="translate(6016 256)"/>
</clipPath>
<clipPath id="clip12_268_10729">
<rect width="512" height="512" fill="white" transform="translate(4736 2816)"/>
</clipPath>
</defs>
<g xmlns="http://www.w3.org/2000/svg" id="512/Speer" clip-path="url(#clip3_268_10729)">
<g id="512/Speer_2">
<path id="512/Blade_3" d="M2557.18 379.829C2546.94 353.254 2524.35 369.573 2524.35 369.573C2524.35 369.573 2545.34 378.911 2540.03 390.903C2537.08 397.546 2532.15 397.597 2526.26 397.893C2524.17 398.006 2522.59 399.73 2522.51 401.823C2522.46 403.486 2522.16 405.548 2521.3 407.793C2519.69 412.079 2516.35 415.008 2511.79 419.734C2512.65 424.428 2521.06 434.266 2528.29 436.563C2534.08 431.143 2536.18 428.612 2539.87 426.898C2541.64 426.092 2544.25 425.52 2546.43 425.347C2548.12 425.204 2549.5 423.969 2549.94 422.326C2550.86 418.876 2553.12 413.773 2558.05 411.334C2564.43 408.181 2575.3 412.498 2583.74 428.98C2593.81 410.212 2581.45 400.669 2574.88 397.546C2591.86 391.688 2604.04 379.86 2620.39 360.02C2636.28 340.742 2642.1 331.363 2677.19 263.005C2629.63 305.869 2597.75 339.242 2557.16 379.829L2557.18 379.829ZM2571.24 392.209L2570.82 392.709C2567.26 392.842 2563.74 393.852 2560.41 395.117C2550.46 398.802 2542.6 409.742 2545.03 420.499C2538.41 416.447 2532.06 411.283 2528.7 404.109L2528.94 403.966C2530.88 406.905 2533.03 409.722 2535.67 411.957C2537.83 413.814 2540.21 415.396 2542.67 416.876C2542.13 410.089 2545.59 403.486 2550.18 398.689C2554.62 393.862 2560.91 391.352 2567.2 390.127C2567.89 390.004 2568.61 389.892 2569.35 389.831C2599.72 355.356 2632.27 315.911 2662.72 282.498C2636.13 314.309 2597.6 361.01 2571.22 392.229L2571.24 392.209Z" fill="white"/>
<g id="512/Handle_4">
<path id="512/Vector_39" d="M2213.15 748.233L2213.1 748.284C2212.44 748.948 2211.48 749.131 2210.78 748.723C2208.49 747.366 2206.17 745.662 2204.06 743.549C2201.95 741.436 2200.23 739.089 2198.88 736.783C2198.49 736.099 2198.67 735.139 2199.33 734.476L2199.38 734.425C2200.27 733.537 2201.62 733.558 2202.18 734.466C2203.48 736.558 2205.07 738.681 2207.01 740.62C2208.95 742.559 2211.03 744.131 2213.13 745.437C2214.04 745.998 2214.05 747.335 2213.16 748.223L2213.15 748.233Z" fill="#878787"/>
<path id="512/Vector_40" d="M2189.44 739.242C2191.81 737.752 2194.89 736.997 2197.28 737.446C2197.33 737.599 2197.39 737.722 2197.47 737.864C2199.02 740.487 2200.8 742.824 2202.79 744.815C2204.78 746.805 2207.08 748.57 2209.69 750.121C2209.83 750.203 2209.98 750.264 2210.13 750.315C2210.6 752.806 2209.76 756.031 2208.15 758.439C2207.57 759.307 2206.45 759.674 2205.45 759.347C2200.55 757.714 2197.57 759.592 2195.69 760.552C2194.99 760.899 2195.69 760.552 2194.99 760.899C2194.17 759.745 2190.9 760.827 2188.83 758.755C2186.76 756.684 2187.85 753.428 2186.7 752.581L2187.04 751.887C2187.97 750.06 2190 746.172 2188.48 742.222C2188.05 741.12 2188.44 739.875 2189.44 739.242Z" fill="#878787"/>
<path id="512/Vector_41" d="M2521.66 435.532L2305.01 652.188C2305.01 652.188 2302.02 651.239 2299.18 648.402C2296.34 645.564 2295.44 642.615 2295.44 642.615L2512.09 425.959C2512.09 425.959 2513.39 428.255 2516.38 431.245C2519.37 434.236 2521.66 435.532 2521.66 435.532Z" fill="#878787"/>
<g id="512/Group_5">
<path id="512/Vector_42" d="M2253.9 678.58L2250.06 681.876C2248.57 683.162 2247.11 684.499 2245.71 685.877C2245.27 686.826 2244.82 687.785 2244.4 688.755C2242.1 694.143 2240.23 699.767 2239.44 705.574C2238.77 710.472 2238.82 715.687 2240.75 720.29L2251.9 710.728C2250.45 707.972 2249.68 704.951 2249.43 701.849C2248.77 693.878 2250.87 686.02 2253.89 678.569L2253.9 678.58Z" fill="#878787"/>
<path id="512/Vector_43" d="M2227.73 717.31C2227.13 721.77 2227.13 726.465 2228.57 730.751L2239.63 721.27C2238.55 718.841 2237.94 716.238 2237.72 713.585C2237.01 705.145 2239.4 696.817 2242.73 688.979C2242.09 689.683 2241.45 690.377 2240.83 691.102L2232.58 700.746C2230.32 706.043 2228.5 711.595 2227.72 717.32L2227.73 717.31Z" fill="#878787"/>
<path id="512/Vector_44" d="M2286.53 650.626L2277.78 658.127C2276.32 662.118 2275.18 666.221 2274.62 670.415C2273.94 675.446 2274.03 680.804 2276.1 685.489L2286.2 673.691C2285.31 671.466 2284.81 669.088 2284.61 666.69C2284.15 661.25 2285 655.852 2286.54 650.616L2286.53 650.626Z" fill="#878787"/>
<path id="512/Vector_45" d="M2229.61 704.196L2219.38 716.136C2217.82 720.311 2216.6 724.617 2216 729.036C2215.46 733.027 2215.39 737.232 2216.44 741.151L2227.4 731.761C2226.64 729.7 2226.18 727.526 2226 725.322C2225.4 718.127 2227.06 711.013 2229.61 704.216L2229.61 704.196Z" fill="#878787"/>
<path id="512/Vector_46" d="M2272.89 678.416C2272.37 672.181 2273.54 666.006 2275.53 660.056L2267.01 667.353C2265.09 672.109 2263.58 677.049 2262.9 682.141C2262.15 687.622 2262.3 693.49 2264.98 698.45C2265.23 698.154 2265.5 697.868 2265.76 697.562L2275.09 686.683C2273.84 684.101 2273.14 681.284 2272.91 678.416L2272.89 678.416Z" fill="#878787"/>
<path id="512/Vector_47" d="M2214.27 737.028C2213.77 730.996 2214.85 725.015 2216.71 719.239L2204.2 733.833C2204.2 733.833 2205.12 736.793 2207.94 739.62C2210.77 742.447 2213.77 743.406 2213.77 743.406L2215.22 742.161C2214.72 740.497 2214.4 738.773 2214.26 737.017L2214.27 737.028Z" fill="#878787"/>
<path id="512/Vector_48" d="M2288.67 648.789C2287.62 652.025 2286.79 655.331 2286.33 658.709C2285.7 663.271 2285.72 668.088 2287.29 672.446L2302.38 654.841C2302.38 654.841 2299.56 654.066 2296.57 651.075C2293.58 648.085 2292.81 645.268 2292.81 645.268L2288.68 648.8L2288.67 648.789Z" fill="#878787"/>
<path id="512/Vector_49" d="M2263.81 699.369C2262.23 696.521 2261.44 693.357 2261.17 690.133C2260.59 683.06 2262.18 676.059 2264.65 669.364L2256.4 676.437C2256.31 676.641 2256.21 676.824 2256.13 677.028C2253.82 682.417 2251.96 688.04 2251.17 693.847C2250.45 699.185 2250.59 704.88 2253.05 709.748L2256.53 706.758C2259.15 704.502 2261.64 702.094 2263.97 699.542C2263.92 699.491 2263.86 699.43 2263.8 699.358L2263.81 699.369Z" fill="#878787"/>
</g>
</g>
</g>
</g>
</svg>
