<svg width="512" height="512" viewBox="4736 256 512 512" fill="none" xmlns="http://www.w3.org/2000/svg">
<defs xmlns="http://www.w3.org/2000/svg">
<clipPath id="clip0_268_10729">
<rect width="512" height="512" fill="white" transform="translate(256 256)"/>
</clipPath>
<clipPath id="clip1_268_10729">
<rect width="512" height="512" fill="white" transform="translate(896 256)"/>
</clipPath>
<clipPath id="clip2_268_10729">
<rect width="512" height="512" fill="white" transform="translate(1536 256)"/>
</clipPath>
<clipPath id="clip3_268_10729">
<rect width="512" height="512" fill="white" transform="translate(2176 256)"/>
</clipPath>
<clipPath id="clip4_268_10729">
<rect width="512" height="512" fill="white" transform="translate(2816 256)"/>
</clipPath>
<clipPath id="clip5_268_10729">
<rect width="512" height="512" fill="white" transform="translate(3456 256)"/>
</clipPath>
<clipPath id="clip6_268_10729">
<rect width="592.227" height="238.456" fill="white" transform="translate(3418.64 638.171) rotate(-45)"/>
</clipPath>
<clipPath id="clip7_268_10729">
<rect width="512" height="512" fill="white" transform="translate(4096 256)"/>
</clipPath>
<clipPath id="clip8_268_10729">
<rect width="512" height="512" fill="white" transform="translate(4736 256)"/>
</clipPath>
<clipPath id="clip9_268_10729">
<rect width="116.168" height="650.538" fill="white" transform="translate(4802 782) rotate(-135)"/>
</clipPath>
<clipPath id="clip10_268_10729">
<rect width="512" height="512" fill="white" transform="translate(5376 256)"/>
</clipPath>
<clipPath id="clip11_268_10729">
<rect width="512" height="512" fill="white" transform="translate(6016 256)"/>
</clipPath>
<clipPath id="clip12_268_10729">
<rect width="512" height="512" fill="white" transform="translate(4736 2816)"/>
</clipPath>
</defs>
<g xmlns="http://www.w3.org/2000/svg" id="512/Sword" clip-path="url(#clip8_268_10729)">
<g id="512/Sword_2" clip-path="url(#clip9_268_10729)">
<g id="512/Blade_9">
<path id="512/Vector_80" d="M4891.19 569.226C4900.83 572.696 4909.47 573.853 4918.17 574.869C4922.39 575.357 4924.93 573.275 4927.57 570.64C4974 524.13 5020.46 477.647 5066.9 431.177C5100.32 397.754 5131.61 368.419 5141.2 359.498C5132.27 369.1 5102.96 400.389 5069.52 433.799C5023.05 480.27 4976.56 526.714 4930.06 573.133C4927.43 575.769 4925.34 578.314 4925.83 582.53C4926.83 591.246 4927.98 599.872 4931.48 609.513C4934.79 606.196 4937.43 603.767 4939.83 601.131C4989.43 546.447 5038.69 491.479 5088.64 437.128C5127.74 394.579 5183.98 335.613 5220.56 280.556C5220.21 280.774 5219.84 280.993 5219.48 281.224C5219.71 280.864 5219.94 280.504 5220.15 280.144C5165.1 316.729 5106.14 372.97 5063.57 412.061C5009.22 462.016 4954.25 511.276 4899.57 560.87C4896.92 563.261 4894.49 565.922 4891.19 569.226Z" fill="white"/>
<path id="512/Vector_81" d="M4899.35 576.797C4905.75 577.594 4911.9 578.545 4918.08 579.021C4921.42 579.278 4921.8 581.219 4922.12 583.751C4922.86 589.665 4923.7 595.565 4924.52 601.555C4913.58 599.126 4904.52 590.269 4899.36 576.81L4899.35 576.797Z" fill="white"/>
</g>
<g id="512/Handle_8">
<path id="512/Vector_82" d="M4895.58 607.61C4891.1 603.124 4886.59 598.663 4882.13 594.151C4868.59 580.435 4866.56 559.533 4877.21 543.426C4878.87 540.919 4880.66 538.309 4883.66 537.242C4885.96 536.433 4888.68 536.021 4890.34 538.245C4892.09 540.585 4889.45 541.883 4888.28 543.413C4886.26 546.048 4883.95 548.49 4882.16 551.28C4876.25 560.51 4878.35 568.236 4888.35 572.452C4892.02 573.995 4894.08 576.103 4895.67 579.599C4900.46 589.986 4907.33 598.74 4917.77 603.908C4923.27 606.633 4927.37 609.654 4929.97 615.85C4933.13 623.357 4940.15 624.926 4947.52 621.288C4950.18 619.964 4952.56 617.997 4954.91 616.133C4957.39 614.166 4958.74 610.297 4962.73 611.042C4964.29 611.325 4964.46 613.369 4964.38 614.886C4964.18 618.948 4963.07 621.982 4958.95 624.412C4939.87 635.672 4921.06 633.654 4905.6 618.061C4902.19 614.629 4898.77 611.235 4895.35 607.816C4895.42 607.752 4895.48 607.687 4895.53 607.636L4895.58 607.61Z" fill="#878787"/>
<path id="512/Vector_83" d="M4800.91 740.774C4792.5 748.359 4782.37 751.187 4771.21 746.996C4759.45 742.587 4752.66 733.588 4752.15 720.991C4751.65 708.714 4757.81 699.857 4768.4 693.841C4771.51 692.067 4774.18 693.07 4777.02 694.137C4791.4 699.561 4800.91 709.82 4806.91 723.742C4810.1 731.146 4805.43 735.607 4800.92 740.787L4800.91 740.774ZM4792.85 707.699C4785.92 700.847 4775.6 700.937 4768.76 707.904C4762.27 714.525 4762.27 725.965 4768.74 732.419C4774.95 738.602 4787.24 738.396 4793.41 731.994C4799.91 725.271 4799.65 714.422 4792.85 707.699Z" fill="#878787"/>
<path id="512/Vector_84" d="M4890.98 634.811C4887.58 623.435 4883.5 614.141 4876.55 606.441C4874.89 604.602 4874.5 602.88 4876.39 600.964C4878.31 599.049 4880.18 598.098 4882.64 600.167C4889.61 606.004 4895.56 612.752 4901 619.99C4902.67 622.201 4902.04 623.782 4900.34 625.453C4897.56 628.204 4894.81 630.981 4890.97 634.824L4890.98 634.811Z" fill="#878787"/>
<path id="512/Vector_85" d="M4874.25 649.492C4872.68 640.725 4870.99 632.587 4868.64 623.525C4876.51 626.327 4886.83 624.155 4888.63 632.767C4890.49 641.727 4879.26 643.63 4874.26 649.479L4874.25 649.492Z" fill="#878787"/>
<path id="512/Vector_86" d="M4800.52 685.164C4800.34 685.241 4800.17 685.331 4800.01 685.421C4799.66 685.614 4799.35 685.845 4799.06 686.115C4797.64 687.427 4796.72 689.458 4795.6 691.116C4793.84 693.751 4796.05 695.165 4796.78 695.718C4797.51 696.271 4801.59 699.034 4802.14 699.536C4802.63 700.101 4805.3 703.547 4805.96 704.896C4806.62 706.246 4807.93 707.84 4810.56 706.079C4812.22 704.961 4814.26 704.048 4815.56 702.621C4815.83 702.351 4816.08 702.03 4816.26 701.67C4816.35 701.503 4816.44 701.336 4816.51 701.156C4816.55 701.04 4816.6 700.911 4816.64 700.796C4816.67 700.718 4816.69 700.641 4816.72 700.564C4817.63 697.492 4816.37 692.89 4813.18 689.316C4813.17 689.303 4813.16 689.265 4813.16 689.239C4813.03 689.111 4812.91 688.995 4812.8 688.879C4812.67 688.751 4812.55 688.635 4812.44 688.519C4812.43 688.506 4812.39 688.493 4812.36 688.493C4808.79 685.305 4804.19 684.046 4801.11 684.958C4801.04 684.984 4800.96 685.01 4800.88 685.036C4800.77 685.074 4800.64 685.1 4800.52 685.164Z" fill="#878787"/>
<path id="512/Vector_87" d="M4858.84 664.686C4857.56 658.233 4856.33 653.939 4855.99 649.569C4855.73 646.227 4850.89 641.509 4855.66 639.85C4860.41 638.205 4867.26 639.169 4870.83 643.141C4873.73 646.381 4872.46 651.613 4868.46 655.122C4865.55 657.667 4862.95 660.56 4858.83 664.673L4858.84 664.686Z" fill="#878787"/>
<path id="512/Vector_88" d="M4870.17 638.783C4860.85 637.639 4853.02 635.853 4843.25 636.752C4850.22 629.888 4853.52 619.617 4863.55 622.471C4869.55 624.18 4867.03 632.845 4870.17 638.783Z" fill="#878787"/>
<path id="512/Vector_89" d="M4859.36 619.54C4864.1 615.002 4866.61 605.811 4873.11 607.122C4879.61 608.42 4881.15 617.29 4885.34 624.386C4875.83 622.895 4867.97 620.285 4859.36 619.54Z" fill="#878787"/>
<path id="512/Vector_90" d="M4829.9 652.911C4833.12 649.093 4835.54 646.419 4837.74 643.578C4840.31 640.262 4843.62 638.102 4847.74 638.514C4852.57 639.002 4851.57 643.887 4852.91 646.921C4854.98 651.664 4855.14 654.916 4848 653.734C4842.53 652.821 4836.84 653.168 4829.91 652.898L4829.9 652.911Z" fill="#878787"/>
<path id="512/Vector_91" d="M4844.45 675.433C4843.1 669.995 4842.71 665.65 4840.94 661.974C4838.15 656.228 4840.37 654.852 4845.48 655.79C4849.33 656.485 4854.85 654.364 4856.48 659.673C4857.91 664.313 4854.24 667.386 4850.77 670.034C4848.91 671.461 4847.19 673.08 4844.45 675.433Z" fill="#878787"/>
<path id="512/Vector_92" d="M4818.43 667C4821.36 663.555 4823.31 661.035 4825.47 658.747C4828.07 655.996 4831.75 653.965 4835.05 655.623C4838.65 657.423 4838.78 662.128 4839.63 665.83C4840.26 668.594 4838.08 668.324 4836.23 668.195C4830.9 667.797 4825.56 667.476 4818.43 667Z" fill="#878787"/>
<path id="512/Vector_93" d="M4830.22 684.598C4828.67 683.801 4826.72 670.586 4827.85 670.458C4832.29 669.905 4837.74 669.031 4840.78 671.821C4844.97 675.677 4834.09 686.617 4830.22 684.624L4830.22 684.598Z" fill="#878787"/>
<path id="512/Vector_94" d="M4782.35 693.777C4796.64 694.008 4806.46 703.649 4807.45 718.625C4801.28 708.11 4793.81 698.97 4782.35 693.777Z" fill="#878787"/>
<path id="512/Vector_95" d="M4807.66 683.172C4807.25 683.017 4807.3 682.4 4807.75 682.336C4811.54 681.886 4816.53 682.04 4820 682.04C4822.47 682.04 4827.98 682.13 4827.83 686.475C4827.71 689.83 4818.27 694.921 4818.27 694.921C4818.27 694.921 4817.53 686.797 4807.66 683.172Z" fill="#878787"/>
<path id="512/Vector_96" d="M4809.3 678.852C4813.56 674.212 4815.69 668.71 4821.18 669.648C4826.31 670.535 4824.91 676.281 4826.71 681.217C4820.99 680.433 4816.14 679.778 4809.29 678.839L4809.3 678.852Z" fill="#878787"/>
<path id="512/Vector_97" d="M4791.33 709.601C4785.54 703.808 4776.14 703.808 4770.35 709.601C4764.56 715.394 4764.56 724.787 4770.35 730.58C4776.14 736.374 4785.54 736.374 4791.33 730.58C4797.12 724.787 4797.12 715.394 4791.33 709.601Z" fill="#878787"/>
</g>
</g>
</g>
</svg>
