<svg width="512" height="512" viewBox="0 0 512 512" fill="none" xmlns="http://www.w3.org/2000/svg">
  <path d="M238 96H274V448H238V96Z" fill="#151515"/>
  <path d="M176 74L210 132H188V238C188 260 204 278 238 286V324C176 312 148 278 148 238V132H126L176 74Z" fill="#151515"/>
  <path d="M256 48L306 132H284V276H228V132H206L256 48Z" fill="#151515"/>
  <path d="M336 74L386 132H364V238C364 278 336 312 274 324V286C308 278 324 260 324 238V132H302L336 74Z" fill="#151515"/>
  <path d="M252 86L282 132H262V420H250V132H230L252 86Z" fill="#878787"/>
</svg>
