<svg width="512" height="512" viewBox="256 1536 512 512" fill="none" xmlns="http://www.w3.org/2000/svg">
<defs xmlns="http://www.w3.org/2000/svg">
<clipPath id="clip0_268_10729">
<rect width="512" height="512" fill="white" transform="translate(256 256)"/>
</clipPath>
<clipPath id="clip1_268_10729">
<rect width="512" height="512" fill="white" transform="translate(896 256)"/>
</clipPath>
<clipPath id="clip2_268_10729">
<rect width="512" height="512" fill="white" transform="translate(1536 256)"/>
</clipPath>
<clipPath id="clip3_268_10729">
<rect width="512" height="512" fill="white" transform="translate(2176 256)"/>
</clipPath>
<clipPath id="clip4_268_10729">
<rect width="512" height="512" fill="white" transform="translate(2816 256)"/>
</clipPath>
<clipPath id="clip5_268_10729">
<rect width="512" height="512" fill="white" transform="translate(3456 256)"/>
</clipPath>
<clipPath id="clip6_268_10729">
<rect width="592.227" height="238.456" fill="white" transform="translate(3418.64 638.171) rotate(-45)"/>
</clipPath>
<clipPath id="clip7_268_10729">
<rect width="512" height="512" fill="white" transform="translate(4096 256)"/>
</clipPath>
<clipPath id="clip8_268_10729">
<rect width="512" height="512" fill="white" transform="translate(4736 256)"/>
</clipPath>
<clipPath id="clip9_268_10729">
<rect width="116.168" height="650.538" fill="white" transform="translate(4802 782) rotate(-135)"/>
</clipPath>
<clipPath id="clip10_268_10729">
<rect width="512" height="512" fill="white" transform="translate(5376 256)"/>
</clipPath>
<clipPath id="clip11_268_10729">
<rect width="512" height="512" fill="white" transform="translate(6016 256)"/>
</clipPath>
<clipPath id="clip12_268_10729">
<rect width="512" height="512" fill="white" transform="translate(4736 2816)"/>
</clipPath>
</defs>
<g xmlns="http://www.w3.org/2000/svg" id="512/War Hammer Type 01">
<g id="512/War Hammer Type 01_2">
<g id="512/Blade_27">
<path id="512/Vector_130" d="M662.7 1655.06L664.16 1653.5C664.28 1653.6 664.4 1653.7 664.52 1653.78C666.66 1655.36 669.66 1654.96 671.36 1652.92C717.62 1597.64 717.32 1581.88 717.32 1581.88C695.12 1588.14 650.84 1629.96 648.8 1633.1C646.76 1636.24 649.34 1639.9 649.34 1639.9L648 1641.34C637.74 1630.66 625.66 1623.36 625.66 1623.36L633.76 1614.66C634.64 1613.72 634.6 1612.22 633.64 1611.34L604.02 1583.76L606.22 1609.58L585.98 1609.42L587.34 1628.34L561.66 1629.26L591.28 1656.84C592.56 1658.04 594.58 1657.96 595.78 1656.68L606.6 1645.06C613.2 1657.24 620.98 1665.64 620.98 1665.64L615.38 1671.66C621.94 1679.16 629.44 1686.04 634.16 1689.88L639.48 1684.18C656.64 1694.14 672.2 1704.1 684.3 1714.72C703.14 1731.26 718.2 1756.92 718.2 1756.92C721.62 1709.32 662.76 1655.08 662.76 1655.08L662.7 1655.06ZM634.3 1670.16L633.9 1659.12L644.94 1658.72L645.34 1669.76L634.3 1670.16ZM688.16 1707.2C679.24 1697.76 669.72 1688.82 659.86 1680.4C659.86 1680.4 659.92 1680.34 659.98 1680.26C657.12 1680.46 654.24 1680.66 651.38 1680.8C648.3 1680.98 645.22 1681.16 642.12 1681.26C647.98 1680.44 653.84 1679.68 659.72 1679C658.34 1674.52 656.9 1670.04 655.6 1665.54C654.54 1661.56 652.66 1656.06 651.2 1652C641.98 1649.8 632.54 1647.2 623.48 1644.54C623.58 1651 623.58 1657.46 623.5 1663.92C622.96 1657.38 622.5 1650.84 622.14 1644.3L622.04 1644.4L592.44 1615.36L623.52 1642.82L623.32 1643.04C632.68 1645.2 642.28 1647.8 651.66 1649.9L703.12 1596.22L653.24 1651.36L655.36 1657.82C657.48 1664.8 659.24 1671.88 661.06 1678.94C661.16 1678.82 661.24 1678.72 661.24 1678.72C670.94 1687.5 680.22 1696.68 688.92 1706.44C697.44 1716.22 706.1 1726.4 711.12 1738.48C705.78 1726.56 696.88 1716.68 688.12 1707.18L688.16 1707.2Z" fill="white"/>
</g>
<g id="512/Handle_24">
<path id="512/Vector_131" d="M388.22 1935.44C389.32 1936.48 389.62 1938.04 389.58 1939.44C390.2 1940.46 390.88 1941.52 390.96 1941.78C391.66 1943.74 391.86 1943.9 391.96 1945.9C392.02 1947.4 391.84 1949.32 391.84 1950.62L631.16 1693.08C626.28 1689.08 618.92 1682.32 612.38 1674.86L371.72 1933.28C371.72 1933.28 368.16 1941.16 375.72 1948.72C378.42 1951.42 381.04 1952.56 383.28 1952.94C383.76 1951.58 384.14 1949.68 384.28 1948.88C384.44 1948.04 384.28 1944.74 383.74 1944.1C382.86 1943.92 382 1943.52 381.3 1942.86C379.24 1940.96 379.14 1937.74 381.04 1935.7C382.94 1933.66 386.16 1933.54 388.2 1935.44H388.22ZM607.56 1692.12C609.3 1690.26 612.2 1690.16 614.06 1691.88C615.92 1693.62 616.02 1696.52 614.3 1698.38C612.58 1700.24 609.66 1700.34 607.8 1698.62C605.94 1696.88 605.84 1693.98 607.56 1692.12ZM589.32 1712.02C591.06 1710.16 593.96 1710.06 595.82 1711.78C597.68 1713.52 597.78 1716.42 596.06 1718.28C594.34 1720.14 591.42 1720.24 589.56 1718.52C587.7 1716.78 587.6 1713.88 589.32 1712.02ZM572.14 1730.18C573.88 1728.32 576.78 1728.22 578.64 1729.94C580.5 1731.68 580.6 1734.58 578.88 1736.44C577.16 1738.3 574.24 1738.4 572.38 1736.68C570.52 1734.94 570.42 1732.04 572.14 1730.18ZM554.04 1749.62C555.78 1747.76 558.68 1747.66 560.54 1749.38C562.4 1751.12 562.5 1754.02 560.78 1755.88C559.04 1757.74 556.14 1757.84 554.28 1756.12C552.42 1754.4 552.32 1751.48 554.04 1749.62ZM535.14 1769.92C536.88 1768.06 539.78 1767.96 541.64 1769.68C543.5 1771.42 543.6 1774.32 541.88 1776.18C540.16 1778.04 537.24 1778.14 535.38 1776.42C533.52 1774.68 533.42 1771.78 535.14 1769.92ZM515.68 1790.82C517.42 1788.96 520.32 1788.86 522.18 1790.58C524.04 1792.32 524.14 1795.22 522.42 1797.08C520.68 1798.94 517.78 1799.04 515.92 1797.32C514.06 1795.58 513.96 1792.68 515.68 1790.82ZM497.36 1810.5C499.1 1808.64 502 1808.54 503.86 1810.26C505.72 1812 505.82 1814.9 504.1 1816.76C502.38 1818.62 499.46 1818.72 497.6 1817C495.74 1815.26 495.64 1812.36 497.36 1810.5ZM476.84 1832.54C478.58 1830.68 481.48 1830.58 483.34 1832.3C485.2 1834.04 485.3 1836.94 483.58 1838.8C481.84 1840.66 478.94 1840.76 477.08 1839.04C475.22 1837.3 475.12 1834.4 476.84 1832.54Z" fill="#878787"/>
<path id="512/Vector_132" d="M387.34 1938.4C389.26 1940.36 397.26 1948.28 378.56 1975.94C360.3 2002.94 342.28 2005.44 342.28 2005.44C342.28 2005.44 326.16 2010.06 317.8 1994.98C309.44 1979.9 328.42 1967.62 328.42 1967.62C328.42 1967.62 336.72 1962.8 345.42 1961.76C355.52 1960.56 370.9 1944.28 370.9 1944.28C370.9 1944.28 371.22 1946.16 373.1 1947.9C373.1 1947.9 362.72 1962.42 350.14 1965.82C337.56 1969.22 333.02 1970.14 325.8 1977.64C322.3 1981.26 321.92 1985.5 322.46 1988.9C323.2 1993.56 326.18 1997.66 330.58 1999.32C333.2 2000.3 336.66 2000.76 340.98 1999.58C351.84 1996.62 357.08 1992.02 367.34 1981.26C377.6 1970.5 389.54 1949.48 383.84 1942.32C382.7 1940.9 381.32 1942.04 381.04 1939.34C380.62 1935.22 384.58 1935.6 387.34 1938.42V1938.4Z" fill="#878787"/>
</g>
</g>
</g>
</svg>
