<svg width="512" height="512" viewBox="1536 1536 512 512" fill="none" xmlns="http://www.w3.org/2000/svg">
<defs xmlns="http://www.w3.org/2000/svg">
<clipPath id="clip0_268_10729">
<rect width="512" height="512" fill="white" transform="translate(256 256)"/>
</clipPath>
<clipPath id="clip1_268_10729">
<rect width="512" height="512" fill="white" transform="translate(896 256)"/>
</clipPath>
<clipPath id="clip2_268_10729">
<rect width="512" height="512" fill="white" transform="translate(1536 256)"/>
</clipPath>
<clipPath id="clip3_268_10729">
<rect width="512" height="512" fill="white" transform="translate(2176 256)"/>
</clipPath>
<clipPath id="clip4_268_10729">
<rect width="512" height="512" fill="white" transform="translate(2816 256)"/>
</clipPath>
<clipPath id="clip5_268_10729">
<rect width="512" height="512" fill="white" transform="translate(3456 256)"/>
</clipPath>
<clipPath id="clip6_268_10729">
<rect width="592.227" height="238.456" fill="white" transform="translate(3418.64 638.171) rotate(-45)"/>
</clipPath>
<clipPath id="clip7_268_10729">
<rect width="512" height="512" fill="white" transform="translate(4096 256)"/>
</clipPath>
<clipPath id="clip8_268_10729">
<rect width="512" height="512" fill="white" transform="translate(4736 256)"/>
</clipPath>
<clipPath id="clip9_268_10729">
<rect width="116.168" height="650.538" fill="white" transform="translate(4802 782) rotate(-135)"/>
</clipPath>
<clipPath id="clip10_268_10729">
<rect width="512" height="512" fill="white" transform="translate(5376 256)"/>
</clipPath>
<clipPath id="clip11_268_10729">
<rect width="512" height="512" fill="white" transform="translate(6016 256)"/>
</clipPath>
<clipPath id="clip12_268_10729">
<rect width="512" height="512" fill="white" transform="translate(4736 2816)"/>
</clipPath>
</defs>
<g xmlns="http://www.w3.org/2000/svg" id="512/War Hammer Type 03">
<g id="512/War Hammer Type 03_2">
<g id="512/Blade_29">
<path id="512/Vector_145" d="M1893.46 1660.34L1893.98 1660.92L1893.44 1660.36L1893.46 1660.34Z" fill="white"/>
<g id="512/Vector_146">
<path d="M1967.74 1671.54C1955.38 1681.2 1944.34 1692.56 1935.18 1705.36C1933.1 1704.86 1925.16 1702.42 1927.38 1694.26L1927.17 1693.92L1926.61 1693.22L1926 1692.44L1894.02 1660.96L1893.98 1660.92L1893.46 1660.34L1892.44 1659.2C1884.32 1661.32 1881.92 1653.4 1881.44 1651.34C1894.18 1642.18 1905.68 1631.28 1915.36 1618.88C1924.42 1620.72 1921.84 1630 1921.84 1630L1921.92 1630.1C1921.92 1630.1 1921.88 1630.14 1921.86 1630.16L1922.87 1631.41L1924.35 1633.2L1953.64 1662.24L1956.48 1665.08C1956.48 1665.08 1956.56 1665.02 1956.6 1664.98L1956.64 1665.02C1956.64 1665.02 1965.94 1662.46 1967.74 1671.54Z" fill="white"/>
<path d="M1929.54 1638.4C1934.3 1632.36 1939.02 1631.34 1942.8 1632.06C1942 1632.86 1942.08 1634.16 1943.04 1635.96C1943.78 1637.36 1945.02 1638.96 1946.52 1640.46C1948.32 1642.26 1951.4 1644.74 1953.52 1644.74C1953.98 1644.74 1954.38 1644.6 1954.74 1644.32C1955.3 1648.04 1954.14 1652.62 1948.28 1657.2C1945.29 1655.07 1929.75 1639.32 1929.54 1638.4Z" fill="white"/>
</g>
<path id="512/Vector_147" d="M2013.04 1713.7L2022.8 1703.98L2015.04 1696.2L2016.86 1694.4L1990.16 1667.62L1988.54 1669.26L1979.52 1660.22C1962.46 1677.24 1950.78 1690.33 1927.12 1713.94L1935.06 1721.9L1933.42 1723.52L1960.1 1750.28L1961.54 1748.84L1969.48 1756.8L1979.26 1747.04L1979.44 1747.22C1980.62 1748.42 1982.56 1748.44 1983.76 1747.24L2013.38 1717.7C2014.4 1716.7 2014.4 1715.06 2013.38 1714.04L2013.06 1713.7H2013.04ZM1994.98 1705.14C1994.98 1705.14 1984.66 1694.76 1980.84 1690.94L1968.82 1702.92L1963.36 1708.48L1958.1 1713.74L1953.64 1713.84C1953.64 1713.84 1975.5 1692.04 1979.78 1687.76L1980.86 1686.7L1981.92 1687.76C1984.24 1690.12 1993.64 1699.54 1993.64 1699.54L1999.2 1705.08L1994.98 1705.14Z" fill="white"/>
<path id="512/Vector_148" d="M1954.28 1641.9C1954.28 1641.58 1953.4 1639.32 1950.48 1636.38C1947.76 1633.66 1945.62 1632.7 1944.96 1632.68C1944.96 1633.34 1945.92 1635.5 1948.64 1638.22C1951.56 1641.16 1953.84 1642.02 1954.3 1641.9H1954.28Z" fill="white"/>
<path id="512/Vector_149" d="M1923.62 1609.98L1914.6 1600.92L1916.22 1599.3L1889.54 1572.54L1887.74 1574.36L1879.98 1566.58L1870.22 1576.3C1869.02 1575.12 1867.1 1575.12 1865.9 1576.3L1836.6 1605.5C1835.4 1606.7 1835.4 1608.64 1836.6 1609.84L1836.78 1610.02L1827.02 1619.76L1834.94 1627.7L1833.48 1629.14L1860.18 1655.92L1861.8 1654.3L1869.72 1662.24C1887.46 1644.57 1905.89 1627.64 1923.62 1609.98ZM1893.72 1609.48C1893.72 1609.48 1883.4 1599.1 1879.58 1595.28L1867.56 1607.28L1862.1 1612.82L1856.84 1618.08L1852.36 1618.18C1852.36 1618.18 1874.24 1596.38 1878.52 1592.1L1879.58 1591.04L1880.64 1592.12C1882.98 1594.46 1892.38 1603.88 1892.38 1603.88L1897.92 1609.44L1893.72 1609.48Z" fill="white"/>
<path id="512/Vector_150" d="M1913.54 1694.38H1913.56L1892.78 1673.52H1892.76L1888.6 1669.38C1888.6 1669.38 1883.32 1669 1883.06 1674.9L1887.26 1679.12L1907.94 1699.86L1912.14 1704.06C1918.04 1703.82 1917.68 1698.54 1917.68 1698.54L1913.52 1694.38H1913.54Z" fill="white"/>
<path id="512/Vector_151" d="M1893.96 1663.94C1893.96 1663.94 1888.26 1663.26 1888.48 1669.4L1917.66 1698.68C1923.82 1698.92 1923.14 1693.22 1923.14 1693.22L1893.96 1663.94Z" fill="white"/>
<path id="512/Vector_152" d="M1906.5 1701.26L1885.82 1680.52L1885.78 1680.56L1882.84 1677.62L1881.56 1678.94C1880.2 1680.34 1880.22 1682.58 1881.6 1683.96L1881.94 1684.3L1875.32 1690.9L1896.1 1711.74L1902.72 1705.14L1903.32 1705.76C1904.54 1707 1906.54 1707.02 1907.8 1705.8L1909.4 1704.26L1906.44 1701.3L1906.48 1701.26H1906.5Z" fill="white"/>
</g>
<g id="512/Handle_26">
<path id="512/Vector_153" d="M1674.92 1893.61L1618.17 1950.2L1636.02 1968.1L1692.77 1911.51L1674.92 1893.61Z" fill="#878787"/>
<path id="512/Vector_154" d="M1786.88 1781.94L1783.84 1784.96C1789.9 1791.18 1797.26 1796.96 1805.22 1799.46L1814.56 1790.16C1814.42 1790.16 1814.28 1790.16 1814.14 1790.16C1804.82 1790.16 1795.1 1786.38 1786.88 1781.94Z" fill="#878787"/>
<path id="512/Vector_155" d="M1595.44 1964.36L1588.24 1971.54C1588.24 1971.54 1580.74 1981.72 1591.64 1994.56C1604.46 2005.52 1614.64 1998.04 1614.64 1998.04L1621.84 1990.86L1595.44 1964.36Z" fill="#878787"/>
<path id="512/Vector_156" d="M1798.98 1805.7L1803.54 1801.14C1795.58 1798.4 1788.32 1792.64 1782.32 1786.48L1778.98 1789.8C1784.5 1795.98 1791.38 1802.16 1798.96 1805.68L1798.98 1805.7Z" fill="#878787"/>
<path id="512/Vector_157" d="M1604.94 1956.98L1603.88 1955.9C1603.88 1955.9 1597.34 1955.3 1596.84 1962.92L1601.04 1967.14L1619.04 1985.22L1623.24 1989.42C1630.62 1988.96 1630.32 1982.84 1630.28 1982.44L1604.9 1957L1604.94 1956.98Z" fill="#878787"/>
<path id="512/Vector_158" d="M1777.5 1791.3L1691.8 1876.76L1709.7 1894.72L1797.38 1807.3C1789.78 1803.62 1782.98 1797.44 1777.5 1791.3Z" fill="#878787"/>
<path id="512/Vector_159" d="M1870.58 1691.82C1870.08 1691.42 1869.36 1691.42 1868.9 1691.88L1867.14 1693.64C1865.8 1694.96 1865.8 1697.12 1867.14 1698.46L1868.88 1700.2L1788.46 1780.38C1797.12 1784.96 1807.34 1788.72 1816.78 1787.96L1886.78 1718.16L1888.78 1720.16C1889.98 1721.36 1891.9 1721.36 1893.1 1720.16L1894.82 1718.46C1895.44 1717.84 1895.46 1716.84 1894.9 1716.18L1870.62 1691.82H1870.58Z" fill="#878787"/>
<path id="512/Vector_160" d="M1612.46 1947.36C1612.46 1947.36 1605.38 1946.18 1605.36 1954.44L1631.78 1980.92C1640.04 1980.92 1638.88 1973.84 1638.88 1973.84L1612.46 1947.36Z" fill="#878787"/>
<path id="512/Vector_161" d="M1708.28 1896.12L1690.38 1878.18L1690.34 1878.22L1684.68 1872.54L1681.7 1872.82L1670.96 1883.54L1670.5 1886.34L1676.36 1892.2L1676.34 1892.22L1694.18 1910.12H1694.2L1700.06 1915.98L1702.86 1915.54L1713.62 1904.82L1713.88 1901.84L1708.24 1896.18L1708.28 1896.12Z" fill="#878787"/>
</g>
</g>
</g>
</svg>
