<svg width="512" height="512" viewBox="896 1536 512 512" fill="none" xmlns="http://www.w3.org/2000/svg">
<defs xmlns="http://www.w3.org/2000/svg">
<clipPath id="clip0_268_10729">
<rect width="512" height="512" fill="white" transform="translate(256 256)"/>
</clipPath>
<clipPath id="clip1_268_10729">
<rect width="512" height="512" fill="white" transform="translate(896 256)"/>
</clipPath>
<clipPath id="clip2_268_10729">
<rect width="512" height="512" fill="white" transform="translate(1536 256)"/>
</clipPath>
<clipPath id="clip3_268_10729">
<rect width="512" height="512" fill="white" transform="translate(2176 256)"/>
</clipPath>
<clipPath id="clip4_268_10729">
<rect width="512" height="512" fill="white" transform="translate(2816 256)"/>
</clipPath>
<clipPath id="clip5_268_10729">
<rect width="512" height="512" fill="white" transform="translate(3456 256)"/>
</clipPath>
<clipPath id="clip6_268_10729">
<rect width="592.227" height="238.456" fill="white" transform="translate(3418.64 638.171) rotate(-45)"/>
</clipPath>
<clipPath id="clip7_268_10729">
<rect width="512" height="512" fill="white" transform="translate(4096 256)"/>
</clipPath>
<clipPath id="clip8_268_10729">
<rect width="512" height="512" fill="white" transform="translate(4736 256)"/>
</clipPath>
<clipPath id="clip9_268_10729">
<rect width="116.168" height="650.538" fill="white" transform="translate(4802 782) rotate(-135)"/>
</clipPath>
<clipPath id="clip10_268_10729">
<rect width="512" height="512" fill="white" transform="translate(5376 256)"/>
</clipPath>
<clipPath id="clip11_268_10729">
<rect width="512" height="512" fill="white" transform="translate(6016 256)"/>
</clipPath>
<clipPath id="clip12_268_10729">
<rect width="512" height="512" fill="white" transform="translate(4736 2816)"/>
</clipPath>
</defs>
<g xmlns="http://www.w3.org/2000/svg" id="512/War Hammer Type 02">
<g id="512/War Hammer Type 02_2">
<g id="512/Blade_28">
<path id="512/Vector_133" d="M1229.9 1602.12L1221.88 1591.84L1226.72 1585.64C1227.78 1584.3 1227.54 1582.34 1226.18 1581.3L1191.28 1554.06L1192.06 1578.22C1164.68 1576.18 1174.34 1600.92 1174.34 1600.92L1151.9 1607.24L1186.38 1634.16C1187.34 1634.9 1188.7 1634.74 1189.44 1633.78L1193.8 1628.18C1200.16 1625.64 1205.64 1626.44 1209.7 1627.98L1229.9 1602.1V1602.12ZM1182.44 1605.94C1176.96 1607.4 1171.44 1608.74 1165.86 1609.86C1170.72 1607.84 1175.64 1606 1180.6 1604.28C1173.16 1589.64 1182.44 1581.38 1197.44 1582.7C1197.46 1577.4 1197.6 1572.12 1197.94 1566.82C1198.74 1572.86 1199.28 1578.92 1199.68 1585C1192.02 1584.44 1179.26 1585.86 1180.7 1596.26C1180.96 1599.4 1182.32 1602.6 1183.62 1605.6L1182.44 1605.92V1605.94Z" fill="white"/>
<path id="512/Vector_134" d="M1297.96 1637.34L1257.44 1605.72C1256.14 1604.7 1254.54 1604.16 1252.9 1604.16L1231.8 1604.22L1212.32 1629.18C1215.32 1630.76 1217.04 1632.46 1217.04 1632.46C1236.18 1647.4 1224.98 1662.96 1224.98 1662.96L1211.52 1679.26L1234.1 1696.88L1246.22 1680.9C1246.22 1680.9 1262.48 1666.72 1272.34 1673.82C1282.2 1680.92 1278.18 1699.22 1278.18 1699.22C1316.94 1704.1 1365.48 1748.64 1365.48 1748.64C1361.36 1716.24 1327.98 1671.12 1313.06 1652.32C1308.64 1646.74 1303.56 1641.74 1297.96 1637.36V1637.34ZM1239.88 1667.4C1235.74 1665.52 1235.06 1660.06 1238.62 1657.22C1240.3 1655.88 1242.7 1655.6 1244.64 1656.48C1248.78 1658.36 1249.46 1663.82 1245.9 1666.66C1244.22 1668 1241.82 1668.28 1239.88 1667.4ZM1284.9 1674.82C1279.42 1672 1278.52 1664.7 1283.16 1660.64C1285.72 1658.38 1289.58 1657.9 1292.62 1659.48C1298.1 1662.3 1299 1669.6 1294.36 1673.66C1291.8 1675.92 1287.94 1676.4 1284.9 1674.82ZM1301.22 1686C1297.08 1684.12 1296.4 1678.66 1299.96 1675.82C1301.64 1674.48 1304.04 1674.2 1305.98 1675.08C1310.12 1676.96 1310.8 1682.42 1307.24 1685.26C1305.56 1686.6 1303.16 1686.88 1301.22 1686ZM1312.04 1694.64C1310.44 1693.4 1310.16 1691.08 1311.4 1689.48C1312.64 1687.88 1314.96 1687.6 1316.56 1688.84C1318.16 1690.08 1318.44 1692.4 1317.2 1694C1315.96 1695.6 1313.64 1695.88 1312.04 1694.64ZM1349.92 1724.32C1324.36 1684.68 1303.5 1645.14 1262.82 1618.88C1262.16 1618.38 1258.24 1615.76 1258.24 1615.76C1279.24 1627.62 1298.84 1643.54 1313.7 1662.3C1324.98 1676.38 1333.44 1692.14 1342.12 1708.06C1345 1713.34 1349.02 1720.96 1351.14 1726.6L1349.94 1724.32H1349.92Z" fill="white"/>
</g>
<g id="512/Handle_25">
<path id="512/Vector_135" d="M987.3 1951.96C986.34 1951.22 984.96 1951.38 984.2 1952.32C978.24 1959.66 973.92 1965.02 971.98 1967.52C961.98 1980.48 969.42 1992.26 974.3 1997.78C976.1 1999.82 978.22 2001.6 980.54 2003.04C991.54 2009.86 999.3 2007.46 1005.64 2003.24C1008.04 2001.66 1011.38 1998.44 1013.08 1996.12L1023.08 1982.64C1023.8 1981.68 1023.62 1980.32 1022.66 1979.58L987.28 1951.98L987.3 1951.96Z" fill="#878787"/>
<path id="512/Vector_136" d="M1075.42 1908.44L1043.44 1883.48C1042.5 1882.74 1041.12 1882.9 1040.36 1883.82C1037.18 1887.68 1034.02 1891.52 1030.88 1895.34C1030.08 1896.3 1030.26 1897.72 1031.24 1898.48L1063.8 1923.9C1064.78 1924.66 1066.2 1924.48 1066.94 1923.48L1075.82 1911.5C1076.54 1910.54 1076.36 1909.18 1075.4 1908.44H1075.42Z" fill="#878787"/>
<path id="512/Vector_137" d="M1035.86 1961.78L1001.3 1934.8C1000.36 1934.06 998.98 1934.22 998.22 1935.16C994.84 1939.3 991.68 1943.16 988.78 1946.7C988 1947.66 988.16 1949.06 989.14 1949.84L1024.26 1977.24C1025.24 1978 1026.66 1977.82 1027.4 1976.82L1036.28 1964.84C1037 1963.88 1036.82 1962.52 1035.86 1961.78Z" fill="#878787"/>
<path id="512/Vector_138" d="M1049.04 1944L1015.32 1917.68C1014.38 1916.94 1013 1917.1 1012.24 1918.04C1008.96 1922.02 1005.8 1925.88 1002.78 1929.58C1002 1930.54 1002.16 1931.96 1003.14 1932.72L1037.44 1959.48C1038.42 1960.24 1039.84 1960.06 1040.58 1959.06L1049.46 1947.08C1050.18 1946.12 1050 1944.76 1049.04 1944.02V1944Z" fill="#878787"/>
<path id="512/Vector_139" d="M1164.3 1794.02C1161.52 1792.76 1155.42 1789.7 1148.42 1784.24C1143.64 1780.52 1138.46 1775.68 1133.62 1769.54L1133.78 1769.4C1116.12 1769.3 1119.46 1786.66 1119.66 1787.64C1131.24 1802.62 1144.38 1809.16 1150.24 1811.48C1166.04 1811.08 1165.62 1799.92 1164.28 1794.02H1164.3ZM1126.14 1783.1C1125.24 1782.4 1125.38 1780.68 1126.48 1779.28C1127.58 1777.88 1129.2 1777.32 1130.1 1778.02C1131 1778.72 1130.86 1780.44 1129.76 1781.84C1128.66 1783.24 1127.04 1783.8 1126.12 1783.1H1126.14ZM1139.54 1795.14C1138.16 1794.06 1137.92 1792.06 1139 1790.68C1140.08 1789.3 1142.08 1789.06 1143.46 1790.14C1144.84 1791.22 1145.08 1793.22 1144 1794.6C1142.92 1795.98 1140.92 1796.22 1139.54 1795.14ZM1153.84 1804.72C1152.94 1804.02 1153.1 1802.32 1154.2 1800.92C1155.3 1799.52 1156.92 1798.94 1157.8 1799.64C1158.68 1800.34 1158.54 1802.04 1157.44 1803.44C1156.34 1804.84 1154.72 1805.42 1153.84 1804.72Z" fill="#878787"/>
<path id="512/Vector_140" d="M1148.36 1813.76C1144.56 1812.2 1138.62 1809.26 1132.02 1804.12C1127.44 1800.54 1122.58 1795.84 1117.9 1789.88C1112.38 1796.56 1094.56 1818.1 1073.16 1844.08C1072.36 1845.04 1072.52 1846.48 1073.5 1847.24L1103.4 1870.58C1104.38 1871.34 1105.8 1871.16 1106.54 1870.16L1148.36 1813.78V1813.76Z" fill="#878787"/>
<path id="512/Vector_141" d="M1137.1 1769.34C1146.74 1780.98 1157.68 1787.56 1163.24 1790.38L1230.2 1705.74C1231.5 1704.1 1231.24 1701.7 1229.58 1700.38L1208.7 1683.74C1207.04 1682.42 1204.62 1682.7 1203.3 1684.38L1137.08 1769.34H1137.1Z" fill="#878787"/>
<path id="512/Vector_142" d="M1088.62 1890.66L1057.52 1866.4C1056.58 1865.66 1055.22 1865.8 1054.46 1866.74C1051.32 1870.56 1048.14 1874.4 1044.98 1878.26C1044.18 1879.22 1044.34 1880.64 1045.32 1881.42L1077 1906.16C1077.98 1906.92 1079.4 1906.74 1080.14 1905.74L1089.02 1893.76C1089.74 1892.8 1089.56 1891.44 1088.6 1890.7L1088.62 1890.66Z" fill="#878787"/>
<path id="512/Vector_143" d="M1062.24 1926.22L1029.38 1900.58C1028.44 1899.84 1027.06 1900 1026.3 1900.92C1023.08 1904.84 1019.92 1908.68 1016.82 1912.44C1016.02 1913.4 1016.2 1914.82 1017.18 1915.58L1050.62 1941.68C1051.6 1942.44 1053.02 1942.26 1053.76 1941.26L1062.64 1929.28C1063.36 1928.32 1063.18 1926.96 1062.22 1926.22H1062.24Z" fill="#878787"/>
<path id="512/Vector_144" d="M1101.8 1872.88L1071.6 1849.32C1070.66 1848.58 1069.3 1848.72 1068.54 1849.64C1065.42 1853.42 1062.26 1857.26 1059.06 1861.14C1058.26 1862.1 1058.42 1863.54 1059.4 1864.3L1090.2 1888.34C1091.18 1889.1 1092.6 1888.92 1093.34 1887.92L1102.22 1875.94C1102.94 1874.98 1102.76 1873.62 1101.8 1872.88Z" fill="#878787"/>
</g>
</g>
</g>
</svg>
