<svg width="512" height="512" viewBox="0 0 512 512" fill="none" xmlns="http://www.w3.org/2000/svg">
  <path d="M92 404L196 300L228 332L124 436L92 404Z" fill="#151515"/>
  <path d="M204 284C244 244 304 246 334 206C356 176 344 140 310 128C402 128 452 202 404 260C360 314 292 300 250 342L204 284Z" fill="#151515"/>
  <path d="M226 286C264 264 314 266 350 224C368 204 370 182 360 166C404 192 410 230 380 260C338 302 282 292 248 324L226 286Z" fill="#878787"/>
  <path d="M76 410L118 452L90 480L48 438L76 410Z" fill="#878787"/>
</svg>
