<svg width="512" height="512" viewBox="2176 2176 512 512" fill="none" xmlns="http://www.w3.org/2000/svg">
<defs xmlns="http://www.w3.org/2000/svg">
<clipPath id="clip0_268_10729">
<rect width="512" height="512" fill="white" transform="translate(256 256)"/>
</clipPath>
<clipPath id="clip1_268_10729">
<rect width="512" height="512" fill="white" transform="translate(896 256)"/>
</clipPath>
<clipPath id="clip2_268_10729">
<rect width="512" height="512" fill="white" transform="translate(1536 256)"/>
</clipPath>
<clipPath id="clip3_268_10729">
<rect width="512" height="512" fill="white" transform="translate(2176 256)"/>
</clipPath>
<clipPath id="clip4_268_10729">
<rect width="512" height="512" fill="white" transform="translate(2816 256)"/>
</clipPath>
<clipPath id="clip5_268_10729">
<rect width="512" height="512" fill="white" transform="translate(3456 256)"/>
</clipPath>
<clipPath id="clip6_268_10729">
<rect width="592.227" height="238.456" fill="white" transform="translate(3418.64 638.171) rotate(-45)"/>
</clipPath>
<clipPath id="clip7_268_10729">
<rect width="512" height="512" fill="white" transform="translate(4096 256)"/>
</clipPath>
<clipPath id="clip8_268_10729">
<rect width="512" height="512" fill="white" transform="translate(4736 256)"/>
</clipPath>
<clipPath id="clip9_268_10729">
<rect width="116.168" height="650.538" fill="white" transform="translate(4802 782) rotate(-135)"/>
</clipPath>
<clipPath id="clip10_268_10729">
<rect width="512" height="512" fill="white" transform="translate(5376 256)"/>
</clipPath>
<clipPath id="clip11_268_10729">
<rect width="512" height="512" fill="white" transform="translate(6016 256)"/>
</clipPath>
<clipPath id="clip12_268_10729">
<rect width="512" height="512" fill="white" transform="translate(4736 2816)"/>
</clipPath>
</defs>
<g xmlns="http://www.w3.org/2000/svg" id="512/Wolfsmesser">
<g id="512/Wolfsmesser_2">
<g id="512/Blade_34">
<path id="512/Vector_426" d="M2568.34 2286.34C2520.8 2330.98 2448.22 2410.14 2324.52 2534.02C2325.5 2535.56 2330.8 2543.42 2338.46 2548.9C2338.84 2549.18 2339.24 2549.42 2339.62 2549.66C2369.8 2520.04 2630.18 2263.76 2642.9 2228.14C2642.9 2228.14 2622.66 2235.36 2568.34 2286.34Z" fill="white"/>
</g>
<g id="512/Handle_37">
<path id="512/Vector_427" d="M2256.48 2606.5C2254.84 2609.4 2249.9 2605.38 2246.78 2605.26C2243.92 2605.16 2232.72 2608.78 2238.2 2622.4C2243.68 2636.02 2254.64 2635.96 2254.64 2635.96C2254.64 2635.96 2262.64 2633.14 2264.32 2624.54C2264.8 2622.02 2265.18 2620.5 2265.58 2619.62C2260.86 2616.48 2258.02 2611.76 2256.5 2606.5H2256.48Z" fill="#878787"/>
<path id="512/Vector_428" d="M2273.24 2586.58C2271.76 2587.76 2268.8 2588.22 2266.58 2588.54C2263.8 2588.94 2256.44 2588.06 2256.54 2597.36C2257.08 2601.36 2257.9 2605.42 2259.5 2609.14C2260.98 2612.6 2263.56 2616.12 2266.76 2618.56C2267.64 2618.54 2268.92 2619.38 2271.16 2619.82C2273.06 2620.2 2282.88 2618.14 2283.26 2605.04C2283.28 2604.16 2283.42 2603.46 2283.62 2602.9C2278.62 2598.74 2275.06 2592.88 2273.24 2586.58Z" fill="#878787"/>
<path id="512/Vector_429" d="M2294.44 2531.9C2294.24 2543.44 2300.76 2553.86 2307.8 2562.48C2316.88 2572.9 2329.08 2580.36 2342.52 2583.62C2343.22 2582.44 2350.04 2569.76 2336.82 2552.6C2336.6 2552.44 2336.36 2552.32 2336.14 2552.16C2328.68 2546.84 2323.46 2539.64 2321.64 2536.92C2321.6 2536.96 2321.56 2537 2321.52 2537.04C2321.52 2537.04 2307.6 2526.44 2296.4 2528.28H2294.6C2294.5 2529.48 2294.42 2530.7 2294.44 2531.9Z" fill="#878787"/>
<path id="512/Vector_430" d="M2289.1 2568.64C2285.1 2569.7 2279.66 2569.94 2275.98 2574.04C2272.62 2577.78 2273.84 2581.44 2274.1 2584C2274.2 2584.3 2274.26 2584.6 2274.36 2584.88C2276.5 2591.04 2279.86 2596.94 2284.48 2601.58C2285.68 2600.58 2287.54 2600.94 2289.18 2601.1C2291.78 2601.38 2300.74 2596.5 2299.84 2587.3C2295.14 2581.5 2291.58 2574.54 2289.1 2568.64Z" fill="#878787"/>
<path id="512/Vector_431" d="M2353.86 2588.02C2351.4 2586.16 2348.2 2585.04 2345.82 2584.42C2326.82 2582.56 2308.94 2570.86 2299.68 2554.16C2294.58 2546.66 2292.54 2537.16 2293.88 2528.24H2293.84C2293.84 2528.24 2284.02 2511.34 2272.92 2522.28C2261.82 2533.22 2276.9 2545.24 2279.52 2542.36C2283.38 2538.12 2287.2 2540.5 2287.2 2540.5C2287.2 2540.5 2288.34 2547.24 2291 2554.34C2294.9 2560.82 2303.64 2574.3 2312.9 2581.94C2318.28 2584.82 2331.24 2591.6 2335.98 2592.88C2335.98 2592.88 2343.36 2597.08 2339.92 2600.66C2337.36 2603.32 2345.78 2607.12 2350 2606.02C2361.78 2602.92 2358.98 2591.94 2353.82 2588.02H2353.86Z" fill="#878787"/>
<path id="512/Vector_432" d="M2300.92 2585.38C2302.84 2583.68 2306.84 2582 2309.02 2581.18C2302.3 2574.9 2296.2 2566.3 2292.14 2559.98C2292.34 2562.62 2292.22 2565.82 2290.86 2567.52C2293.22 2573.14 2296.58 2579.8 2300.92 2585.38Z" fill="#878787"/>
</g>
</g>
</g>
</svg>
