<svg width="512" height="512" viewBox="2816 256 512 512" fill="none" xmlns="http://www.w3.org/2000/svg">
<defs xmlns="http://www.w3.org/2000/svg">
<clipPath id="clip0_268_10729">
<rect width="512" height="512" fill="white" transform="translate(256 256)"/>
</clipPath>
<clipPath id="clip1_268_10729">
<rect width="512" height="512" fill="white" transform="translate(896 256)"/>
</clipPath>
<clipPath id="clip2_268_10729">
<rect width="512" height="512" fill="white" transform="translate(1536 256)"/>
</clipPath>
<clipPath id="clip3_268_10729">
<rect width="512" height="512" fill="white" transform="translate(2176 256)"/>
</clipPath>
<clipPath id="clip4_268_10729">
<rect width="512" height="512" fill="white" transform="translate(2816 256)"/>
</clipPath>
<clipPath id="clip5_268_10729">
<rect width="512" height="512" fill="white" transform="translate(3456 256)"/>
</clipPath>
<clipPath id="clip6_268_10729">
<rect width="592.227" height="238.456" fill="white" transform="translate(3418.64 638.171) rotate(-45)"/>
</clipPath>
<clipPath id="clip7_268_10729">
<rect width="512" height="512" fill="white" transform="translate(4096 256)"/>
</clipPath>
<clipPath id="clip8_268_10729">
<rect width="512" height="512" fill="white" transform="translate(4736 256)"/>
</clipPath>
<clipPath id="clip9_268_10729">
<rect width="116.168" height="650.538" fill="white" transform="translate(4802 782) rotate(-135)"/>
</clipPath>
<clipPath id="clip10_268_10729">
<rect width="512" height="512" fill="white" transform="translate(5376 256)"/>
</clipPath>
<clipPath id="clip11_268_10729">
<rect width="512" height="512" fill="white" transform="translate(6016 256)"/>
</clipPath>
<clipPath id="clip12_268_10729">
<rect width="512" height="512" fill="white" transform="translate(4736 2816)"/>
</clipPath>
</defs>
<g xmlns="http://www.w3.org/2000/svg" id="512/Zweililien" clip-path="url(#clip4_268_10729)">
<g id="512/Zweililien_2">
<g id="512/Blade_4">
<path id="512/Blade_5" d="M3203.89 369.194C3194.91 345.887 3175.1 360.211 3175.1 360.211C3175.1 360.211 3193.5 368.406 3188.84 378.903C3186.25 384.724 3181.93 384.765 3176.77 385.042C3174.94 385.134 3173.54 386.648 3173.48 388.49C3173.43 389.953 3173.17 391.753 3172.43 393.718C3171.01 397.472 3168.09 400.04 3164.09 404.184C3164.85 408.297 3172.21 416.932 3178.56 418.937C3183.63 414.19 3185.47 411.96 3188.72 410.476C3190.26 409.77 3192.56 409.269 3194.46 409.115C3195.94 409.003 3197.16 407.908 3197.54 406.466C3198.33 403.437 3200.32 398.976 3204.66 396.828C3210.25 394.055 3219.78 397.851 3227.18 412.308C3236.01 395.856 3225.17 387.487 3219.41 384.735C3234.3 379.588 3244.98 369.235 3259.31 351.832C3273.25 334.93 3278.34 326.704 3309.12 266.77C3267.42 304.349 3239.46 333.6 3203.88 369.183L3203.89 369.194ZM3216.21 380.039L3215.84 380.468C3212.71 380.591 3209.63 381.461 3206.72 382.586C3198 385.809 3191.11 395.416 3193.24 404.829C3187.44 401.278 3181.86 396.746 3178.93 390.454L3179.14 390.321C3180.84 392.899 3182.72 395.355 3185.04 397.329C3186.94 398.956 3189.02 400.347 3191.18 401.647C3190.7 395.702 3193.74 389.901 3197.77 385.707C3201.67 381.481 3207.17 379.271 3212.69 378.197C3213.29 378.085 3213.94 377.992 3214.57 377.931C3241.19 347.708 3269.74 313.127 3296.43 283.836C3273.12 311.726 3239.34 352.671 3216.21 380.039Z" fill="white"/>
<path id="512/Blade_6" d="M2937.71 654.426C2946.61 677.508 2966.21 663.327 2966.21 663.327C2966.21 663.327 2947.98 655.224 2952.6 644.809C2955.16 639.039 2959.45 639.008 2964.55 638.732C2966.36 638.64 2967.74 637.136 2967.81 635.315C2967.86 633.872 2968.11 632.081 2968.86 630.127C2970.15 626.69 2972.73 624.255 2976.24 620.664C2976.65 620.244 2976.48 619.559 2975.93 619.334C2969.93 617.001 2965.28 612.182 2963.17 606.35C2962.97 605.798 2962.28 605.603 2961.85 606.013C2957.51 610.126 2955.72 612.141 2952.72 613.522C2951.2 614.228 2948.93 614.719 2947.04 614.873C2945.56 614.996 2944.37 616.07 2943.99 617.492C2943.2 620.49 2941.22 624.92 2936.94 627.038C2931.39 629.78 2921.97 626.025 2914.63 611.711C2905.89 628.01 2916.63 636.297 2922.33 639.008C2907.58 644.093 2897.01 654.365 2882.81 671.594C2869 688.342 2863.95 696.486 2833.48 755.827C2874.77 718.606 2902.46 689.631 2937.71 654.385L2937.71 654.426ZM2925.5 643.673L2925.87 643.244C2928.96 643.121 2932.02 642.251 2934.9 641.146C2943.55 637.944 2950.36 628.449 2948.26 619.108C2954.01 622.628 2959.54 627.109 2962.44 633.35L2962.23 633.483C2960.54 630.936 2958.69 628.49 2956.39 626.536C2954.51 624.93 2952.46 623.549 2950.31 622.26C2950.78 628.153 2947.77 633.882 2943.78 638.056C2939.92 642.251 2934.47 644.42 2929 645.494C2928.39 645.607 2927.76 645.689 2927.14 645.76C2900.76 675.697 2872.5 709.95 2846.06 738.955C2869.14 711.332 2902.6 670.786 2925.5 643.673Z" fill="white"/>
</g>
<g id="512/Handle_5">
<path id="512/Vector_50" d="M3083.73 513.626L3083.68 513.677C3083.01 514.342 3082.05 514.526 3081.35 514.117C3079.05 512.756 3076.73 511.048 3074.61 508.93C3072.49 506.812 3070.77 504.459 3069.42 502.147C3069.02 501.461 3069.21 500.499 3069.87 499.834L3069.92 499.783C3070.82 498.893 3072.17 498.914 3072.73 499.824C3074.03 501.922 3075.62 504.05 3077.57 505.994C3079.51 507.937 3081.6 509.513 3083.71 510.823C3084.62 511.385 3084.63 512.726 3083.74 513.616L3083.73 513.626Z" fill="#878787"/>
<path id="512/Vector_51" d="M3070.33 527.223L3070.28 527.274C3069.62 527.939 3068.65 528.123 3067.96 527.714C3065.66 526.353 3063.33 524.645 3061.22 522.527C3059.1 520.409 3057.38 518.056 3056.03 515.744C3055.63 515.058 3055.81 514.097 3056.48 513.432L3056.53 513.38C3057.42 512.49 3058.77 512.511 3059.33 513.421C3060.63 515.519 3062.23 517.647 3064.17 519.591C3066.12 521.535 3068.2 523.11 3070.31 524.42C3071.22 524.983 3071.23 526.323 3070.34 527.213L3070.33 527.223Z" fill="#878787"/>
<path id="512/Vector_52" d="M3079.37 523.028C3076.84 525.566 3079.3 523.1 3079.3 523.1C3078.38 524.021 3075.36 525.975 3074.41 525.412C3071.25 523.54 3068.04 521.187 3065.13 518.281C3062.23 515.375 3059.85 512.122 3057.99 508.95C3057.44 508.009 3059.39 504.991 3060.31 504.07C3060.31 504.07 3057.29 507.098 3060.39 503.998C3063.49 500.898 3065.86 500.407 3066.64 501.656C3068.43 504.551 3070.62 507.457 3073.3 510.137C3075.98 512.818 3078.85 514.976 3081.74 516.777C3082.99 517.555 3081.94 520.481 3079.4 523.028L3079.37 523.028Z" fill="#878787"/>
<g id="512/Group_6">
<path id="512/Vector_53" d="M3124.58 443.819L3120.72 447.124C3119.23 448.413 3117.76 449.753 3116.36 451.134C3115.92 452.086 3115.47 453.048 3115.05 454.02C3112.74 459.422 3110.87 465.059 3110.08 470.88C3109.4 475.791 3109.46 481.019 3111.39 485.634L3122.57 476.047C3121.12 473.285 3120.34 470.256 3120.1 467.146C3119.43 459.156 3121.54 451.278 3124.57 443.809L3124.58 443.819Z" fill="#878787"/>
<path id="512/Vector_54" d="M3098.33 482.636C3097.72 487.107 3097.72 491.813 3099.17 496.11L3110.25 486.606C3109.17 484.171 3108.57 481.562 3108.34 478.902C3107.64 470.44 3110.03 462.092 3113.37 454.234C3112.72 454.94 3112.09 455.636 3111.46 456.362L3103.19 466.031C3100.92 471.341 3099.1 476.906 3098.32 482.646L3098.33 482.636Z" fill="#878787"/>
<path id="512/Vector_55" d="M3157.28 415.786L3148.51 423.306C3147.04 427.306 3145.9 431.419 3145.34 435.624C3144.65 440.668 3144.74 446.039 3146.82 450.735L3156.95 438.908C3156.05 436.678 3155.55 434.294 3155.35 431.89C3154.89 426.437 3155.74 421.024 3157.29 415.776L3157.28 415.786Z" fill="#878787"/>
<path id="512/Vector_56" d="M3100.23 469.499L3089.97 481.47C3088.41 485.654 3087.18 489.972 3086.58 494.402C3086.04 498.402 3085.97 502.617 3087.02 506.546L3098.01 497.134C3097.25 495.067 3096.79 492.888 3096.6 490.678C3096 483.465 3097.67 476.334 3100.23 469.52L3100.23 469.499Z" fill="#878787"/>
<path id="512/Vector_57" d="M3143.6 443.656C3143.08 437.404 3144.26 431.215 3146.25 425.25L3137.71 432.565C3135.79 437.333 3134.27 442.285 3133.59 447.39C3132.84 452.884 3132.99 458.767 3135.68 463.739C3135.93 463.443 3136.2 463.156 3136.46 462.849L3145.81 451.943C3144.56 449.354 3143.86 446.531 3143.63 443.656L3143.6 443.656Z" fill="#878787"/>
<path id="512/Vector_58" d="M3084.86 502.402C3084.36 496.356 3085.44 490.36 3087.31 484.57L3074.76 499.2C3074.76 499.2 3075.68 502.167 3078.52 505.001C3081.35 507.835 3084.36 508.797 3084.36 508.797L3085.81 507.549C3085.31 505.881 3084.99 504.152 3084.85 502.392L3084.86 502.402Z" fill="#878787"/>
<path id="512/Vector_59" d="M3159.42 413.944C3158.37 417.188 3157.53 420.503 3157.07 423.889C3156.44 428.462 3156.46 433.291 3158.03 437.66L3173.16 420.012C3173.16 420.012 3170.83 418.681 3167.83 415.684C3164.83 412.686 3163.57 410.415 3163.57 410.415L3159.43 413.955L3159.42 413.944Z" fill="#878787"/>
<path id="512/Vector_60" d="M3134.51 464.66C3132.92 461.805 3132.13 458.634 3131.86 455.401C3131.28 448.311 3132.87 441.292 3135.35 434.58L3127.07 441.671C3126.99 441.875 3126.89 442.059 3126.81 442.264C3124.49 447.666 3122.62 453.303 3121.83 459.125C3121.11 464.476 3121.25 470.185 3123.72 475.065L3127.21 472.067C3129.83 469.806 3132.33 467.392 3134.66 464.834C3134.61 464.783 3134.55 464.721 3134.5 464.65L3134.51 464.66Z" fill="#878787"/>
</g>
<g id="512/Group_7">
<path id="512/Vector_61" d="M3016.25 550.98L3012.4 554.284C3010.9 555.573 3009.44 556.914 3008.04 558.295C3007.6 559.246 3007.15 560.208 3006.73 561.18C3004.42 566.582 3002.54 572.219 3001.76 578.041C3001.08 582.952 3001.13 588.18 3003.06 592.794L3014.25 583.207C3012.79 580.445 3012.02 577.417 3011.77 574.306C3011.11 566.316 3013.21 558.438 3016.24 550.969L3016.25 550.98Z" fill="#878787"/>
<path id="512/Vector_62" d="M2990.01 589.807C2989.4 594.278 2989.4 598.984 2990.86 603.281L3001.94 593.776C3000.85 591.341 3000.25 588.732 3000.02 586.072C2999.32 577.611 3001.71 569.263 3005.05 561.405C3004.4 562.111 3003.77 562.807 3003.14 563.533L2994.87 573.201C2992.61 578.511 2990.78 584.077 2990 589.817L2990.01 589.807Z" fill="#878787"/>
<path id="512/Vector_63" d="M3048.96 522.956L3040.19 530.476C3038.73 534.477 3037.58 538.59 3037.02 542.795C3036.33 547.838 3036.43 553.21 3038.5 557.906L3048.63 546.079C3047.73 543.848 3047.23 541.465 3047.04 539.06C3046.57 533.607 3047.42 528.195 3048.97 522.946L3048.96 522.956Z" fill="#878787"/>
<path id="512/Vector_64" d="M2991.9 576.66L2981.65 588.63C2980.08 592.814 2978.85 597.132 2978.25 601.562C2977.71 605.562 2977.65 609.778 2978.69 613.706L2989.68 604.294C2988.92 602.227 2988.46 600.048 2988.28 597.838C2987.67 590.625 2989.34 583.494 2991.9 576.68L2991.9 576.66Z" fill="#878787"/>
<path id="512/Vector_65" d="M3035.28 550.816C3034.76 544.565 3035.93 538.375 3037.93 532.41L3029.39 539.725C3027.46 544.493 3025.95 549.445 3025.26 554.55C3024.52 560.044 3024.67 565.927 3027.35 570.899C3027.61 570.603 3027.87 570.316 3028.14 570.009L3037.49 559.103C3036.23 556.514 3035.53 553.691 3035.3 550.816L3035.28 550.816Z" fill="#878787"/>
<path id="512/Vector_66" d="M2976.52 609.573C2976.02 603.526 2977.11 597.531 2978.97 591.74L2966.42 606.371C2966.42 606.371 2967.35 609.338 2970.18 612.172C2973.01 615.006 2976.02 615.967 2976.02 615.967L2977.47 614.719C2976.97 613.051 2976.66 611.322 2976.51 609.563L2976.52 609.573Z" fill="#878787"/>
<path id="512/Vector_67" d="M3051.11 521.115C3050.06 524.358 3049.22 527.673 3048.76 531.06C3048.13 535.633 3048.15 540.462 3049.72 544.831L3064.85 527.182C3064.85 527.182 3062.52 525.852 3059.52 522.854C3056.52 519.856 3055.25 517.585 3055.25 517.585L3051.12 521.125L3051.11 521.115Z" fill="#878787"/>
<path id="512/Vector_68" d="M3026.17 571.831C3024.59 568.976 3023.79 565.804 3023.52 562.571C3022.94 555.481 3024.54 548.463 3027.01 541.751L3018.74 548.841C3018.65 549.046 3018.55 549.23 3018.47 549.435C3016.16 554.837 3014.28 560.474 3013.5 566.296C3012.77 571.646 3012.91 577.355 3015.38 582.236L3018.87 579.238C3021.5 576.977 3023.99 574.562 3026.33 572.004C3026.28 571.953 3026.21 571.892 3026.16 571.82L3026.17 571.831Z" fill="#878787"/>
</g>
</g>
</g>
</g>
</svg>
