<svg width="512" height="512" viewBox="6016 2176 512 512" fill="none" xmlns="http://www.w3.org/2000/svg">
<defs xmlns="http://www.w3.org/2000/svg">
<clipPath id="clip0_268_10729">
<rect width="512" height="512" fill="white" transform="translate(256 256)"/>
</clipPath>
<clipPath id="clip1_268_10729">
<rect width="512" height="512" fill="white" transform="translate(896 256)"/>
</clipPath>
<clipPath id="clip2_268_10729">
<rect width="512" height="512" fill="white" transform="translate(1536 256)"/>
</clipPath>
<clipPath id="clip3_268_10729">
<rect width="512" height="512" fill="white" transform="translate(2176 256)"/>
</clipPath>
<clipPath id="clip4_268_10729">
<rect width="512" height="512" fill="white" transform="translate(2816 256)"/>
</clipPath>
<clipPath id="clip5_268_10729">
<rect width="512" height="512" fill="white" transform="translate(3456 256)"/>
</clipPath>
<clipPath id="clip6_268_10729">
<rect width="592.227" height="238.456" fill="white" transform="translate(3418.64 638.171) rotate(-45)"/>
</clipPath>
<clipPath id="clip7_268_10729">
<rect width="512" height="512" fill="white" transform="translate(4096 256)"/>
</clipPath>
<clipPath id="clip8_268_10729">
<rect width="512" height="512" fill="white" transform="translate(4736 256)"/>
</clipPath>
<clipPath id="clip9_268_10729">
<rect width="116.168" height="650.538" fill="white" transform="translate(4802 782) rotate(-135)"/>
</clipPath>
<clipPath id="clip10_268_10729">
<rect width="512" height="512" fill="white" transform="translate(5376 256)"/>
</clipPath>
<clipPath id="clip11_268_10729">
<rect width="512" height="512" fill="white" transform="translate(6016 256)"/>
</clipPath>
<clipPath id="clip12_268_10729">
<rect width="512" height="512" fill="white" transform="translate(4736 2816)"/>
</clipPath>
</defs>
<g xmlns="http://www.w3.org/2000/svg" id="512/Zweihander">
<g id="512/Zweihander_2">
<g id="512/Handle_43">
<path id="512/Vector_484" d="M6102.18 2593.66C6101.88 2593.7 6101.6 2593.78 6101.32 2593.88C6099.54 2594.62 6092.86 2597.6 6096.64 2599.68C6096.64 2599.68 6107.52 2598.76 6116.28 2602.12C6117.2 2602.48 6118.2 2602.48 6119.08 2602C6120.06 2601.48 6121.36 2600.48 6122.64 2598.64C6123.92 2596.8 6122.96 2594.06 6120.74 2593.48C6117.76 2592.7 6112.28 2592.34 6102.2 2593.64L6102.18 2593.66Z" fill="#878787"/>
<path id="512/Vector_485" d="M6112.62 2584.58C6112.34 2584.64 6112.08 2584.72 6111.82 2584.84C6110.12 2585.62 6103.6 2588.84 6107.06 2590.58C6107.06 2590.58 6117.24 2589.08 6125.24 2591.66C6126.16 2591.96 6127.14 2591.92 6127.98 2591.44C6128.82 2590.96 6129.94 2590.1 6131.1 2588.64C6132.76 2586.56 6131.48 2583.44 6128.84 2583.14C6125.88 2582.8 6120.92 2583 6112.62 2584.6V2584.58Z" fill="#878787"/>
<path id="512/Vector_486" d="M6122.32 2574.62C6122.04 2574.68 6121.78 2574.76 6121.52 2574.88C6119.82 2575.66 6113.3 2578.88 6116.76 2580.62C6116.76 2580.62 6126.94 2579.12 6134.94 2581.7C6135.86 2582 6136.86 2581.96 6137.68 2581.48C6138.5 2581 6139.64 2580.14 6140.8 2578.68C6142.46 2576.6 6141.18 2573.48 6138.54 2573.18C6135.58 2572.84 6130.62 2573.04 6122.32 2574.64V2574.62Z" fill="#878787"/>
<path id="512/Vector_487" d="M6131.72 2564.76C6131.44 2564.82 6131.18 2564.9 6130.92 2565.02C6129.22 2565.8 6122.7 2569.02 6126.16 2570.76C6126.16 2570.76 6136.34 2569.26 6144.34 2571.84C6145.26 2572.14 6146.24 2572.1 6147.08 2571.62C6147.92 2571.14 6149.04 2570.28 6150.2 2568.82C6151.86 2566.74 6150.58 2563.62 6147.94 2563.32C6144.98 2562.98 6140.02 2563.18 6131.72 2564.78V2564.76Z" fill="#878787"/>
<path id="512/Vector_488" d="M6141.44 2554.08C6141.16 2554.14 6140.9 2554.22 6140.64 2554.34C6138.94 2555.12 6132.42 2558.34 6135.88 2560.08C6135.88 2560.08 6146.06 2558.58 6154.06 2561.16C6154.98 2561.46 6155.98 2561.42 6156.8 2560.94C6157.62 2560.46 6158.76 2559.6 6159.92 2558.14C6161.58 2556.06 6160.3 2552.94 6157.66 2552.64C6154.7 2552.3 6149.74 2552.5 6141.44 2554.1V2554.08Z" fill="#878787"/>
<path id="512/Vector_489" d="M6157.6 2543.12C6156.16 2543.34 6154.6 2543.6 6152.9 2543.94C6152.62 2544 6152.36 2544.08 6152.1 2544.2C6150.4 2544.98 6143.88 2548.2 6147.34 2549.94C6147.34 2549.94 6158.56 2548.28 6166.7 2551.44C6166.7 2551.44 6167.08 2551.36 6167.7 2551.08L6160.48 2544.08C6159.72 2543.34 6158.64 2543 6157.6 2543.16V2543.12Z" fill="#878787"/>
<path id="512/Vector_490" d="M6109.86 2611.94C6111.24 2611.12 6113.12 2609.42 6114.74 2605.9C6114.74 2605.9 6114.38 2602.3 6100.66 2603.02L6109.84 2611.94H6109.86Z" fill="#878787"/>
<path id="512/Vector_491" d="M6205.14 2567.2C6198.3 2562.62 6193.88 2562.46 6193.88 2562.46L6181.08 2549.44L6182.46 2548.02C6179.18 2541.78 6182.88 2528.4 6184.78 2522.48C6173.2 2529.1 6161.68 2527.14 6158.38 2526.38L6157.62 2527.14L6144.98 2514.38C6144.98 2514.38 6144.38 2512.2 6144 2511.02C6143.36 2509 6142.82 2506.88 6139.86 2502.62C6135.14 2495.92 6129.48 2496.4 6127.04 2497.8C6123.86 2499.62 6123.66 2502.52 6123.62 2504.82C6123.58 2507.14 6125.22 2510.8 6128.24 2513.44C6134.24 2518.7 6139.28 2518.98 6139.28 2518.98L6150.58 2530.66H6150.6L6179.22 2558.44L6189.06 2567.54C6189.06 2567.54 6190.7 2573.54 6196.26 2579.28C6201.8 2584.98 6206.24 2584.14 6208.26 2583.18C6210.36 2582.26 6211.54 2580.18 6211.72 2578.04C6211.9 2575.9 6211.98 2571.76 6205.16 2567.16L6205.14 2567.2ZM6138.02 2512.48C6136.46 2513.74 6132.72 2512.68 6130.42 2509.82C6128.12 2506.96 6128.14 2503.38 6129.7 2502.14C6131.26 2500.88 6134.38 2502.18 6136.68 2505.04C6138.98 2507.9 6139.58 2511.22 6138.02 2512.48ZM6175.4 2537.46C6173.16 2539.7 6170.32 2540.46 6169.04 2539.18C6167.76 2537.9 6168.52 2535.04 6170.76 2532.82C6173 2530.58 6175.84 2529.82 6177.12 2531.1C6178.4 2532.38 6177.64 2535.24 6175.4 2537.46ZM6206.96 2578.66C6205.64 2580.16 6202.34 2579.38 6199.6 2576.94C6196.86 2574.5 6195.72 2571.32 6197.04 2569.82C6198.36 2568.32 6201.66 2569.1 6204.4 2571.54C6207.14 2573.98 6208.28 2577.16 6206.96 2578.66Z" fill="#878787"/>
<path id="512/Vector_492" d="M6090.84 2597.7L6110.54 2617.4L6122.56 2619.44C6123.04 2619.44 6123.16 2620.12 6122.7 2620.28L6107.02 2625.56L6083.92 2602.46L6087.02 2585.26C6087.24 2584.7 6088.06 2584.8 6088.12 2585.4L6090.82 2597.72L6090.84 2597.7Z" fill="#878787"/>
<path id="512/Vector_493" d="M6082.76 2604.64L6104.38 2626.24C6104.38 2626.24 6093.12 2628.44 6090.92 2635.1C6088.64 2642 6071.38 2622.68 6073.1 2619.82C6074.82 2616.96 6080.04 2619.82 6082.76 2604.64Z" fill="#878787"/>
</g>
<g id="512/Blade_40">
<path id="512/Vector_494" d="M6450.32 2240.96L6162.24 2522.2C6166.74 2522.98 6177.8 2523.9 6188.18 2516.84L6190.74 2515.1L6189.68 2518.02C6187.66 2523.58 6183.56 2537.9 6186.06 2544.02L6465.06 2254.96C6482.3 2235.86 6483.96 2221.62 6483.96 2221.62C6475.02 2220.06 6450.32 2240.94 6450.32 2240.94V2240.96ZM6204.02 2516.78C6202.1 2512.9 6200.4 2509.68 6201.98 2503.92C6196.16 2505.28 6194.76 2505.86 6189.08 2503.38C6194.62 2504.06 6195.3 2504.36 6201.32 2501.62L6449.92 2255.66L6204.46 2504.36C6203.44 2506.26 6202.12 2509.34 6204.04 2516.78H6204.02Z" fill="white"/>
</g>
</g>
</g>
</svg>
